<?xml version="1.0" standalone="no"?>
<!DOCTYPE svg PUBLIC "-//W3C//DTD SVG 1.1//EN" "http://www.w3.org/Graphics/SVG/1.1/DTD/svg11.dtd" >
<svg>
<metadata>
Created by FontForge 20090914 at Thu Oct  6 17:15:54 2016
 By www-data
Copyright (c) 2003 by Bitstream, Inc. All Rights Reserved.
Copyright (c) 2006 by Tavmjong Bah. All Rights Reserved.
DejaVu changes are in public domain
</metadata>
<defs>
<font id="BPGPhoneSans" horiz-adv-x="1075" >
  <font-face 
    font-family="BPG Phone Sans"
    font-weight="400"
    font-stretch="normal"
    units-per-em="2048"
    panose-1="2 11 6 3 3 8 4 2 2 4"
    ascent="1556"
    descent="-492"
    x-height="1176"
    cap-height="1569"
    bbox="-393 -508 2665 1997"
    underline-thickness="90"
    underline-position="-84"
    unicode-range="U+0020-U+21E7"
  />
<missing-glyph horiz-adv-x="1290" 
d="M106 -381v1897h1076v-1897h-1076zM227 -260h836v1655h-836v-1655z" />
    <glyph glyph-name=".notdef" horiz-adv-x="1290" 
d="M106 -381v1897h1076v-1897h-1076zM227 -260h836v1655h-836v-1655z" />
    <glyph glyph-name="space" unicode=" " horiz-adv-x="684" 
 />
    <glyph glyph-name="exclam" unicode="!" horiz-adv-x="862" 
d="M324 266h215v-266h-215v266zM324 1569h215v-688l-23 -375h-170l-22 375v688z" />
    <glyph glyph-name="quotedbl" unicode="&#x22;" horiz-adv-x="989" 
d="M385 1569v-584h-178v584h178zM782 1569v-584h-178v584h178z" />
    <glyph glyph-name="numbersign" unicode="#" horiz-adv-x="1802" 
d="M1100 946h-305l-88 -350h307zM942 1542l-108 -434h305l110 434h168l-108 -434h327v-162h-368l-86 -350h334v-162h-375l-109 -434h-168l109 434h-307l-111 -434h-168l111 434h-332v162h369l90 350h-338v162h379l106 434h170z" />
    <glyph glyph-name="dollar" unicode="$" horiz-adv-x="1368" 
d="M727 -315l-104 0.00195312l-2 315c-74 1.33301 -147.5 9.83301 -220.5 25.5s-147.167 39.167 -222.5 70.5v191c72.667 -46.667 145.5 -81.167 218.5 -103.5s148.5 -33.5 226.5 -33.5v479c-156 24.667 -269.167 67 -339.5 127s-105.5 142.667 -105.5 248
c0 114.667 38.333 204.667 115 270s186.667 102.666 330 111.999v248h104v-243c64 -3.33301 126.833 -10.333 188.5 -21s121.167 -25.667 178.5 -45v-184c-57.333 30 -116.833 53.167 -178.5 69.5s-124.5 25.166 -188.5 26.499v-446
c158.667 -24.667 275.5 -68.834 350.5 -132.501s112.5 -150.167 112.5 -259.5c0 -117.333 -40 -210.166 -120 -278.499s-194.333 -107.833 -343 -118.5v-317zM623 809.002v430.001c-82 -9.33301 -144.167 -32.5 -186.5 -69.5s-63.5 -86.167 -63.5 -147.5
c0 -60 19.333 -106.833 58 -140.5s102.667 -57.834 192 -72.501zM727 606.003v-454c88.667 12 155.5 37.5 200.5 76.5s67.5 89.833 67.5 152.5c0 60 -21.5 108.5 -64.5 145.5s-110.833 63.5 -203.5 79.5z" />
    <glyph glyph-name="percent" unicode="%" horiz-adv-x="2044" 
d="M1563 690c-60 0 -107.5 -25.833 -142.5 -77.5s-52.5 -124.167 -52.5 -217.5c0 -91.333 17.5 -163 52.5 -215s82.5 -78 142.5 -78s107.333 26 142 78s52 123.667 52 215s-17.333 163.333 -52 216s-82 79 -142 79zM1563 823c110.667 0 198.666 -38.5 263.999 -115.5
s98 -181.167 98 -312.5c0 -130.667 -32.667 -234.334 -98 -311.001s-153.333 -115 -264 -115c-112 0 -200.5 38.333 -265.5 115s-97.5 180.334 -97.5 311.001c0 132.667 32.833 237.167 98.5 313.5s153.834 114.5 264.501 114.5zM478.999 1462
c-60 0 -106.999 -25.833 -140.999 -77.5s-51 -123.5 -51 -215.5c0 -92.667 16.667 -164.5 50 -215.5s80.666 -76.5 141.999 -76.5s109.5 25.5 144.5 76.5s52.5 122.833 52.5 215.5c0 90.667 -17.833 162.167 -53.5 214.5s-83.5 78.5 -143.5 78.5zM1427 1595h168l-981 -1626
h-168zM479 1595c110.667 0 199.167 -38.167 265.5 -114.5s99.5 -180.166 99.5 -311.499c0 -132 -32.833 -236.333 -98.5 -313s-154.5 -115 -266.5 -115c-110.667 0 -198.334 38.667 -263.001 116s-97 181.333 -97 312c0 131.333 32.333 235.166 97 311.499
s152.334 114.5 263.001 114.5z" />
    <glyph glyph-name="ampersand" unicode="&#x26;" horiz-adv-x="1677" 
d="M522 844c-64 -57.333 -110.667 -114 -140 -170s-44 -114.667 -44 -176c0 -104 37.167 -189.833 111.5 -257.5s167.5 -101.5 279.5 -101.5c65.333 0 127.5 11.333 186.5 34s113.5 55.667 163.5 99zM672 961l532 -545.001c41.333 61.333 73.5 127.5 96.5 198.5
s36.5 146.833 40.5 227.5h195c-6.66699 -93.333 -28.5 -185 -65.5 -275s-87.5 -179.333 -151.5 -268l293 -299h-266l-150 154c-72.667 -62 -148.834 -108.333 -228.501 -139s-165.167 -46 -256.5 -46c-169.333 0 -307.666 48.167 -414.999 144.5s-161 219.5 -161 369.5
c0 90 23.5 174.333 70.5 253s117.833 152.667 212.5 222c-34 44 -60 87.833 -78 131.5s-27 86.834 -27 129.501c0 113.333 39 204.333 117 273s181 103 309 103c58.667 0 117 -6 175 -18s116.667 -31 176 -57v-191c-60.667 32.667 -118.5 57.667 -173.5 75
s-106.5 26 -154.5 26c-74 0 -134.167 -19.167 -180.5 -57.5s-69.5 -88.833 -69.5 -151.5c0 -36 10.5 -72 31.5 -108s63.833 -86.667 128.5 -152z" />
    <glyph glyph-name="quotesingle" unicode="'" horiz-adv-x="592" 
d="M385 1569v-584h-178v584h178z" />
    <glyph glyph-name="parenleft" unicode="(" horiz-adv-x="840" 
d="M668 1632c-94.667 -160.667 -164.834 -319.832 -210.501 -477.499s-68.5 -317.167 -68.5 -478.5c0 -162.667 22.833 -323.167 68.5 -481.5s115.834 -318.166 210.501 -479.499h-168c-105.333 165.333 -184.333 327.5 -237 486.5s-79 317.167 -79 474.5
c0 155.333 26 312.166 78 470.499s131.333 320.166 238 485.499h168z" />
    <glyph glyph-name="parenright" unicode=")" horiz-adv-x="840" 
d="M172 1632l168 -0.00195312c105.333 -165.333 183.833 -327.166 235.5 -485.499s77.5 -315.166 77.5 -470.499c0 -157.333 -25.833 -315.5 -77.5 -474.5s-130.167 -321.167 -235.5 -486.5h-168c92.667 161.333 162 321.166 208 479.499s69 318.833 69 481.5
c0 161.333 -23 320.833 -69 478.5s-115.333 316.834 -208 477.501z" />
    <glyph glyph-name="asterisk" unicode="*" 
d="M1012 1309l-377 -203l377 -205l-62 -102l-352 213v-398h-121v398l-352 -213l-62 102l377 205l-377 203l62 104l352 -213v395h121v-395l352 213z" />
    <glyph glyph-name="plus" unicode="+" horiz-adv-x="1802" 
d="M989 1348v-584h586v-178h-586v-586h-176v586h-586v178h586v584h176z" />
    <glyph glyph-name="comma" unicode="," horiz-adv-x="684" 
d="M252 266h221v-180l-172 -336h-135l86 336v180z" />
    <glyph glyph-name="hyphen" unicode="-" horiz-adv-x="776" 
d="M104 676h568v-172h-568v172z" />
    <glyph glyph-name="period" unicode="." horiz-adv-x="684" 
d="M229 266h222v-266h-222v266z" />
    <glyph glyph-name="slash" unicode="/" horiz-adv-x="725" 
d="M547 1569h178l-547 -1770h-178z" />
    <glyph glyph-name="zero" unicode="0" horiz-adv-x="1368" 
d="M684 1427c-109.333 0 -191.666 -53.5 -246.999 -160.5s-83 -268.5 -83 -484.5c0 -214 27.667 -375 83 -483s137.666 -162 246.999 -162s191.666 54 246.999 162s83 269 83 483c0 216 -27.667 377.5 -83 484.5s-137.666 160.5 -246.999 160.5zM684 1595
c174.667 0 308.5 -69.167 401.5 -207.5s139.5 -340.166 139.5 -605.499c0 -264.667 -46.5 -466.334 -139.5 -605.001s-226.833 -208 -401.5 -208c-176 0 -310.5 69.333 -403.5 208s-139.5 340.334 -139.5 605.001c0 265.333 46.5 467.166 139.5 605.499
s227.5 207.5 403.5 207.5z" />
    <glyph glyph-name="one" unicode="1" horiz-adv-x="1368" 
d="M266 178h346v1196l-376 -76v195l374 76h213v-1391h346v-178h-903v178z" />
    <glyph glyph-name="two" unicode="2" horiz-adv-x="1368" 
d="M414 178h739.003v-178h-995v178l328.5 336l263.5 270c66.667 76.667 113.667 141.667 141 195s41 105.333 41 156c0 83.333 -29.333 151.166 -88 203.499s-135.334 78.5 -230.001 78.5c-65.333 0 -134.833 -11.5 -208.5 -34.5s-152.834 -57.833 -237.501 -104.5v215
c86 32.667 165.833 57.834 239.5 75.501s141.167 26.5 202.5 26.5c162.667 0 292.5 -40.5 389.5 -121.5s145.5 -189.167 145.5 -324.5c0 -64 -12.333 -125 -37 -183s-68.334 -126 -131.001 -204c-18 -20.667 -73.667 -79.5 -167 -176.5z" />
    <glyph glyph-name="three" unicode="3" horiz-adv-x="1368" 
d="M872 846c101.333 -22 180.669 -67.5029 238.002 -136.503s86 -153.167 86 -252.5c0 -156 -53.167 -276.333 -159.5 -361s-257.166 -127 -452.499 -127c-67.333 0 -135.833 6.5 -205.5 19.5s-141.167 32.5 -214.5 58.5v205c58.667 -34 123.167 -60 193.5 -78
s142.833 -27 217.5 -27c134 0 235.833 26.333 305.5 79s104.5 129.667 104.5 231c0 91.333 -32.333 163.333 -97 216s-155.334 79 -272.001 79h-182v174h193c103.333 0 182.666 20.833 237.999 62.5s83 101.167 83 178.5c0 80.667 -28.667 142.5 -86 185.5
s-139.333 64.5 -246 64.5c-57.333 0 -119 -6.16699 -185 -18.5s-139.333 -32.166 -220 -59.499v191c80.667 22 156.167 38.333 226.5 49s136.833 16 199.5 16c161.333 0 288.666 -36.5 381.999 -109.5s140 -171.5 140 -295.5c0 -87.333 -24.833 -160.666 -74.5 -219.999
s-120.5 -100.666 -212.5 -123.999z" />
    <glyph glyph-name="four" unicode="4" horiz-adv-x="1368" 
d="M813 1382l-537 -835h537v835zM758 1569h266v-1022h223v-176h-223v-371h-211v371h-709v202z" />
    <glyph glyph-name="five" unicode="5" horiz-adv-x="1368" 
d="M231 1569l833.998 0.000976562v-180h-639v-383c30 10.667 60.667 18.334 92 23.001s62 7 92 7c176 0 315 -47.667 417 -143s153 -225 153 -389c0 -169.333 -52.667 -300.833 -158 -394.5s-252.666 -140.5 -441.999 -140.5c-67.333 0 -135.166 5.5 -203.499 16.5
s-138.5 28.167 -210.5 51.5v213c62.667 -34 127.834 -59.667 195.501 -77s138.167 -26 211.5 -26c122 0 218.5 32.167 289.5 96.5s106.5 151.166 106.5 260.499s-35.5 195.666 -106.5 258.999s-167.5 95 -289.5 95c-56 0 -112.333 -6.5 -169 -19.5
s-114.334 -32.5 -173.001 -58.5v789z" />
    <glyph glyph-name="six" unicode="6" horiz-adv-x="1368" 
d="M711 868c-96 0 -172 -32.333 -228 -97s-84 -153.667 -84 -267s28 -202.833 84 -268.5s132 -98.5 228 -98.5c95.333 0 170.666 32.833 225.999 98.5s83 155.167 83 268.5s-27.667 202.333 -83 267s-130.666 97 -225.999 97zM1130 1534v-195
c-52.667 26 -106 45.5 -160 58.5s-107.667 19.5 -161 19.5c-140.667 0 -247.834 -47 -321.501 -141s-116.167 -236.667 -127.5 -428c42.667 60 95 106.333 157 139s130.667 49 206 49c156.667 0 280.834 -47.667 372.501 -143s137.5 -225 137.5 -389
c0 -162.667 -47.833 -292.5 -143.5 -389.5s-221.834 -145.5 -378.501 -145.5c-182 0 -321 69.333 -417 208s-144 340.334 -144 605.001c0 247.333 59 444.666 177 591.999s276 221 474 221c53.333 0 106.833 -5 160.5 -15s109.834 -25.333 168.501 -46z" />
    <glyph glyph-name="seven" unicode="7" horiz-adv-x="1368" 
d="M176 1569h1008v-92l-570 -1477h-221l537 1389h-754v180z" />
    <glyph glyph-name="eight" unicode="8" horiz-adv-x="1368" 
d="M684 743c-101.333 0 -181 -26.5 -239 -79.5s-87 -127.5 -87 -223.5c0 -94 29 -168 87 -222s137.667 -81 239 -81s181 27 239 81s87 128 87 222c0 96 -29 170.5 -87 223.5s-137.667 79.5 -239 79.5zM471 836c-90 21.333 -160.668 63.166 -212.001 125.499
s-77 138.5 -77 228.5c0 125.333 44.833 224.166 134.5 296.499s212.167 108.5 367.5 108.5c156 0 278.333 -36.167 367 -108.5s133 -171.166 133 -296.499c0 -90 -25.333 -166.167 -76 -228.5s-121 -104.166 -211 -125.499c102.667 -24.667 182.334 -71.5 239.001 -140.5
s85 -154.167 85 -255.5c0 -151.333 -46.5 -267.666 -139.5 -348.999s-225.5 -122 -397.5 -122c-173.333 0 -306.5 40.667 -399.5 122s-139.5 197.666 -139.5 348.999c0 101.333 28.667 186.5 86 255.5s137.333 115.833 240 140.5zM392.999 1169c0 -80 25.667 -143 77 -189
s122.666 -69 213.999 -69c90 0 161 23 213 69s78 109 78 189c0 80.667 -26 143.834 -78 189.501s-123 68.5 -213 68.5c-91.333 0 -162.666 -22.833 -213.999 -68.5s-77 -108.834 -77 -189.501z" />
    <glyph glyph-name="nine" unicode="9" horiz-adv-x="1368" 
d="M236 33l-0.00195312 192.001c52.667 -24.667 106.334 -43.834 161.001 -57.501s108.667 -20.5 162 -20.5c139.333 0 245.833 47.167 319.5 141.5s116.167 237.833 127.5 430.5c-41.333 -60 -93 -106.5 -155 -139.5s-130.667 -49.5 -206 -49.5
c-156.667 0 -280.834 47.5 -372.501 142.5s-137.5 225.167 -137.5 390.5c0 161.333 47.833 290.333 143.5 387s221.834 145 378.501 145c182 0 320.833 -69.167 416.5 -207.5s143.5 -340.166 143.5 -605.499c0 -246.667 -58.833 -443.834 -176.5 -591.501
s-275.5 -221.5 -473.5 -221.5c-53.333 0 -107.166 5.16699 -161.499 15.5s-110.833 26.5 -169.5 48.5zM656.998 696.001c96 0 172 32.833 228 98.5s84 155.167 84 268.5s-28 202.333 -84 267s-132 97 -228 97c-94 0 -169 -32.333 -225 -97s-84 -153.667 -84 -267
s28 -202.833 84 -268.5s131 -98.5 225 -98.5z" />
    <glyph glyph-name="colon" unicode=":" horiz-adv-x="725" 
d="M252 266h221v-266h-221v266zM252 1112h221v-266h-221v266z" />
    <glyph glyph-name="semicolon" unicode=";" horiz-adv-x="725" 
d="M252 1112h221v-266h-221v266zM252 266h221v-180l-172 -336h-135l86 336v180z" />
    <glyph glyph-name="less" unicode="&#x3c;" horiz-adv-x="1802" 
d="M1575 1059l-1086 -385l1086 -383v-193l-1348 490v174l1348 487v-190z" />
    <glyph glyph-name="equal" unicode="=" horiz-adv-x="1802" 
d="M227 977h1348v-176h-1348v176zM227 549h1348v-178h-1348v178z" />
    <glyph glyph-name="greater" unicode="&#x3e;" horiz-adv-x="1802" 
d="M227 1059v190l1348 -487v-174l-1348 -490v193l1082 383z" />
    <glyph glyph-name="question" unicode="?" horiz-adv-x="1141" 
d="M412 266h213v-266h-213v266zM616 422l-198.001 -0.00195312v162c0 69.333 9.5 126.833 28.5 172.5s59.833 98.5 122.5 158.5l97 95c39.333 36.667 67.833 71.334 85.5 104.001s26.5 66 26.5 100c0 63.333 -23.167 114 -69.5 152s-107.166 57 -182.499 57
c-54.667 0 -113.334 -12.167 -176.001 -36.5s-128 -59.833 -196 -106.5v197c66.667 39.333 133.834 68.833 201.501 88.5s136.834 29.5 207.501 29.5c130 0 233.833 -33.667 311.5 -101s116.5 -157 116.5 -269c0 -52 -12.667 -102.333 -38 -151s-69.333 -103 -132 -163
l-92 -90c-32.667 -32.667 -55.834 -58.167 -69.501 -76.5s-23.167 -36.5 -28.5 -54.5c-4 -14.667 -7.5 -32.667 -10.5 -54s-4.5 -49.666 -4.5 -84.999v-129z" />
    <glyph glyph-name="at" unicode="@" horiz-adv-x="2150" 
d="M801 563c0 -99.333 24.501 -177.333 73.501 -234s117.167 -85 204.5 -85c86 0 154 28.667 204 86s75 135 75 233c0 98.667 -25.667 177 -77 235s-119.333 87 -204 87s-151.834 -28.667 -201.501 -86s-74.5 -136 -74.5 -236zM1372 250
c-42 -53.333 -90.002 -92.9961 -144.002 -118.996s-117.333 -39 -190 -39c-120 0 -217.5 43.667 -292.5 131s-112.5 200.666 -112.5 339.999c0 140.667 37.5 254.667 112.5 342s172.5 131 292.5 131c72.667 0 136.334 -13 191.001 -39s102.334 -65.333 143.001 -118v137h150
v-772c102 14.667 182 61 240 139s87 179 87 303c0 75.333 -10.833 145.666 -32.5 210.999s-55.167 126 -100.5 182c-73.333 92 -162.333 162.5 -267 211.5s-218.334 73.5 -341.001 73.5c-86 0 -168.667 -11.667 -248 -35s-153 -57.333 -221 -102
c-109.333 -71.333 -194.666 -165 -255.999 -281s-92 -241.667 -92 -377c0 -110.667 20.167 -214.667 60.5 -312s97.833 -183 172.5 -257c74 -72.667 159.5 -128 256.5 -166s200.167 -57 309.5 -57c90 0 178.667 15.333 266 46s167 74 239 130l95 -117
c-87.333 -68 -182.666 -120.167 -285.999 -156.5s-208 -54.5 -314 -54.5c-130 0 -252.333 23.167 -367 69.5s-216.334 113.5 -305.001 201.5c-90 87.333 -158.667 188.666 -206 303.999s-71 238.333 -71 369c0 128.667 24 250.667 72 366s116.333 216.666 205 303.999
c90 88.667 194 156.5 312 203.5s243.333 70.5 376 70.5c147.333 0 284.5 -30.333 411.5 -91s234.167 -147 321.5 -259c52 -68 92 -142.333 120 -223s42 -164 42 -250c0 -184 -56 -329.333 -168 -436s-265.667 -162 -461 -166v162z" />
    <glyph glyph-name="A" unicode="A" horiz-adv-x="1470" 
d="M735 1360l-289 -780h578zM614 1569h242l596 -1569h-219l-143 401h-707l-143 -401h-224z" />
    <glyph glyph-name="B" unicode="B" horiz-adv-x="1475" 
d="M424 750v-576h340c113.333 0 197.666 23.5 252.999 70.5s83 119.833 83 218.5c0 96.667 -27.667 168.667 -83 216s-139.666 71 -252.999 71h-340zM424 1393v-471h313c104 0 181.167 19 231.5 57s75.5 97.333 75.5 178c0 79.333 -25.167 138.5 -75.5 177.5
s-127.5 58.5 -231.5 58.5h-313zM211 1569l543.002 -0.000976562c160.667 0 284.667 -33.833 372 -101.5s131 -163.5 131 -287.5c0 -96 -22.5 -172.333 -67.5 -229s-110.5 -91.667 -196.5 -105c105.333 -23.333 186.666 -70.5 243.999 -141.5s86 -159.833 86 -266.5
c0 -139.333 -47.833 -247.166 -143.5 -323.499s-230.834 -114.5 -405.501 -114.5h-563v1569z" />
    <glyph glyph-name="C" unicode="C" horiz-adv-x="1501" 
d="M1384 1448l-0.00195312 -225.003c-70.667 66.667 -146.667 116.334 -228 149.001s-167 49 -257 49c-178.667 0 -315.834 -54.5 -411.501 -163.5s-143.5 -267.5 -143.5 -475.5c0 -207.333 47.833 -365.666 143.5 -474.999s232.834 -164 411.501 -164
c90 0 175.667 16.833 257 50.5s157.333 83.167 228 148.5v-221c-73.333 -50.667 -151.666 -88.667 -234.999 -114s-170.666 -38 -261.999 -38c-238 0 -425.167 72.833 -561.5 218.5s-204.5 343.834 -204.5 594.501c0 251.333 68.167 449.666 204.5 594.999
s323.5 218 561.5 218c92.667 0 180.667 -12.167 264 -36.5s161 -61.166 233 -110.499z" />
    <glyph glyph-name="D" unicode="D" horiz-adv-x="1657" 
d="M424 1393v-1219h256c216 0 374.167 49.167 474.5 147.5s150.5 252.5 150.5 462.5c0 210.667 -50.167 364.834 -150.5 462.501s-258.5 146.5 -474.5 146.5h-256zM211 1569h436c303.333 0 526.333 -63.167 669 -189.5s214 -324.833 214 -595.5
c0 -268.667 -71.667 -466.5 -215 -593.5s-366 -190.5 -668 -190.5h-436v1569z" />
    <glyph glyph-name="E" unicode="E" horiz-adv-x="1360" 
d="M211 1569h991v-180h-778v-463h745v-178h-745v-570h797v-178h-1010v1569z" />
    <glyph glyph-name="F" unicode="F" horiz-adv-x="1237" 
d="M211 1569h901v-180h-688v-461h620v-178h-620v-750h-213v1569z" />
    <glyph glyph-name="G" unicode="G" horiz-adv-x="1665" 
d="M1280 223l0.000976562 421.999h-346v174h557v-674c-83.333 -57.333 -174.166 -101 -272.499 -131s-203.5 -45 -315.5 -45c-245.333 0 -437 71.667 -575 215s-207 342.666 -207 597.999c0 256.667 69 456.334 207 599.001s329.667 214 575 214
c102.667 0 199.667 -12.5 291 -37.5s176.666 -61.5 255.999 -109.5v-227c-79.333 66.667 -163 116.667 -251 150s-180.333 50 -277 50c-192.667 0 -337.167 -53.5 -433.5 -160.5s-144.5 -266.5 -144.5 -478.5c0 -211.333 48.167 -370.666 144.5 -477.999
s240.833 -161 433.5 -161c73.333 0 139.666 6.5 198.999 19.5s112.333 33.167 159 60.5z" />
    <glyph glyph-name="H" unicode="H" horiz-adv-x="1618" 
d="M211 1569h213v-643h770v643h213v-1569h-213v748h-770v-748h-213v1569z" />
    <glyph glyph-name="I" unicode="I" horiz-adv-x="635" 
d="M211 1569h213v-1569h-213v1569z" />
    <glyph glyph-name="J" unicode="J" horiz-adv-x="635" 
d="M211 1569h213v-1460c0 -188.667 -35.833 -325.667 -107.5 -411s-187.5 -128 -347.5 -128h-80v178h66c94 0 160.167 26.333 198.5 79s57.5 146.667 57.5 282v1460z" />
    <glyph glyph-name="K" unicode="K" horiz-adv-x="1409" 
d="M211 1569h213v-664l702 664h275l-778 -731l831 -838h-278l-752 756v-756h-213v1569z" />
    <glyph glyph-name="L" unicode="L" horiz-adv-x="1198" 
d="M211 1569h213v-1391h762v-178h-975v1569z" />
    <glyph glyph-name="M" unicode="M" horiz-adv-x="1855" 
d="M211 1569h315l402 -1067l401 1067h316v-1569h-207v1376l-404 -1075h-213l-403 1075v-1376h-207v1569z" />
    <glyph glyph-name="N" unicode="N" horiz-adv-x="1610" 
d="M211 1569h287l694 -1313v1313h207v-1569h-287l-694 1311v-1311h-207v1569z" />
    <glyph glyph-name="O" unicode="O" horiz-adv-x="1694" 
d="M848 1423c-154.667 0 -277.334 -57.333 -368.001 -172s-136 -271 -136 -469s45.333 -354.333 136 -469s213.334 -172 368.001 -172c152.667 0 274.167 57.333 364.5 172s135.5 271 135.5 469s-45.167 354.333 -135.5 469s-211.833 172 -364.5 172zM848 1595
c220 0 395.833 -73.667 527.5 -221s197.5 -344.666 197.5 -591.999c0 -246.667 -65.833 -443.834 -197.5 -591.501s-307.5 -221.5 -527.5 -221.5c-221.333 0 -397.833 73.833 -529.5 221.5s-197.5 344.834 -197.5 591.501c0 247.333 65.833 444.666 197.5 591.999
s308.167 221 529.5 221z" />
    <glyph glyph-name="P" unicode="P" horiz-adv-x="1296" 
d="M424 1393v-588h266c98.667 0 174.834 25.5 228.501 76.5s80.5 123.833 80.5 218.5c0 92.667 -26.833 164.667 -80.5 216s-129.834 77 -228.501 77h-266zM211 1569h479c174.667 0 307.167 -40 397.5 -120s135.5 -196.333 135.5 -349
c0 -156 -45.167 -273.167 -135.5 -351.5s-222.833 -117.5 -397.5 -117.5h-266v-631h-213v1569z" />
    <glyph glyph-name="Q" unicode="Q" horiz-adv-x="1694" 
d="M848 1423c-154.667 0 -277.334 -57.333 -368.001 -172s-136 -271 -136 -469s45.333 -354.333 136 -469s213.334 -172 368.001 -172c152.667 0 274.167 57.333 364.5 172s135.5 271 135.5 469s-45.167 354.333 -135.5 469s-211.833 172 -364.5 172zM1145 29l278 -305.001
h-256l-231 249l-53.5 -3c-12.333 -0.666992 -23.833 -1 -34.5 -1c-221.333 0 -397.833 73.833 -529.5 221.5s-197.5 344.834 -197.5 591.501c0 247.333 65.833 444.666 197.5 591.999s308.167 221 529.5 221c220 0 395.833 -73.667 527.5 -221
s197.5 -344.666 197.5 -591.999c0 -181.333 -36.833 -336.833 -110.5 -466.5s-179.5 -225.167 -317.5 -286.5z" />
    <glyph glyph-name="R" unicode="R" horiz-adv-x="1493" 
d="M954 735c46.667 -14.667 91.168 -47.332 133.501 -97.999s85.5 -120.334 129.5 -209.001l215 -428h-228l-200 401c-52 105.333 -102.333 175.5 -151 210.5s-115.334 52.5 -200.001 52.5h-229v-664h-213v1569h479c178.667 0 312.167 -37.667 400.5 -113
s132.5 -188.666 132.5 -339.999c0 -98 -23 -179.833 -69 -245.5s-112.667 -110.834 -200 -135.501zM424.001 1393v-555h266c102.667 0 179.834 23.5 231.501 70.5s77.5 116.167 77.5 207.5s-25.833 160.333 -77.5 207s-128.834 70 -231.501 70h-266z" />
    <glyph glyph-name="S" unicode="S" horiz-adv-x="1366" 
d="M1151 1516v-206.999c-80.667 38 -156.834 66.5 -228.501 85.5s-140.167 28.5 -205.5 28.5c-116 0 -205.5 -22.5 -268.5 -67.5s-94.5 -108.5 -94.5 -190.5c0 -68 20.833 -120.167 62.5 -156.5s120.5 -64.5 236.5 -84.5l129 -27c158.667 -30 275.5 -82.833 350.5 -158.5
s112.5 -177.834 112.5 -306.501c0 -151.333 -50.833 -266.333 -152.5 -345s-250.834 -118 -447.501 -118c-75.333 0 -154.5 8.5 -237.5 25.5s-169.833 42.167 -260.5 75.5v219c86 -49.333 170.333 -86.333 253 -111s164.334 -37 245.001 -37c120 0 213.167 24 279.5 72
s99.5 116.333 99.5 205c0 76 -23.5 136 -70.5 180s-124.5 76 -232.5 96l-129 27c-158.667 31.333 -273.5 80.5 -344.5 147.5s-106.5 160.5 -106.5 280.5c0 139.333 48.833 248.5 146.5 327.5s232.5 118.5 404.5 118.5c74 0 148.833 -6.5 224.5 -19.5
s153.834 -32.833 234.501 -59.5z" />
    <glyph glyph-name="T" unicode="T" horiz-adv-x="1315" 
d="M-6 1569h1327v-180h-557v-1389h-213v1389h-557v180z" />
    <glyph glyph-name="U" unicode="U" horiz-adv-x="1575" 
d="M186 1569h212.999v-955c0 -168 30.833 -288.833 92.5 -362.5s159.834 -110.5 294.501 -110.5c136.667 0 235.5 36.833 296.5 110.5s91.5 194.5 91.5 362.5v955h212v-979c0 -204.667 -50.5 -359.334 -151.5 -464.001s-250.5 -157 -448.5 -157s-347.5 52.333 -448.5 157
s-151.5 259.334 -151.5 464.001v979z" />
    <glyph glyph-name="V" unicode="V" horiz-adv-x="1470" 
d="M614 0l-598 1569h222l497 -1321l498 1321h219l-596 -1569h-242z" />
    <glyph glyph-name="W" unicode="W" horiz-adv-x="2126" 
d="M72 1569h215l327 -1325l330 1325h238l329 -1325l330 1325h215l-393 -1569h-268l-330 1362l-334 -1362h-266z" />
    <glyph glyph-name="X" unicode="X" horiz-adv-x="1473" 
d="M135 1569h227l392 -584l391 584h227l-504 -754l539 -815h-229l-441 668l-444 -668h-230l562 838z" />
    <glyph glyph-name="Y" unicode="Y" horiz-adv-x="1315" 
d="M-4 1569h227l434 -645l433 645h229l-555 -821v-748h-213v748z" />
    <glyph glyph-name="Z" unicode="Z" horiz-adv-x="1473" 
d="M121 1569h1231v-162l-992 -1229h1016v-178h-1280v162l991 1227h-966v180z" />
    <glyph glyph-name="bracketleft" unicode="[" horiz-adv-x="840" 
d="M184 1634h447v-149h-252v-1618h252v-152h-447v1919z" />
    <glyph glyph-name="backslash" unicode="\" horiz-adv-x="725" 
d="M178 1569l547 -1770h-178l-547 1770h178z" />
    <glyph glyph-name="bracketright" unicode="]" horiz-adv-x="840" 
d="M653 1634v-1919h-444v152h252v1618h-252v149h444z" />
    <glyph glyph-name="asciicircum" unicode="^" horiz-adv-x="1802" 
d="M1004 1569l571 -586h-211l-463 416l-463 -416h-211l572 586h205z" />
    <glyph glyph-name="underscore" unicode="_" 
d="M1096 -356v-152h-1116v152h1116z" />
    <glyph glyph-name="grave" unicode="`" 
d="M385 1720l297 -393h-162l-342 393h207z" />
    <glyph glyph-name="a" unicode="a" horiz-adv-x="1319" 
d="M737 592c-155.333 0 -263.333 -18.167 -324 -54.5s-91 -97.5 -91 -183.5c0 -68 22.833 -122.167 68.5 -162.5s106.5 -60.5 182.5 -60.5c108 0 194.5 37.833 259.5 113.5s97.5 177.167 97.5 304.5v43h-193zM1122 672l-0.00195312 -672.002h-192v178
c-45.333 -70.667 -100.666 -123.167 -165.999 -157.5s-146 -51.5 -242 -51.5c-120 0 -215.5 33.833 -286.5 101.5s-106.5 158.167 -106.5 271.5c0 132.667 44.333 232.334 133 299.001s220.334 100 395.001 100h273v21c0 88.667 -29.333 157.167 -88 205.5
s-140.667 72.5 -246 72.5c-66.667 0 -132.167 -8.16699 -196.5 -24.5s-125.833 -40.166 -184.5 -71.499v178c71.333 27.333 140 47.833 206 61.5s130.333 20.5 193 20.5c170.667 0 298 -44 382 -132s126 -221.333 126 -400z" />
    <glyph glyph-name="b" unicode="b" horiz-adv-x="1366" 
d="M1047 588c0 142 -29.5 253.167 -88.5 333.5s-138.833 120.5 -239.5 120.5c-102.667 0 -183.334 -40.167 -242.001 -120.5s-88 -191.5 -88 -333.5s29.333 -253.667 88 -335s139.334 -122 242.001 -122c100.667 0 180.5 40.667 239.5 122s88.5 193 88.5 335zM389 997
c41.333 70 93 122.001 155 156.001s136 51 222 51c143.333 0 259.333 -56.667 348 -170s133 -262 133 -446c0 -186 -44.333 -335.667 -133 -449s-204.667 -170 -348 -170c-86 0 -160 17.167 -222 51.5s-113.667 86.166 -155 155.499v-176h-194v1634h194v-637z" />
    <glyph glyph-name="c" unicode="c" horiz-adv-x="1182" 
d="M1049 1130l-0.000976562 -180c-54.667 30 -109.334 52.5 -164.001 67.5s-110 22.5 -166 22.5c-126 0 -223.667 -39.5 -293 -118.5s-104 -190.167 -104 -333.5s34.667 -255 104 -335s167 -120 293 -120c56 0 111.333 7.5 166 22.5s109.334 37.5 164.001 67.5v-178
c-53.333 -26 -109 -45.167 -167 -57.5s-120 -18.5 -186 -18.5c-176 0 -316.167 55.667 -420.5 167s-156.5 262 -156.5 452c0 190.667 52.5 341 157.5 451s249.833 165 434.5 165c58.667 0 116.334 -6.16699 173.001 -18.5s111.667 -30.833 165 -55.5z" />
    <glyph glyph-name="d" unicode="d" horiz-adv-x="1366" 
d="M977 997v636.999h192v-1634h-192v176c-41.333 -69.333 -93 -121.166 -155 -155.499s-136 -51.5 -222 -51.5c-143.333 0 -259.333 56.667 -348 170s-133 263 -133 449c0 184 44.333 332.667 133 446s204.667 170 348 170c86 0 160 -17 222 -51s113.667 -86 155 -156z
M317 587.999c0 -142 29.5 -253.667 88.5 -335s139.5 -122 241.5 -122c102.667 0 183.334 40.667 242.001 122s88 193 88 335s-29.333 253.167 -88 333.5s-139.334 120.5 -242.001 120.5c-102 0 -182.5 -40.167 -241.5 -120.5s-88.5 -191.5 -88.5 -333.5z" />
    <glyph glyph-name="e" unicode="e" horiz-adv-x="1323" 
d="M1208 637l-0.00292969 -93.9961h-889c10 -134 50.833 -235.833 122.5 -305.5s170.834 -104.5 297.501 -104.5c75.333 0 147.833 9.16699 217.5 27.5s138.5 46.166 206.5 83.499v-185c-69.333 -28.667 -140.166 -50.834 -212.499 -66.501s-146.166 -23.5 -221.499 -23.5
c-188.667 0 -337.5 54.667 -446.5 164s-163.5 256.666 -163.5 441.999c0 192.667 51.833 345.667 155.5 459s243.5 170 419.5 170c158.667 0 284 -50.833 376 -152.5s138 -239.834 138 -414.501zM1016 692.004c-1.33301 106.667 -31.002 191.334 -89.002 254.001
s-135 94 -231 94c-107.333 0 -193.166 -30.333 -257.499 -91s-101.166 -146.334 -110.499 -257.001h688z" />
    <glyph glyph-name="f" unicode="f" horiz-adv-x="758" 
d="M799 1634l-0.000976562 -161h-187c-68 0 -115.667 -14 -143 -42s-41 -78.333 -41 -151v-104h320v-150h-320v-1026h-195v1026h-184v150h184v81c0 131.333 30.833 227 92.5 287s157.834 90 288.501 90h185z" />
    <glyph glyph-name="g" unicode="g" horiz-adv-x="1366" 
d="M977 602c0 139.333 -29 247.5 -87 324.5s-139 115.5 -243 115.5c-103.333 0 -184.166 -38.5 -242.499 -115.5s-87.5 -185.167 -87.5 -324.5s29.167 -247.5 87.5 -324.5s139.166 -115.5 242.499 -115.5c104 0 185 38.5 243 115.5s87 185.167 87 324.5zM1169 145
c0 -199.333 -44.3311 -347.667 -132.998 -445s-224.334 -146 -407.001 -146c-68.667 0 -133.334 4.66699 -194.001 14s-119 25 -175 47v188c56 -31.333 112 -54.5 168 -69.5s112.667 -22.5 170 -22.5c125.333 0 219.833 33.5 283.5 100.5s95.5 166.833 95.5 299.5v96
c-39.333 -70 -90.5 -122 -153.5 -156s-137.5 -51 -223.5 -51c-144.667 0 -261 55 -349 165s-132 255.667 -132 437s44 327 132 437s204.333 165 349 165c86 0 160.5 -17 223.5 -51s114.167 -86 153.5 -156v179h192v-1031z" />
    <glyph glyph-name="h" unicode="h" horiz-adv-x="1364" 
d="M1180 711l-0.000976562 -711h-193v702c0 112 -21.833 195.667 -65.5 251s-108.5 83 -194.5 83c-105.333 0 -188 -33 -248 -99s-90 -156.333 -90 -271v-666h-194v1634h194v-641c46.667 71.333 101.334 124.333 164.001 159s135 52 217 52c135.333 0 237.5 -42 306.5 -126
s103.5 -206.333 103.5 -367z" />
    <glyph glyph-name="i" unicode="i" horiz-adv-x="598" 
d="M203 1176h192v-1176h-192v1176zM203 1634h192v-245h-192v245z" />
    <glyph glyph-name="j" unicode="j" horiz-adv-x="598" 
d="M203 1176l192.001 0.000976562v-1196c0 -150.667 -28.333 -259.334 -85 -326.001s-148.334 -100 -275.001 -100h-74v161h51c74 0 124.333 17.167 151 51.5s40 105.5 40 213.5v1196zM203.001 1634h192v-245h-192v245z" />
    <glyph glyph-name="k" unicode="k" horiz-adv-x="1245" 
d="M195 1634h194v-964l578 506h245l-622 -549l649 -627h-252l-598 573v-573h-194v1634z" />
    <glyph glyph-name="l" unicode="l" horiz-adv-x="598" 
d="M203 1634h192v-1634h-192v1634z" />
    <glyph glyph-name="m" unicode="m" horiz-adv-x="2095" 
d="M1118 950c49.333 86 107.498 149.833 174.498 191.5s146.167 62.5 237.5 62.5c121.333 0 215.5 -43 282.5 -129s100.5 -207.333 100.5 -364v-711h-195v702c0 113.333 -20.167 197.333 -60.5 252s-101.166 82 -182.499 82c-100 0 -179 -33 -237 -99s-87 -156.333 -87 -271
v-666h-195v702c0 114.667 -19.667 199 -59 253s-100.666 81 -183.999 81c-100 0 -179 -33.333 -237 -100s-87 -156.667 -87 -270v-666h-194v1176h194v-183c45.333 72.667 98.333 126 159 160s134 51 220 51c84.667 0 157 -21.833 217 -65.5s104.333 -106.5 133 -188.5z" />
    <glyph glyph-name="n" unicode="n" horiz-adv-x="1364" 
d="M1180 711l-0.000976562 -711h-193v702c0 112 -21.833 195.667 -65.5 251s-108.5 83 -194.5 83c-105.333 0 -188 -33 -248 -99s-90 -156.333 -90 -271v-666h-194v1176h194v-183c46.667 71.333 101.334 124.333 164.001 159s135 52 217 52c135.333 0 237.5 -42 306.5 -126
s103.5 -206.333 103.5 -367z" />
    <glyph glyph-name="o" unicode="o" horiz-adv-x="1317" 
d="M657 1040c-102 0 -183.333 -40.167 -244 -120.5s-91 -190.833 -91 -331.5s30 -251.667 90 -333s141.667 -122 245 -122c104 0 186 40.667 246 122s90 192.333 90 333c0 139.333 -30 249.5 -90 330.5s-142 121.5 -246 121.5zM657 1204c168 0 300.167 -54.5 396.5 -163.5
s144.5 -259.833 144.5 -452.5s-48.167 -344 -144.5 -454s-228.5 -165 -396.5 -165c-167.333 0 -298.833 55 -394.5 165s-143.5 261.333 -143.5 454s47.833 343.5 143.5 452.5s227.167 163.5 394.5 163.5z" />
    <glyph glyph-name="p" unicode="p" horiz-adv-x="1366" 
d="M389 176v-621.999h-194v1622h194v-179c41.333 70 93 122 155 156s136 51 222 51c143.333 0 259.333 -56.667 348 -170s133 -262 133 -446c0 -186 -44.333 -335.667 -133 -449s-204.667 -170 -348 -170c-86 0 -160 17.167 -222 51.5s-113.667 86.166 -155 155.499z
M1047 588.001c0 142 -29.5 253.167 -88.5 333.5s-138.833 120.5 -239.5 120.5c-102.667 0 -183.334 -40.167 -242.001 -120.5s-88 -191.5 -88 -333.5s29.333 -253.667 88 -335s139.334 -122 242.001 -122c100.667 0 180.5 40.667 239.5 122s88.5 193 88.5 335z" />
    <glyph glyph-name="q" unicode="q" horiz-adv-x="1366" 
d="M317 588c0 -142 29.5 -253.667 88.5 -335s139.5 -122 241.5 -122c102.667 0 183.334 40.667 242.001 122s88 193 88 335s-29.333 253.167 -88 333.5s-139.334 120.5 -242.001 120.5c-102 0 -182.5 -40.167 -241.5 -120.5s-88.5 -191.5 -88.5 -333.5zM977 176
c-41.333 -69.333 -93 -121.167 -155 -155.5s-136 -51.5 -222 -51.5c-143.333 0 -259.333 56.667 -348 170s-133 263 -133 449c0 184 44.333 332.667 133 446s204.667 170 348 170c86 0 160 -17 222 -51s113.667 -86 155 -156v179h192v-1622h-192v622z" />
    <glyph glyph-name="r" unicode="r" horiz-adv-x="885" 
d="M885 995c-22 12.667 -46 22 -72 28s-54 9 -84 9c-109.333 0 -193.333 -35.5 -252 -106.5s-88 -173.5 -88 -307.5v-618h-194v1176h194v-183c41.333 71.333 94.333 124.333 159 159s143.334 52 236.001 52c14 0 29.167 -1 45.5 -3s34.166 -4.33301 53.499 -7z" />
    <glyph glyph-name="s" unicode="s" horiz-adv-x="1120" 
d="M952 1141v-183.002c-54.667 28.667 -111.334 49.834 -170.001 63.501s-119.334 20.5 -182.001 20.5c-95.333 0 -167.333 -14.667 -216 -44s-73 -73.333 -73 -132c0 -44.667 17.5 -79.667 52.5 -105s103.5 -49.666 205.5 -72.999l68 -14c136.667 -30 234 -71.667 292 -125
s87 -128.333 87 -225c0 -108 -43.333 -194.167 -130 -258.5s-206 -96.5 -358 -96.5c-62.667 0 -128.167 6.16699 -196.5 18.5s-139.833 30.833 -214.5 55.5v201c70.667 -38.667 140.834 -67.167 210.501 -85.5s137.834 -27.5 204.501 -27.5c92 0 162.5 15.667 211.5 47
s73.5 75 73.5 131c0 52 -17.667 92 -53 120s-113.333 55.667 -234 83l-65 14c-120 26 -206.667 65 -260 117s-80 123.667 -80 215c0 110.667 39.167 196 117.5 256s189.166 90 332.499 90c72.667 0 140.334 -5 203.001 -15s120.667 -26 174 -48z" />
    <glyph glyph-name="t" unicode="t" horiz-adv-x="844" 
d="M393 1509v-333.001h400v-150h-400v-639c0 -95.333 13 -156.666 39 -183.999s80 -41 162 -41h199v-162h-199c-148.667 0 -251.667 28 -309 84s-86 157 -86 303v639h-142v150h142v333h194z" />
    <glyph glyph-name="u" unicode="u" horiz-adv-x="1364" 
d="M182 465l-0.000976562 711h195v-705c0 -112 21.5 -195.667 64.5 -251s108.167 -83 195.5 -83c104 0 186.333 33.5 247 100.5s91 157.833 91 272.5v666h192v-1176h-192v180c-48 -70.667 -102.667 -123.5 -164 -158.5s-133 -52.5 -215 -52.5
c-135.333 0 -238.166 42 -308.499 126s-105.5 207.333 -105.5 370z" />
    <glyph glyph-name="v" unicode="v" horiz-adv-x="1274" 
d="M63 1176h205l369 -988l367 988h204l-440 -1176h-262z" />
    <glyph glyph-name="w" unicode="w" horiz-adv-x="1759" 
d="M90 1176h193l241 -918l242 918h227l242 -918l240 918h192l-305 -1176h-229l-252 965l-254 -965h-230z" />
    <glyph glyph-name="x" unicode="x" horiz-adv-x="1274" 
d="M1180 1176l-424 -572l446 -604h-227l-342 463l-342 -463h-230l457 614l-418 562h230l309 -418l313 418h228z" />
    <glyph glyph-name="y" unicode="y" horiz-adv-x="1274" 
d="M692 -109c-54.667 -140 -107.835 -231.167 -159.502 -273.5s-121.167 -63.5 -208.5 -63.5h-154v159h113c52.667 0 93.834 12.667 123.501 38s62.834 85 99.501 179l35 88l-478 1158h205l369 -920l367 920h204z" />
    <glyph glyph-name="z" unicode="z" horiz-adv-x="1128" 
d="M119 1176h917v-177l-727 -845h727v-154h-944v176l727 846h-700v154z" />
    <glyph glyph-name="braceleft" unicode="{" horiz-adv-x="1368" 
d="M1100 -201v-149.001h-66c-174.667 0 -291.334 25.833 -350.001 77.5s-88 154.834 -88 309.501v252c0 104.667 -19.167 177.167 -57.5 217.5s-106.5 60.5 -204.5 60.5h-66v152h66c99.333 0 167.833 20.167 205.5 60.5s56.5 112.166 56.5 215.499v252
c0 154.667 29.333 257.834 88 309.501s175.334 77.5 350.001 77.5h66v-149h-72c-98 0 -162 -15.667 -192 -47s-45 -96.333 -45 -195v-260c0 -110.667 -16.167 -190.5 -48.5 -239.5s-86.5 -82.5 -162.5 -100.5c76 -19.333 130.167 -53.833 162.5 -103.5
s48.5 -129.167 48.5 -238.5v-260c0 -98 15 -162.833 45 -194.5s94 -47.5 192 -47.5h72z" />
    <glyph glyph-name="bar" unicode="|" horiz-adv-x="725" 
d="M451 1642v-2150h-179v2150h179z" />
    <glyph glyph-name="braceright" unicode="}" horiz-adv-x="1368" 
d="M268 -201l74 0.000976562c98 0 162.167 15.333 192.5 46s45.5 96 45.5 196v260c0 109.333 15.667 188.833 47 238.5s86 84.167 164 103.5c-78 18 -132.667 51.5 -164 100.5s-47 128.833 -47 239.5v260c0 100 -15.167 165.333 -45.5 196s-94.5 46 -192.5 46h-74v149h68
c173.333 0 289.333 -25.833 348 -77.5s88 -154.834 88 -309.501v-252c0 -103.333 18.833 -175.166 56.5 -215.499s106.167 -60.5 205.5 -60.5h66v-152h-66c-99.333 0 -167.833 -20.167 -205.5 -60.5s-56.5 -112.833 -56.5 -217.5v-252
c0 -154.667 -29.333 -257.834 -88 -309.501s-174.667 -77.5 -348 -77.5h-68v149z" />
    <glyph glyph-name="asciitilde" unicode="~" horiz-adv-x="1802" 
d="M1575 858l-0.000976562 -186.002c-74 -56 -142.333 -96 -205 -120s-128 -36 -196 -36c-76.667 0 -166.334 21.333 -269.001 64c-6.66699 2.66699 -12 4.66699 -16 6c-5.33301 1.33301 -13.666 4 -24.999 8c-108 42 -194.667 63 -260 63
c-61.333 0 -122 -13.167 -182 -39.5s-125 -69.166 -195 -128.499v189c74 54.667 142.333 94.334 205 119.001s128.334 37 197.001 37c76 0 165.333 -21.333 268 -64c6.66699 -2.66699 12 -4.66699 16 -6c6 -2.66699 14.333 -5.33398 25 -8.00098
c108 -44 194.667 -66 260 -66c60 0 119.667 13.333 179 40s125.333 69.334 198 128.001z" />
    <glyph glyph-name="nonbreakingspace" unicode="&#xa0;" horiz-adv-x="684" 
 />
    <glyph glyph-name="exclamdown" unicode="&#xa1;" horiz-adv-x="862" 
d="M539 1300h-215v269h215v-269zM539 0h-215v688l22 375h170l23 -375v-688z" />
    <glyph glyph-name="currency" unicode="&#xa4;" horiz-adv-x="1368" 
d="M936 1042l217.001 219.998l121 -121l-217 -215c26 -42.667 45.167 -84.834 57.5 -126.501s18.5 -83.5 18.5 -125.5c0 -45.333 -6.5 -88.166 -19.5 -128.499s-33.833 -80.166 -62.5 -119.499l219 -217l-119 -119l-217 217c-42.667 -27.333 -84 -47.833 -124 -61.5
s-81.333 -20.5 -124 -20.5c-40.667 0 -81.834 6.5 -123.501 19.5s-84.5 32.5 -128.5 58.5l-217 -217l-119 121l217 217c-26 42 -45.333 83.833 -58 125.5s-19 83.167 -19 124.5c0 43.333 6.83301 85.5 20.5 126.5s33.167 81.5 58.5 121.5l-217 215l121 120l217 -217
c40 27.333 80 47.5 120 60.5s82.667 19.5 128 19.5c42.667 0 84 -6.16699 124 -18.5s82 -32.166 126 -59.499zM969.001 675.998c0 78 -27.333 143.833 -82 197.5s-121.667 80.5 -201 80.5s-146.666 -26.833 -201.999 -80.5s-83 -119.5 -83 -197.5
c0 -80.667 27.667 -148.334 83 -203.001s122.666 -82 201.999 -82s146.333 27.333 201 82s82 122.334 82 203.001z" />
    <glyph glyph-name="brokenbar" unicode="&#xa6;" horiz-adv-x="725" 
d="M451 428v-797h-179v797h179zM451 1503v-794h-179v794h179z" />
    <glyph glyph-name="section" unicode="&#xa7;" 
d="M397 983c-43.333 -32.667 -76 -64.6689 -98 -96.002s-33 -62.666 -33 -93.999c0 -53.333 24.667 -103.666 74 -150.999s161.333 -118 336 -212c43.333 31.333 76 63 98 95s33 64.667 33 98c0 51.333 -25.333 101 -76 149s-162 118.333 -334 211zM870 1536
l0.000976562 -171.997c-58.667 27.333 -112.834 47.833 -162.501 61.5s-94.5 20.5 -134.5 20.5c-68 0 -120.833 -14 -158.5 -42s-56.5 -67.333 -56.5 -118c0 -62.667 72.333 -134.334 217 -215.001l41 -24c149.333 -83.333 246.833 -152 292.5 -206s68.5 -116.667 68.5 -188
c0 -62.667 -16 -118.167 -48 -166.5s-81 -91.833 -147 -130.5c44 -36.667 75.833 -73.834 95.5 -111.501s29.5 -78.834 29.5 -123.501c0 -100 -35.833 -179.333 -107.5 -238s-167.5 -88 -287.5 -88c-52 0 -105 5.16699 -159 15.5s-111.667 25.833 -173 46.5v172
c61.333 -27.333 117.666 -47.833 168.999 -61.5s97.333 -20.5 138 -20.5c72.667 0 128.834 14.667 168.501 44s59.5 70.666 59.5 123.999c0 70.667 -78 149 -234 235l-24 15c-150.667 84.667 -248.5 153.5 -293.5 206.5s-67.5 115.833 -67.5 188.5
c0 62.667 16.5 119.334 49.5 170.001s81.5 93 145.5 127c-42.667 30 -74.167 64.833 -94.5 104.5s-30.5 83.167 -30.5 130.5c0 92 35.167 165.5 105.5 220.5s163.5 82.5 279.5 82.5c50.667 0 102.5 -4.66699 155.5 -14s107.5 -24.333 163.5 -45z" />
    <glyph glyph-name="dieresis" unicode="&#xa8;" 
d="M637 1630h213v-213h-213v213zM225 1630h213v-213h-213v213z" />
    <glyph glyph-name="copyright" unicode="&#xa9;" horiz-adv-x="2150" 
d="M1075 1559c106.667 0 206 -19.167 298 -57.5s175.667 -95.833 251 -172.5c78 -76.667 135.667 -160.667 173 -252s56 -191 56 -299c0 -106.667 -18.667 -205.667 -56 -297s-95 -175.333 -173 -252c-75.333 -76 -159 -133.167 -251 -171.5s-191.333 -57.5 -298 -57.5
s-206 19.167 -298 57.5s-176.333 95.5 -253 171.5c-74.667 76.667 -131.167 160.667 -169.5 252s-57.5 190.333 -57.5 297c0 108 19.167 207.667 57.5 299s94.833 175.333 169.5 252c76.667 76.667 161 134.167 253 172.5s191.333 57.5 298 57.5zM1075 1450
c-91.333 0 -176.666 -16.334 -255.999 -49.001s-151.666 -82 -216.999 -148c-65.333 -65.333 -115.166 -138 -149.499 -218s-51.5 -165.667 -51.5 -257c0 -90 17.167 -175 51.5 -255s84.166 -152.667 149.499 -218s137.666 -114.833 216.999 -148.5
s164.666 -50.5 255.999 -50.5c92.667 0 178.667 16.833 258 50.5s151.666 83.167 216.999 148.5c66 65.333 115.333 137.333 148 216s49 164.334 49 257.001c0 93.333 -16.667 179.5 -50 258.5s-82.333 151.167 -147 216.5c-65.333 66 -137.666 115.333 -216.999 148
s-165.333 49 -258 49zM1389 1194l0.00195312 -135.002c-45.333 23.333 -90.833 40.333 -136.5 51s-91.834 16 -138.501 16c-104 0 -185.333 -30.667 -244 -92s-88 -146.666 -88 -255.999c0 -112 30.167 -198.333 90.5 -259s144.166 -91 251.499 -91
c45.333 0 89.5 5.5 132.5 16.5s87.167 28.833 132.5 53.5v-136c-46.667 -18.667 -93.834 -33.167 -141.501 -43.5s-96.167 -15.5 -145.5 -15.5c-152 0 -272 42.667 -360 128s-132 201 -132 347s44 261.333 132 346s208 127 360 127c50.667 0 99.834 -4.66699 147.501 -14
s94.167 -23.666 139.5 -42.999z" />
    <glyph glyph-name="guillemotleft" unicode="&#xab;" horiz-adv-x="1317" 
d="M1114 1112v-201l-315 -280l315 -283v-201l-491 441v86zM657 1112v-201l-315 -280l315 -283v-201l-491 441v86z" />
    <glyph glyph-name="logicalnot" unicode="&#xac;" horiz-adv-x="1802" 
d="M227 905h1348v-604h-176v426h-1172v178z" />
    <glyph glyph-name="sfthyphen" unicode="&#xad;" horiz-adv-x="776" 
d="M104 676h568v-172h-568v172z" />
    <glyph glyph-name="registered" unicode="&#xae;" horiz-adv-x="2150" 
d="M1075 1450c-91.333 0 -176.666 -16.334 -255.999 -49.001s-151.666 -82 -216.999 -148c-65.333 -65.333 -115.166 -138 -149.499 -218s-51.5 -165.667 -51.5 -257c0 -90 17.167 -175 51.5 -255s84.166 -152.667 149.499 -218s137.666 -114.833 216.999 -148.5
s164.666 -50.5 255.999 -50.5c92.667 0 178.667 16.833 258 50.5s151.666 83.167 216.999 148.5c66 65.333 115.333 137.333 148 216s49 164.334 49 257.001c0 93.333 -16.667 179.5 -50 258.5s-82.333 151.167 -147 216.5c-65.333 66 -137.666 115.333 -216.999 148
s-165.333 49 -258 49zM1075 1559c106.667 0 206 -19.167 298 -57.5s175.667 -95.833 251 -172.5c78 -76.667 135.667 -160.667 173 -252s56 -191 56 -299c0 -106.667 -18.667 -205.667 -56 -297s-95 -175.333 -173 -252c-75.333 -76 -159 -133.167 -251 -171.5
s-191.333 -57.5 -298 -57.5s-206 19.167 -298 57.5s-176.333 95.5 -253 171.5c-74.667 76.667 -131.167 160.667 -169.5 252s-57.5 190.333 -57.5 297c0 108 19.167 207.667 57.5 299s94.833 175.333 169.5 252c76.667 76.667 161 134.167 253 172.5s191.333 57.5 298 57.5z
M1047 1124h-129v-288h129c76 0 129.333 10.5 160 31.5s46 58.167 46 111.5s-15.333 90.833 -46 112.5s-84 32.5 -160 32.5zM1055 1233c122.667 0 214.333 -20.833 275 -62.5s91 -104.834 91 -189.501c0 -60 -18.333 -109.833 -55 -149.5s-88.667 -64.834 -156 -75.501
c18 -5.33301 38.667 -21.666 62 -48.999s50.666 -66.333 81.999 -117l143 -236h-178l-137 219c-41.333 68.667 -74.666 111.834 -99.999 129.501s-57 26.5 -95 26.5h-69v-375h-162v879h299z" />
    <glyph glyph-name="macron" unicode="&#xaf;" 
d="M223 1602h629v-154h-629v154z" />
    <glyph glyph-name="degree" unicode="&#xb0;" 
d="M539 1460c-56 0 -103.499 -19.5 -142.499 -58.5s-58.5 -86.167 -58.5 -141.5c0 -54.667 19.5 -101.167 58.5 -139.5s86.5 -57.5 142.5 -57.5s103 19.167 141 57.5s57 84.833 57 139.5c0 55.333 -19.333 102.5 -58 141.5s-85.334 58.5 -140.001 58.5zM539.001 1595
c43.333 0 85.835 -8.50195 127.502 -25.502s77.5 -41.833 107.5 -74.5c31.333 -30 55.166 -65.167 71.499 -105.5s24.5 -83.5 24.5 -129.5c0 -93.333 -32.333 -171.666 -97 -234.999s-144 -95 -238 -95c-94.667 0 -173.334 31.333 -236.001 94s-94 141.334 -94 236.001
c0 94 32 173.333 96 238s143.333 97 238 97z" />
    <glyph glyph-name="plusminus" unicode="&#xb1;" horiz-adv-x="1802" 
d="M989 1348v-406h586v-178h-586v-408h-176v408h-586v178h586v406h176zM227 178h1348v-178h-1348v178z" />
    <glyph glyph-name="acute" unicode="&#xb4;" 
d="M684 1720h209l-342 -395h-162z" />
    <glyph glyph-name="paragraph" unicode="&#xb6;" horiz-adv-x="1368" 
d="M666 1569h469v-1776h-148v1645h-201v-1645h-147v889c-150 10.667 -266.333 55 -349 133s-124 181 -124 309c0 132.667 45.333 240 136 322s212 123 364 123z" />
    <glyph glyph-name="periodcentered" unicode="&#xb7;" horiz-adv-x="684" 
d="M229 881h222v-269h-222v269z" />
    <glyph glyph-name="onesuperior" unicode="&#xb9;" horiz-adv-x="862" 
d="M164 817h215v641l-236 -43v121l242 43h143v-762h215v-117h-579v117z" />
    <glyph glyph-name="ordmasculine" unicode="&#xba;" horiz-adv-x="1014" 
d="M145 623h723v-131h-723v131zM508 1595c124 0 222.167 -38.5 294.5 -115.5s108.5 -182.5 108.5 -316.5c0 -133.333 -36.167 -238.333 -108.5 -315s-170.5 -115 -294.5 -115c-126 0 -225.5 38.667 -298.5 116s-109.5 182 -109.5 314c0 134 36.5 239.5 109.5 316.5
s172.5 115.5 298.5 115.5zM508 1475c-74 0 -133.167 -28 -177.5 -84s-66.5 -132 -66.5 -228c0 -92.667 22.167 -167 66.5 -223s103.5 -84 177.5 -84c72 0 130.333 28 175 84s67 130.333 67 223c0 96 -22 172 -66 228s-102.667 84 -176 84z" />
    <glyph glyph-name="guillemotright" unicode="&#xbb;" horiz-adv-x="1317" 
d="M203 1112l491 -438v-86l-491 -441v201l315 283l-315 280v201zM657 1112l494 -438v-86l-494 -441v201l318 283l-318 280v201z" />
    <glyph glyph-name="questiondown" unicode="&#xbf;" horiz-adv-x="1141" 
d="M524 1147l200.997 0.000976562v-164c0 -70.667 -9.5 -129 -28.5 -175s-60.833 -99 -125.5 -159l-94 -94c-39.333 -35.333 -68.333 -69.833 -87 -103.5s-28 -67.5 -28 -101.5c0 -62.667 23.333 -113.167 70 -151.5s107.334 -57.5 182.001 -57.5
c54.667 0 113.834 12.333 177.501 37s128.834 61 195.501 109v-199c-65.333 -39.333 -131.833 -69 -199.5 -89s-136.834 -30 -207.501 -30c-130 0 -234.167 33.833 -312.5 101.5s-117.5 157.5 -117.5 269.5c0 53.333 12.833 103.833 38.5 151.5s69.167 101.5 130.5 161.5
l95 90c32.667 34.667 55.834 61.167 69.501 79.5s23.167 36.5 28.5 54.5c4 13.333 7 30.666 9 51.999s3 51 3 89v129zM730.997 1300h-213v269h213v-269z" />
    <glyph glyph-name="Agrave" unicode="&#xc0;" horiz-adv-x="1470" 
d="M676 1995l205 -279h-160l-242 279h197zM735 1360l-289 -780h578zM614 1569h242l596 -1569h-219l-143 401h-707l-143 -401h-224z" />
    <glyph glyph-name="Aacute" unicode="&#xc1;" horiz-adv-x="1470" 
d="M793 1995h194l-239 -279h-160zM735 1360l-289 -780h578zM614 1569h242l596 -1569h-219l-143 401h-707l-143 -401h-224z" />
    <glyph glyph-name="Acircumflex" unicode="&#xc2;" horiz-adv-x="1470" 
d="M637 1997h197l221 -281h-146l-174 189l-174 -189h-145zM735 1360l-289 -780h578zM614 1569h242l596 -1569h-219l-143 401h-707l-143 -401h-224z" />
    <glyph glyph-name="Atilde" unicode="&#xc3;" horiz-adv-x="1470" 
d="M731 1794l-59.0029 36.998c-18 9.33301 -32.5 15.666 -43.5 18.999s-20.5 5 -28.5 5c-26 0 -45.833 -8.5 -59.5 -25.5s-20.5 -41.167 -20.5 -72.5v-8h-133c0 70.667 18.5 126.834 55.5 168.501s85.5 62.5 145.5 62.5c24.667 0 47.5 -3 68.5 -9s48.5 -18 82.5 -36l60 -30
c16 -10 29.833 -17 41.5 -21s22.834 -6 33.501 -6c22 0 40.167 8.83301 54.5 26.5s21.5 40.834 21.5 69.501v6h131c-1.33301 -69.333 -20 -125.166 -56 -167.499s-83.333 -63.5 -142 -63.5c-23.333 0 -45.666 3 -66.999 9s-49.666 18 -84.999 36zM734.997 1360l-289 -780
h578zM613.997 1569h242l596 -1569h-219l-143 401h-707l-143 -401h-224z" />
    <glyph glyph-name="Adieresis" unicode="&#xc4;" horiz-adv-x="1470" 
d="M834 1962h213v-213h-213v213zM424 1962h213v-213h-213v213zM735 1360l-289 -780h578zM614 1569h242l596 -1569h-219l-143 401h-707l-143 -401h-224z" />
    <glyph glyph-name="Aring" unicode="&#xc5;" horiz-adv-x="1470" 
d="M895 1706c0 45.333 -15.667 83.668 -47 115.001s-69 47 -113 47c-44.667 0 -82.5 -15.333 -113.5 -46s-46.5 -69.334 -46.5 -116.001c0 -44 15.833 -81.333 47.5 -112s69.167 -46 112.5 -46c44 0 81.667 15.333 113 46s47 68 47 112zM735 1360l-286 -780h573zM575 1466
c-42 28.667 -74 63.1689 -96 103.502s-33 85.833 -33 136.5c0 82 28 151 84 207s124.333 84 205 84c79.333 0 147.333 -28.333 204 -85s85 -125.334 85 -206.001c0 -48 -11 -92.833 -33 -134.5s-54 -76.834 -96 -105.501l557 -1466h-219l-143 401h-707l-143 -401h-224z" />
    <glyph glyph-name="AE" unicode="&#xc6;" horiz-adv-x="2095" 
d="M1937 1569v-180h-778v-463h748v-178h-748v-570h799v-178h-1012v401h-555l-168 -401h-215l658 1569h1271zM811 1403l-346 -823h481v823h-135z" />
    <glyph glyph-name="Ccedilla" unicode="&#xc7;" horiz-adv-x="1501" 
d="M942 0c38 -44 66.667 -84 86 -120s29 -71 29 -105c0 -62.667 -21.167 -110.167 -63.5 -142.5s-104.5 -48.5 -186.5 -48.5c-32.667 0 -64 2.5 -94 7.5s-60 11.5 -90 19.5v137c22.667 -12 47 -20.833 73 -26.5s55.333 -8.5 88 -8.5c41.333 0 72.5 8.5 93.5 25.5
s31.5 42.167 31.5 75.5c0 20 -7.5 45.5 -22.5 76.5s-38.167 67.5 -69.5 109.5h125zM1384 1448l-0.00195312 -225.003c-70.667 66.667 -146.667 116.334 -228 149.001s-167 49 -257 49c-178.667 0 -315.834 -54.5 -411.501 -163.5s-143.5 -267.5 -143.5 -475.5
c0 -207.333 47.833 -365.666 143.5 -474.999s232.834 -164 411.501 -164c90 0 175.667 16.833 257 50.5s157.333 83.167 228 148.5v-221c-73.333 -50.667 -151.666 -88.667 -234.999 -114s-170.666 -38 -261.999 -38c-238 0 -425.167 72.833 -561.5 218.5
s-204.5 343.834 -204.5 594.501c0 251.333 68.167 449.666 204.5 594.999s323.5 218 561.5 218c92.667 0 180.667 -12.167 264 -36.5s161 -61.166 233 -110.499z" />
    <glyph glyph-name="Egrave" unicode="&#xc8;" horiz-adv-x="1360" 
d="M643 1995l207 -279h-162l-242 279h197zM211 1569h991v-180h-778v-463h745v-178h-745v-570h797v-178h-1010v1569z" />
    <glyph glyph-name="Eacute" unicode="&#xc9;" horiz-adv-x="1360" 
d="M762 1995h192l-237 -279h-162zM211 1569h991v-180h-778v-463h745v-178h-745v-570h797v-178h-1010v1569z" />
    <glyph glyph-name="Ecircumflex" unicode="&#xca;" horiz-adv-x="1360" 
d="M604 1997h199l221 -281h-145l-177 189l-174 -189h-145zM211 1569h991v-180h-778v-463h745v-178h-745v-570h797v-178h-1010v1569z" />
    <glyph glyph-name="Edieresis" unicode="&#xcb;" horiz-adv-x="1360" 
d="M803 1962h213v-213h-213v213zM391 1962h213v-213h-213v213zM211 1569h991v-180h-778v-463h745v-178h-745v-570h797v-178h-1010v1569z" />
    <glyph glyph-name="Igrave" unicode="&#xcc;" horiz-adv-x="635" 
d="M258 1995l207 -279h-162l-242 279h197zM211 1569h213v-1569h-213v1569z" />
    <glyph glyph-name="Iacute" unicode="&#xcd;" horiz-adv-x="635" 
d="M377 1995h192l-237 -279h-162zM211 1569h213v-1569h-213v1569z" />
    <glyph glyph-name="Icircumflex" unicode="&#xce;" horiz-adv-x="635" 
d="M219 1997h199l221 -281h-147l-175 189l-174 -189h-145zM211 1569h213v-1569h-213v1569z" />
    <glyph glyph-name="Idieresis" unicode="&#xcf;" horiz-adv-x="635" 
d="M418 1962h213v-213h-213v213zM6 1962h213v-213h-213v213zM211 1569h213v-1569h-213v1569z" />
    <glyph glyph-name="Eth" unicode="&#xd0;" horiz-adv-x="1665" 
d="M221 1569h436c303.333 0 526 -63.167 668 -189.5s213 -324.833 213 -595.5c0 -268.667 -71 -466.5 -213 -593.5s-364.667 -190.5 -668 -190.5h-436v735h-211v152h211v682zM434 1393v-506.001h352v-152h-352v-561h256c216 0 374.5 49.167 475.5 147.5
s151.5 252.5 151.5 462.5c0 210.667 -50.5 364.834 -151.5 462.501s-259.5 146.5 -475.5 146.5h-256z" />
    <glyph glyph-name="Ntilde" unicode="&#xd1;" horiz-adv-x="1610" 
d="M801 1794l-62.0039 36.998c-16 9.33301 -29.5 15.666 -40.5 18.999s-20.5 5 -28.5 5c-26 0 -45.833 -8.5 -59.5 -25.5s-20.5 -41.167 -20.5 -72.5v-8h-131c0 70.667 17.667 126.834 53 168.501s83 62.5 143 62.5c26 0 49.667 -3 71 -9s49 -18 83 -36l59 -30
c16.667 -10 30.834 -17 42.501 -21s22.834 -6 33.501 -6c23.333 0 41.833 8.83301 55.5 26.5s20.5 40.834 20.5 69.501v6h131c-1.33301 -69.333 -20.166 -125.166 -56.499 -167.499s-83.833 -63.5 -142.5 -63.5c-22.667 0 -44.667 3 -66 9s-49.666 18 -84.999 36z
M210.996 1569h287l694 -1313v1313h207v-1569h-287l-694 1311v-1311h-207v1569z" />
    <glyph glyph-name="Ograve" unicode="&#xd2;" horiz-adv-x="1694" 
d="M786 1995l207 -279h-159l-242 279h194zM848 1423c-154.667 0 -277.334 -57.333 -368.001 -172s-136 -271 -136 -469s45.333 -354.333 136 -469s213.334 -172 368.001 -172c152.667 0 274.167 57.333 364.5 172s135.5 271 135.5 469s-45.167 354.333 -135.5 469
s-211.833 172 -364.5 172zM848 1595c220 0 395.833 -73.667 527.5 -221s197.5 -344.666 197.5 -591.999c0 -246.667 -65.833 -443.834 -197.5 -591.501s-307.5 -221.5 -527.5 -221.5c-221.333 0 -397.833 73.833 -529.5 221.5s-197.5 344.834 -197.5 591.501
c0 247.333 65.833 444.666 197.5 591.999s308.167 221 529.5 221z" />
    <glyph glyph-name="Oacute" unicode="&#xd3;" horiz-adv-x="1694" 
d="M905 1995h195l-240 -279h-162zM848 1423c-154.667 0 -277.334 -57.333 -368.001 -172s-136 -271 -136 -469s45.333 -354.333 136 -469s213.334 -172 368.001 -172c152.667 0 274.167 57.333 364.5 172s135.5 271 135.5 469s-45.167 354.333 -135.5 469
s-211.833 172 -364.5 172zM848 1595c220 0 395.833 -73.667 527.5 -221s197.5 -344.666 197.5 -591.999c0 -246.667 -65.833 -443.834 -197.5 -591.501s-307.5 -221.5 -527.5 -221.5c-221.333 0 -397.833 73.833 -529.5 221.5s-197.5 344.834 -197.5 591.501
c0 247.333 65.833 444.666 197.5 591.999s308.167 221 529.5 221z" />
    <glyph glyph-name="Ocircumflex" unicode="&#xd4;" horiz-adv-x="1694" 
d="M750 1997h196l221 -281h-145l-174 189l-174 -189h-148zM848 1423c-154.667 0 -277.334 -57.333 -368.001 -172s-136 -271 -136 -469s45.333 -354.333 136 -469s213.334 -172 368.001 -172c152.667 0 274.167 57.333 364.5 172s135.5 271 135.5 469
s-45.167 354.333 -135.5 469s-211.833 172 -364.5 172zM848 1595c220 0 395.833 -73.667 527.5 -221s197.5 -344.666 197.5 -591.999c0 -246.667 -65.833 -443.834 -197.5 -591.501s-307.5 -221.5 -527.5 -221.5c-221.333 0 -397.833 73.833 -529.5 221.5
s-197.5 344.834 -197.5 591.501c0 247.333 65.833 444.666 197.5 591.999s308.167 221 529.5 221z" />
    <glyph glyph-name="Otilde" unicode="&#xd5;" horiz-adv-x="1694" 
d="M844 1794l-62.0039 36.998c-16 9.33301 -29.5 15.666 -40.5 18.999s-20.5 5 -28.5 5c-26 0 -45.833 -8.5 -59.5 -25.5s-20.5 -41.167 -20.5 -72.5v-8h-131c0 70.667 17.667 126.834 53 168.501s83 62.5 143 62.5c26 0 49.667 -3 71 -9s49 -18 83 -36l59 -30
c16.667 -10 30.834 -17 42.501 -21s22.834 -6 33.501 -6c23.333 0 41.833 8.83301 55.5 26.5s20.5 40.834 20.5 69.501v6h131c-1.33301 -69.333 -20.166 -125.166 -56.499 -167.499s-83.833 -63.5 -142.5 -63.5c-22.667 0 -44.667 3 -66 9s-49.666 18 -84.999 36z
M847.996 1423c-154.667 0 -277.334 -57.333 -368.001 -172s-136 -271 -136 -469s45.333 -354.333 136 -469s213.334 -172 368.001 -172c152.667 0 274.167 57.333 364.5 172s135.5 271 135.5 469s-45.167 354.333 -135.5 469s-211.833 172 -364.5 172zM847.996 1595
c220 0 395.833 -73.667 527.5 -221s197.5 -344.666 197.5 -591.999c0 -246.667 -65.833 -443.834 -197.5 -591.501s-307.5 -221.5 -527.5 -221.5c-221.333 0 -397.833 73.833 -529.5 221.5s-197.5 344.834 -197.5 591.501c0 247.333 65.833 444.666 197.5 591.999
s308.167 221 529.5 221z" />
    <glyph glyph-name="Odieresis" unicode="&#xd6;" horiz-adv-x="1694" 
d="M946 1962h213v-213h-213v213zM535 1962h215v-213h-215v213zM848 1423c-154.667 0 -277.334 -57.333 -368.001 -172s-136 -271 -136 -469s45.333 -354.333 136 -469s213.334 -172 368.001 -172c152.667 0 274.167 57.333 364.5 172s135.5 271 135.5 469
s-45.167 354.333 -135.5 469s-211.833 172 -364.5 172zM848 1595c220 0 395.833 -73.667 527.5 -221s197.5 -344.666 197.5 -591.999c0 -246.667 -65.833 -443.834 -197.5 -591.501s-307.5 -221.5 -527.5 -221.5c-221.333 0 -397.833 73.833 -529.5 221.5
s-197.5 344.834 -197.5 591.501c0 247.333 65.833 444.666 197.5 591.999s308.167 221 529.5 221z" />
    <glyph glyph-name="multiply" unicode="&#xd7;" horiz-adv-x="1802" 
d="M1507 1155l-479 -481l479 -481l-125 -127l-481 483l-481 -483l-125 127l479 481l-479 481l125 127l481 -481l481 481z" />
    <glyph glyph-name="Oslash" unicode="&#xd8;" horiz-adv-x="1694" 
d="M1266 1167l-754 -888c45.333 -44 96 -78 152 -102s117.333 -36 184 -36c152.667 0 274.167 57.333 364.5 172s135.5 271 135.5 469c0 78 -6.83301 149.5 -20.5 214.5s-34.167 121.833 -61.5 170.5zM1180 1286c-42.667 45.333 -92.332 79.499 -148.999 102.499
s-117.667 34.5 -183 34.5c-154.667 0 -277.334 -57.333 -368.001 -172s-136 -271 -136 -469c0 -77.333 6.83301 -149.166 20.5 -215.499s34.167 -123.5 61.5 -171.5zM287.002 228.999c-54.667 72.667 -96 155.001 -124 247.001s-42 194 -42 306
c0 247.333 65.833 444.666 197.5 591.999s308.167 221 529.5 221c90 0 174 -13.167 252 -39.5s147 -66.166 207 -119.499l170 200l106 -94l-176 -207c54.667 -72 96 -154.5 124 -247.5s42 -194.833 42 -305.5c0 -246.667 -65.833 -443.834 -197.5 -591.501
s-307.5 -221.5 -527.5 -221.5c-90 0 -173.667 13 -251 39s-148 65.667 -212 119l-170 -201l-109 92z" />
    <glyph glyph-name="Ugrave" unicode="&#xd9;" horiz-adv-x="1575" 
d="M727 1995l207 -279h-162l-242 279h197zM186 1569h212.999v-955c0 -168 30.833 -288.833 92.5 -362.5s159.834 -110.5 294.501 -110.5c136.667 0 235.5 36.833 296.5 110.5s91.5 194.5 91.5 362.5v955h212v-979c0 -204.667 -50.5 -359.334 -151.5 -464.001
s-250.5 -157 -448.5 -157s-347.5 52.333 -448.5 157s-151.5 259.334 -151.5 464.001v979z" />
    <glyph glyph-name="Uacute" unicode="&#xda;" horiz-adv-x="1575" 
d="M846 1995h192l-237 -279h-162zM186 1569h212.999v-955c0 -168 30.833 -288.833 92.5 -362.5s159.834 -110.5 294.501 -110.5c136.667 0 235.5 36.833 296.5 110.5s91.5 194.5 91.5 362.5v955h212v-979c0 -204.667 -50.5 -359.334 -151.5 -464.001
s-250.5 -157 -448.5 -157s-347.5 52.333 -448.5 157s-151.5 259.334 -151.5 464.001v979z" />
    <glyph glyph-name="Ucircumflex" unicode="&#xdb;" horiz-adv-x="1575" 
d="M688 1997h199l221 -281h-145l-177 189l-174 -189h-145zM186 1569h212.999v-955c0 -168 30.833 -288.833 92.5 -362.5s159.834 -110.5 294.501 -110.5c136.667 0 235.5 36.833 296.5 110.5s91.5 194.5 91.5 362.5v955h212v-979c0 -204.667 -50.5 -359.334 -151.5 -464.001
s-250.5 -157 -448.5 -157s-347.5 52.333 -448.5 157s-151.5 259.334 -151.5 464.001v979z" />
    <glyph glyph-name="Udieresis" unicode="&#xdc;" horiz-adv-x="1575" 
d="M887 1962h213v-213h-213v213zM475 1962h213v-213h-213v213zM186 1569h212.999v-955c0 -168 30.833 -288.833 92.5 -362.5s159.834 -110.5 294.501 -110.5c136.667 0 235.5 36.833 296.5 110.5s91.5 194.5 91.5 362.5v955h212v-979
c0 -204.667 -50.5 -359.334 -151.5 -464.001s-250.5 -157 -448.5 -157s-347.5 52.333 -448.5 157s-151.5 259.334 -151.5 464.001v979z" />
    <glyph glyph-name="Yacute" unicode="&#xdd;" horiz-adv-x="1315" 
d="M717 1995h192l-237 -279h-162zM-4 1569h227l434 -645l433 645h229l-555 -821v-748h-213v748z" />
    <glyph glyph-name="Thorn" unicode="&#xde;" horiz-adv-x="1300" 
d="M211 1569h213v-279h266c174.667 0 307.167 -39.167 397.5 -117.5s135.5 -194.833 135.5 -349.5c0 -154 -45.167 -270.667 -135.5 -350s-222.833 -119 -397.5 -119h-266v-354h-213v1569zM424 1116l-0.000976562 -588h266c98.667 0 174.834 25.667 228.501 77
s80.5 124 80.5 218c0 94.667 -26.5 167.167 -79.5 217.5s-129.5 75.5 -229.5 75.5h-266z" />
    <glyph glyph-name="germandbls" unicode="&#xdf;" horiz-adv-x="1354" 
d="M195 1194c0 140.667 41.833 249.169 125.5 325.502s202.167 114.5 355.5 114.5c146 0 256.833 -40.5 332.5 -121.5s114.834 -200.167 117.501 -357.5c-104.667 -5.33301 -186.334 -28.166 -245.001 -68.499s-88 -93.833 -88 -160.5
c0 -32.667 10.167 -63.334 30.5 -92.001s53.166 -57.334 98.499 -86.001l59 -39c116 -75.333 190.667 -138 224 -188s50 -109.667 50 -179c0 -120 -39.167 -212.167 -117.5 -276.5s-191.166 -96.5 -338.499 -96.5c-45.333 0 -91.833 4.5 -139.5 13.5
s-96.834 21.5 -147.501 37.5v173c56 -20.667 108.167 -36.167 156.5 -46.5s95.833 -15.5 142.5 -15.5c80.667 0 142.167 16.667 184.5 50s63.5 82.333 63.5 147c0 43.333 -10.667 79.666 -32 108.999s-66.666 66 -135.999 110l-96 57c-68.667 41.333 -118 85.5 -148 132.5
s-45 102.5 -45 166.5c0 88.667 29 163.167 87 223.5s140.333 100.5 247 120.5c-5.33301 72.667 -30.833 128.5 -76.5 167.5s-108.167 58.5 -187.5 58.5c-91.333 0 -161 -24.333 -209 -73s-72 -118.667 -72 -210v-1190h-196v1194z" />
    <glyph glyph-name="agrave" unicode="&#xe0;" horiz-adv-x="1319" 
d="M737 592c-155.333 0 -263.333 -18.167 -324 -54.5s-91 -97.5 -91 -183.5c0 -68 22.833 -122.167 68.5 -162.5s106.5 -60.5 182.5 -60.5c108 0 194.5 37.833 259.5 113.5s97.5 177.167 97.5 304.5v43h-193zM1122 672l-0.00195312 -672.002h-192v178
c-45.333 -70.667 -100.666 -123.167 -165.999 -157.5s-146 -51.5 -242 -51.5c-120 0 -215.5 33.833 -286.5 101.5s-106.5 158.167 -106.5 271.5c0 132.667 44.333 232.334 133 299.001s220.334 100 395.001 100h273v21c0 88.667 -29.333 157.167 -88 205.5
s-140.667 72.5 -246 72.5c-66.667 0 -132.167 -8.16699 -196.5 -24.5s-125.833 -40.166 -184.5 -71.499v178c71.333 27.333 140 47.833 206 61.5s130.333 20.5 193 20.5c170.667 0 298 -44 382 -132s126 -221.333 126 -400zM470.998 1720l297 -393h-162l-342 393h207z" />
    <glyph glyph-name="aacute" unicode="&#xe1;" horiz-adv-x="1319" 
d="M737 592c-155.333 0 -263.333 -18.167 -324 -54.5s-91 -97.5 -91 -183.5c0 -68 22.833 -122.167 68.5 -162.5s106.5 -60.5 182.5 -60.5c108 0 194.5 37.833 259.5 113.5s97.5 177.167 97.5 304.5v43h-193zM1122 672l-0.00195312 -672.002h-192v178
c-45.333 -70.667 -100.666 -123.167 -165.999 -157.5s-146 -51.5 -242 -51.5c-120 0 -215.5 33.833 -286.5 101.5s-106.5 158.167 -106.5 271.5c0 132.667 44.333 232.334 133 299.001s220.334 100 395.001 100h273v21c0 88.667 -29.333 157.167 -88 205.5
s-140.667 72.5 -246 72.5c-66.667 0 -132.167 -8.16699 -196.5 -24.5s-125.833 -40.166 -184.5 -71.499v178c71.333 27.333 140 47.833 206 61.5s130.333 20.5 193 20.5c170.667 0 298 -44 382 -132s126 -221.333 126 -400zM769.998 1720h209l-342 -395h-162z" />
    <glyph glyph-name="acircumflex" unicode="&#xe2;" horiz-adv-x="1319" 
d="M547 1720h153l258 -395h-145l-188 256l-191 -256h-145zM737 592c-155.333 0 -263.333 -18.167 -324 -54.5s-91 -97.5 -91 -183.5c0 -68 22.833 -122.167 68.5 -162.5s106.5 -60.5 182.5 -60.5c108 0 194.5 37.833 259.5 113.5s97.5 177.167 97.5 304.5v43h-193zM1122 672
l-0.00195312 -672.002h-192v178c-45.333 -70.667 -100.666 -123.167 -165.999 -157.5s-146 -51.5 -242 -51.5c-120 0 -215.5 33.833 -286.5 101.5s-106.5 158.167 -106.5 271.5c0 132.667 44.333 232.334 133 299.001s220.334 100 395.001 100h273v21
c0 88.667 -29.333 157.167 -88 205.5s-140.667 72.5 -246 72.5c-66.667 0 -132.167 -8.16699 -196.5 -24.5s-125.833 -40.166 -184.5 -71.499v178c71.333 27.333 140 47.833 206 61.5s130.333 20.5 193 20.5c170.667 0 298 -44 382 -132s126 -221.333 126 -400z" />
    <glyph glyph-name="atilde" unicode="&#xe3;" horiz-adv-x="1319" 
d="M618 1438l-59 56.998c-14.667 15.333 -27.834 26 -39.501 32s-22.5 9 -32.5 9c-25.333 0 -44.166 -12.667 -56.499 -38s-19.833 -66.666 -22.5 -123.999h-132c2 94.667 20.667 167.834 56 219.501s85 77.5 149 77.5c27.333 0 52.333 -5.16699 75 -15.5
s47 -26.833 73 -49.5l59 -58c15.333 -13.333 28.666 -23.5 39.999 -30.5s22 -10.5 32 -10.5c26 0 45.5 12.667 58.5 38s20.167 67.333 21.5 126h131c-1.33301 -94 -20.166 -167 -56.499 -219s-85.833 -78 -148.5 -78c-27.333 0 -52.333 5.16699 -75 15.5s-47 26.5 -73 48.5z
M737 591.998c-155.333 0 -263.333 -18.167 -324 -54.5s-91 -97.5 -91 -183.5c0 -68 22.833 -122.167 68.5 -162.5s106.5 -60.5 182.5 -60.5c108 0 194.5 37.833 259.5 113.5s97.5 177.167 97.5 304.5v43h-193zM1122 671.998l-0.00195312 -672.002h-192v178
c-45.333 -70.667 -100.666 -123.167 -165.999 -157.5s-146 -51.5 -242 -51.5c-120 0 -215.5 33.833 -286.5 101.5s-106.5 158.167 -106.5 271.5c0 132.667 44.333 232.334 133 299.001s220.334 100 395.001 100h273v21c0 88.667 -29.333 157.167 -88 205.5
s-140.667 72.5 -246 72.5c-66.667 0 -132.167 -8.16699 -196.5 -24.5s-125.833 -40.166 -184.5 -71.499v178c71.333 27.333 140 47.833 206 61.5s130.333 20.5 193 20.5c170.667 0 298 -44 382 -132s126 -221.333 126 -400z" />
    <glyph glyph-name="adieresis" unicode="&#xe4;" horiz-adv-x="1319" 
d="M737 592c-155.333 0 -263.333 -18.167 -324 -54.5s-91 -97.5 -91 -183.5c0 -68 22.833 -122.167 68.5 -162.5s106.5 -60.5 182.5 -60.5c108 0 194.5 37.833 259.5 113.5s97.5 177.167 97.5 304.5v43h-193zM1122 672l-0.00195312 -672.002h-192v178
c-45.333 -70.667 -100.666 -123.167 -165.999 -157.5s-146 -51.5 -242 -51.5c-120 0 -215.5 33.833 -286.5 101.5s-106.5 158.167 -106.5 271.5c0 132.667 44.333 232.334 133 299.001s220.334 100 395.001 100h273v21c0 88.667 -29.333 157.167 -88 205.5
s-140.667 72.5 -246 72.5c-66.667 0 -132.167 -8.16699 -196.5 -24.5s-125.833 -40.166 -184.5 -71.499v178c71.333 27.333 140 47.833 206 61.5s130.333 20.5 193 20.5c170.667 0 298 -44 382 -132s126 -221.333 126 -400zM722.998 1630h213v-213h-213v213zM310.998 1630
h213v-213h-213v213z" />
    <glyph glyph-name="aring" unicode="&#xe5;" horiz-adv-x="1319" 
d="M782 1599c0 44 -15.333 81.667 -46 113s-67.667 47 -111 47c-46.667 0 -85 -15.333 -115 -46s-45 -68.667 -45 -114c0 -44.667 15 -82 45 -112s68.333 -45 115 -45c43.333 0 80.333 15.333 111 46s46 67.667 46 111zM911 1599c0 -80 -28 -148 -84 -204
s-123.333 -84 -202 -84c-80.667 0 -149 28 -205 84s-84 124 -84 204c0 80.667 28 149 84 205s124.333 84 205 84c78.667 0 146 -28 202 -84s84 -124.333 84 -205zM737 592c-155.333 0 -263.333 -18.167 -324 -54.5s-91 -97.5 -91 -183.5c0 -68 22.833 -122.167 68.5 -162.5
s106.5 -60.5 182.5 -60.5c108 0 194.5 37.833 259.5 113.5s97.5 177.167 97.5 304.5v43h-193zM1122 672l-0.00195312 -672.002h-192v178c-45.333 -70.667 -100.666 -123.167 -165.999 -157.5s-146 -51.5 -242 -51.5c-120 0 -215.5 33.833 -286.5 101.5
s-106.5 158.167 -106.5 271.5c0 132.667 44.333 232.334 133 299.001s220.334 100 395.001 100h273v21c0 88.667 -29.333 157.167 -88 205.5s-140.667 72.5 -246 72.5c-66.667 0 -132.167 -8.16699 -196.5 -24.5s-125.833 -40.166 -184.5 -71.499v178
c71.333 27.333 140 47.833 206 61.5s130.333 20.5 193 20.5c170.667 0 298 -44 382 -132s126 -221.333 126 -400z" />
    <glyph glyph-name="ae" unicode="&#xe6;" horiz-adv-x="2111" 
d="M1804 692c-1.33301 106.667 -30.668 191.334 -88.001 254.001s-133.666 94 -228.999 94c-108 0 -194.5 -30.333 -259.5 -91s-102.167 -146.334 -111.5 -257.001h688zM1044 1012c52 62.667 115.332 110.332 189.999 142.999s158.334 49 251.001 49
c156.667 0 281.5 -50.833 374.5 -152.5s139.5 -239.834 139.5 -414.501v-94h-889c8 -134 47.833 -236.167 119.5 -306.5s171.834 -105.5 300.501 -105.5c72 0 142.833 9.16699 212.5 27.5s140.167 46.833 211.5 85.5v-185
c-71.333 -28.667 -143.166 -50.834 -215.499 -66.501s-145.833 -23.5 -220.5 -23.5c-116.667 0 -218.334 21.167 -305.001 63.5s-157.334 105.166 -212.001 188.499c-50 -83.333 -113 -146.166 -189 -188.499s-163.667 -63.5 -263 -63.5
c-132.667 0 -235.834 32.833 -309.501 98.5s-110.5 157.167 -110.5 274.5c0 132.667 44.333 232.334 133 299.001s220.334 100 395.001 100h273v21c0 88.667 -29.333 157.167 -88 205.5s-140.667 72.5 -246 72.5c-66.667 0 -132.167 -8.16699 -196.5 -24.5
s-125.833 -40.166 -184.5 -71.499v178c71.333 27.333 140 47.833 206 61.5s130.333 20.5 193 20.5c100 0 187.167 -16.667 261.5 -50s130.5 -80.666 168.5 -141.999zM736.997 591.998c-155.333 0 -263.333 -18.167 -324 -54.5s-91 -97.5 -91 -183.5
c0 -68 22.833 -122.167 68.5 -162.5s106.5 -60.5 182.5 -60.5c108 0 194.5 37.833 259.5 113.5s97.5 177.167 97.5 304.5v43h-193z" />
    <glyph glyph-name="ccedilla" unicode="&#xe7;" horiz-adv-x="1182" 
d="M776 0c38.667 -44 67.498 -84 86.498 -120s28.5 -71 28.5 -105c0 -62.667 -21.167 -110.167 -63.5 -142.5s-105.166 -48.5 -188.499 -48.5c-31.333 0 -62 2.5 -92 7.5s-60 11.5 -90 19.5v137c23.333 -12 47.833 -20.833 73.5 -26.5s54.834 -8.5 87.501 -8.5
c41.333 0 72.5 8.5 93.5 25.5s31.5 42.167 31.5 75.5c0 20 -7.5 45.5 -22.5 76.5s-38.167 67.5 -69.5 109.5h125zM1049 1130l-0.000976562 -180c-54.667 30 -109.334 52.5 -164.001 67.5s-110 22.5 -166 22.5c-126 0 -223.667 -39.5 -293 -118.5s-104 -190.167 -104 -333.5
s34.667 -255 104 -335s167 -120 293 -120c56 0 111.333 7.5 166 22.5s109.334 37.5 164.001 67.5v-178c-53.333 -26 -109 -45.167 -167 -57.5s-120 -18.5 -186 -18.5c-176 0 -316.167 55.667 -420.5 167s-156.5 262 -156.5 452c0 190.667 52.5 341 157.5 451
s249.833 165 434.5 165c58.667 0 116.334 -6.16699 173.001 -18.5s111.667 -30.833 165 -55.5z" />
    <glyph glyph-name="egrave" unicode="&#xe8;" horiz-adv-x="1323" 
d="M1208 637l-0.00292969 -93.9961h-889c10 -134 50.833 -235.833 122.5 -305.5s170.834 -104.5 297.501 -104.5c75.333 0 147.833 9.16699 217.5 27.5s138.5 46.166 206.5 83.499v-185c-69.333 -28.667 -140.166 -50.834 -212.499 -66.501s-146.166 -23.5 -221.499 -23.5
c-188.667 0 -337.5 54.667 -446.5 164s-163.5 256.666 -163.5 441.999c0 192.667 51.833 345.667 155.5 459s243.5 170 419.5 170c158.667 0 284 -50.833 376 -152.5s138 -239.834 138 -414.501zM1016 692.004c-1.33301 106.667 -31.002 191.334 -89.002 254.001
s-135 94 -231 94c-107.333 0 -193.166 -30.333 -257.499 -91s-101.166 -146.334 -110.499 -257.001h688zM529.995 1720l297 -393h-162l-342 393h207z" />
    <glyph glyph-name="eacute" unicode="&#xe9;" horiz-adv-x="1323" 
d="M1208 637l-0.00292969 -93.9961h-889c10 -134 50.833 -235.833 122.5 -305.5s170.834 -104.5 297.501 -104.5c75.333 0 147.833 9.16699 217.5 27.5s138.5 46.166 206.5 83.499v-185c-69.333 -28.667 -140.166 -50.834 -212.499 -66.501s-146.166 -23.5 -221.499 -23.5
c-188.667 0 -337.5 54.667 -446.5 164s-163.5 256.666 -163.5 441.999c0 192.667 51.833 345.667 155.5 459s243.5 170 419.5 170c158.667 0 284 -50.833 376 -152.5s138 -239.834 138 -414.501zM1016 692.004c-1.33301 106.667 -31.002 191.334 -89.002 254.001
s-135 94 -231 94c-107.333 0 -193.166 -30.333 -257.499 -91s-101.166 -146.334 -110.499 -257.001h688zM828.995 1720h209l-342 -395h-162z" />
    <glyph glyph-name="ecircumflex" unicode="&#xea;" horiz-adv-x="1323" 
d="M606 1720h156l256 -395h-146l-188 256l-188 -256h-148zM1208 637l-0.00292969 -93.9961h-889c10 -134 50.833 -235.833 122.5 -305.5s170.834 -104.5 297.501 -104.5c75.333 0 147.833 9.16699 217.5 27.5s138.5 46.166 206.5 83.499v-185
c-69.333 -28.667 -140.166 -50.834 -212.499 -66.501s-146.166 -23.5 -221.499 -23.5c-188.667 0 -337.5 54.667 -446.5 164s-163.5 256.666 -163.5 441.999c0 192.667 51.833 345.667 155.5 459s243.5 170 419.5 170c158.667 0 284 -50.833 376 -152.5
s138 -239.834 138 -414.501zM1016 692.004c-1.33301 106.667 -31.002 191.334 -89.002 254.001s-135 94 -231 94c-107.333 0 -193.166 -30.333 -257.499 -91s-101.166 -146.334 -110.499 -257.001h688z" />
    <glyph glyph-name="edieresis" unicode="&#xeb;" horiz-adv-x="1323" 
d="M1208 637l-0.00292969 -93.9961h-889c10 -134 50.833 -235.833 122.5 -305.5s170.834 -104.5 297.501 -104.5c75.333 0 147.833 9.16699 217.5 27.5s138.5 46.166 206.5 83.499v-185c-69.333 -28.667 -140.166 -50.834 -212.499 -66.501s-146.166 -23.5 -221.499 -23.5
c-188.667 0 -337.5 54.667 -446.5 164s-163.5 256.666 -163.5 441.999c0 192.667 51.833 345.667 155.5 459s243.5 170 419.5 170c158.667 0 284 -50.833 376 -152.5s138 -239.834 138 -414.501zM1016 692.004c-1.33301 106.667 -31.002 191.334 -89.002 254.001
s-135 94 -231 94c-107.333 0 -193.166 -30.333 -257.499 -91s-101.166 -146.334 -110.499 -257.001h688zM781.995 1630h213v-213h-213v213zM369.995 1630h213v-213h-213v213z" />
    <glyph glyph-name="igrave" unicode="&#xec;" horiz-adv-x="598" 
d="M203 1176h192v-1176h-192v1176zM147 1720l297 -393h-162l-342 393h207z" />
    <glyph glyph-name="iacute" unicode="&#xed;" horiz-adv-x="598" 
d="M203 1176h192v-1176h-192v1176zM446 1720h209l-342 -395h-162z" />
    <glyph glyph-name="icircumflex" unicode="&#xee;" horiz-adv-x="598" 
d="M203 1176h192v-1176h-192v1176zM221 1720h156l258 -395h-148l-188 256l-188 -256h-148z" />
    <glyph glyph-name="idieresis" unicode="&#xef;" horiz-adv-x="598" 
d="M203 1176h192v-1176h-192v1176zM399 1630h213v-213h-213v213zM-13 1630h213v-213h-213v213z" />
    <glyph glyph-name="eth" unicode="&#xf0;" horiz-adv-x="1317" 
d="M881 961c-36 12 -69.333 20.668 -100 26.001s-60.334 8 -89.001 8c-117.333 0 -208.333 -37.833 -273 -113.5s-97 -181.834 -97 -318.501c0 -130.667 30.667 -235 92 -313s142.333 -117 243 -117c102.667 0 184.334 39 245.001 117s91 182.333 91 313
c0 86 -9.16699 161.833 -27.5 227.5s-46.5 122.5 -84.5 170.5zM946 1198c87.333 -99.333 151.166 -199.668 191.499 -301.001s60.5 -212.666 60.5 -333.999c0 -177.333 -49.833 -320.666 -149.5 -429.999s-230.167 -164 -391.5 -164c-160.667 0 -290.5 54.667 -389.5 164
s-148.5 252.666 -148.5 429.999c0 174.667 48.167 316.667 144.5 426s221.5 164 375.5 164c13.333 0 29.333 -0.666992 48 -2s42.334 -4 71.001 -8l-166 188l-336 -112l-35 104l295 96l-188 215h237l133 -151l351 114l34 -102l-309 -102z" />
    <glyph glyph-name="ntilde" unicode="&#xf1;" horiz-adv-x="1364" 
d="M692 1438l-58.998 56.998c-15.333 15.333 -28.833 26 -40.5 32s-22.167 9 -31.5 9c-26 0 -45.5 -12.667 -58.5 -38s-20.167 -66.666 -21.5 -123.999h-131c1.33301 94.667 20.166 167.834 56.499 219.501s85.833 77.5 148.5 77.5c27.333 0 52.333 -5.16699 75 -15.5
s46 -26.833 70 -49.5l62 -58c14.667 -13.333 27.834 -23.5 39.501 -30.5s22.5 -10.5 32.5 -10.5c25.333 0 44.166 12.667 56.499 38s19.166 67.333 20.499 126h133c-1.33301 -94 -20 -167 -56 -219s-85.333 -78 -148 -78c-27.333 0 -52.333 5.16699 -75 15.5
s-47 26.5 -73 48.5zM1180 710.998l-0.000976562 -711h-193v702c0 112 -21.833 195.667 -65.5 251s-108.5 83 -194.5 83c-105.333 0 -188 -33 -248 -99s-90 -156.333 -90 -271v-666h-194v1176h194v-183c46.667 71.333 101.334 124.333 164.001 159s135 52 217 52
c135.333 0 237.5 -42 306.5 -126s103.5 -206.333 103.5 -367z" />
    <glyph glyph-name="ograve" unicode="&#xf2;" horiz-adv-x="1317" 
d="M657 1040c-102 0 -183.333 -40.167 -244 -120.5s-91 -190.833 -91 -331.5s30 -251.667 90 -333s141.667 -122 245 -122c104 0 186 40.667 246 122s90 192.333 90 333c0 139.333 -30 249.5 -90 330.5s-142 121.5 -246 121.5zM657 1204c168 0 300.167 -54.5 396.5 -163.5
s144.5 -259.833 144.5 -452.5s-48.167 -344 -144.5 -454s-228.5 -165 -396.5 -165c-167.333 0 -298.833 55 -394.5 165s-143.5 261.333 -143.5 454s47.833 343.5 143.5 452.5s227.167 163.5 394.5 163.5zM506 1720l297 -393h-162l-342 393h207z" />
    <glyph glyph-name="oacute" unicode="&#xf3;" horiz-adv-x="1317" 
d="M657 1040c-102 0 -183.333 -40.167 -244 -120.5s-91 -190.833 -91 -331.5s30 -251.667 90 -333s141.667 -122 245 -122c104 0 186 40.667 246 122s90 192.333 90 333c0 139.333 -30 249.5 -90 330.5s-142 121.5 -246 121.5zM657 1204c168 0 300.167 -54.5 396.5 -163.5
s144.5 -259.833 144.5 -452.5s-48.167 -344 -144.5 -454s-228.5 -165 -396.5 -165c-167.333 0 -298.833 55 -394.5 165s-143.5 261.333 -143.5 454s47.833 343.5 143.5 452.5s227.167 163.5 394.5 163.5zM805 1720h209l-342 -395h-162z" />
    <glyph glyph-name="ocircumflex" unicode="&#xf4;" horiz-adv-x="1317" 
d="M582 1720h153l258 -395h-145l-191 256l-188 -256h-145zM657 1040c-102 0 -183.333 -40.167 -244 -120.5s-91 -190.833 -91 -331.5s30 -251.667 90 -333s141.667 -122 245 -122c104 0 186 40.667 246 122s90 192.333 90 333c0 139.333 -30 249.5 -90 330.5
s-142 121.5 -246 121.5zM657 1204c168 0 300.167 -54.5 396.5 -163.5s144.5 -259.833 144.5 -452.5s-48.167 -344 -144.5 -454s-228.5 -165 -396.5 -165c-167.333 0 -298.833 55 -394.5 165s-143.5 261.333 -143.5 454s47.833 343.5 143.5 452.5s227.167 163.5 394.5 163.5z
" />
    <glyph glyph-name="otilde" unicode="&#xf5;" horiz-adv-x="1317" 
d="M653 1438l-59.002 56.998c-15.333 15.333 -28.666 26 -39.999 32s-22 9 -32 9c-26 0 -45.5 -12.667 -58.5 -38s-20.167 -66.666 -21.5 -123.999h-131c1.33301 94.667 20.166 167.834 56.499 219.501s85.833 77.5 148.5 77.5c26 0 50.667 -5.16699 74 -15.5
s48 -26.833 74 -49.5l59 -58c14.667 -13.333 27.834 -23.5 39.501 -30.5s22.5 -10.5 32.5 -10.5c26 0 45 12.667 57 38s19.333 67.333 22 126h132c-1.33301 -94 -20.166 -167 -56.499 -219s-85.833 -78 -148.5 -78c-27.333 0 -52.333 5.16699 -75 15.5s-47 26.5 -73 48.5z
M656.998 1040c-102 0 -183.333 -40.167 -244 -120.5s-91 -190.833 -91 -331.5s30 -251.667 90 -333s141.667 -122 245 -122c104 0 186 40.667 246 122s90 192.333 90 333c0 139.333 -30 249.5 -90 330.5s-142 121.5 -246 121.5zM656.998 1204
c168 0 300.167 -54.5 396.5 -163.5s144.5 -259.833 144.5 -452.5s-48.167 -344 -144.5 -454s-228.5 -165 -396.5 -165c-167.333 0 -298.833 55 -394.5 165s-143.5 261.333 -143.5 454s47.833 343.5 143.5 452.5s227.167 163.5 394.5 163.5z" />
    <glyph glyph-name="odieresis" unicode="&#xf6;" horiz-adv-x="1317" 
d="M657 1040c-102 0 -183.333 -40.167 -244 -120.5s-91 -190.833 -91 -331.5s30 -251.667 90 -333s141.667 -122 245 -122c104 0 186 40.667 246 122s90 192.333 90 333c0 139.333 -30 249.5 -90 330.5s-142 121.5 -246 121.5zM657 1204c168 0 300.167 -54.5 396.5 -163.5
s144.5 -259.833 144.5 -452.5s-48.167 -344 -144.5 -454s-228.5 -165 -396.5 -165c-167.333 0 -298.833 55 -394.5 165s-143.5 261.333 -143.5 454s47.833 343.5 143.5 452.5s227.167 163.5 394.5 163.5zM758 1630h213v-213h-213v213zM346 1630h213v-213h-213v213z" />
    <glyph glyph-name="divide" unicode="&#xf7;" horiz-adv-x="1802" 
d="M772 1192h258v-258h-258v258zM772 416h258v-258h-258v258zM227 764h1348v-178h-1348v178z" />
    <glyph glyph-name="oslash" unicode="&#xf8;" horiz-adv-x="1317" 
d="M950 842l-512 -623c28.667 -30 61.167 -51.833 97.5 -65.5s76.833 -20.5 121.5 -20.5c104 0 186 40.667 246 122s90 192.333 90 333c0 54.667 -3.33301 102.5 -10 143.5s-17.667 77.833 -33 110.5zM877 954c-30.667 28.667 -64 50.167 -100 64.5s-76 21.5 -120 21.5
c-104.667 0 -186.667 -40.833 -246 -122.5s-89 -197.167 -89 -346.5c0 -48.667 3.33301 -92.5 10 -131.5s16.667 -74.167 30 -105.5zM231 174c-38 54.667 -66.166 116.502 -84.499 185.502s-27.5 145.167 -27.5 228.5c0 192.667 47.833 343.5 143.5 452.5
s227.167 163.5 394.5 163.5c66 0 127 -8.83301 183 -26.5s107 -44.834 153 -81.501l146 178l100 -84l-154 -189c37.333 -52.667 65.5 -113.834 84.5 -183.501s28.5 -146.167 28.5 -229.5c0 -192.667 -48.167 -344 -144.5 -454s-228.5 -165 -396.5 -165
c-66.667 0 -128.334 9.33301 -185.001 28s-106.667 45.667 -150 81l-146 -176l-100 82z" />
    <glyph glyph-name="ugrave" unicode="&#xf9;" horiz-adv-x="1364" 
d="M182 465l-0.000976562 711h195v-705c0 -112 21.5 -195.667 64.5 -251s108.167 -83 195.5 -83c104 0 186.333 33.5 247 100.5s91 157.833 91 272.5v666h192v-1176h-192v180c-48 -70.667 -102.667 -123.5 -164 -158.5s-133 -52.5 -215 -52.5
c-135.333 0 -238.166 42 -308.499 126s-105.5 207.333 -105.5 370zM513.999 1720l297 -393h-162l-342 393h207z" />
    <glyph glyph-name="uacute" unicode="&#xfa;" horiz-adv-x="1364" 
d="M182 465l-0.000976562 711h195v-705c0 -112 21.5 -195.667 64.5 -251s108.167 -83 195.5 -83c104 0 186.333 33.5 247 100.5s91 157.833 91 272.5v666h192v-1176h-192v180c-48 -70.667 -102.667 -123.5 -164 -158.5s-133 -52.5 -215 -52.5
c-135.333 0 -238.166 42 -308.499 126s-105.5 207.333 -105.5 370zM812.999 1720h209l-342 -395h-162z" />
    <glyph glyph-name="ucircumflex" unicode="&#xfb;" horiz-adv-x="1364" 
d="M590 1720h153l258 -395h-145l-188 256l-191 -256h-145zM182 465l-0.000976562 711h195v-705c0 -112 21.5 -195.667 64.5 -251s108.167 -83 195.5 -83c104 0 186.333 33.5 247 100.5s91 157.833 91 272.5v666h192v-1176h-192v180c-48 -70.667 -102.667 -123.5 -164 -158.5
s-133 -52.5 -215 -52.5c-135.333 0 -238.166 42 -308.499 126s-105.5 207.333 -105.5 370z" />
    <glyph glyph-name="udieresis" unicode="&#xfc;" horiz-adv-x="1364" 
d="M182 465l-0.000976562 711h195v-705c0 -112 21.5 -195.667 64.5 -251s108.167 -83 195.5 -83c104 0 186.333 33.5 247 100.5s91 157.833 91 272.5v666h192v-1176h-192v180c-48 -70.667 -102.667 -123.5 -164 -158.5s-133 -52.5 -215 -52.5
c-135.333 0 -238.166 42 -308.499 126s-105.5 207.333 -105.5 370zM765.999 1630h213v-213h-213v213zM353.999 1630h213v-213h-213v213z" />
    <glyph glyph-name="yacute" unicode="&#xfd;" horiz-adv-x="1274" 
d="M692 -109c-54.667 -140 -107.835 -231.167 -159.502 -273.5s-121.167 -63.5 -208.5 -63.5h-154v159h113c52.667 0 93.834 12.667 123.501 38s62.834 85 99.501 179l35 88l-478 1158h205l369 -920l367 920h204zM781.999 1720h209l-342 -395h-162z" />
    <glyph glyph-name="thorn" unicode="&#xfe;" horiz-adv-x="1366" 
d="M389 176v-621.999h-194v2080h194v-637c41.333 70 93 122 155 156s136 51 222 51c143.333 0 259.333 -56.667 348 -170s133 -262 133 -446c0 -186 -44.333 -335.667 -133 -449s-204.667 -170 -348 -170c-86 0 -160 17.167 -222 51.5s-113.667 86.166 -155 155.499z
M1047 588.001c0 142 -29.5 253.167 -88.5 333.5s-138.833 120.5 -239.5 120.5c-102.667 0 -183.334 -40.167 -242.001 -120.5s-88 -191.5 -88 -333.5s29.333 -253.667 88 -335s139.334 -122 242.001 -122c100.667 0 180.5 40.667 239.5 122s88.5 193 88.5 335z" />
    <glyph glyph-name="ydieresis" unicode="&#xff;" horiz-adv-x="1274" 
d="M692 -109c-54.667 -140 -107.835 -231.167 -159.502 -273.5s-121.167 -63.5 -208.5 -63.5h-154v159h113c52.667 0 93.834 12.667 123.501 38s62.834 85 99.501 179l35 88l-478 1158h205l369 -920l367 920h204zM734.999 1630h213v-213h-213v213zM322.999 1630h213v-213
h-213v213z" />
    <glyph glyph-name="uni0401" unicode="&#x401;" horiz-adv-x="1360" 
d="M211 1569h991v-180h-778v-463h745v-178h-745v-570h797v-178h-1010v1569zM801 1962h213v-213h-213v213zM391 1962h213v-213h-213v213z" />
    <glyph glyph-name="uni0410" unicode="&#x410;" horiz-adv-x="1470" 
d="M735 1360l-289 -780h578zM614 1569h242l596 -1569h-219l-143 401h-707l-143 -401h-224z" />
    <glyph glyph-name="uni0411" unicode="&#x411;" horiz-adv-x="1475" 
d="M1100 461c0 96.667 -27.667 169 -83 217s-139.666 72 -252.999 72h-340v-576h340c113.333 0 197.666 23.5 252.999 70.5s83 119.167 83 216.5zM1212 1569l-0.000976562 -176h-788v-469h350c174.667 0 309.834 -38.333 405.501 -115s143.5 -192.667 143.5 -348
c0 -154.667 -46 -270.167 -138 -346.5s-229 -114.5 -411 -114.5h-563v1569h1001z" />
    <glyph glyph-name="uni0412" unicode="&#x412;" horiz-adv-x="1475" 
d="M424 750v-576h340c113.333 0 197.666 23.5 252.999 70.5s83 119.833 83 218.5c0 96.667 -27.667 168.667 -83 216s-139.666 71 -252.999 71h-340zM424 1393v-471h313c104 0 181.167 19 231.5 57s75.5 97.333 75.5 178c0 79.333 -25.167 138.5 -75.5 177.5
s-127.5 58.5 -231.5 58.5h-313zM211 1569l543.002 -0.000976562c160.667 0 284.667 -33.833 372 -101.5s131 -163.5 131 -287.5c0 -96 -22.5 -172.333 -67.5 -229s-110.5 -91.667 -196.5 -105c105.333 -23.333 186.666 -70.5 243.999 -141.5s86 -159.833 86 -266.5
c0 -139.333 -47.833 -247.166 -143.5 -323.499s-230.834 -114.5 -405.501 -114.5h-563v1569z" />
    <glyph glyph-name="uni0413" unicode="&#x413;" horiz-adv-x="1311" 
d="M211 0v1569h975v-180h-762v-1389h-213z" />
    <glyph glyph-name="uni0414" unicode="&#x414;" horiz-adv-x="1679" 
d="M489 178h695v1211h-510v-222c0 -349.333 -39.667 -640 -119 -872c-15.333 -48 -37.333 -87 -66 -117zM180 178c94.667 45.333 154.667 109.668 180 193.001c68.667 215.333 103 515.666 103 900.999v297h932v-1391h180v-516h-180v338h-1110v-338h-179v516h74z" />
    <glyph glyph-name="uni0415" unicode="&#x415;" horiz-adv-x="1360" 
d="M211 1569h991v-180h-778v-463h745v-178h-745v-570h797v-178h-1010v1569z" />
    <glyph glyph-name="uni0416" unicode="&#x416;" horiz-adv-x="2316" 
d="M1053 1569h211v-776l716 776h258l-573 -621l608 -948h-221l-516 807l-272 -293v-514h-211v514l-273 293l-516 -807h-221l608 948l-571 621h256l717 -776v776z" />
    <glyph glyph-name="uni0417" unicode="&#x417;" horiz-adv-x="1378" 
d="M614 1595c172 0 312.667 -36.501 422 -109.501s164 -171.5 164 -295.5c0 -87.333 -24.833 -160.666 -74.5 -219.999s-120.5 -100.666 -212.5 -123.999c102.667 -22 182.334 -67.5 239.001 -136.5s85 -153.167 85 -252.5c0 -162.667 -62.167 -284.667 -186.5 -366
s-269.833 -122 -436.5 -122c-86 0 -178.5 11.667 -277.5 35s-164.167 44.666 -195.5 63.999v219c106.667 -62.667 189.667 -101.667 249 -117s132.666 -23 219.999 -23c131.333 0 233.5 25.333 306.5 76s109.5 128.667 109.5 234c0 91.333 -32.5 163.333 -97.5 216
s-165.5 79 -301.5 79h-213v174h221c125.333 0 215.666 20.833 270.999 62.5s83 101.167 83 178.5c0 80.667 -28.667 142.5 -86 185.5s-155 64.5 -293 64.5c-94 0 -157 -4 -189 -12s-119.667 -39.333 -263 -94v207c78.667 28.667 159.334 48.667 242.001 60s154 17 214 17z
" />
    <glyph glyph-name="uni0418" unicode="&#x418;" horiz-adv-x="1610" 
d="M1399 1569v-1569h-207v1311l-694 -1311h-287v1569h207v-1313l694 1313h287z" />
    <glyph glyph-name="uni0419" unicode="&#x419;" horiz-adv-x="1610" 
d="M467 1997h122.999c9.33301 -38.667 31.5 -68.167 66.5 -88.5s81.167 -30.5 138.5 -30.5s103 9.83301 137 29.5s56.333 49.5 67 89.5h123c-6.66699 -83.333 -38 -146.5 -94 -189.5s-133.667 -64.5 -233 -64.5c-101.333 0 -179.666 21.167 -234.999 63.5
s-86.333 105.833 -93 190.5zM1399 1569v-1569h-207v1311l-694 -1311h-287v1569h207v-1313l694 1313h287z" />
    <glyph glyph-name="uni041A" unicode="&#x41a;" horiz-adv-x="1528" 
d="M211 1569h213v-776l758 776h270l-604 -621l637 -948h-232l-542 807l-287 -293v-514h-213v1569z" />
    <glyph glyph-name="uni041B" unicode="&#x41b;" horiz-adv-x="1618" 
d="M88 0v177.999c151.333 32.667 249 106.334 293 221.001c60 182 90 482.333 90 901v269h934v-1569h-211v1389h-510v-193c0 -396 -36.333 -686.667 -109 -872c-68 -176.667 -230.333 -284.667 -487 -324z" />
    <glyph glyph-name="uni041C" unicode="&#x41c;" horiz-adv-x="1855" 
d="M211 1569h315l402 -1067l401 1067h316v-1569h-207v1376l-404 -1075h-213l-403 1075v-1376h-207v1569z" />
    <glyph glyph-name="uni041D" unicode="&#x41d;" horiz-adv-x="1618" 
d="M211 1569h213v-643h770v643h213v-1569h-213v748h-770v-748h-213v1569z" />
    <glyph glyph-name="uni041E" unicode="&#x41e;" horiz-adv-x="1694" 
d="M848 1423c-154.667 0 -277.334 -57.333 -368.001 -172s-136 -271 -136 -469s45.333 -354.333 136 -469s213.334 -172 368.001 -172c152.667 0 274.167 57.333 364.5 172s135.5 271 135.5 469s-45.167 354.333 -135.5 469s-211.833 172 -364.5 172zM848 1595
c220 0 395.833 -73.667 527.5 -221s197.5 -344.666 197.5 -591.999c0 -246.667 -65.833 -443.834 -197.5 -591.501s-307.5 -221.5 -527.5 -221.5c-221.333 0 -397.833 73.833 -529.5 221.5s-197.5 344.834 -197.5 591.501c0 247.333 65.833 444.666 197.5 591.999
s308.167 221 529.5 221z" />
    <glyph glyph-name="uni041F" unicode="&#x41f;" horiz-adv-x="1618" 
d="M1407 1569v-1569h-213v1389h-770v-1389h-213v1569h1196z" />
    <glyph glyph-name="uni0420" unicode="&#x420;" horiz-adv-x="1296" 
d="M424 1393v-588h266c98.667 0 174.834 25.5 228.501 76.5s80.5 123.833 80.5 218.5c0 92.667 -26.833 164.667 -80.5 216s-129.834 77 -228.501 77h-266zM211 1569h479c174.667 0 307.167 -40 397.5 -120s135.5 -196.333 135.5 -349
c0 -156 -45.167 -273.167 -135.5 -351.5s-222.833 -117.5 -397.5 -117.5h-266v-631h-213v1569z" />
    <glyph glyph-name="uni0421" unicode="&#x421;" horiz-adv-x="1501" 
d="M1384 1448l-0.00195312 -225.003c-70.667 66.667 -146.667 116.334 -228 149.001s-167 49 -257 49c-178.667 0 -315.834 -54.5 -411.501 -163.5s-143.5 -267.5 -143.5 -475.5c0 -207.333 47.833 -365.666 143.5 -474.999s232.834 -164 411.501 -164
c90 0 175.667 16.833 257 50.5s157.333 83.167 228 148.5v-221c-73.333 -50.667 -151.666 -88.667 -234.999 -114s-170.666 -38 -261.999 -38c-238 0 -425.167 72.833 -561.5 218.5s-204.5 343.834 -204.5 594.501c0 251.333 68.167 449.666 204.5 594.999
s323.5 218 561.5 218c92.667 0 180.667 -12.167 264 -36.5s161 -61.166 233 -110.499z" />
    <glyph glyph-name="uni0422" unicode="&#x422;" horiz-adv-x="1315" 
d="M-6 1569h1327v-180h-557v-1389h-213v1389h-557v180z" />
    <glyph glyph-name="uni0423" unicode="&#x423;" horiz-adv-x="1311" 
d="M688 190c-14.667 -35.333 -33 -66 -55 -92c-56 -65.333 -171.333 -98 -346 -98h-82v178h65c83.333 0 141.333 9.66699 174 29c19.333 12 35.333 32.333 48 61l49 113l-504 1188h227l389 -922l394 922h227z" />
    <glyph glyph-name="uni0424" unicode="&#x424;" horiz-adv-x="1851" 
d="M819 1245c-151.333 -13.333 -267.333 -55.833 -348 -127.5s-121 -176.5 -121 -314.5s40.333 -242.5 121 -313.5s196.667 -113.5 348 -127.5v883zM1032 362c153.333 14 269.5 56.5 348.5 127.5s118.5 175.5 118.5 313.5s-39.5 242.833 -118.5 314.5
s-195.167 114.167 -348.5 127.5v-883zM819 186c-221.333 16.667 -392 77.167 -512 181.5s-180 249.5 -180 435.5c0 185.333 60 331 180 437s290.667 166.333 512 181v148h213v-148c222.667 -14.667 393.667 -74.667 513 -180s179 -251.333 179 -438
c0 -186 -59.667 -331.167 -179 -435.5s-290.333 -164.833 -513 -181.5v-186h-213v186z" />
    <glyph glyph-name="uni0425" unicode="&#x425;" horiz-adv-x="1473" 
d="M135 1569h227l392 -584l391 584h227l-504 -754l539 -815h-229l-441 668l-444 -668h-230l562 838z" />
    <glyph glyph-name="uni0426" unicode="&#x426;" horiz-adv-x="1669" 
d="M1407 0h-1196v1569h213v-1391h770v1391h213v-1391h176v-516h-176v338z" />
    <glyph glyph-name="uni0427" unicode="&#x427;" horiz-adv-x="1475" 
d="M1051 0v643h-439c-129.333 0 -233 40.667 -311 122s-117 205.333 -117 372v432h211v-416c0 -110.667 21.5 -193.667 64.5 -249s108.167 -83 195.5 -83h396v748h213v-1569h-213z" />
    <glyph glyph-name="uni0428" unicode="&#x428;" horiz-adv-x="2300" 
d="M1255 178h621v1391h213v-1569h-1878v1569h213v-1391h620v1391h211v-1391z" />
    <glyph glyph-name="uni0429" unicode="&#x429;" horiz-adv-x="2351" 
d="M2089 0h-1878v1569h213v-1391h620v1391h211v-1391h621v1391h213v-1391h178v-516h-178v338z" />
    <glyph glyph-name="uni042A" unicode="&#x42a;" horiz-adv-x="1790" 
d="M526 0v1389h-463v180h674v-645h353c174.667 0 309.667 -38.333 405 -115s143 -192.667 143 -348c0 -154.667 -47.667 -270.167 -143 -346.5s-230.333 -114.5 -405 -114.5h-564zM1413 461c0 96.667 -27.332 169 -81.999 217s-139.334 72 -254.001 72h-340v-576h340
c113.333 0 198 24 254 72c54.667 46 82 117.667 82 215z" />
    <glyph glyph-name="uni042B" unicode="&#x42b;" horiz-adv-x="1896" 
d="M1100 461c0 96.667 -28 169 -84 217c-54.667 48 -138.667 72 -252 72h-340v-576h340c113.333 0 197.333 24 252 72c56 46 84 117.667 84 215zM211 1569h213v-645h350c174.667 0 309.834 -38.333 405.501 -115s143.5 -192.667 143.5 -348
c0 -154.667 -47.833 -270.167 -143.5 -346.5s-230.834 -114.5 -405.501 -114.5h-563v1569zM1475 1569h213v-1569h-213v1569z" />
    <glyph glyph-name="uni042C" unicode="&#x42c;" horiz-adv-x="1475" 
d="M1100 461c0 96.667 -28 169 -84 217c-54.667 48 -138.667 72 -252 72h-340v-576h340c113.333 0 197.333 24 252 72c56 46 84 117.667 84 215zM211 1569h213v-645h350c174.667 0 309.834 -38.333 405.501 -115s143.5 -192.667 143.5 -348
c0 -154.667 -47.833 -270.167 -143.5 -346.5s-230.834 -114.5 -405.501 -114.5h-563v1569z" />
    <glyph glyph-name="uni042D" unicode="&#x42d;" horiz-adv-x="1501" 
d="M117 342c147.333 -132.667 310.333 -199.001 489 -199.001c186 0 320.667 49.833 404 149.5s132.333 232.834 147 399.501h-838v178h838c-14.667 168 -63.667 301.833 -147 401.5s-218 149.5 -404 149.5c-178.667 0 -341.667 -66 -489 -198v225c146 98 313 147 501 147
c235.333 0 421.166 -72.667 557.499 -218s204.5 -343.666 204.5 -594.999c0 -250.667 -68.167 -448.834 -204.5 -594.501s-322.166 -218.5 -557.499 -218.5c-185.333 0 -352.333 50.667 -501 152v221z" />
    <glyph glyph-name="uni042E" unicode="&#x42e;" horiz-adv-x="2322" 
d="M1477 1423c-154.667 0 -277 -57.333 -367 -172c-91.333 -114.667 -137 -271 -137 -469s45.667 -354.333 137 -469c90 -114.667 212.333 -172 367 -172c152.667 0 274 57.333 364 172s135 271 135 469s-45 354.333 -135 469s-211.333 172 -364 172zM754 872
c9.33301 196.667 76.666 366.666 201.999 509.999c127.333 142 301 213 521 213c219.333 0 394.666 -73.667 525.999 -221c132.667 -147.333 199 -344.666 199 -591.999c0 -246.667 -66.333 -444 -199 -592c-131.333 -147.333 -306.666 -221 -525.999 -221
c-220 0 -393.667 71.667 -521 215c-125.333 143.333 -192.666 313.333 -201.999 510h-320v-694h-213v1569h213v-697h320z" />
    <glyph glyph-name="uni042F" unicode="&#x42f;" horiz-adv-x="1493" 
d="M432 1116c0 -91.333 26 -160.5 78 -207.5s129 -70.5 231 -70.5h330v555h-330c-102 0 -179 -23.333 -231 -70s-78 -115.667 -78 -207zM143 0l428 686.001c-69.333 18 -149 56.667 -239 116s-135 164 -135 314c0 143.333 45.333 254.666 136 333.999s226.667 119 408 119
h541v-1569h-211v664h-285l-411 -664h-232z" />
    <glyph glyph-name="uni0430" unicode="&#x430;" horiz-adv-x="1319" 
d="M737 592c-155.333 0 -263.333 -18.167 -324 -54.5s-91 -97.5 -91 -183.5c0 -68 22.833 -122.167 68.5 -162.5s106.5 -60.5 182.5 -60.5c108 0 194.5 37.833 259.5 113.5s97.5 177.167 97.5 304.5v43h-193zM1122 672l-0.00195312 -672.002h-192v178
c-45.333 -70.667 -100.666 -123.167 -165.999 -157.5s-146 -51.5 -242 -51.5c-120 0 -215.5 33.833 -286.5 101.5s-106.5 158.167 -106.5 271.5c0 132.667 44.333 232.334 133 299.001s220.334 100 395.001 100h273v21c0 88.667 -29.333 157.167 -88 205.5
s-140.667 72.5 -246 72.5c-66.667 0 -132.167 -8.16699 -196.5 -24.5s-125.833 -40.166 -184.5 -71.499v178c71.333 27.333 140 47.833 206 61.5s130.333 20.5 193 20.5c170.667 0 298 -44 382 -132s126 -221.333 126 -400z" />
    <glyph glyph-name="uni0431" unicode="&#x431;" horiz-adv-x="1325" 
d="M670 1204c168 0 299.667 -54.5 395 -163.5s143 -259.833 143 -452.5s-47.667 -344 -143 -454s-227 -165 -395 -165c-169.333 0 -300.833 53.333 -394.5 160s-142.5 259.667 -146.5 459l-6 239c-2.66699 83.333 -4 139.333 -4 168c0 112 19.667 209 59 291
c64 131.333 151 225 261 281s258 84.667 444 86c84.667 0 146 6 184 18l53 -153c-34 -15.333 -66.667 -23 -98 -23l-262 -18c-88.667 -6 -159.667 -24.667 -213 -56c-139.333 -82 -216 -176 -230 -282l-6 -60c90 83.333 209.667 125 359 125zM670 1040
c-105.333 0 -187.666 -40.167 -246.999 -120.5s-89 -190.833 -89 -331.5s29.667 -251.667 89 -333s141.666 -122 246.999 -122c102 0 183.167 40.667 243.5 122s90.5 192.333 90.5 333c0 139.333 -30.167 249.5 -90.5 330.5s-141.5 121.5 -243.5 121.5z" />
    <glyph glyph-name="uni0432" unicode="&#x432;" horiz-adv-x="1268" 
d="M387 543v-389.001h277c88.667 0 155.834 16.667 201.501 50s68.5 81.333 68.5 144s-22.833 110.834 -68.5 144.501s-112.834 50.5 -201.501 50.5h-277zM387 1022v-326h256c72.667 0 132.167 14.333 178.5 43s69.5 69 69.5 121s-23.167 92 -69.5 120
s-105.833 42 -178.5 42h-256zM195 1176l460 -0.000976562c138 0 244.167 -25.333 318.5 -76s111.5 -122.334 111.5 -215.001c0 -72.667 -19 -130.167 -57 -172.5s-94 -68.166 -168 -77.499c88.667 -18 157.667 -53.5 207 -106.5s74 -119.167 74 -198.5
c0 -105.333 -40.667 -186.666 -122 -243.999s-196.333 -86 -345 -86h-479v1176z" />
    <glyph glyph-name="uni0433" unicode="&#x433;" horiz-adv-x="1130" 
d="M195 0v1176h829v-154h-635v-1022h-194z" />
    <glyph glyph-name="uni0434" unicode="&#x434;" horiz-adv-x="1487" 
d="M465 154h561v868h-408v-148c0 -288 -40.667 -509 -122 -663zM184 154c64.667 28.667 110.667 73 138 133c69.333 147.333 104 369 104 665v224h795v-1022h153v-451h-153v297h-955v-297h-153v451h71z" />
    <glyph glyph-name="uni0435" unicode="&#x435;" horiz-adv-x="1323" 
d="M1208 637l-0.00292969 -93.9961h-889c10 -134 50.833 -235.833 122.5 -305.5s170.834 -104.5 297.501 -104.5c75.333 0 147.833 9.16699 217.5 27.5s138.5 46.166 206.5 83.499v-185c-69.333 -28.667 -140.166 -50.834 -212.499 -66.501s-146.166 -23.5 -221.499 -23.5
c-188.667 0 -337.5 54.667 -446.5 164s-163.5 256.666 -163.5 441.999c0 192.667 51.833 345.667 155.5 459s243.5 170 419.5 170c158.667 0 284 -50.833 376 -152.5s138 -239.834 138 -414.501zM1016 692.004c-1.33301 106.667 -31.002 191.334 -89.002 254.001
s-135 94 -231 94c-107.333 0 -193.166 -30.333 -257.499 -91s-101.166 -146.334 -110.499 -257.001h688z" />
    <glyph glyph-name="uni0436" unicode="&#x436;" horiz-adv-x="1937" 
d="M872 1176h193v-551l514 551h223l-422 -453l484 -723h-207l-395 594l-197 -211v-383h-193v383l-196 211l-395 -594h-207l481 723l-422 453h225l514 -551v551z" />
    <glyph glyph-name="uni0437" unicode="&#x437;" horiz-adv-x="1143" 
d="M741 635c86 -18 153.334 -52.168 202.001 -102.501s73 -113.833 73 -190.5c0 -120 -45.167 -212.167 -135.5 -276.5s-218.5 -96.5 -384.5 -96.5c-56 0 -113.833 5.16699 -173.5 15.5s-120.834 25.166 -183.501 44.499v180c49.333 -26 104 -45.833 164 -59.5
s122 -20.5 186 -20.5c106.667 0 189.334 19.833 248.001 59.5s88 90.834 88 153.501c0 61.333 -25.833 110.833 -77.5 148.5s-126.167 56.5 -223.5 56.5h-153v160h161c80.667 0 145 15.667 193 47s72 71.333 72 120c0 44 -24.667 82 -74 114s-115.666 48 -198.999 48
c-48.667 0 -101.334 -4.33301 -158.001 -13s-118.667 -22.667 -186 -42v174c68.667 16.667 132.667 29 192 37s115.666 12 168.999 12c138 0 246.5 -27.333 325.5 -82s118.5 -131 118.5 -229c0 -65.333 -21.167 -120.666 -63.5 -165.999s-102.5 -76 -180.5 -92z" />
    <glyph glyph-name="uni0438" unicode="&#x438;" horiz-adv-x="1399" 
d="M1202 1176v-1176h-192v944l-568 -944h-247v1176h192v-943l565 943h250z" />
    <glyph glyph-name="uni0439" unicode="&#x439;" horiz-adv-x="1399" 
d="M371 1634h125c6.66699 -53.333 27 -92.833 61 -118.5s81 -38.5 141 -38.5c62 0 109.667 12.833 143 38.5s54 65.167 62 118.5h125c-6.66699 -99.333 -37.667 -174.666 -93 -225.999s-134.333 -77 -237 -77c-100.667 0 -178.667 25.667 -234 77
s-86.333 126.666 -93 225.999zM1202 1176v-1176h-192v944l-568 -944h-247v1176h192v-943l565 943h250z" />
    <glyph glyph-name="uni043A" unicode="&#x43a;" horiz-adv-x="1298" 
d="M195 1176h192v-551l545 551h237l-448 -455l506 -721h-215l-418 594l-207 -211v-383h-192v1176z" />
    <glyph glyph-name="uni043B" unicode="&#x43b;" horiz-adv-x="1374" 
d="M80 0v162.001c126.667 18.667 210 72 250 160c47.333 124 71 344.333 71 661v193h795v-1176h-192v1022h-410v-117c0 -302.667 -30.667 -521.667 -92 -657c-66 -144.667 -206.667 -227.334 -422 -248.001z" />
    <glyph glyph-name="uni043C" unicode="&#x43c;" horiz-adv-x="1622" 
d="M195 1176h282l334 -789l336 789h280v-1176h-194v991l-326 -766h-192l-326 766v-991h-194v1176z" />
    <glyph glyph-name="uni043D" unicode="&#x43d;" horiz-adv-x="1407" 
d="M195 1176h194v-480h627v480h194v-1176h-194v543h-627v-543h-194v1176z" />
    <glyph glyph-name="uni043E" unicode="&#x43e;" horiz-adv-x="1317" 
d="M657 1040c-102 0 -183.333 -40.167 -244 -120.5s-91 -190.833 -91 -331.5s30 -251.667 90 -333s141.667 -122 245 -122c104 0 186 40.667 246 122s90 192.333 90 333c0 139.333 -30 249.5 -90 330.5s-142 121.5 -246 121.5zM657 1204c168 0 300.167 -54.5 396.5 -163.5
s144.5 -259.833 144.5 -452.5s-48.167 -344 -144.5 -454s-228.5 -165 -396.5 -165c-167.333 0 -298.833 55 -394.5 165s-143.5 261.333 -143.5 454s47.833 343.5 143.5 452.5s227.167 163.5 394.5 163.5z" />
    <glyph glyph-name="uni043F" unicode="&#x43f;" horiz-adv-x="1407" 
d="M1210 1176v-1176h-194v1022h-627v-1022h-194v1176h1015z" />
    <glyph glyph-name="uni0440" unicode="&#x440;" horiz-adv-x="1366" 
d="M389 176v-621.999h-194v1622h194v-179c41.333 70 93 122 155 156s136 51 222 51c143.333 0 259.333 -56.667 348 -170s133 -262 133 -446c0 -186 -44.333 -335.667 -133 -449s-204.667 -170 -348 -170c-86 0 -160 17.167 -222 51.5s-113.667 86.166 -155 155.499z
M1047 588.001c0 142 -29.5 253.167 -88.5 333.5s-138.833 120.5 -239.5 120.5c-102.667 0 -183.334 -40.167 -242.001 -120.5s-88 -191.5 -88 -333.5s29.333 -253.667 88 -335s139.334 -122 242.001 -122c100.667 0 180.5 40.667 239.5 122s88.5 193 88.5 335z" />
    <glyph glyph-name="uni0441" unicode="&#x441;" horiz-adv-x="1182" 
d="M1049 1130l-0.000976562 -180c-54.667 30 -109.334 52.5 -164.001 67.5s-110 22.5 -166 22.5c-126 0 -223.667 -39.5 -293 -118.5s-104 -190.167 -104 -333.5s34.667 -255 104 -335s167 -120 293 -120c56 0 111.333 7.5 166 22.5s109.334 37.5 164.001 67.5v-178
c-53.333 -26 -109 -45.167 -167 -57.5s-120 -18.5 -186 -18.5c-176 0 -316.167 55.667 -420.5 167s-156.5 262 -156.5 452c0 190.667 52.5 341 157.5 451s249.833 165 434.5 165c58.667 0 116.334 -6.16699 173.001 -18.5s111.667 -30.833 165 -55.5z" />
    <glyph glyph-name="uni0442" unicode="&#x442;" horiz-adv-x="1253" 
d="M63 1176h1127v-154h-469v-1022h-191v1022h-467v154z" />
    <glyph glyph-name="uni0443" unicode="&#x443;" horiz-adv-x="1274" 
d="M692 -109c-54.667 -140 -107.835 -231.167 -159.502 -273.5s-121.167 -63.5 -208.5 -63.5h-154v159h113c52.667 0 93.834 12.667 123.501 38s62.834 85 99.501 179l35 88l-478 1158h205l369 -920l367 920h204z" />
    <glyph glyph-name="uni0444" unicode="&#x444;" horiz-adv-x="1839" 
d="M317 588c0 -165.333 25.333 -282.833 76 -352.5s119.667 -104.5 207 -104.5c68 0 141.667 58.667 221 176v559c-79.333 117.333 -153 176 -221 176c-87.333 0 -156.333 -34.667 -207 -104s-76 -186 -76 -350zM821 -446v596c-39.333 -66 -81.833 -112.667 -127.5 -140
s-97.167 -41 -154.5 -41c-118 0 -217.5 54.333 -298.5 163s-121.5 259.334 -121.5 452.001c0 190.667 40.5 341.667 121.5 453s180.5 167 298.5 167c57.333 0 108.833 -13.333 154.5 -40s88.167 -72.667 127.5 -138v543h195v-543c39.333 65.333 82.166 111.333 128.499 138
s98.166 40 155.499 40c118 0 217.5 -55.667 298.5 -167s121.5 -262.333 121.5 -453c0 -192.667 -40.5 -343.334 -121.5 -452.001s-180.5 -163 -298.5 -163c-57.333 0 -109.166 13.667 -155.499 41s-89.166 74 -128.499 140v-596h-195zM1520 588
c0 164 -25.333 280.667 -76 350s-119 104 -205 104c-68 0 -142.333 -58.667 -223 -176v-559c80.667 -117.333 155 -176 223 -176c86 0 154.333 34.833 205 104.5s76 187.167 76 352.5z" />
    <glyph glyph-name="uni0445" unicode="&#x445;" horiz-adv-x="1274" 
d="M1180 1176l-424 -572l446 -604h-227l-342 463l-342 -463h-230l457 614l-418 562h230l309 -418l313 418h228z" />
    <glyph glyph-name="uni0446" unicode="&#x446;" horiz-adv-x="1464" 
d="M1210 0h-1015v1176h194v-1022h627v1022h194v-1022h156v-451h-156v297z" />
    <glyph glyph-name="uni0447" unicode="&#x447;" horiz-adv-x="1270" 
d="M883 0v496h-361c-108 0 -197.333 32.667 -268 98c-64 60 -96 155 -96 285v297h192v-281c0 -82 18.667 -143.333 56 -184c36.667 -41.333 91 -62 163 -62h314v527h192v-1176h-192z" />
    <glyph glyph-name="uni0448" unicode="&#x448;" horiz-adv-x="1968" 
d="M1079 154h500v1022h193v-1176h-1577v1176h194v-1022h498v1022h192v-1022z" />
    <glyph glyph-name="uni0449" unicode="&#x449;" horiz-adv-x="2025" 
d="M1772 0h-1577v1176h194v-1022h498v1022h192v-1022h500v1022h193v-1022h155v-451h-155v297z" />
    <glyph glyph-name="uni044A" unicode="&#x44a;" horiz-adv-x="1520" 
d="M926 696c150 0 265.333 -28.6689 346 -86.002s121 -144.666 121 -261.999s-40.333 -204.666 -121 -261.999s-196 -86 -346 -86h-480v1022h-380v154h573v-480h287zM918 542.998l-279 -0.000976562v-389h279c87.333 0 153.833 16.667 199.5 50s68.5 81.333 68.5 144
s-22.833 110.834 -68.5 144.501s-112.167 50.5 -199.5 50.5z" />
    <glyph glyph-name="uni044B" unicode="&#x44b;" horiz-adv-x="1698" 
d="M1315 1176h192v-1176h-192v1176zM934 348c0 62.667 -22.833 110.833 -68.5 144.5s-112.167 50.5 -199.5 50.5h-277v-389h277c87.333 0 153.833 16.667 199.5 50s68.5 81.333 68.5 144zM195 1176l194 -0.00195312v-480h285c148.667 0 263.667 -28.667 345 -86
s122 -144.666 122 -261.999s-40.667 -204.666 -122 -261.999s-196.333 -86 -345 -86h-479v1176z" />
    <glyph glyph-name="uni044C" unicode="&#x44c;" horiz-adv-x="1268" 
d="M934 348c0 62.667 -22.833 110.833 -68.5 144.5s-112.167 50.5 -199.5 50.5h-277v-389h277c87.333 0 153.833 16.667 199.5 50s68.5 81.333 68.5 144zM195 1176l194 -0.00195312v-480h285c148.667 0 263.667 -28.667 345 -86s122 -144.666 122 -261.999
s-40.667 -204.666 -122 -261.999s-196.333 -86 -345 -86h-479v1176z" />
    <glyph glyph-name="uni044D" unicode="&#x44d;" horiz-adv-x="1180" 
d="M119 223c110.667 -60 220.668 -90 330.001 -90c103.333 0 191.5 30 264.5 90s116.5 166.667 130.5 320h-596v153h590c-8.66699 74 -41 149.833 -97 227.5s-153.333 116.5 -292 116.5c-106.667 0 -216.667 -30 -330 -90v180c109.333 49.333 222.666 74 339.999 74
c182.667 0 326.667 -55.667 432 -167s158 -261 158 -449c0 -190 -51.333 -340.667 -154 -452s-244 -167 -424 -167c-132.667 0 -250 25.333 -352 76v178z" />
    <glyph glyph-name="uni044E" unicode="&#x44e;" horiz-adv-x="1810" 
d="M1153 1040c-104 0 -185.999 -40.167 -245.999 -120.5s-90 -190.833 -90 -331.5s29.667 -251.667 89 -333s141.666 -122 246.999 -122c102.667 0 184.334 40.667 245.001 122s91 192.333 91 333c0 139.333 -30.333 249.5 -91 330.5s-142.334 121.5 -245.001 121.5z
M618.001 707c14 132 64.665 247.833 151.998 347.5s215 149.5 383 149.5s300.167 -54.5 396.5 -163.5s144.5 -259.833 144.5 -452.5s-48.167 -344 -144.5 -454s-228.5 -165 -396.5 -165c-169.333 0 -299.666 53 -390.999 159s-140.666 245.667 -147.999 419h-219v-547h-192
v1176h192v-469h223z" />
    <glyph glyph-name="uni044F" unicode="&#x44f;" horiz-adv-x="1294" 
d="M397 838c0 -58.667 22.167 -104.5 66.5 -137.5s108.166 -49.5 191.499 -49.5h263v371h-263c-83.333 0 -147.166 -16 -191.499 -48s-66.5 -77.333 -66.5 -136zM123 0l358 516c-82 18 -149.833 50.833 -203.5 98.5s-80.5 122.167 -80.5 223.5
c0 113.333 37.833 198 113.5 254s189.167 84 340.5 84h459v-1176h-192v498h-242l-346 -498h-207z" />
    <glyph glyph-name="uni0451" unicode="&#x451;" horiz-adv-x="1323" 
d="M1208 637l-0.00292969 -93.9961h-889c10 -134 50.833 -235.833 122.5 -305.5s170.834 -104.5 297.501 -104.5c75.333 0 147.833 9.16699 217.5 27.5s138.5 46.166 206.5 83.499v-185c-69.333 -28.667 -140.166 -50.834 -212.499 -66.501s-146.166 -23.5 -221.499 -23.5
c-188.667 0 -337.5 54.667 -446.5 164s-163.5 256.666 -163.5 441.999c0 192.667 51.833 345.667 155.5 459s243.5 170 419.5 170c158.667 0 284 -50.833 376 -152.5s138 -239.834 138 -414.501zM1016 692.004c-1.33301 106.667 -31.002 191.334 -89.002 254.001
s-135 94 -231 94c-107.333 0 -193.166 -30.333 -257.499 -91s-101.166 -146.334 -110.499 -257.001h688zM794.995 1630h213v-213h-213v213zM382.995 1630h213v-213h-213v213z" />
    <glyph glyph-name="uni10A0" unicode="&#x10a0;" horiz-adv-x="1464" 
d="M1291 382c0 -91.333 -13.6689 -172.834 -41.002 -244.501s-67.333 -133.5 -120 -185.5c-105.333 -102.667 -239.666 -154 -402.999 -154c-159.333 0 -294.666 51.333 -405.999 154c-111.333 103.333 -167 249.666 -167 438.999v92c0 93.333 50.667 214.333 152 363
l163 -81c-59.333 -106.667 -89 -200.667 -89 -282v-101c0 -114 24 -207.667 72 -281c48 -69.333 139.667 -104 275 -104c58 0 108.167 8.66699 150.5 26s77.5 42 105.5 74c25.333 35.333 45.166 77.166 59.499 125.499s21.5 101.5 21.5 159.5v202
c0 106 -22.167 206 -66.5 300s-112.166 184.333 -203.499 271c-188.667 181.333 -283 366 -283 554v151h215v-151c0 -151.333 91.667 -312.666 275 -483.999c96 -91.333 168.333 -190.166 217 -296.499s73 -221.166 73 -344.499v-202z" />
    <glyph glyph-name="uni10A1" unicode="&#x10a1;" horiz-adv-x="1464" 
d="M380 385c0 -56.667 8 -108.497 24 -155.497s39 -89.5 69 -127.5c30.667 -34.667 67 -61.667 109 -81s89 -29 141 -29c50 0 96.333 9.66699 139 29s79.667 44.666 111 75.999c28 36.667 50.167 78.167 66.5 124.5s24.5 96.166 24.5 149.499v271
c0 118.667 -33.333 214.667 -100 288c-67.333 72 -147.666 108 -240.999 108c-53.333 -0.666992 -100.833 -10.334 -142.5 -29.001s-77.834 -45 -108.501 -79c-30 -37.333 -52.833 -80.5 -68.5 -129.5s-23.5 -104.167 -23.5 -165.5v-250zM607 1880
c0 -90 47 -158.002 141 -204.002c108.667 -56.667 163 -127.667 163 -213c0 -40 -4 -80.5 -12 -121.5s-18.667 -79.167 -32 -114.5c34 -6.66699 72 -23.667 114 -51s87.333 -63.666 136 -108.999c56 -54 99 -116.167 129 -186.5s45 -147.166 45 -230.499v-296
c0 -140.667 -54.667 -269.334 -164 -386.001c-55.333 -58 -116.5 -101.667 -183.5 -131s-140.5 -44 -220.5 -44c-166 0 -303 58 -411 174c-105.333 115.333 -158 245.333 -158 390v293c0 169.333 56.333 308.333 169 417c54 51.333 108.5 90.5 163.5 117.5
s109.167 42.167 162.5 45.5c26 62 39 136 39 222c0 47.333 -47 94.666 -141 141.999c-55.333 28.667 -96.5 66.334 -123.5 113.001s-40.5 104.334 -40.5 173.001h224z" />
    <glyph glyph-name="uni10A2" unicode="&#x10a2;" horiz-adv-x="1647" 
d="M1238 590c0 107.333 -36.999 202.332 -110.999 284.999c-36 42.667 -75.333 74 -118 94s-88.334 30 -137.001 30h-91c-114.667 0 -210 -37 -286 -111c-76 -72 -114 -184.333 -114 -337v-129c0 -56.667 9.83301 -109.667 29.5 -159s48.5 -96 86.5 -140
c78 -87.333 182.667 -131 314 -131c76 0 141.5 10.167 196.5 30.5s98.5 50.833 130.5 91.5c66.667 84.667 100 187.334 100 308.001v168zM1470 400.999c0 -76 -15.6699 -149.334 -47.0029 -220.001s-75.666 -137 -132.999 -199c-58.667 -60 -129.167 -106.5 -211.5 -139.5
s-173.5 -49.5 -273.5 -49.5c-172.667 0 -324.667 62.667 -456 188c-64.667 63.333 -113 129.5 -145 198.5s-48 142.833 -48 221.5v158c6.66699 204.667 77.667 363 213 475c133.333 108 293 163.667 479 167c41.333 44 71.833 87.667 91.5 131s29.5 85.333 29.5 126
c0 34 -4.16699 64.833 -12.5 92.5s-21.666 51 -39.999 70s-42 33.667 -71 44s-64.5 15.5 -106.5 15.5c-42.667 0 -79.5 -4 -110.5 -12s-56.667 -19.167 -77 -33.5s-35.333 -31.5 -45 -51.5s-14.5 -42 -14.5 -66v-193h-204v193c0 48 10.833 93.5 32.5 136.5
s53.5 82.167 95.5 117.5c41.333 34.667 89.333 61.5 144 80.5s114.334 28.5 179.001 28.5c145.333 0 255 -39 329 -117c72.667 -76.667 109 -170.667 109 -282c0 -104 -39 -205.667 -117 -305c60.667 -19.333 138.667 -74 234 -164
c56.667 -53.333 100.167 -115.166 130.5 -185.499s45.5 -148.5 45.5 -234.5v-191z" />
    <glyph glyph-name="uni10A3" unicode="&#x10a3;" horiz-adv-x="2179" 
d="M1763 1224c0 172 -23.332 290.666 -69.999 355.999c-21.333 34 -51.166 59.167 -89.499 75.5s-84.5 24.5 -138.5 24.5c-108.667 0 -185.667 -30.333 -231 -91c-46.667 -60 -70 -180.333 -70 -361v-109c0 -168 23.333 -288.667 70 -362
c23.333 -36.667 54.166 -63.5 92.499 -80.5s84.5 -25.5 138.5 -25.5s100.167 8.66699 138.5 26s68.166 44.333 89.499 81c46.667 72.667 70 190.334 70 353.001v113zM1309 -210.001c-1.33301 29.333 -13.832 57.6631 -37.499 84.9961s-56 52.833 -97 76.5
s-89.667 45.334 -146 65.001s-117.5 37.167 -183.5 52.5c-62.667 -2 -128 -15.5 -196 -40.5s-137.333 -61.5 -208 -109.5l-88 214c44 11.333 90.5 21.833 139.5 31.5s101.167 18.167 156.5 25.5c-165.333 136 -288.166 281.833 -368.499 437.5
s-120.5 322.834 -120.5 501.501v190c0 147.333 43 277.333 129 390c88 114 222 171 402 171c65.333 0 129.833 -15.167 193.5 -45.5s125.834 -76.166 186.501 -137.499c47.333 64 103.166 110.5 167.499 139.5s139.833 43.5 226.5 43.5c182.667 0 316 -62.333 400 -187
c42.667 -62.667 74.167 -132.667 94.5 -210s30.5 -163.666 30.5 -258.999v-118c0 -216 -44.333 -379 -133 -489s-219.334 -166 -392.001 -168c-164 0 -294 59.667 -390 179c-94 116.667 -141 279.667 -141 489v101c0 42 4.33301 90.667 13 146s22.667 118.333 42 189
c-18 23.333 -36.833 43.666 -56.5 60.999s-39.834 30 -60.501 38c-23.333 8.66699 -50.333 15.5 -81 20.5s-64 7.5 -100 7.5c-96.667 0 -171.334 -31.333 -224.001 -94c-27.333 -32 -48 -70.333 -62 -115s-21 -95.334 -21 -152.001v-181
c1.33301 -91.333 15.333 -183.166 42 -275.499s64.667 -184.166 114 -275.499v1c25.333 -42 57 -82.5 95 -121.5s81.5 -75.667 130.5 -110s103.333 -66 163 -95s123.5 -54.5 191.5 -76.5c146.667 -48 258.334 -104.833 335.001 -170.5s115.667 -140.5 117 -224.5h-263z" />
    <glyph glyph-name="uni10A4" unicode="&#x10a4;" horiz-adv-x="1509" 
d="M1294 273c0 -76.667 -13.666 -144.167 -40.999 -202.5s-67.666 -108.5 -120.999 -150.5c-105.333 -84.667 -240.333 -127 -405 -127c-80.667 0 -155.334 12.833 -224.001 38.5s-130 62.167 -184 109.5c-52 50 -92 105.333 -120 166s-42 125.667 -42 195
c-1.33301 79.333 4.66699 154.666 18 225.999s35 139.333 65 204h230c-28.667 -70 -50.334 -140.667 -65.001 -212s-22 -145 -22 -221c0 -97.333 28 -172.833 84 -226.5s142.667 -80.5 260 -80.5c43.333 0 85.833 6.83301 127.5 20.5s79.167 30.834 112.5 51.501
c30 23.333 54.167 54 72.5 92s27.5 79.333 27.5 124v1137c0 73.333 -25.667 134.666 -77 183.999c-52 52.667 -124.333 79 -217 79c-43.333 0 -83.5 -6 -120.5 -18s-70.5 -30 -100.5 -54c-59.333 -44.667 -89 -109 -89 -193c0 -32 3 -70.833 9 -116.5
s15.333 -98.5 28 -158.5h-197c-18 56.667 -31.667 107.834 -41 153.501s-14 86.167 -14 121.5c0 142.667 49 255.667 147 339c47.333 42.667 101.333 74.334 162 95.001s127.667 31 201 31c74.667 0 144 -10.333 208 -31s121.667 -51 173 -91
c50 -41.333 88.333 -90.333 115 -147s40 -121.334 40 -194.001v-1144z" />
    <glyph glyph-name="uni10A5" unicode="&#x10a5;" horiz-adv-x="1467" 
d="M1294 285c0 -67.333 -13.165 -129.836 -39.498 -187.503s-65.5 -111.167 -117.5 -160.5c-104 -96 -240.667 -144 -410 -144c-162 0 -297.333 46 -406 138c-109.333 96 -164 210.667 -164 344v105c-1.33301 44 4.66699 92 18 144s35 109.333 65 172h210
c-21.333 -69.333 -37.833 -131 -49.5 -185s-17.5 -100.667 -17.5 -140v-80c0 -48 7.66699 -90.667 23 -128s39 -68.333 71 -93c34 -25.333 71.5 -44.666 112.5 -57.999s86.833 -20 137.5 -20c109.333 0 193.333 25 252 75s88 122.667 88 218v219
c0 43.333 -4.66699 82.333 -14 117s-22.5 64.834 -39.5 90.501s-37.5 47 -61.5 64s-50.333 29.167 -79 36.5h-191v200h195c108 0 162 113.333 162 340v60c0 87.333 -26 153.833 -78 199.5s-126.333 68.5 -223 68.5c-48.667 0 -91.334 -6.66699 -128.001 -20
s-68 -34.333 -94 -63c-52 -54 -78 -104.667 -78 -152v-40c0 -26.667 2 -55.334 6 -86.001s10.667 -64.667 20 -102l-215 -2c-12.667 31.333 -22 62 -28 92s-9 59 -9 87v64c0 116.667 55 216.334 165 299.001c106 82 226.333 123 361 123c171.333 0 302.666 -49 393.999 -147
c89.333 -95.333 134 -198.666 134 -309.999v-88c0 -174 -69.333 -312.667 -208 -416c80 -36 139.333 -88.167 178 -156.5s58 -154.5 58 -258.5v-219z" />
    <glyph glyph-name="uni10A6" unicode="&#x10a6;" horiz-adv-x="1588" 
d="M804 1497c0 26 -6.5 49.667 -19.5 71s-31.167 40.666 -54.5 57.999c-25.333 17.333 -53.5 30.666 -84.5 39.999s-64.5 14 -100.5 14c-42 0 -78.667 -4 -110 -12s-59.333 -19.667 -84 -35c-23.333 -14.667 -40.333 -33.667 -51 -57s-16 -51.333 -16 -84v-98
c0 -34 6.16699 -64.167 18.5 -90.5s30.166 -48.166 53.499 -65.499c26 -17.333 55 -30.666 87 -39.999s67.667 -14 107 -14c38.667 0 73.834 5.66699 105.501 17s59.167 27 82.5 47c18 19.333 33.5 42 46.5 68s19.5 52 19.5 78v103zM447 409
c0 -121.333 32.667 -222.001 98 -302.001c64.667 -76.667 154.667 -115 270 -115c118.667 0 209.334 38.333 272.001 115c66 80.667 99 185.667 99 315v123c0 127.333 -33 228 -99 302c-31.333 38 -69.833 66.5 -115.5 85.5s-97.834 28.5 -156.501 28.5
c-106 0 -194 -32 -264 -96c-36 -30 -62.333 -69.667 -79 -119s-25 -108.666 -25 -177.999v-159zM1022 1434c0 -45.333 -13.834 -92.168 -41.501 -140.501s-64.834 -94.166 -111.501 -137.499c78 -7.33301 150.667 -24.666 218 -51.999s123.333 -65 168 -113
c104 -110 156 -241.333 156 -394v-220c0 -180 -52.333 -322 -157 -426c-103.333 -105.333 -249.666 -158 -438.999 -158c-175.333 0 -317.333 52 -426 156c-110.667 105.333 -166 248 -166 428v213c0 97.333 16.833 181.333 50.5 252s85.834 130.334 156.501 179.001
c-123.333 21.333 -213.833 67.166 -271.5 137.499s-86.5 164.166 -86.5 281.499v63c0 50 10.667 98 32 144s51 87 89 123c82.667 73.333 199 110 349 110c80 0 150 -8.66699 210 -26s110 -42.333 150 -75s70 -72.167 90 -118.5s30 -98.833 30 -157.5v-69z" />
    <glyph glyph-name="uni10A7" unicode="&#x10a7;" horiz-adv-x="2262" 
d="M1042 1338c0 53.333 -7.33594 100.833 -22.0029 142.5s-37 77.167 -67 106.5c-57.333 62 -137.333 93 -240 93c-110.667 0 -193 -49 -247 -147s-81 -246.667 -81 -446v-475c0 -119.333 6.83301 -219.5 20.5 -300.5s33.834 -144.167 60.501 -189.5
c25.333 -44 58.833 -76.667 100.5 -98s90.5 -32 146.5 -32c56.667 0 106.334 12.5 149.001 37.5s76.334 59.167 101.001 102.5v-1c24.667 48.667 44 108.167 58 178.5s21 148.833 21 235.5v793zM2072 902c0 -497.333 -137.665 -867.001 -412.998 -1109h-274
c306 288 459 652 459 1092v301c0 77.333 -6.16699 147.166 -18.5 209.499s-29.833 115.5 -52.5 159.5c-23.333 40 -59.333 70.833 -108 92.5s-109.334 32.5 -182.001 32.5c-110.667 0 -205.334 -37 -284.001 -111c22.667 -35.333 39.834 -72.666 51.501 -111.999
s17.5 -79 17.5 -119v-785c0 -110.667 -11.667 -211.167 -35 -301.5s-59 -170.833 -107 -241.5c-46.667 -72 -104.334 -126.167 -173.001 -162.5s-148.667 -54.5 -240 -54.5c-167.333 0 -302 64 -404 192c-99.333 125.333 -149 327 -149 605v548
c0 264 50.667 453.667 152 569c51.333 58.667 110.333 102.167 177 130.5s141.334 42.5 224.001 42.5c86 0 161.667 -14 227 -42s123.666 -73.333 174.999 -136c118 118.667 253.333 178 406 178c178 0 314.667 -59.667 410 -179c94 -121.333 141 -321.666 141 -600.999
v-198z" />
    <glyph glyph-name="uni10A8" unicode="&#x10a8;" horiz-adv-x="1464" 
d="M1291 925c0 -352 -74.335 -720.997 -223.002 -1107h-252c82.667 200 144.667 391.167 186 573.5s62 357.5 62 525.5v224c0 93.333 -7.66699 174.666 -23 243.999s-37 125.666 -65 168.999c-30 41.333 -65.667 72.666 -107 93.999s-88.666 32 -141.999 32
c-60.667 0 -112.834 -10.667 -156.501 -32s-79.667 -54 -108 -98s-49.166 -99.833 -62.499 -167.5s-20 -148.167 -20 -241.5v-224c0 -170 20.667 -345.667 62 -527s104.333 -372 189 -572h-249c-152 388.667 -228 755 -228 1099v234c0 246 53.667 429 161 549
c108 120 245.333 180 412 180c86.667 0 165.334 -15.667 236.001 -47s131 -76.333 181 -135c48 -60.667 84.5 -137.5 109.5 -230.5s37.5 -201.833 37.5 -326.5v-216z" />
    <glyph glyph-name="uni10A9" unicode="&#x10a9;" horiz-adv-x="1464" 
d="M1291 351c0 -84 -14.6689 -160.666 -44.002 -229.999s-70 -129 -122 -179c-54 -48 -115 -84.833 -183 -110.5s-141 -38.5 -219 -38.5c-160.667 0 -295.667 48.333 -405 145c-54 49.333 -94.833 101.333 -122.5 156s-41.5 112.667 -41.5 174v117
c0 124.667 29.667 231.667 89 321h203c-21.333 -67.333 -37.666 -129.5 -48.999 -186.5s-17 -109.5 -17 -157.5v-63c0 -85.333 31 -157.333 93 -216c32 -30 68.667 -52.667 110 -68s88 -23 140 -23c50.667 0 96.5 7 137.5 21s77.5 34.667 109.5 62s55.667 63.833 71 109.5
s23 101.167 23 166.5v135c0 55.333 -6.66699 106.666 -20 153.999s-33 91.666 -59 132.999c-26 39.333 -55.667 68.833 -89 88.5s-71.333 29.5 -114 29.5h-279v200h270c36.667 0 69.334 5.33301 98.001 16s53.667 26 75 46c42.667 42 64 100 64 174v99
c0 143.333 -83.333 229 -250 257v202c318.667 -78 478 -232 478 -462v-56c0 -177.333 -79 -302 -237 -374c96 -41.333 168.333 -104.166 217 -188.499s73 -190.5 73 -318.5v-135z" />
    <glyph glyph-name="uni10AA" unicode="&#x10aa;" horiz-adv-x="2867" 
d="M2665 1231c0 -258 -120.675 -490.67 -362.008 -698.003h-249c256.667 216.667 385 454 385 712v112c0 38 -6.5 74.833 -19.5 110.5s-33.167 69.5 -60.5 101.5c-27.333 33.333 -56.333 58 -87 74s-65.334 24 -104 24c-42 0 -80.667 -6.16699 -116 -18.5
s-66 -29.5 -92 -51.5c-23.333 -23.333 -42.166 -59.666 -56.499 -108.999s-21.5 -108.333 -21.5 -177v-325h-211v322c0 136.667 -22 232.667 -66 288c-42 56 -106 84 -192 84c-72.667 0 -133 -27.333 -181 -82c-50 -54 -75 -147 -75 -279v-333h-209v338
c0 136.667 -23 227.667 -69 273c-46.667 46.667 -118 70 -214 70c-77.333 0 -142.333 -33.667 -195 -101c-54 -68 -81 -171 -81 -309v-106c0.666992 -52 9.33398 -105.167 26.001 -159.5s39.334 -107.666 68.001 -159.999s62.167 -103 100.5 -152s79.5 -94.167 123.5 -135.5
c51.333 -40 106.666 -78 165.999 -114s120.833 -69.167 184.5 -99.5s128.834 -57 195.501 -80s133.334 -41.167 200.001 -54.5c146.667 -30.667 271.834 -76.667 375.501 -138s187.834 -140.333 252.501 -237h-309c-38 34.667 -80.333 65 -127 91s-96.167 48 -148.5 66
s-107 32 -164 42s-114.5 15.667 -172.5 17c-40 -4 -80.5 -10.167 -121.5 -18.5s-81.167 -18.5 -120.5 -30.5s-77.5 -25.667 -114.5 -41s-71.833 -32.333 -104.5 -51l-145 197c57.333 16 114.5 30.5 171.5 43.5s119.167 25.833 186.5 38.5
c-498.667 286 -748 615.667 -748 989v102c0 82.667 10.333 159 31 229s52.334 135 95.001 195c83.333 118 208.333 177 375 177c96.667 0 177.334 -20 242.001 -60s117.667 -103.333 159 -190c63.333 175.333 179 263 347 263c168.667 0 289.334 -85.333 362.001 -256
c42 82.667 95.167 143.834 159.5 183.501s141.166 59.5 230.499 59.5c138.667 0 256.667 -49.667 354 -149c48 -49.333 84.333 -102.5 109 -159.5s37 -118.833 37 -185.5v-142z" />
    <glyph glyph-name="uni10AB" unicode="&#x10ab;" horiz-adv-x="1507" 
d="M1064 673c0 71.333 -7.66602 131.669 -22.999 181.002s-39.333 89 -72 119c-33.333 31.333 -70 55 -110 71s-84 24 -132 24c-44.667 0 -88 -10.333 -130 -31s-80 -46.667 -114 -78c-30 -36.667 -54.667 -79.834 -74 -129.501s-29 -102.834 -29 -159.501v-285
c0 -129.333 32.667 -227.333 98 -294c33.333 -32 70.666 -56.5 111.999 -73.5s87 -25.5 137 -25.5c46 0 88.667 8 128 24s76 39 110 69c66 63.333 99 163.333 99 300v288zM1291 354.003c0 -89.333 -15.0029 -168.833 -45.0029 -238.5s-73.333 -129.167 -130 -178.5
c-56 -46 -117 -81.5 -183 -106.5s-134.667 -37.5 -206 -37.5c-162.667 0 -299 51.667 -409 155c-109.333 105.333 -164 251 -164 437v285c0 80 13.5 154.833 40.5 224.5s68.167 133.834 123.5 192.501c111.333 118.667 248.333 178 411 178
c78.667 0 146.334 -13.833 203.001 -41.5s105.334 -72.834 146.001 -135.501v373c0 58 -30.333 108.333 -91 151c-64 45.333 -145 68 -243 68s-173.333 -17.667 -226 -53c-25.333 -17.333 -44.333 -35 -57 -53s-19 -38 -19 -60v-174h-227v174c0 46 14 90.667 42 134
s67.667 83.333 119 120c52 37.333 109.333 65.333 172 84s129 28 199 28c138.667 0 263.334 -38.333 374.001 -115c53.333 -38 95 -82.667 125 -134s45 -108 45 -170v-1107z" />
    <glyph glyph-name="uni10AC" unicode="&#x10ac;" horiz-adv-x="1507" 
d="M1106 686c0 124.667 -30.6689 219.334 -92.002 284.001c-31.333 33.333 -67.166 58 -107.499 74s-87.166 24 -140.499 24c-60 0 -111.667 -7.66699 -155 -23s-79 -38.833 -107 -70.5s-48.5 -71.667 -61.5 -120s-19.5 -105.833 -19.5 -172.5v-317
c0 -60.667 8 -113.834 24 -159.501s40 -84.834 72 -117.501h-1c32.667 -31.333 69.167 -55.166 109.5 -71.499s85.5 -24.5 135.5 -24.5c114.667 0 200.5 33.333 257.5 100s85.5 162.667 85.5 288v306zM1333 362c0 -88 -14.167 -167.998 -42.5 -239.998
s-66.5 -133 -114.5 -183c-52 -44 -113.167 -79.333 -183.5 -106s-145.833 -40 -226.5 -40c-154.667 0 -288.334 50 -401.001 150c-56 50.667 -98.333 111.167 -127 181.5s-43 150.5 -43 240.5v1112c0 127.333 34 222.333 102 285c64.667 64 145.334 96 242.001 96
c54.667 0 127 -11 217 -33c92 -22 161.333 -33 208 -33c89.333 0 199.333 33.667 330 101v-183c-58.667 -35.333 -116.667 -62 -174 -80s-115 -27 -173 -27c-55.333 0 -116.333 9.33301 -183 28c-33.333 9.33301 -65.333 16.166 -96 20.499s-60 6.16602 -88 5.49902
c-60 1.33301 -104.333 -13 -133 -43s-43 -78.333 -43 -145v-389c50.667 58 106.5 103.333 167.5 136s124.833 49 191.5 49c162 0 297.667 -53 407 -159c108.667 -107.333 163 -245 163 -413v-331z" />
    <glyph glyph-name="uni10AD" unicode="&#x10ad;" horiz-adv-x="2289" 
d="M1868 1119c0 180.667 -20.334 321.332 -61.001 421.999c-38 92.667 -121 139 -249 139c-104 0 -182.5 -30 -235.5 -90s-79.5 -156.333 -79.5 -289v-762h-228v762c0 132.667 -25.667 229 -77 289s-130.666 90 -237.999 90c-114 0 -194 -46.667 -240 -140
c-50 -98 -75 -242.667 -75 -434v-122c2 -429.333 175 -817 519 -1163h-285c-306 318 -459 704 -459 1158v127c0 112 9.66699 213.833 29 305.5s50 173.834 92 246.501c82 148 222.333 222 421 222c99.333 0 184.833 -22.833 256.5 -68.5s129.834 -113.5 174.501 -203.5
c84 181.333 225.667 272 425 272c192.667 0 332 -74.333 418 -223c42 -72.667 73 -152 93 -238s30 -178.667 30 -278v-162c0 -229.333 -36.833 -440.5 -110.5 -633.5s-184.834 -368.833 -333.501 -527.5h-296c339.333 342.667 509 734 509 1174v127z" />
    <glyph glyph-name="uni10AE" unicode="&#x10ae;" horiz-adv-x="1467" 
d="M1294 409c0 -93.333 -13.335 -177.001 -40.002 -251.001s-65 -139.333 -115 -196c-52 -53.333 -112.833 -94.833 -182.5 -124.5s-146.167 -44.5 -229.5 -44.5c-70.667 0 -139 12.833 -205 38.5s-128 62.167 -186 109.5c-56.667 50 -100.667 106 -132 168
s-47 127.333 -47 196v148c-2 68.667 26.667 149.667 86 243h205c-21.333 -61.333 -37.5 -114.5 -48.5 -159.5s-16.5 -82.5 -16.5 -112.5v-75c0 -44 8.16699 -86.5 24.5 -127.5s39.5 -80.5 69.5 -118.5c31.333 -34.667 68 -61.834 110 -81.501s88.667 -29.5 140 -29.5
c60 0 111.333 9.33301 154 28s77.834 46.334 105.501 83.001s48 82.167 61 136.5s19.5 116.833 19.5 187.5v126c0 47.333 -6.16699 90.666 -18.5 129.999s-30.5 76 -54.5 110c-48 65.333 -109.333 98 -184 98h-223v200h223c28 0 53.667 4.5 77 13.5s43.333 22.667 60 41
s29.5 41.666 38.5 69.999s13.5 61.833 13.5 100.5v47c0 32 -23.167 63 -69.5 93s-111.166 57.667 -194.499 83c-96 28.667 -169 71.5 -219 128.5s-75 127.833 -75 212.5h227c0 -24 6.16699 -46.667 18.5 -68s30 -41 53 -59s50.667 -34.5 83 -49.5s68.5 -28.167 108.5 -39.5
c44.667 -13.333 85.167 -29.5 121.5 -48.5s67.5 -40.667 93.5 -65s46 -51.166 60 -80.499s21 -61.333 21 -96v-61c0 -64.667 -17.5 -123.667 -52.5 -177s-89.5 -102.666 -163.5 -147.999c89.333 -54 158.833 -117.167 208.5 -189.5s74.5 -152.166 74.5 -239.499v-150z" />
    <glyph glyph-name="uni10AF" unicode="&#x10af;" horiz-adv-x="1507" 
d="M1291 307c0 -77.333 -14.001 -147 -42.001 -209s-69 -117 -123 -165c-54 -46.667 -113.667 -81.667 -179 -105s-136 -35 -212 -35c-170 0 -309 40.667 -417 122c-109.333 80 -164 205.333 -164 376v60c0 46.667 11 105 33 175h222
c-10 -44.667 -17.333 -81.167 -22 -109.5s-7 -48.166 -7 -59.499v-72c0 -92.667 35.333 -164 106 -214c38 -26 77.333 -45.667 118 -59s84.334 -20 131.001 -20c49.333 0 94.333 8.33301 135 25s76 40 106 70v-1c28.667 32.667 50.5 68.5 65.5 107.5s22.5 81.5 22.5 127.5
v1349l-163 -37c-28 -6.66699 -56 -13 -84 -19l-84 -18l-169 -36c64.667 -34.667 119 -75.334 163 -122.001c56 -62 84 -147.667 84 -257c0 -155.333 -61 -266.333 -183 -333c-58.667 -30.667 -127.5 -53.5 -206.5 -68.5s-168.167 -22.5 -267.5 -22.5v201
c78 0 146.5 4 205.5 12s106.5 19.333 142.5 34c31.333 14.667 55.5 35.167 72.5 61.5s25.167 57.5 24.5 93.5c1.33301 110 -35 193 -109 249c-37.333 28 -84 49.333 -140 64s-121.333 22 -196 22v142l1137 252v-1581z" />
    <glyph glyph-name="uni10B0" unicode="&#x10b0;" horiz-adv-x="2289" 
d="M2099 648c0 -318 -132.667 -593.666 -398 -826.999h-274c297.333 275.333 446 550 446 824v67c0 112 -31 201 -93 267c-62.667 67.333 -136.667 101 -222 101c-42 0 -81.5 -8.16699 -118.5 -24.5s-71.167 -40.833 -102.5 -73.5c-64.667 -63.333 -97 -160.333 -97 -291
v-319h-225v319c0 130.667 -32.667 227.667 -98 291c-65.333 65.333 -137 98 -215 98c-98 -1.33301 -174.667 -35 -230 -101c-29.333 -32 -51.166 -70.333 -65.499 -115s-21.5 -95.334 -21.5 -152.001v-75c0 -268 150 -541 450 -819h-294c-254 236 -381 514.333 -381 835v59
c0 329.333 110 606 330 830c221.333 225.333 593.333 338 1116 338v-200c-64 0 -128 -3 -192 -9s-126.833 -14.5 -188.5 -25.5s-120.834 -23.833 -177.501 -38.5s-109.334 -30.667 -158.001 -48c-42 -18 -83 -39.167 -123 -63.5s-78 -51.166 -114 -80.499
s-69.167 -60.833 -99.5 -94.5s-56.5 -68.834 -78.5 -105.501c44.667 16.667 86.167 29.167 124.5 37.5s72.5 12.5 102.5 12.5c100.667 0 186.5 -24.167 257.5 -72.5s127.833 -119.833 170.5 -214.5c106.667 191.333 249.334 287 428.001 287
c71.333 0 138.5 -11.833 201.5 -35.5s121.5 -59.834 175.5 -108.501c109.333 -95.333 164 -231.666 164 -408.999v-64z" />
    <glyph glyph-name="uni10B1" unicode="&#x10b1;" horiz-adv-x="1507" 
d="M1333 419c0 -181.333 -52.6641 -330.665 -157.997 -447.998c-54 -58.667 -115 -103 -183 -133s-144.333 -45 -229 -45c-80.667 0 -154.834 12.833 -222.501 38.5s-128.5 64.5 -182.5 116.5c-54 52.667 -94.667 119.5 -122 200.5s-41 176.5 -41 286.5v1445h228v-1445
c0 -70 7.33301 -132.5 22 -187.5s36.334 -101.333 65.001 -139s64.167 -66.5 106.5 -86.5s91.166 -30 146.499 -30c54 0 102.167 10.667 144.5 32s78.5 51.333 108.5 90c29.333 42 51.666 90 66.999 144s23 114 23 180v79c0 124.667 -52 241 -156 349
c-110.667 120 -166 224 -166 312c0 87.333 26.333 169 79 245l232 -63c-62.667 -65.333 -95 -126 -97 -182c1.33301 -39.333 15.666 -81.5 42.999 -126.5s67 -91.5 119 -139.5c56 -52.667 98.833 -110.334 128.5 -173.001s44.5 -128.334 44.5 -197.001v-123z" />
    <glyph glyph-name="uni10B2" unicode="&#x10b2;" horiz-adv-x="1850" 
d="M1670 529c0 -216 -75.667 -392.665 -227 -529.998c-149.333 -137.333 -325.666 -206 -528.999 -206c-207.333 0 -385 68 -533 204c-149.333 137.333 -224 314.666 -224 531.999v396c0 124 19 234 57 330s94.333 178.333 169 247c70.667 64.667 142.167 113.667 214.5 147
s146.166 52.333 221.499 57l-78 174h330l-77 -175c84 -6 165.167 -25.5 243.5 -58.5s150.5 -80.5 216.5 -142.5c72 -68 126 -150.333 162 -247s54 -207.334 54 -332.001v-396zM1442 925.002c0 203.333 -37.167 355.169 -111.5 455.502s-190.166 152.166 -347.499 155.499
l43 -892h-239l42 892c-68 -1.33301 -127.667 -14.333 -179 -39s-97.333 -61.334 -138 -110.001c-86 -100 -129 -254 -129 -462v-396c0 -150.667 47 -278 141 -382c94 -103.333 224 -155 390 -155c169.333 0 298.666 52.667 387.999 158c93.333 106 140 232.333 140 379v396z
" />
    <glyph glyph-name="uni10B3" unicode="&#x10b3;" horiz-adv-x="1610" 
d="M1391 385c0 -185.333 -46.0039 -330.335 -138.004 -435.002c-92.667 -104.667 -225.334 -157 -398.001 -157c-87.333 0 -167.166 12.833 -239.499 38.5s-135.833 62.5 -190.5 110.5c-53.333 50 -94.333 109.5 -123 178.5s-43 145.833 -43 230.5v127
c0 101.333 24.333 188 73 260h212c-19.333 -56.667 -33.833 -111.5 -43.5 -164.5s-14.5 -104.5 -14.5 -154.5v-70c0 -55.333 8.5 -104.333 25.5 -147s42.167 -80.667 75.5 -114h-1c34 -31.333 73.167 -55.166 117.5 -71.499s94.833 -24.5 151.5 -24.5
c54.667 0 102.334 8.83301 143.001 26.5s73 40.834 97 69.501c22.667 34 40.5 77 53.5 129s19.5 111.333 19.5 178v1175c0 29.333 -17.333 56.333 -52 81c-37.333 26 -88.666 39 -153.999 39c-114.667 0 -172 -40 -172 -120v-512h-183v512c0 80 -46.667 120 -140 120
c-19.333 0 -37.666 -5.5 -54.999 -16.5s-32.666 -26.167 -45.999 -45.5c-34.667 -52 -74.667 -78 -120 -78c-61.333 0.666992 -128.666 40 -201.999 118v224c50.667 -42 93.167 -73.5 127.5 -94.5s61.166 -31.5 80.499 -31.5c26 0 52.333 15.667 79 47
c18.667 20.667 37.834 35.667 57.501 45s39.5 14 59.5 14c118 0 204.667 -40.333 260 -121c45.333 42 90 72.667 134 92s88.333 29 133 29c51.333 0 101.166 -7.5 149.499 -22.5s93.5 -36.5 135.5 -64.5c42.667 -30 75.167 -62.833 97.5 -98.5s33.5 -74.5 33.5 -116.5v-1185
z" />
    <glyph glyph-name="uni10B4" unicode="&#x10b4;" horiz-adv-x="2241" 
d="M1015 1262c0 71.333 -6.49902 134.169 -19.499 188.502s-30.833 98.166 -53.5 131.499c-23.333 30 -56 53.833 -98 71.5s-90 26.5 -144 26.5c-58 0 -107.167 -7.33301 -147.5 -22s-71.833 -37.334 -94.5 -68.001c-48.667 -57.333 -73 -164.333 -73 -321v-105
c0 -68.667 7 -128.334 21 -179.001s33.667 -91 59 -121v1c26.667 -26 60.167 -46.667 100.5 -62s85.166 -23 134.499 -23c50.667 0 95.834 7.5 135.501 22.5s72.5 35.5 98.5 61.5c25.333 30 45.166 70.333 59.499 121s21.5 110.334 21.5 179.001v98zM2019 307.003
c0 -162 -64.999 -288.665 -194.999 -379.998c-127.333 -89.333 -297 -134 -509 -134c-247.333 -2 -431 36.667 -551 116c-121.333 78.667 -182 219 -182 421h219c0 -153.333 51 -246.666 153 -279.999c56 -19.333 113.833 -33.833 173.5 -43.5s122.167 -14.5 187.5 -14.5
c156.667 -2 275.667 23.5 357 76.5s122 132.5 122 238.5v70c0 54 -6 102 -18 144s-28.667 78 -50 108c-44.667 54.667 -100 82 -166 82h-171v200h171c32.667 0 63.834 6.5 93.501 19.5s58.5 31.5 86.5 55.5c56 49.333 84 137.666 84 264.999v123
c0 103.333 -25.167 180.166 -75.5 230.499s-127.5 75.5 -231.5 75.5c-120 0 -229 -44.667 -327 -134c18.667 -44 32.167 -88 40.5 -132s12.5 -89.667 12.5 -137v-115c0 -81.333 -12.333 -157 -37 -227s-62 -133.333 -112 -190c-50 -53.333 -108.333 -95 -175 -125
s-139.667 -45 -219 -45c-155.333 0 -284.333 57.333 -387 172c-102 112 -153 251 -153 417v105c0 40 3 79.667 9 119s14.667 77.5 26 114.5s24.666 72.333 39.999 106s32.666 64.834 51.999 93.501c42.667 56.667 99 100.5 169 131.5s151.333 46.5 244 46.5
c78.667 0 151.667 -15.667 219 -47s130.333 -80.333 189 -147c58 66.667 120.5 115.667 187.5 147s140.833 47 221.5 47c82 0 156.5 -13 223.5 -39s123.5 -62.667 169.5 -110c44 -48.667 78.333 -102.334 103 -161.001s37.667 -120.334 39 -185.001v-119
c-2 -123.333 -30.667 -223.333 -86 -300c-24.667 -32 -55.667 -60.667 -93 -86s-82 -47.333 -134 -66c48.667 -15.333 91 -35.333 127 -60s63.667 -52.334 83 -83.001c23.333 -39.333 40.833 -82.666 52.5 -129.999s17.5 -97.333 17.5 -150v-84z" />
    <glyph glyph-name="uni10B5" unicode="&#x10b5;" horiz-adv-x="1507" 
d="M1291 270c0 -150.667 -54.6689 -267.999 -164.002 -351.999c-106 -83.333 -240.667 -125 -404 -125c-76 0 -147.167 10.5 -213.5 31.5s-127.833 53.5 -184.5 97.5c-114 86.667 -171 207.667 -171 363v25c0 39.333 5.33301 79.166 16 119.499s27.334 80.833 50.001 121.5
h227c-44.667 -89.333 -67 -172.333 -67 -249v-32c0 -86 25.667 -153.667 77 -203c27.333 -24.667 62.833 -43.334 106.5 -56.001s96.834 -19 159.501 -19c51.333 0 98.333 6.5 141 19.5s79.667 30.5 111 52.5c27.333 23.333 49 51.5 65 84.5s24 69.5 24 109.5v614
c0 74.667 -43 162 -129 262c-41.333 48 -84.166 84.667 -128.499 110s-89.5 38 -135.5 38c-83.333 0 -141 -18.333 -173 -55c-34 -38 -51 -82 -51 -132c0 -21.333 2.16699 -49 6.5 -83s11.166 -73.333 20.499 -118h-199c-13.333 38 -23 73.833 -29 107.5
s-9 64.834 -9 93.501c0 58.667 9.83301 110.834 29.5 156.501s48.5 86.5 86.5 122.5c77.333 69.333 183.333 104 318 104c47.333 0 92.333 -7 135 -21s81 -34.333 115 -61c26 -20.667 52.667 -44.834 80 -72.501s53 -57.5 77 -89.5v462h-266v184h479v-1610z" />
    <glyph glyph-name="uni10B6" unicode="&#x10b6;" horiz-adv-x="2125" 
d="M1940 1228c0 -117.333 -19.9941 -230.662 -59.9941 -339.995s-99.667 -217.333 -179 -324h-223c78 110.667 136.167 222.5 174.5 335.5s57.5 230.167 57.5 351.5v104c0 109.333 -21.333 190.833 -64 244.5s-111.334 80.5 -206.001 80.5s-165.334 -22.667 -212.001 -68
c-44.667 -44 -67 -168.333 -67 -373v-320h-228v320c0 202.667 -24.333 326.334 -73 371.001c-49.333 46.667 -115 70 -197 70c-20 0 -39.667 -2.83301 -59 -8.5s-37.833 -13.334 -55.5 -23.001s-34.334 -21 -50.001 -34s-29.5 -26.833 -41.5 -41.5
c-20.667 -35.333 -38 -78.666 -52 -129.999s-21 -107.333 -21 -168v-111c0 -254.667 77 -469 231 -643c77.333 -88.667 160.5 -162.834 249.5 -222.501s184.5 -105.167 286.5 -136.5c108 -34.667 192.333 -82.5 253 -143.5s97.667 -137.167 111 -228.5h-261
c-12.667 31.333 -29.834 59.666 -51.501 84.999s-46 47.666 -73 66.999s-56.167 35.5 -87.5 48.5s-63.333 22.833 -96 29.5c-12 1.33301 -24.833 2.5 -38.5 3.5s-25.5 1.5 -35.5 1.5c-62 0 -122 -10.667 -180 -32s-114.667 -52.333 -170 -93l-102 203
c39.333 18 82.666 34.167 129.999 48.5s99.333 25.5 156 33.5c-184 130 -321.333 276.333 -412 439s-136 342.667 -136 540v111c0 147.333 42.667 284.666 128 411.999c86 128.667 209.667 193 371 193c183.333 0 312.666 -96 387.999 -288
c36.667 97.333 87.5 169.666 152.5 216.999s145.167 71 240.5 71c157.333 0 280 -46 368 -138v1c45.333 -45.333 79 -99.833 101 -163.5s33 -136.834 33 -219.501v-132z" />
    <glyph glyph-name="uni10B7" unicode="&#x10b7;" horiz-adv-x="1509" 
d="M1294 339c0 -88.667 -11.335 -166.328 -34.002 -232.995s-56.667 -124 -102 -172c-92 -94 -235.667 -141 -431 -141c-76.667 0 -148.5 9.83301 -215.5 29.5s-128.833 48.5 -185.5 86.5c-53.333 38 -95 87.667 -125 149s-45.667 132 -47 212
c0 72.667 16.667 155.667 50 249h228c-32.667 -90 -49 -185.667 -49 -287c0 -30 8.66699 -59.667 26 -89s39.666 -55.333 66.999 -78c32 -22.667 69.333 -40.5 112 -53.5s89 -19.5 139 -19.5c56.667 0 106.334 6.66699 149.001 20s79 31.666 109 54.999
c25.333 25.333 45.333 63.166 60 113.499s22 110.833 22 181.5v502c-40 -48 -88.167 -85.5 -144.5 -112.5s-120.833 -40.5 -193.5 -40.5c-133.333 0 -255.666 50.667 -366.999 152c-111.333 104 -167 237 -167 399v145c0 138 66.333 287.333 199 448h256
c-160.667 -200.667 -241 -361.334 -241 -482.001v-111c0 -96.667 32 -180.334 96 -251.001c32.667 -34.667 67.167 -60.5 103.5 -77.5s76.5 -25.5 120.5 -25.5c57.333 0 106.833 8.5 148.5 25.5s76.834 41.833 105.501 74.5c26 35.333 46.5 72.666 61.5 111.999
s22.5 81 22.5 125v610h227v-1516z" />
    <glyph glyph-name="uni10B8" unicode="&#x10b8;" horiz-adv-x="1614" 
d="M1170 590c0 70.667 -7.83203 131.501 -23.499 182.501s-39 93 -70 126s-69.333 57.5 -115 73.5s-98.167 24 -157.5 24c-54 0 -103 -10.167 -147 -30.5s-83.667 -52.166 -119 -95.499c-36.667 -42.667 -63.834 -89.667 -81.501 -141s-26.5 -107 -26.5 -167v-148
c0 -58.667 9.5 -113.334 28.5 -164.001s46.5 -96.334 82.5 -137.001v1c36 -36 76.5 -65.333 121.5 -88s90.5 -34 136.5 -34c58.667 0 110.167 10 154.5 30s82.833 50 115.5 90c67.333 83.333 101 174.333 101 273v205zM1394 385.001
c0 -172.667 -60.666 -314.662 -181.999 -425.995c-120.667 -110.667 -258.334 -166 -413.001 -166c-146 0 -281 55 -405 165c-126.667 112 -190 261.333 -190 448v184c0 84 14.333 161.833 43 233.5s71 136.834 127 195.501c56.667 56.667 120.834 100.667 192.501 132
s149.167 47 232.5 47c88.667 0 164 -13.5 226 -40.5s114 -70.833 156 -131.5v364c0 66.667 -4 122 -12 166s-18 75.333 -30 94c-14.667 13.333 -35.334 24.333 -62.001 33s-57.667 13 -93 13c-54.667 0 -96.167 -17.833 -124.5 -53.5s-42.5 -84.834 -42.5 -147.501v-90h-189
v90c0 32 -3.33301 60.667 -10 86s-16 46.666 -28 63.999c-26.667 34 -73.334 51 -140.001 51c-51.333 0 -91.166 -10.833 -119.499 -32.5s-42.5 -56.5 -42.5 -104.5v-238h-188v238c0 92.667 30.667 169 92 229c33.333 32 66.833 55.333 100.5 70s69.5 22 107.5 22
c28 0 57.833 -3.83301 89.5 -11.5s63.167 -18.834 94.5 -33.501c52.667 -26.667 96.334 -71.334 131.001 -134.001c21.333 37.333 43.166 67.166 65.499 89.499s45.833 39.166 70.5 50.499v-1c27.333 13.333 54 23.333 80 30s50.667 10 74 10c128.667 0 226 -36 292 -108
c64.667 -70.667 97 -195 97 -373v-1014z" />
    <glyph glyph-name="uni10B9" unicode="&#x10b9;" horiz-adv-x="1507" 
d="M854 1329c22.667 28.667 39.168 59.335 49.501 92.002s15.5 68 15.5 106c0 102 -93.667 153 -281 153c-150.667 0 -227 -63.333 -229 -190v-512c50 59.333 104.5 104.166 163.5 134.499s122.5 45.5 190.5 45.5c90.667 0 171.5 -12.667 242.5 -38s130.667 -63 179 -113
s85.166 -112.167 110.499 -186.5s38 -160.5 38 -258.5v-87c0 -227.333 -93 -445.333 -279 -654h-291c115.333 107.333 201.333 215.5 258 324.5s85 221.5 85 337.5v79c0 56.667 -6.83301 108.667 -20.5 156s-33.5 89.666 -59.5 126.999c-26.667 38 -61.5 66.5 -104.5 85.5
s-95.833 29.167 -158.5 30.5c-98 -2 -181.667 -37.667 -251 -107c-33.333 -33.333 -58.5 -70.166 -75.5 -110.499s-26.167 -83.5 -27.5 -129.5v-793h-214v1691c0 56.667 11.667 107.5 35 152.5s58 84.167 104 117.5c46 34 94.333 58.833 145 74.5s104.667 23.5 162 23.5
c70 0 134 -7.33301 192 -22s110 -38 156 -70c93.333 -64 140 -150.333 140 -259c0 -80.667 -28.333 -159.334 -85 -236.001z" />
    <glyph glyph-name="uni10BA" unicode="&#x10ba;" horiz-adv-x="1658" 
d="M1481 422c0 -88 -15.501 -168.666 -46.501 -241.999s-76.833 -141 -137.5 -203c-120.667 -122.667 -275.667 -184 -465 -184c-204 0 -368.667 74.333 -494 223c-121.333 145.333 -182 316.333 -182 513v513c0 171.333 16.167 324.333 48.5 459s80.833 252.667 145.5 354
h222c-127.333 -239.333 -191 -510.333 -191 -813v-513c0 -68.667 12.5 -135.667 37.5 -201s58.167 -124.333 99.5 -177c44 -46.667 93.167 -84.834 147.5 -114.501s109.833 -44.5 166.5 -44.5c59.333 0 113.833 10.333 163.5 31s94.5 51 134.5 91
c41.333 41.333 71.833 87.333 91.5 138s29.5 107.334 29.5 170.001v45c0 50 -4.5 95.167 -13.5 135.5s-22.167 75.5 -39.5 105.5c-17.333 31.333 -41.166 54.166 -71.499 68.499s-66.5 21.5 -108.5 21.5h-218v198h218c30 0 59.333 5.66699 88 17s54.334 26.333 77.001 45
c21.333 20.667 38 47.167 50 79.5s18 70.166 18 113.499c0 47.333 -15.833 91.666 -47.5 132.999s-78.5 79.333 -140.5 114c-66.667 38 -118.5 87.333 -155.5 148s-55.5 130.334 -55.5 209.001h197c0 -48 17.667 -93.833 53 -137.5s86 -84.5 152 -122.5h-1
c74 -42 130.5 -91.167 169.5 -147.5s58.5 -119.833 58.5 -190.5c0 -62.667 -9 -116.667 -27 -162s-43 -81.666 -75 -108.999c-24 -18 -49.833 -34.833 -77.5 -50.5s-56.834 -28.834 -87.501 -39.501c92 -32.667 157.333 -79.667 196 -141
c47.333 -75.333 71 -169.666 71 -282.999v-50z" />
    <glyph glyph-name="uni10BB" unicode="&#x10bb;" horiz-adv-x="1507" 
d="M1064 670c0 50 -7.66699 98.168 -23 144.501s-37 90.166 -65 131.499c-30 40 -65.667 70.333 -107 91s-90 31 -146 31c-110.667 0 -195.5 -33.167 -254.5 -99.5s-88.5 -165.833 -88.5 -298.5v-299c0 -126 28.167 -220.667 84.5 -284s142.5 -95 258.5 -95
c50 0 95 8.16699 135 24.5s76.667 40.5 110 72.5h-1c64.667 65.333 97 161.333 97 288v293zM1291 371.001c0 -86.667 -13.502 -164.333 -40.502 -233s-66.5 -130 -118.5 -184c-105.333 -107.333 -241.666 -161 -408.999 -161c-171.333 0 -309.666 55.667 -414.999 167
c-102.667 111.333 -154 255 -154 431v291c0 80.667 11.333 155.667 34 225s55 132 97 188c44.667 54 103.667 95.833 177 125.5s160.333 44.5 261 44.5c28 0 56.833 -4 86.5 -12s59.167 -19 88.5 -33s58 -30.833 86 -50.5s54.667 -41.167 80 -64.5v775h227v-1509z" />
    <glyph glyph-name="uni10BC" unicode="&#x10bc;" horiz-adv-x="1614" 
d="M423 385c0 -50 8.5 -97.499 25.5 -142.499s41.833 -88.5 74.5 -130.5c33.333 -40 72.166 -70 116.499 -90s95.833 -30 154.5 -30c49.333 0 95 10.167 137 30.5s81.667 50.5 119 90.5c36 41.333 63.5 86.833 82.5 136.5s28.5 104.5 28.5 164.5v148
c0 119.333 -36 222 -108 308c-36 43.333 -75.5 75.166 -118.5 95.499s-91.5 30.5 -145.5 30.5c-119.333 0 -210.166 -32.5 -272.499 -97.5s-93.5 -167.833 -93.5 -308.5v-205zM198 1399c0 88 8.16602 163.165 24.499 225.498s40.833 111.5 73.5 147.5
c32.667 34 73.834 60.5 123.501 79.5s105.5 28.5 167.5 28.5c48 0 99.333 -12.667 154 -38c48.667 -22 94 -69 136 -141c17.333 31.333 36.666 58.166 57.999 80.499s45.666 40.166 72.999 53.499c31.333 14.667 62.666 25.834 93.999 33.501s62 11.5 92 11.5
c36.667 0 72.167 -7.5 106.5 -22.5s66.5 -38.167 96.5 -69.5c64.667 -62.667 97 -139 97 -229v-238h-189v238c0 48 -14.667 82.833 -44 104.5s-69.666 32.5 -120.999 32.5c-65.333 0 -111.333 -17 -138 -51c-12 -17.333 -21.667 -38.666 -29 -63.999s-11 -54 -11 -86v-90
h-186v90c0 62.667 -14.333 111.834 -43 147.501s-70 53.5 -124 53.5c-76.667 0 -128 -15.333 -154 -46c-28.667 -32.667 -43 -119.334 -43 -260.001v-366c42.667 56.667 95.834 99.834 159.501 129.501s137.834 44.5 222.501 44.5c167.333 0 309 -59.667 425 -179
c113.333 -116 170 -259 170 -429v-184c0 -93.333 -16 -177.166 -48 -251.499s-79.333 -139.833 -142 -196.5c-125.333 -110 -260.333 -165 -405 -165c-156 0 -294.333 55.333 -415 166c-120.667 112 -181 254 -181 426v1014z" />
    <glyph glyph-name="uni10BD" unicode="&#x10bd;" horiz-adv-x="1467" 
d="M779 1696l-235.002 0.000976562v184h429v-716c0 -51.333 3.83301 -99.833 11.5 -145.5s18.167 -88 31.5 -127s29.333 -74.167 48 -105.5s39 -58 61 -80c24.667 -22 47.334 -46.333 68.001 -73s38.5 -54.834 53.5 -84.501s26.667 -60.334 35 -92.001
s12.5 -63.834 12.5 -96.501v-33c0 -76 -13.667 -146.667 -41 -212s-65 -123 -113 -173c-52 -48 -112.667 -84.833 -182 -110.5s-146.333 -38.5 -231 -38.5s-161.667 14.667 -231 44s-130.666 72 -183.999 128c-50.667 56.667 -89.667 118 -117 184s-41 135.333 -41 208
c0 99.333 25 189.666 75 270.999h210c-36 -100 -54 -193 -54 -279c0 -42 8.16699 -83.833 24.5 -125.5s38.5 -81.5 66.5 -119.5c30 -34 66.333 -61.167 109 -81.5s90 -30.5 142 -30.5c52.667 0 99.5 7 140.5 21s77.5 35 109.5 63c60 54.667 90 138.334 90 251.001v44
c0 44 -11.333 88.833 -34 134.5s-57.667 91.834 -105 138.501c-99.333 102.667 -149 273.334 -149 512.001v540zM594.998 816.001c-36 0 -72.001 5.66699 -108.001 17s-69 27 -99 47c-65.333 46 -98 128 -98 246c0 51.333 8.66699 96.5 26 135.5s41.333 70.833 72 95.5
c30.667 22.667 63.834 39.667 99.501 51s71.5 17 107.5 17h632v-168h-640c-74 0 -110 -43.667 -108 -131c-2 -86.667 47 -130 147 -130h81v-180h-112z" />
    <glyph glyph-name="uni10BE" unicode="&#x10be;" horiz-adv-x="1507" 
d="M423 371c0 -60.667 8.33203 -114.166 24.999 -160.499s41 -86.166 73 -119.499c33.333 -32 70 -56.5 110 -73.5s84 -25.5 132 -25.5c50 0 95.333 8.16699 136 24.5s77.334 40.5 110.001 72.5c64.667 66.667 97 160.667 97 282v282c0 62 -7.66699 118 -23 168
s-37.666 94.667 -66.999 134c-30 36 -66.167 63.833 -108.5 83.5s-90.5 29.5 -144.5 29.5c-50.667 0 -96.834 -8.83301 -138.501 -26.5s-78.167 -41.834 -109.5 -72.501c-30 -32.667 -52.833 -74.834 -68.5 -126.501s-23.5 -112.167 -23.5 -181.5v-290zM194.999 1880
h228.001v-781c52.667 49.333 108.5 89.333 167.5 120s116.5 46 172.5 46c95.333 0 179.5 -15.167 252.5 -45.5s133.167 -72.5 180.5 -126.5c44.667 -56.667 78.667 -118.667 102 -186s35 -139.333 35 -216v-364c0 -70.667 -12.833 -137.667 -38.5 -201
s-62.167 -121 -109.5 -173c-50 -52 -110.167 -91.667 -180.5 -119s-150.833 -41 -241.5 -41c-69.333 0 -136.833 13 -202.5 39s-127.5 62.667 -185.5 110c-56.667 50 -100.834 107.833 -132.501 173.5s-47.5 136.167 -47.5 211.5v1553z" />
    <glyph glyph-name="uni10BF" unicode="&#x10bf;" horiz-adv-x="1467" 
d="M157 1642l417.005 -62.0029l39 300h202l-47 -313l231 -28c39.333 -5.33301 79.166 -10.166 119.499 -14.499s80.166 -8.83301 119.499 -13.5v-204l-463 63c5.33301 -48 15.666 -94.667 30.999 -140s34.5 -88.166 57.5 -128.499s49.167 -78 78.5 -113s61 -66.5 95 -94.5
c39.333 -30 74.833 -62.5 106.5 -97.5s58.667 -71.667 81 -110s39.5 -78.166 51.5 -119.499s18 -83.333 18 -126v-98c0 -154 -51.667 -284.333 -155 -391v1c-104.667 -106.667 -242 -160 -412 -160c-154.667 0 -288.334 54 -401.001 162
c-56 54.667 -98.167 113.5 -126.5 176.5s-42.5 130.833 -42.5 203.5v114c-1.33301 54 3.66699 107.833 15 161.5s29.666 106.5 54.999 158.5h211c-18 -73.333 -31.667 -136.5 -41 -189.5s-14 -96.5 -14 -130.5v-106c0 -109.333 32.667 -195.333 98 -258
c34 -30 71.333 -53 112 -69s86 -24 136 -24c51.333 0 97.333 7 138 21s77 34.667 109 62c60.667 52.667 91 141.334 91 266.001v100c0 140 -75.333 271.333 -226 394c-157.333 131.333 -246.333 313.666 -267 546.999l-108 14.5l-109 15.5l-200 25v205z" />
    <glyph glyph-name="uni10C0" unicode="&#x10c0;" horiz-adv-x="1464" 
d="M1291 285c0 -84.667 -13.4971 -157.669 -40.4971 -219.002s-66.5 -112 -118.5 -152c-52 -40.667 -112.167 -71 -180.5 -91s-144.5 -30 -228.5 -30c-188 0 -329.833 54.5 -425.5 163.5s-143.5 277.167 -143.5 504.5h226c0 -76.667 6.16699 -143.834 18.5 -201.501
s30.166 -107.5 53.499 -149.5v1c47.333 -79.333 137.666 -119 270.999 -119c53.333 0 101 5.5 143 16.5s77.667 27.333 107 49s51.833 48.667 67.5 81s23.5 70.166 23.5 113.499c0 108 -16.333 187 -49 237s-80.667 75 -144 75h-249v190h249c45.333 0 83 12.333 113 37
c26.667 24 40 73 40 147c0 23.333 -3.5 44.5 -10.5 63.5s-16.833 35.167 -29.5 48.5c-14 13.333 -33.5 23.5 -58.5 30.5s-56.167 10.5 -93.5 10.5h-251v200h251c23.333 0 44 4.33301 62 13s34 21 48 37c12.667 17.333 23 37.833 31 61.5s12 48.5 12 74.5
c0 79.333 -27.333 132 -82 158c-30 14.667 -91.667 25.834 -185 33.501s-219.333 11.5 -378 11.5v187c170 0 312 -6.66699 426 -20s200.667 -34.333 260 -63c121.333 -58.667 182 -158 182 -298c0 -58 -12.833 -110.5 -38.5 -157.5s-66.834 -90.5 -123.501 -130.5
c69.333 -30 120.5 -66.167 153.5 -108.5s49.5 -92.166 49.5 -149.499c0 -31.333 -4.33301 -61.166 -13 -89.499s-21 -54.666 -37 -78.999s-35.333 -46.5 -58 -66.5s-48 -37.333 -76 -52c34 -18 64.833 -39.667 92.5 -65s51.5 -53.5 71.5 -84.5s35.333 -64.833 46 -101.5
s16 -75.667 16 -117z" />
    <glyph glyph-name="uni10C1" unicode="&#x10c1;" horiz-adv-x="1507" 
d="M1333 288c0 -79.333 -13.0029 -149.332 -39.0029 -209.999s-64 -112.667 -114 -156c-98.667 -86 -237.667 -129 -417 -129c-81.333 0 -155.833 12.167 -223.5 36.5s-128.5 61.5 -182.5 111.5c-53.333 50 -93.666 110.5 -120.999 181.5s-41 152.833 -41 245.5v1512h214
v-1520c2 -114 34 -204 96 -270v1c33.333 -32 71.333 -56.5 114 -73.5s91.667 -25.5 147 -25.5c108 0 191.667 23.667 251 71s89 122.333 89 225c0 43.333 -3.5 81.5 -10.5 114.5s-18.167 60.667 -33.5 83s-35.333 39.166 -60 50.499s-55 17 -91 17h-163v187h163
c66.667 0 115.834 16.667 147.501 50s47.5 78.333 47.5 135c0 20 -4.5 39.167 -13.5 57.5s-22.167 36.5 -39.5 54.5v-1c-36.667 36.667 -96.334 55 -179.001 55h-126v200h126c41.333 0 76.5 5 105.5 15s52.5 25.667 70.5 47s31.833 44.333 41.5 69s14.5 51.667 14.5 81
c0 53.333 -24.667 96 -74 128h1c-27.333 15.333 -64.666 27.333 -111.999 36s-105 13 -173 13v200c90.667 0 171.334 -7.16699 242.001 -21.5s131.667 -36.833 183 -67.5h-1c107.333 -62 161 -156.333 161 -283c0 -145.333 -71 -249.333 -213 -312
c142 -44 213 -135.333 213 -274c0 -144.667 -72 -239.667 -216 -285c144 -70 216 -186.333 216 -349z" />
    <glyph glyph-name="uni10C2" unicode="&#x10c2;" horiz-adv-x="1464" 
d="M380 635c0 -101.333 28.498 -195.001 85.498 -281.001s144.5 -166 262.5 -240c112.667 74 196.834 154.333 252.501 241s83.5 180.667 83.5 282v555c0 82 -8.16699 155.833 -24.5 221.5s-37.166 117.5 -62.499 155.5c-30 34.667 -65.833 61.834 -107.5 81.501
s-89.167 29.5 -142.5 29.5c-54 0 -101.667 -9.16699 -143 -27.5s-78 -46.5 -110 -84.5c-30.667 -38 -54 -92.667 -70 -164s-24 -160 -24 -266v-503zM153.998 -74.001c179.333 0 321.999 30.668 427.999 92.001c-285.333 155.333 -428 361.666 -428 618.999v555
c0 269.333 53.333 451.333 160 546c54 48 115.167 83.667 183.5 107s144.833 35 229.5 35s160.834 -11.667 228.501 -35s127.5 -59 179.5 -107c51.333 -47.333 90.166 -116.5 116.499 -207.5s39.5 -203.833 39.5 -338.5v-555c0 -130.667 -34.167 -247 -102.5 -349
s-172.166 -192.333 -311.499 -271c45.333 -32 101.5 -55.167 168.5 -69.5s148.833 -21.5 245.5 -21.5v-200c-94 0 -187.833 16.333 -281.5 49s-188.167 82.667 -283.5 150c-106.667 -68 -207.167 -118.167 -301.5 -150.5s-184.5 -48.5 -270.5 -48.5v200z" />
    <glyph glyph-name="uni10C3" unicode="&#x10c3;" horiz-adv-x="1464" 
d="M1291 351c0 -82 -13 -156.33 -39 -222.997s-64.333 -126.334 -115 -179.001c-104 -104 -242 -156 -414 -156c-152 0 -284.333 46 -397 138c-114.667 95.333 -172 207.666 -172 336.999v117c0 55.333 17.5 111.333 52.5 168s87.167 113.667 156.5 171l124 -141
c-35.333 -31.333 -62 -65.5 -80 -102.5s-27 -76.5 -27 -118.5v-63c0 -38 7 -74.333 21 -109s34.667 -68.667 62 -102c28 -32 63.167 -56 105.5 -72s93.833 -24 154.5 -24c93.333 0 174.333 26.333 243 79c65.333 49.333 98 142.666 98 279.999v135
c0 61.333 -7.83301 118 -23.5 170s-37.5 97.333 -65.5 136c-30 34 -61.167 61.333 -93.5 82s-65.5 31 -99.5 31h-279v202h270c35.333 0 70.5 13 105.5 39s67.167 60 96.5 102c26 46 47 104.333 63 175s24.667 148.667 26 234h-642v-242h-229v440h1098v-248
c0 -129.333 -25 -243 -75 -341s-126.667 -183 -230 -255c98.667 -42 174.167 -107 226.5 -195s78.5 -198 78.5 -330v-135z" />
    <glyph glyph-name="uni10C4" unicode="&#x10c4;" horiz-adv-x="1464" 
d="M1291 285c0 -78.667 -13.1689 -148.002 -39.502 -208.002s-65.166 -111.667 -116.499 -155c-51.333 -44 -110.833 -76.5 -178.5 -97.5s-144.167 -31.5 -229.5 -31.5c-178.667 0 -319.667 53.667 -423 161c-100 107.333 -150 231.666 -150 372.999
c0 106 57.333 217.667 172 335l146 -139c-30 -40 -52.833 -76.667 -68.5 -110s-23.5 -64 -23.5 -92c0 -47.333 8 -90.5 24 -129.5s39.667 -74.5 71 -106.5h-1c32.667 -30 69.834 -53 111.501 -69s88.834 -24 141.501 -24c124.667 0 211.667 27.667 261 83
c50.667 54 76 118.333 76 193v100c0 80.667 -18.833 142 -56.5 184s-100.5 63 -188.5 63h-112v201h112c78.667 -1.33301 138.167 36.334 178.5 113.001s62.5 191.667 66.5 345c-74 -52.667 -147.5 -91.667 -220.5 -117s-147.833 -38 -224.5 -38
c-81.333 0 -151.333 8.33301 -210 25s-106.334 42.667 -143.001 78c-74.667 69.333 -112 157.333 -112 264c0 109.333 61.667 202.333 185 279c62 39.333 136.5 68.333 223.5 87s188.167 28 303.5 28v-200c-85.333 0 -161.166 -4.5 -227.499 -13.5
s-118.833 -20.167 -157.5 -33.5c-32 -14.667 -56.833 -35 -74.5 -61s-26.5 -57.667 -26.5 -95c0 -52.667 18 -97.667 54 -135c35.333 -37.333 96 -55 182 -53c80 -1.33301 176.167 26.834 288.5 84.501s241.166 144.167 386.499 259.5c0 -264 -22.167 -472 -66.5 -624
s-111.5 -249.333 -201.5 -292c178.667 -71.333 268 -188.666 268 -351.999v-80z" />
    <glyph glyph-name="uni10C5" unicode="&#x10c5;" horiz-adv-x="1628" 
d="M1067 536l-339.001 -0.00195312c-133.333 0 -224.666 -24.667 -273.999 -74v1c-24 -25.333 -42.333 -54.666 -55 -87.999s-19 -71.666 -19 -114.999c0 -76 31.667 -139 95 -189c64 -52.667 148.333 -79 253 -79c110 0 194 22 252 66s87 114 87 210v268zM379.999 1383
c0 -42 8.33398 -79.999 25.001 -113.999s39.667 -63.333 69 -88c28 -21.333 61.333 -37.833 100 -49.5s80.334 -17.5 125.001 -17.5h21c1.33301 0 2.66602 0.166992 3.99902 0.5s2.66602 0.5 3.99902 0.5h339v259c0 100 -30.333 175 -91 225
c-30 27.333 -65.833 47.666 -107.5 60.999s-88.5 20 -140.5 20c-119.333 0 -207 -28 -263 -84c-56.667 -52.667 -85 -123.667 -85 -213zM1291 535.999v-268c0 -86 -15.167 -159.833 -45.5 -221.5s-73.833 -110.167 -130.5 -145.5
c-56 -34.667 -116.833 -61.334 -182.5 -80.001s-133.834 -28 -204.501 -28c-89.333 0 -169.166 11.167 -239.499 33.5s-130.5 55.5 -180.5 99.5c-47.333 44 -84.5 95.333 -111.5 154s-40.5 121.334 -40.5 188.001c0 58 11.333 113.667 34 167s57.667 104.666 105 153.999
c94.667 100.667 239 151 433 151h339v179h-339c-196 0 -340.333 46 -433 138h1c-47.333 45.333 -82.5 95.333 -105.5 150s-34.5 113.334 -34.5 176.001c0 67.333 13.5 131 40.5 191s63.833 113.667 110.5 161c50 44.667 111 80 183 106s151.333 39 238 39
c152.667 0 284 -43.333 394 -130c53.333 -43.333 94.833 -97 124.5 -161s44.5 -135.667 44.5 -215v-259h160v-196h-160v-179h160v-204h-160z" />
    <glyph glyph-name="uni10C6" unicode="&#x10c6;" horiz-adv-x="2069" 
d="M1648 1334c0 137.333 -23.999 226.667 -71.999 268c-48 42 -111 63 -189 63c-50 0 -92.5 -5.83301 -127.5 -17.5s-62.167 -27.5 -81.5 -47.5c-18 -23.333 -31.833 -56.666 -41.5 -99.999s-14.5 -95.666 -14.5 -156.999v-535c0 -138 27.333 -225 82 -261
c28 -18.667 57.167 -32.5 87.5 -41.5s62.166 -14.167 95.499 -15.5c53.333 1.33301 97.5 8.33301 132.5 21s60.167 33 75.5 61c18 27.333 31.333 60.666 40 99.999s13 84.666 13 135.999v526zM646.001 1863c164.667 0 288.33 -67.001 370.997 -201.001
c38.667 68.667 88.834 119.334 150.501 152.001s134.834 49 219.501 49c71.333 0 136.5 -9.33301 195.5 -28s110.167 -46 153.5 -82c43.333 -37.333 76.833 -89.833 100.5 -157.5s35.5 -149.167 35.5 -244.5v-543c0 -83.333 -12.333 -157 -37 -221s-61 -119 -109 -165
c-96 -90 -208.333 -135 -337 -135c-51.333 0 -98.833 8 -142.5 24s-85.167 41.667 -124.5 77v-142c0 -300 -191.333 -450 -574 -450v186c242 0 363 86 363 258v1094c-1.33301 60.667 -7.5 113.667 -18.5 159s-25.5 80.333 -43.5 105c-20 20 -47.333 36.167 -82 48.5
s-75 18.5 -121 18.5c-42.667 0 -80.5 -5.5 -113.5 -16.5s-60.167 -26.833 -81.5 -47.5c-44 -41.333 -66 -124.666 -66 -249.999v-543c0 -140.667 27.333 -231.334 82 -272.001c59.333 -41.333 134.333 -62 225 -62v-187c-72 0 -140 10.667 -204 32s-121 51.333 -171 90
c-50 42 -88.5 96.167 -115.5 162.5s-40.5 145.166 -40.5 236.499v535c0 80.667 9.5 152.334 28.5 215.001s47.5 117.667 85.5 165c76.667 93.333 200.334 140 371.001 140z" />
    <glyph glyph-name="uni10D0" unicode="&#x10d0;" horiz-adv-x="1306" 
d="M1147 563c-0.666992 -184 -43.002 -321.33 -127.002 -411.997s-210 -136 -378 -136c-328 0 -492 182.667 -492 548c0 80 18.333 151.667 55 215l221 -50c-24.667 -46 -37 -101 -37 -165c0 -242.667 86.667 -364 260 -364c171.333 0 256.666 121.333 255.999 364
c0.666992 70.667 -14.166 132.667 -44.499 186s-72.5 98 -126.5 134l1 -1c-92 29.333 -166.667 80.166 -224 152.499s-95.666 167.166 -114.999 284.499h228c9.33301 -64 24.833 -115.333 46.5 -154s49.167 -66 82.5 -82c60.667 -26 115.334 -56.5 164.001 -91.5
s90 -74.333 124 -118s60.167 -91.334 78.5 -143.001s27.5 -107.5 27.5 -167.5z" />
    <glyph glyph-name="uni10D1" unicode="&#x10d1;" horiz-adv-x="1306" 
d="M1147 615c0 -400 -164.668 -600 -494.001 -600c-164.667 0 -289 51.167 -373 153.5s-127.333 251.166 -130 446.499c3.33301 171.333 38.833 307.666 106.5 408.999s170.834 166 309.501 194v194c0.666992 88 -44 146.333 -134 175c-94 33.333 -142.667 119.333 -146 258
h230c1.33301 -36 12.833 -66.5 34.5 -91.5s51.167 -45.167 88.5 -60.5c44 -19.333 78 -51.666 102 -96.999s36 -104.666 36 -177.999v-200c246.667 -87.333 370 -288.333 370 -603zM908.999 615c-0.666992 282 -85.332 423.332 -253.999 423.999
c-178.667 -1.33301 -267.334 -142.666 -266.001 -423.999c0 -278.667 88 -418 264 -418c170.667 0 256 139.333 256 418z" />
    <glyph glyph-name="uni10D2" unicode="&#x10d2;" horiz-adv-x="1468" 
d="M1305 93c-4 -87.333 -20.0039 -164.831 -48.0039 -232.498s-66.667 -125.334 -116 -173.001s-109.166 -85.5 -179.499 -113.5s-149.833 -45.333 -238.5 -52c-85.333 7.33301 -162.5 25.166 -231.5 53.499s-128.167 66.5 -177.5 114.5s-88.166 105.833 -116.499 173.5
s-44.166 144.5 -47.499 230.5c16 168.667 71 302 165 400s228.333 155 403 171c52.667 34.667 94 75.334 124 122.001s45.667 97 47 151c0 47.333 -21.167 84.5 -63.5 111.5s-99.833 44.833 -172.5 53.5c-61.333 -8 -110.5 -25.5 -147.5 -52.5s-55.5 -63.167 -55.5 -108.5
c0 -6 0.5 -13.5 1.5 -22.5s3.16699 -21.167 6.5 -36.5c-28 -5.33301 -57.833 -10.5 -89.5 -15.5s-61.5 -9.5 -89.5 -13.5l-33 -2c-8 34.667 -12 70.667 -12 108c0 102.667 35.833 181.167 107.5 235.5s174.834 85.166 309.501 92.499
c154.667 -7.33301 271.667 -40.833 351 -100.5s119 -146.167 119 -259.5c0 -107.333 -63 -202.333 -189 -285v-9c244 -96 368.333 -276.333 373 -541zM1064 93.002c-2 54 -11.1709 102.5 -27.5039 145.5s-39 80.333 -68 112s-63.667 57.334 -104 77.001
s-85.5 33.5 -135.5 41.5c-45.333 -8 -87.166 -22.833 -125.499 -44.5s-72.166 -49 -101.499 -82s-53.666 -70.833 -72.999 -113.5s-32.666 -89 -39.999 -139c4.66699 -52 16.167 -99.5 34.5 -142.5s41.833 -80.5 70.5 -112.5s62.167 -58.167 100.5 -78.5
s80.5 -33.833 126.5 -40.5c48 6.66699 92.167 20.167 132.5 40.5s75.5 46.5 105.5 78.5s54 69.667 72 113s29 91.666 33 144.999z" />
    <glyph glyph-name="uni10D3" unicode="&#x10d3;" horiz-adv-x="1975" 
d="M346 -289c29.333 28 62.499 53.6689 99.499 77.002s77.833 41.666 122.5 54.999v24c-277.333 175.333 -416 437.666 -416 786.999c0 390 148 585 444 585c180 0 301.667 -80.667 365 -242h7c48 168 169.667 252 365 252c315.333 0 473 -189.667 473 -569
c0 -193.333 -40.333 -338.833 -121 -436.5s-198 -147.834 -352 -150.501c-158.667 11.333 -279.5 67.333 -362.5 168s-124.167 244.667 -123.5 432c0 240.667 -77.667 361 -233 361c-148.667 -0.666992 -223 -134 -223 -400c0 -95.333 11 -182 33 -260
s53.667 -147.167 95 -207.5s92 -111.666 152 -153.999s128.667 -75.5 206 -99.5c96.667 -25.333 184.334 -52.833 263.001 -82.5s146.5 -61.167 203.5 -94.5s102.167 -68.833 135.5 -106.5s53.333 -76.834 60 -117.501h-238c-9.33301 24 -28.333 47.333 -57 70
s-64.5 44 -107.5 64s-92.333 38.5 -148 55.5s-115.167 32.167 -178.5 45.5c-60.667 -5.33301 -121.167 -24.666 -181.5 -57.999s-117.5 -80.333 -171.5 -141zM1576 693.002c0 246 -81 369 -243 369c-182.667 0 -274 -123 -274 -369c0 -264 91.333 -396 274 -396
c162 0 243 132 243 396z" />
    <glyph glyph-name="uni10D4" unicode="&#x10d4;" horiz-adv-x="1328" 
d="M1147 13c0 -326 -165.996 -488.999 -497.996 -488.999c-166 -0.666992 -290.5 38.833 -373.5 118.5s-124.167 198.5 -123.5 356.5c-0.666992 36 1.66602 70.833 6.99902 104.5s15.666 68.5 30.999 104.5l227 -57c-18.667 -62.667 -28 -113.334 -28 -152.001
c0 -194.667 86.667 -292 260 -292c172.667 0 258.667 97.333 258 292v703c0.666992 122 -18.333 212.833 -57 272.5s-96.334 89.5 -173.001 89.5c-86.667 0 -150.834 -20.5 -192.501 -61.5s-62.5 -103.167 -62.5 -186.5c0 -28 3.5 -54.833 10.5 -80.5
s17.833 -52.5 32.5 -80.5l-84 -33l-111 -41c-22 32 -38.333 66.667 -49 104s-16 79 -16 125c0 292.667 156.667 439 470 439c314.667 0 472 -182.333 472 -547v-689z" />
    <glyph glyph-name="uni10D5" unicode="&#x10d5;" horiz-adv-x="1304" 
d="M1145 -75c0 -267.333 -159.332 -401.002 -477.999 -401.002c-342 -1.33301 -513.667 147.334 -515 446.001c-0.666992 42.667 1.66602 80.834 6.99902 114.501s15.666 66.167 30.999 97.5l110 -29c0.666992 0 1.16699 -0.166992 1.5 -0.5s0.833008 -0.5 1.5 -0.5
c3.33301 -1.33301 6.33301 -2.16602 9 -2.49902s7.33398 -2.16602 14.001 -5.49902l-1 1l34 -10l34 -10l20 -5c-9.33301 -32 -16 -60.5 -20 -85.5s-6 -46.5 -6 -64.5c0 -175.333 93.333 -263 280 -263c80.667 0 140.834 17.667 180.501 53s59.5 89.666 59.5 162.999v139
c0.666992 170.667 -71.333 256 -216 256h-129v185h129c137.333 -2 206 89.667 206 275c0 192 -77.333 288 -232 288c-154.667 -0.666992 -232.334 -76.334 -233.001 -227.001c0.666992 -42.667 6.66699 -88 18 -136l-104 -30h1l-18 -6
c-11.333 -4 -24.833 -8.33301 -40.5 -13l-39.5 -12c-16 40 -28.333 76.167 -37 108.5s-13 61.833 -13 88.5c0 273.333 155.333 410 466 410c156 0 273 -39.5 351 -118.5s117 -197.833 117 -356.5c0 -86 -21.667 -159.167 -65 -219.5s-111 -109.5 -203 -147.5v-10
c186.667 -40.667 280 -153 280 -337v-135z" />
    <glyph glyph-name="uni10D6" unicode="&#x10d6;" horiz-adv-x="1306" 
d="M1147 611c0 -397.333 -166.666 -596 -499.999 -596c-332.667 0 -499 198.667 -499 596c0.666992 126 17.167 227.833 49.5 305.5s79.166 132.5 140.499 164.5v14c-164.667 52 -247 167.333 -247 346c0 267.333 139.667 401 419 401c270 0 405 -128 405 -384
c0 -58.667 -9.16699 -111.667 -27.5 -159s-43.5 -89 -75.5 -125v-10c114 -20 198.333 -75.833 253 -167.5s82 -220.167 82 -385.5zM905.001 611c0 264.667 -87.667 396.331 -263 394.998c-84 0.666992 -147.333 -32.166 -190 -98.499s-63.667 -165.166 -63 -296.499
c2 -274.667 88 -412 258 -412c172 0 258 137.333 258 412zM702.001 1420c0 160 -65.3311 240.333 -195.998 241c-134 0 -201 -80.333 -201 -241c-2 -162.667 71.667 -244 221 -244c53.333 0 94.166 20.833 122.499 62.5s46.166 102.167 53.499 181.5z" />
    <glyph glyph-name="uni10D7" unicode="&#x10d7;" horiz-adv-x="2007" 
d="M1838 676c-0.666992 -122.667 -26.333 -239.667 -77 -351s-127.667 -219.333 -231 -324h-275c230.667 210.667 346 433.667 346 669c0 262.667 -74.667 394 -224 394c-152 0 -228 -145 -228 -435c0 -409.333 -168.333 -614 -505 -614c-328 0 -492 208 -492 624
c0 405.333 164.667 608 494 608c94.667 0 173 -18.333 235 -55s107.667 -91 137 -163h5c54.667 145.333 172.667 218 354 218c307.333 0 461 -190.333 461 -571zM911.001 629c-0.666992 290 -89 435 -265 435c-170 0 -255 -139.333 -255 -418
c0 -299.333 84.333 -449 253 -449c176.667 0 265.667 144 267 432z" />
    <glyph glyph-name="uni10D8" unicode="&#x10d8;" horiz-adv-x="1304" 
d="M1145 687c0 -122 -13.166 -240 -39.499 -354s-66.166 -226.667 -119.499 -338h-216c47.333 131.333 82.166 254 104.499 368s33.166 222 32.499 324c0 250 -86 375 -258 375c-174.667 0 -262 -125 -262 -375c0 -106.667 10.667 -216.834 32 -330.501
s53.333 -234.167 96 -361.5h-205c-54 111.333 -94 224.333 -120 339s-38.667 232.334 -38 353.001c0 374.667 165.667 562 497 562c330.667 0 496 -187.333 496 -562z" />
    <glyph glyph-name="uni10D9" unicode="&#x10d9;" horiz-adv-x="1306" 
d="M1147 5c-1.33301 -320.667 -170.331 -480.998 -506.998 -480.998c-326.667 0 -490 160.333 -490 481c0 29.333 3.33301 59.166 10 89.499s16.667 60.833 30 91.5l209 -94l-18 -89c0 -195.333 86.333 -293 259 -293c178 0 267 98.333 267 295v40
c0 183.333 -89 275 -267 275h-166v195h166c162.667 0 244 73.333 244 220c0 66 -25.5 124.167 -76.5 174.5s-129.833 95.166 -236.5 134.499v197c185.333 -43.333 323.666 -107 414.999 -191s137 -189 137 -315c1.33301 -154 -97.334 -259.667 -296.001 -317v-7
c108.667 -19.333 189.167 -59 241.5 -119s78.5 -142.333 78.5 -247v-40z" />
    <glyph glyph-name="uni10DA" unicode="&#x10da;" horiz-adv-x="2636" 
d="M452 -165c27.333 23.333 57.4971 45.001 90.4971 65.001s67.833 37.333 104.5 52c-163.333 65.333 -286.333 159.333 -369 282s-124 274 -124 454c0 367.333 156 551 468 551c82 0 152.167 -17.167 210.5 -51.5s104.5 -84.833 138.5 -151.5h11
c34.667 69.333 79 122.166 133 158.499s117.333 54.5 190 54.5c78.667 -0.666992 146 -19.667 202 -57s100 -91 132 -161h10c34 68.667 79.333 120.5 136 155.5s124.334 52.5 203.001 52.5c314.667 0 472 -181.333 472 -544c-1.33301 -203.333 -80 -367.333 -236 -492
l-87 54l-40 25.5c-16.667 10.333 -30.334 18.5 -41 24.5c56 56.667 97.833 116.834 125.5 180.501s41.5 132.834 41.5 207.501c0 238.667 -78.333 357.667 -235 357c-81.333 1.33301 -142.166 -22.667 -182.499 -72s-59.833 -124.333 -58.5 -225l-7 -139l-6 -116
c0 -2.66699 -0.166992 -5.83398 -0.5 -9.50098s-0.5 -7.5 -0.5 -11.5v-22h-190l-14 298c0 204.667 -74.667 307 -224 307c-146.667 0 -220 -102.333 -220 -307l-13 -298h-186c-0.666992 18 -1.33398 38.667 -2.00098 62s-1.66699 43.666 -3 60.999
c-1.33301 28.667 -2.5 57.5 -3.5 86.5s-2.16699 58.5 -3.5 88.5c-0.666992 99.333 -21.5 173.666 -62.5 222.999s-104.167 74 -189.5 74c-75.333 1.33301 -132.166 -28.5 -170.499 -89.5s-57.166 -154.5 -56.499 -280.5c0 -396.667 247.333 -622.667 742 -678
c264.667 -47.333 465 -110.166 601 -188.499s205.667 -172.833 209 -283.5h-219c-2 34 -18.667 65.5 -50 94.5s-76.666 55.833 -135.999 80.5s-132.333 46.667 -219 66s-186.334 36.333 -299.001 51h1c-6 0.666992 -12.833 1 -20.5 1h-20.5c-91.333 0 -169 -13 -233 -39
s-117 -67.333 -159 -124z" />
    <glyph glyph-name="uni10DB" unicode="&#x10db;" horiz-adv-x="1325" 
d="M1145 537c0 -348 -160.001 -522 -480.001 -522c-343.333 0 -515 193.333 -515 580c0 383.333 166.333 575 499 575c118 0 205.333 -48.333 262 -145h8v441c0 130 -90 195 -270 195c-70 0 -122.5 -15.167 -157.5 -45.5s-54.5 -73.833 -58.5 -130.5h-236
c4.66699 240 155.334 360 452.001 360c330.667 -2 496 -128.333 496 -379v-929zM904.999 537c0 295.333 -85.333 443 -256 443c-174.667 0 -262 -127.667 -262 -383c0 -266.667 94 -400 282 -400c157.333 0 236 113.333 236 340z" />
    <glyph glyph-name="uni10DC" unicode="&#x10dc;" horiz-adv-x="1328" 
d="M1168 615c-2 -400 -170.332 -600 -504.999 -600c-328.667 0 -493 184.333 -493 553v928c-1.33301 212.667 112.667 319 342 319h511v-189h-511c-78 -2 -117 -42.667 -117 -122v-443h19c28 50 62.667 87.167 104 111.5s89.666 36.5 144.999 36.5
c336.667 0 505 -198 505 -594zM928.001 615c-0.666992 270.667 -89.667 405.999 -267 405.999c-175.333 0 -263 -151 -263 -453c0 -247.333 87.667 -370.333 263 -369c178 -1.33301 267 137.334 267 416.001z" />
    <glyph glyph-name="uni10DD" unicode="&#x10dd;" horiz-adv-x="1971" 
d="M1802 684c0 -270.667 -104.002 -496.332 -312.002 -676.999h-232c101.333 136 177.333 259.667 228 371s76 213.333 76 306c0 253.333 -73.667 380 -221 380c-172 0 -258 -109.667 -258 -329l-11 -229h-190l-5 123l-1 30c-1.33301 10.667 -2.16602 22.167 -2.49902 34.5
s-0.833008 23.833 -1.5 34.5v7c0 219.333 -86 329 -258 329c-145.333 0 -218 -126.667 -218 -380c-2.66699 -176.667 94 -402.334 290 -677.001h-232c-201.333 181.333 -302 407 -302 677c0 376.667 154.667 565 464 565c89.333 0 163.833 -18.833 223.5 -56.5
s104.834 -93.5 135.501 -167.5h6c36 76.667 84 133.167 144 169.5s132.667 54.5 218 54.5c306 0 459 -188.333 459 -565z" />
    <glyph glyph-name="uni10DE" unicode="&#x10de;" horiz-adv-x="1306" 
d="M1147 599c0 -389.333 -168.334 -584.002 -505.001 -584.002c-328 0 -492 163.333 -492 490c0 46 4.66699 89.167 14 129.5s23.666 78.833 42.999 115.5l65 -22l145 -46c-22.667 -59.333 -34 -117.666 -34 -174.999c0 -206.667 86.333 -310 259 -310
c175.333 0 263 134 263 402c0 233.333 -98 350 -294 350h-125v176h149c149.333 0 224.333 74.667 225 224c0 60.667 -19.833 109.5 -59.5 146.5s-98.834 62.167 -177.501 75.5c-76.667 15.333 -136.667 45.833 -180 91.5s-67.666 103.834 -72.999 174.501h231
c8.66699 -59.333 87.667 -107.666 237 -144.999c168.667 -44.667 253 -159.667 253 -345c0 -79.333 -20.667 -145.333 -62 -198s-102.333 -92.334 -183 -119.001v-5c102.667 -32 178.334 -83 227.001 -153s73.334 -161 74.001 -273z" />
    <glyph glyph-name="uni10DF" unicode="&#x10df;" horiz-adv-x="1328" 
d="M1145 7c1.33301 -322 -167 -483.001 -505 -483.001c-323.333 0 -486.666 148.667 -489.999 446h242c2.66699 -175.333 83 -263 241 -263c186.667 0 280 100.667 280 302v1039l-197 -27l-113 -15l-61 -7.5c-19.333 -2.33301 -39 -5.16602 -59 -8.49902v-20
c83.333 -36 144.666 -86 183.999 -150s59 -142.667 59 -236c0 -241.333 -192 -363.333 -576 -366v212c248.667 2 373 53.333 373 154c0 195.333 -124.333 330 -373 404v141l180 28l191 29l121 19l503 80v-1278z" />
    <glyph glyph-name="uni10E0" unicode="&#x10e0;" horiz-adv-x="1994" 
d="M1824 714c0 -279.333 -101.664 -515.664 -304.997 -708.997h-245c105.333 146.667 183.5 278.167 234.5 394.5s76.5 221.166 76.5 314.499c-0.666992 233.333 -81.334 350 -242.001 350c-165.333 0 -248 -115.667 -248 -347l-14 -164h-184
c-1.33301 13.333 -2.5 27.166 -3.5 41.499s-2.16699 26.5 -3.5 36.5l-2 25l-6 59c0.666992 116.667 -19.666 204 -60.999 262s-102.333 87 -183 87c-163.333 0 -245 -116.667 -245 -350c0 -92 25.167 -196 75.5 -312s127.166 -248.333 230.499 -397h-243
c-202.667 192 -304 428.333 -304 709c0.666992 108 21.167 217 61.5 327s98.833 219.333 175.5 328c78.667 106.667 201.167 203.5 367.5 290.5s375.833 162.5 628.5 226.5l54 -205c-254.667 -47.333 -461.167 -111.166 -619.5 -191.499s-268.166 -176.5 -329.499 -288.5
v-11l24 11l24 11l22 10l64 27c86 -0.666992 158.667 -23.334 218 -68.001s105.666 -109.334 138.999 -194.001h11c35.333 90 82.666 156.167 141.999 198.5s131.666 63.5 216.999 63.5c315.333 0 473 -178.333 473 -535z" />
    <glyph glyph-name="uni10E1" unicode="&#x10e1;" horiz-adv-x="1328" 
d="M1168 623c0 -405.333 -163.666 -607.999 -490.999 -607.999c-339.333 0 -509 202.667 -509 608v1180h235v-1180c-1.33301 -142.667 21 -249.334 67 -320.001s115 -106 207 -106c167.333 0 251 142 251 426c0 79.333 -10 147.5 -30 204.5s-47.333 101.167 -82 132.5
c-36.667 30 -65.834 60 -87.501 90s-32.5 57.667 -32.5 83c0 116 63.667 216.667 191 302l115 -167c-39.333 -20 -67.833 -37.833 -85.5 -53.5s-26.5 -30.167 -26.5 -43.5c0 -40 45.333 -97 136 -171c94.667 -79.333 142 -205 142 -377z" />
    <glyph glyph-name="uni10E2" unicode="&#x10e2;" horiz-adv-x="1664" 
d="M150 385c0 250 50.832 442.5 152.499 577.5s251.5 212.167 449.5 231.5l-18 396h189l-18 -400c196 -18.667 344.167 -95.667 444.5 -231s150.5 -329.333 150.5 -582c-1.33301 -568.667 -224.666 -853 -669.999 -853c-453.333 0 -680 287 -680 861zM385.999 385
c0 -452 146.667 -678.002 440 -678.002c292.667 0 439 226 439 678c0 187.333 -30 335.833 -90 445.5s-150 180.834 -270 213.501c0 -4.66699 0.166992 -8.5 0.5 -11.5s0.5 -6.83301 0.5 -11.5l4 -139c1.33301 -48 3 -94.667 5 -140l8 -324h-189l18 624
c-122 -32 -213.5 -102.667 -274.5 -212s-91.5 -257.666 -91.5 -444.999z" />
    <glyph glyph-name="uni10E3" unicode="&#x10e3;" horiz-adv-x="1376" 
d="M1194 -1c-2 -316.667 -169.333 -475.001 -502 -475.001c-327.333 0 -491 158.333 -491 475c0 64.667 5.83301 126 17.5 184s28.834 113.667 51.501 167c15.333 -7.33301 33.166 -15 53.499 -23l52.5 -20l32 -12c12 -4.66699 25.333 -9.5 40 -14.5
s27.334 -9.83301 38.001 -14.5c-15.333 -41.333 -27.333 -84.166 -36 -128.499s-13 -90.5 -13 -138.5c0 -194.667 85 -292 255 -292c184 0 276 97.333 276 292v771c-1.33301 196 -55 294 -161 294c-96 0 -144 -82 -144 -246l-13 -245h-174
c-0.666992 19.333 -1.33398 41 -2.00098 65s-1.66699 45 -3 63l-5 118c0 163.333 -59.333 245 -178 245h-138v185h131c139.333 0 231 -59.667 275 -179h10c58.667 119.333 143.667 179 255 179c248.667 0 373 -159.667 373 -479v-771z" />
    <glyph glyph-name="uni10E4" unicode="&#x10e4;" horiz-adv-x="1973" 
d="M1778 -83c0 -262 -204.665 -392.998 -613.998 -392.998c-376 0 -567.333 111 -574 333h233c6.66699 -100 120.334 -150 341.001 -150c126 0 220 17.167 282 51.5s93 87.166 93 158.499v157c0 122 -34.667 183 -104 183h-129v197h129c84.667 0 127 105.333 127 316
c1.33301 189.333 -62.334 284 -191.001 284c-151.333 0 -227 -100.667 -227 -302v-102c0 -358 -164.333 -537 -493 -537c-332 0 -498.333 187 -499 561c0 383.333 163 575 489 575c182.667 0 305.667 -80.333 369 -241h7c31.333 79.333 76.166 137.666 134.499 174.999
s131.5 56 219.5 56c288.667 0 433 -156.333 433 -469c0 -104.667 -18.833 -190.5 -56.5 -257.5s-96.834 -116.833 -177.501 -149.5v-8c138.667 -38.667 208 -131 208 -277v-161zM919.002 650.002c0 274.667 -92.667 412 -278 412c-163.333 0 -245 -129.333 -245 -388
c0 -251.333 81.667 -377 245 -377c185.333 0 278 117.667 278 353z" />
    <glyph glyph-name="uni10E5" unicode="&#x10e5;" horiz-adv-x="1328" 
d="M1147 -1c0 -316.667 -168.331 -475 -504.998 -475c-328 0 -492 158.333 -492 475c0 40 3 76.333 9 109s17.667 65.334 35 98.001l224 -62c-10.667 -26 -18.334 -50.833 -23.001 -74.5s-7.33398 -47.167 -8.00098 -70.5c0 -194.667 85 -292 255 -292
c182.667 0 273.667 97.333 273 292v660c0.666992 268.667 -90.333 403 -273 403c-155.333 2 -233 -72.667 -233 -224c0 -46 16 -99 48 -159l-63 -26l-29 -12l-52 -20.5c-18.667 -7.66699 -35.334 -14.834 -50.001 -21.501c-44 64 -66 143.667 -66 239
c0 274 150.667 411 452 411c58.667 0 109.834 -10.667 153.501 -32s80.167 -52 109.5 -92h5v678h230v-1804z" />
    <glyph glyph-name="uni10E6" unicode="&#x10e6;" horiz-adv-x="1971" 
d="M385 -247c54 67.333 115.333 110.665 184 129.998v15c-276.667 166 -415.667 419.667 -417 761c1.33301 393.333 157.333 590 468 590c165.333 0 284 -74.667 356 -224h10c32 76.667 75.5 133.167 130.5 169.5s122.833 54.5 203.5 54.5c321.333 0 482 -174 482 -522
c0 -102.667 -18.167 -196.5 -54.5 -281.5s-92.166 -163.167 -167.499 -234.5l-51 31l-59 34.5c-20.667 11.667 -38 22.167 -52 31.5c50 59.333 87.167 124 111.5 194s36.5 145.667 36.5 227c-0.666992 223.333 -80.667 335 -240 335c-162 0 -243 -103 -243 -309l-11 -302
h-190l-5 162l-1 43c-1.33301 12.667 -2.16602 26.667 -2.49902 42s-0.833008 29.333 -1.5 42v13c0 206 -84 309 -252 309c-151.333 0 -227 -135 -227 -405c0 -95.333 12.833 -182.666 38.5 -261.999s63.667 -150.166 114 -212.499s112.5 -116.166 186.5 -161.499
s159.333 -81.666 256 -108.999c142.667 -44 251.5 -98.833 326.5 -164.5s114.167 -142.167 117.5 -229.5h-223c-4.66699 44 -33.834 84.667 -87.501 122s-128.834 69.666 -225.501 96.999c-26 6 -52 9 -78 9c-50 0 -102.667 -13.333 -158 -40s-112 -65.334 -170 -116.001z
" />
    <glyph glyph-name="uni10E7" unicode="&#x10e7;" horiz-adv-x="1328" 
d="M1147 -10c0 -310.667 -168.332 -466 -504.999 -466c-326 0 -490 161.333 -492 484h239c2.66699 -200.667 87 -301 253 -301c184.667 0 277 97.333 277 292v249h-7c-45.333 -75.333 -135.333 -113 -270 -113c-328 0 -492 191 -492 573c0 190.667 86.333 371.667 259 543
l215 -76c-80.667 -80.667 -140.334 -159.5 -179.001 -236.5s-58 -153.833 -58 -230.5c0 -255.333 85 -383 255 -383c184.667 0 277 88.333 277 265v615h228v-1215z" />
    <glyph glyph-name="uni10E8" unicode="&#x10e8;" horiz-adv-x="1325" 
d="M1145 590c0 -383.333 -151.332 -575.001 -453.999 -575.001c-360 0 -540.333 196.333 -541 589c0 186.667 41 327.334 123 422.001s205 142 369 142c116 0 206 -50.667 270 -152h5v433c0 148 -52.667 222 -158 222c-95.333 0 -143 -69 -143 -207v-52h-202v54
c0 134.667 -44.667 203 -134 205l-35 -14l-77 -27v212h123c95.333 0 168.666 -60.333 219.999 -181h9c50.667 120.667 139 181 265 181c240 0 360 -131 360 -393v-859zM911.001 589.999c0 259.333 -89.666 389 -268.999 389c-170 0 -255 -125 -255 -375
c-0.666992 -271.333 100.666 -407 303.999 -407c146.667 0 220 131 220 393z" />
    <glyph glyph-name="uni10E9" unicode="&#x10e9;" horiz-adv-x="1325" 
d="M928 1204c78 -46 136.666 -108.667 175.999 -188s59 -175.333 59 -288c0 -156.667 -19.167 -295.167 -57.5 -415.5s-97.166 -226.166 -176.499 -317.499c-25.333 2 -51.166 4.16699 -77.499 6.5s-51.5 4.83301 -75.5 7.5l-83 8
c77.333 93.333 135.5 198.666 174.5 315.999s58.5 249 58.5 395c0 224 -82.333 336 -247 336c-188.667 -1.33301 -283 -120 -283 -356v-693h-226v1397c-0.666992 286.667 138.666 430 417.999 430c280 0 420 -124.333 420 -373c0.666992 -36 -5.83301 -76 -19.5 -120
s-34.167 -91.667 -61.5 -143zM799.999 1447c0 142.667 -69.332 214 -207.999 214c-130.667 0 -196 -88.333 -196 -265v-297h21c28 50 71.5 87 130.5 111s133.167 37 222.5 39c9.33301 38.667 16.666 75.167 21.999 109.5s8 63.833 8 88.5z" />
    <glyph glyph-name="uni10EA" unicode="&#x10ea;" horiz-adv-x="1447" 
d="M1249 774c0 -156 -65.3369 -270.668 -196.004 -344.001v-10c78 -26 136.167 -72.833 174.5 -140.5s57.5 -155.834 57.5 -264.501c-1.33301 -327.333 -188.333 -491 -561 -491c-382.667 0 -574 215 -574 645v298c0 171.333 13 323.333 39 456s64.667 249 116 349l85 -38
l129 -60c-85.333 -113.333 -128.666 -325.666 -129.999 -636.999v-368c0.666992 -308 113.334 -462 338.001 -462c110 0 192.5 28.5 247.5 85.5s82.167 143.167 81.5 258.5c0.666992 186 -58.333 279 -177 279h-187v178h178c106.667 0 159.334 86.667 158.001 260
c0.666992 42.667 -10.333 79.834 -33 111.501s-52.667 56.167 -90 73.5c-21.333 10 -41.166 23.333 -59.499 40s-34.166 36.5 -47.499 59.5s-23.833 49 -31.5 78s-11.834 60.5 -12.501 94.5h230c1.33301 -48.667 10.833 -89.667 28.5 -123s42.167 -58 73.5 -74v1
c54 -23.333 94.667 -56.5 122 -99.5s41 -94.833 41 -155.5z" />
    <glyph glyph-name="uni10EB" unicode="&#x10eb;" horiz-adv-x="1328" 
d="M1145 625c0.666992 -204.667 -40.5 -357.5 -123.5 -458.5s-209.5 -151.5 -379.5 -151.5c-328 0 -492 200.333 -492 601c0 422 164 633 492 633c70.667 0 128.167 -10.5 172.5 -31.5s77.5 -54.5 99.5 -100.5h3v686h228v-1178zM907 625c-0.666992 292.667 -89 439 -265 439
c-170 0 -255 -149.333 -255 -448c0 -279.333 85 -419 255 -419c176.667 0 265 142.667 265 428z" />
    <glyph glyph-name="uni10EC" unicode="&#x10ec;" horiz-adv-x="1328" 
d="M168 1496c0 116 26.666 202.666 79.999 259.999s132.666 86 237.999 86c156 0 259.333 -58.333 310 -175h8c26 60.667 57.333 105 94 133s80 42 130 42h140v-214l-132 43c-90 -3.33301 -135 -75.666 -135 -216.999v-50h-201v47c0 146.667 -65.667 220 -197 220
c-72 0 -108 -58.333 -108 -175v-482h15c24.667 53.333 58.834 92.333 102.501 117s97.834 37 162.501 37c164 0 287.167 -46.667 369.5 -140s123.5 -232.333 123.5 -417c0 -397.333 -165 -596 -495 -596c-336.667 0 -505 179.667 -505 539v942zM404.999 553.999
c0 -236.667 89.333 -355 268 -355c168.667 0 253 137.333 253 412c0 245.333 -83.667 368 -251 368c-180 0 -270 -141.667 -270 -425z" />
    <glyph glyph-name="uni10ED" unicode="&#x10ed;" horiz-adv-x="1348" 
d="M1074 1030l-218.001 0.000976562v-452c2.66699 -15.333 8.83398 -32 18.501 -50s21.5 -36.833 35.5 -56.5s30 -39.167 48 -58.5s37 -37.333 57 -54c25.333 -20 48.5 -42.833 69.5 -68.5s39 -53.667 54 -84s26.5 -62.5 34.5 -96.5s12 -69 12 -105
c0 -320.667 -166 -481 -498 -481c-80 0 -150.5 10.833 -211.5 32.5s-112.333 53.167 -154 94.5s-73.5 91.666 -95.5 150.999s-34.333 127 -37 203c1.33301 35.333 10.5 73.5 27.5 114.5s43.833 84.5 80.5 130.5l184 -132c-34 -35.333 -51 -75 -51 -119
c0 -194.667 85.667 -292 257 -292c174.667 0 261.667 99.333 261 298c0 56.667 -14 109.667 -42 159s-66 92 -114 128c-43.333 46 -77 92.5 -101 139.5s-36.667 94.5 -38 142.5v456h-209c-18.667 0 -34.834 -5.66699 -48.501 -17s-24.834 -25.5 -33.501 -42.5
s-15 -35.333 -19 -55s-6 -37.834 -6 -54.501c0 -17.333 2 -36.5 6 -57.5s10.333 -40.833 19 -59.5s19.834 -34.167 33.501 -46.5s29.834 -18.5 48.501 -18.5h37v-144h-57c-41.333 0 -78.833 9.5 -112.5 28.5s-62.5 43.5 -86.5 73.5s-42.5 63.5 -55.5 100.5
s-19.5 73.833 -19.5 110.5s6.5 74.834 19.5 114.501s31.5 76.167 55.5 109.5s52.833 60.833 86.5 82.5s71.167 32.5 112.5 32.5h229v616h201l2 -616h216z" />
    <glyph glyph-name="uni10EE" unicode="&#x10ee;" horiz-adv-x="1325" 
d="M1165 633c-1.33301 -412 -165.333 -618 -492 -618c-336.667 0 -505 206 -505 618v1170h235v-708h17c32.667 50.667 70 89 112 115s89 39 141 39c328 0 492 -205.333 492 -616zM928 633c-1.33301 286 -88.333 429.001 -261 429.001c-169.333 0 -254 -143 -254 -429
c0 -290.667 86 -435.334 258 -434.001c170 0 255.667 144.667 257 434z" />
    <glyph glyph-name="uni10EF" unicode="&#x10ef;" horiz-adv-x="1306" 
d="M1147 -15c0 -307.333 -168.335 -460.998 -505.002 -460.998c-328 0 -492 160.333 -492 481c0 63.333 8.83301 122.833 26.5 178.5s46.834 109.834 87.501 162.501l8 -7h-1l44.5 -26.5c16.333 -9.66699 30.5 -18.5 42.5 -26.5l19 -11l49 -31v1l20 -10
c-19.333 -36.667 -33.666 -74.334 -42.999 -113.001s-14 -77.667 -14 -117c0 -198.667 84.333 -298 253 -298c178 0 267 102.667 267 308c-0.666992 76.667 -16.167 147.5 -46.5 212.5s-74.5 124.5 -132.5 178.5c-59.333 56 -105.166 114.833 -137.499 176.5
s-48.833 124.834 -49.5 189.501v151l-69 23c-24 6.66699 -48 14.667 -72 24c-25.333 9.33301 -52.833 18.666 -82.5 27.999s-57.834 18.666 -84.501 27.999l-26 9l-32 10v234l366 -135v332h187v-374l55.5 -16.5c18.333 -5.66699 36.166 -11.834 53.499 -18.501
c7.33301 -2 14.333 -4.16699 21 -6.5s13.667 -4.5 21 -6.5c7.33301 -2.66699 14.5 -5 21.5 -7l21.5 -6l76 -24h-1l148 -46v-229l-417 138v-108c0 -21.333 4.83301 -44.5 14.5 -69.5s23.334 -50.667 41.001 -77s39 -53.5 64 -81.5s52.833 -55.667 83.5 -83
c68 -60.667 120.5 -131 157.5 -211s55.833 -168.333 56.5 -265z" />
    <glyph glyph-name="uni10F0" unicode="&#x10f0;" horiz-adv-x="1304" 
d="M1145 444c0 -286 -164.667 -429.001 -494 -429.001c-334 0 -501 164 -501 492v128h242v-128c-2 -206.667 81.333 -310 250 -310c178 0 266.333 79 265 237c0 128 -38.333 192 -115 192h-223v193h223c70 0 105 44.333 105 133c0.666992 82 -34.333 123 -105 123h-223v197
h221c63.333 0 95.333 48 96 144c0 14 -6.16699 27.167 -18.5 39.5s-29.5 24 -51.5 35s-47.833 21 -77.5 30s-61.834 16.833 -96.501 23.5c-84.667 14.667 -151.834 46.834 -201.501 96.501s-75.834 116.834 -78.501 201.501h235c2 -18.667 9.16699 -35.667 21.5 -51
s29.166 -29.333 50.499 -42s46.5 -23.5 75.5 -32.5s60.833 -16.167 95.5 -21.5c42.667 -6.66699 81.334 -17.667 116.001 -33s64.334 -34.833 89.001 -58.5s43.5 -51.5 56.5 -83.5s19.5 -68 19.5 -108c0 -108.667 -56 -183.334 -168 -224.001v-10c120 -44 180 -120 180 -228
c0 -51.333 -14.167 -95 -42.5 -131s-72.166 -66.333 -131.499 -91v-8c62.667 -40 109.334 -82.5 140.001 -127.5s46 -94.5 46 -148.5z" />
    <glyph glyph-name="uni10F1" unicode="&#x10f1;" horiz-adv-x="1395" 
d="M1234 -121c0 -236.667 -169.002 -355.002 -507.002 -355.002c-384.667 0 -577 185.333 -577 556c0 53.333 1.66699 108.833 5 166.5s7.83301 115.167 13.5 172.5s12.334 113.333 20.001 168s15.834 106 24.501 154c6.66699 30 12 61.667 16 95s6 66 6 98
c0 62.667 -7.16699 132 -21.5 208s-34.833 157 -61.5 243h236c23.333 -74.667 40.833 -148.834 52.5 -222.501s17.5 -147.5 17.5 -221.5c0 -35.333 -1 -69.5 -3 -102.5s-5.66699 -66.833 -11 -101.5c-17.333 -87.333 -30.333 -185.166 -39 -293.499
s-13.667 -229.5 -15 -363.5c2 -248.667 114.333 -373 337 -373c188.667 0 281.667 57.333 279 172c0 76.667 -9.16699 133.334 -27.5 170.001s-46.166 55.334 -83.499 56.001h-165v184h165c74 0 111 48.333 111 145c0 121.333 -36.333 182 -109 182h-167v180h167
c72.667 0 109 57 109 171c0 95.333 -37 143 -111 143h-165v186h165c74 0 111 52.667 111 158c0 28.667 -15 53.334 -45 74.001s-72.667 37 -128 49c-54.667 15.333 -97.334 45.166 -128.001 89.499s-47.334 102.833 -50.001 175.5h210c8 -62 69 -111 183 -147h-1
c124.667 -38.667 187 -119 187 -241c0 -66.667 -16.833 -120.167 -50.5 -160.5s-85.834 -68.166 -156.501 -83.499v-5c70.667 -16.667 122.834 -44.834 156.501 -84.501s50.5 -90.834 50.5 -153.501c0 -74 -16.833 -132.167 -50.5 -174.5s-85.834 -70.166 -156.501 -83.499
v-8c70.667 -17.333 122.834 -47.833 156.501 -91.5s50.5 -102.167 50.5 -175.5c-0.666992 -115.333 -69.667 -193 -207 -233v-8c68.667 -24.667 120.334 -63 155.001 -115s52 -118.333 52 -199z" />
    <glyph glyph-name="uni10F2" unicode="&#x10f2;" horiz-adv-x="1287" 
d="M195 -33c54 1.33301 99.833 9.33691 137.5 24.0039s66.5 36.667 86.5 66c-88.667 66.667 -155.334 147.167 -200.001 241.5s-67.667 200.166 -69 317.499c2 95.333 13.833 180.666 35.5 255.999s52.667 139.166 93 191.499s90.333 92.333 150 120
s129.167 41.5 208.5 41.5c326 0 489 -203 489 -609c0 -119.333 -23.833 -225.666 -71.5 -318.999s-118.167 -173.333 -211.5 -240c25.333 -33.333 57 -57 95 -71s83 -20.333 135 -19v-261c-90.667 29.333 -171.167 68.166 -241.5 116.499s-135.166 108.5 -194.499 180.5
c-60.667 -71.333 -127 -130.833 -199 -178.5s-153 -86.834 -243 -117.501v260zM382 616.004c0 -116.667 21.1689 -212.167 63.502 -286.5s106.166 -127.5 191.499 -159.5c87.333 32 151.666 85.333 192.999 160s61.333 170 60 286c2 285.333 -84.667 428 -260 428
c-165.333 0 -248 -142.667 -248 -428z" />
    <glyph glyph-name="uni10F3" unicode="&#x10f3;" horiz-adv-x="1287" 
d="M1126 5c0 -157.333 -41.1689 -275.5 -123.502 -354.5s-206.5 -118.5 -372.5 -118.5c-320 0 -480 158.333 -480 475l6 27l6 21l4 14l19 71l226 -26l-29 -110c2.66699 -93.333 25 -165 67 -215s104.667 -75 188 -75c168.667 0 253 97 253 291v32
c0 222.667 -102 332.667 -306 330h-139v201h139c180 0 270 133 270 399l-2 75l-439 -34v-234h-218v418l931 31c-1.33301 -177.333 -26.166 -327.5 -74.499 -450.5s-124.166 -221.5 -227.499 -295.5c201.333 -92 302 -238.667 302 -440v-32z" />
    <glyph glyph-name="uni10F4" unicode="&#x10f4;" horiz-adv-x="1287" 
d="M1128 5c0 -315.333 -163.665 -472.996 -490.998 -472.996c-162 0 -283.5 39.667 -364.5 119s-121.833 200.666 -122.5 363.999h232c2.66699 -200.667 87 -301 253 -301c170 0 255 97 255 291v61c0 172 -86.667 258 -260 258h-185v195h183c38 6.66699 73 21.5 105 44.5
s59.667 53.667 83 92s41.666 84.666 54.999 138.999s20.666 116.5 21.999 186.5c-36 -13.333 -75.167 -22.833 -117.5 -28.5s-87.5 -8.5 -135.5 -8.5c-164.667 -1.33301 -287.5 32 -368.5 100s-121.5 172.667 -121.5 314c0 150 41.333 262.5 124 337.5
s208 112.833 376 113.5v-183c-210 -2 -315 -91.333 -315 -268c0 -78.667 25 -136.834 75 -174.501s125.667 -56.5 227 -56.5c74.667 0 151.5 16.5 230.5 49.5s164.833 82.833 257.5 149.5v-319c1.33301 -152.667 -23 -276.667 -73 -372s-127.333 -163.333 -232 -204v-9
c106 -24.667 183.833 -66.334 233.5 -125.001s74.5 -135.667 74.5 -231v-61z" />
    <glyph glyph-name="uni10F5" unicode="&#x10f5;" horiz-adv-x="1419" 
d="M1125 583v-178.001c0 -260 -164 -390 -492 -390c-321.333 0 -482 130 -482 390c0 266.667 159.667 400.334 479 401.001h259v205h-259c-319.333 0 -479 134.333 -479 403c0 263.333 161.667 395 485 395c326 0 489 -131.667 489 -395v-218h130v-185h-130v-205h130v-223
h-130zM889 615.999h-259c-164 0 -246 -68 -246 -204c0 -146 83.667 -219 251 -219c169.333 0 254 76.667 254 230v193zM384 1412c0 -144 82 -216 246 -216h259v218c0 141.333 -84.667 212 -254 212c-167.333 0 -251 -71.333 -251 -214z" />
    <glyph glyph-name="uni10F6" unicode="&#x10f6;" horiz-adv-x="2037" 
d="M1864 633c0.666992 -412 -162.334 -617.999 -489.001 -617.999c-100.667 0 -180.334 45 -239.001 135h-9v-172c0 -145.333 -41.167 -255.5 -123.5 -330.5s-206.166 -113.167 -371.499 -114.5v183c173.333 2 260 88.667 260 260v657c0 274 -83.667 411 -251 411
c-170.667 0 -256 -137 -256 -411c0 -258 95.333 -389 286 -393v-186c-173.333 1.33301 -303.166 50.666 -389.499 147.999s-129.5 241 -129.5 431c0 393.333 163 590.666 489 591.999c174.667 0 297.667 -76 369 -228h6c32.667 78.667 78.667 136.334 138 173.001
s133 55 221 55c326 0 489 -197.333 489 -592zM1626 633.001c0 274 -85 411 -255 411c-162.667 0 -244 -126 -244 -378v-210c0 -175.333 82.667 -263 248 -263c167.333 0 251 146.667 251 440z" />
    <glyph glyph-name="uni10F7" unicode="&#x10f7;" horiz-adv-x="1494" 
d="M1330 25c-0.666992 -164 -51.333 -287.002 -152 -369.002s-252 -123 -454 -123c-192 0 -335.5 41 -430.5 123s-142.833 205 -143.5 369c0 286.667 126 474 378 562c243.333 76 365 160 365 252c0 136.667 -54.333 205 -163 205c-64.667 0 -113.167 -15.167 -145.5 -45.5
s-49.833 -72.833 -52.5 -127.5l3 -33c0 -1.33301 0.166992 -2.66602 0.5 -3.99902s0.5 -2.66602 0.5 -3.99902l2 -31l-205 -27l-18 84c0.666992 246 139 369 415 369c264 0 396 -133.333 396 -400c0 -166 -128.667 -299 -386 -399c-237.333 -60.667 -356 -191.667 -356 -393
c0 -212.667 115.333 -319 346 -319c242.667 0 364 108 364 324c0 84 -27 152 -81 204l198 115c40.667 -46 70.5 -96.167 89.5 -150.5s28.833 -114.833 29.5 -181.5z" />
    <glyph glyph-name="uni10F8" unicode="&#x10f8;" horiz-adv-x="1287" 
d="M150 1198h237v-650c0 -138.667 88 -208 264 -208c162.667 0 244 112 244 336c0 184 -87.667 348 -263 492l61.5 23l61.5 22l31 11h-1l63 24c186 -178 279.333 -368.667 280 -572c0 -178 -39.833 -310.833 -119.5 -398.5s-198.834 -131.5 -357.501 -131.5
c-58.667 0 -108.667 8.16699 -150 24.5s-75.666 41.5 -102.999 75.5h-11v-247c-2 -190 86 -285 264 -285c160.667 0 242 98 244 294h233c-4 -316.667 -164.333 -475 -481 -475c-331.333 0 -497 153.333 -497 460v1205z" />
    <glyph glyph-name="uni10F9" unicode="&#x10f9;" horiz-adv-x="1395" 
d="M152 729c-0.666992 170.667 44.167 298.999 134.5 384.999s227.5 129 411.5 129c357.333 -1.33301 536 -172.666 536 -513.999c0 -107.333 -32.167 -204 -96.5 -290s-161.5 -163 -291.5 -231c-209.333 -86 -314 -185.333 -314 -298c0 -130.667 57.667 -196 173 -196
c139.333 0 209 49 209 147v98h222v-98c-1.33301 -219.333 -145 -329 -431 -329c-269.333 0 -404 121.667 -404 365c0 80.667 21.5 150.5 64.5 209.5s105.5 107.5 187.5 145.5c-267.333 78.667 -401 237.667 -401 477zM389.001 728.999
c0 -92.667 26.668 -165.832 80.001 -219.499s129.666 -88.834 228.999 -105.501c44.667 10 85.5 24.333 122.5 43s68.667 41.667 95 69s46.833 58.833 61.5 94.5s22 75.167 22 118.5c0 220.667 -100.333 331 -301 331c-206 0 -309 -110.333 -309 -331z" />
    <glyph glyph-name="uni10FA" unicode="&#x10fa;" horiz-adv-x="1393" 
d="M818 -79c-9.33301 16 -19.499 30.3311 -30.499 42.998s-24.833 27.667 -41.5 45c-20.667 22 -44.667 38 -72 48s-59 15 -95 15c-93.333 0 -166.666 -42.667 -219.999 -128l-165 89c54.667 81.333 125 132.666 211 153.999v22c-87.333 45.333 -152 110.5 -194 195.5
s-63 189.833 -63 314.5c0 166.667 42.333 292 127 376s207.667 127.333 369 130c148 -17.333 260.833 -65.166 338.5 -143.499s116.5 -187.833 116.5 -328.5c0 -40 -3.5 -83.167 -10.5 -129.5s-18.167 -99.833 -33.5 -160.5l-180 79c5.33301 36 9 67.833 11 95.5
s3 51.5 3 71.5c0 48.667 -6 92 -18 130s-28.833 71 -50.5 99s-47.834 50.833 -78.501 68.5s-64.667 30.167 -102 37.5c-38 -2 -72.167 -11.167 -102.5 -27.5s-56.5 -38.5 -78.5 -66.5s-39.333 -61.5 -52 -100.5s-20.334 -81.833 -23.001 -128.5
c4 -55.333 12 -107.666 24 -156.999s27.667 -93.666 47 -132.999s42 -73 68 -101s55 -48.333 87 -61h-1c67.333 -15.333 130 -41.5 188 -78.5s113.333 -86.5 166 -148.5z" />
    <glyph glyph-name="uni10FB" unicode="&#x10fb;" horiz-adv-x="872" 
d="M100 1045h211v-193h-211v193zM586 666h202v-191h-202v191zM100 244h207v-193h-207v193z" />
    <glyph glyph-name="uni10FC" unicode="&#x10fc;" horiz-adv-x="653" 
d="M330 1380c147.333 0 221 -96.333 221 -289c0 -200.667 -76 -301.667 -228 -303c-148.667 0 -223 101 -223 303v345c0 128.667 66 193 198 193h251v-95l-276 2c-43.333 0 -65 -26.667 -65 -80v-156zM443 1091c0 121.333 -41.667 182 -125 182
c-73.333 0 -110 -62.667 -110 -188c0 -136 38.333 -204 115 -204c80 0 120 70 120 210z" />
    <glyph glyph-name="uni200F" unicode="&#x200f;" horiz-adv-x="0" 
 />
    <glyph glyph-name="uni2010" unicode="&#x2010;" horiz-adv-x="776" 
d="M104 676h568v-172h-568v172z" />
    <glyph glyph-name="uni2011" unicode="&#x2011;" horiz-adv-x="776" 
d="M104 676h568v-172h-568v172z" />
    <glyph glyph-name="figuredash" unicode="&#x2012;" horiz-adv-x="1368" 
d="M104 666h1160v-154h-1160v154z" />
    <glyph glyph-name="endash" unicode="&#x2013;" 
d="M104 666h867v-154h-867v154z" />
    <glyph glyph-name="emdash" unicode="&#x2014;" horiz-adv-x="2150" 
d="M104 666h1942v-154h-1942v154z" />
    <glyph glyph-name="uni2015" unicode="&#x2015;" horiz-adv-x="2150" 
d="M0 666h2150v-154h-2150v154z" />
    <glyph glyph-name="uni2016" unicode="&#x2016;" 
d="M451 1642v-2150h-179v2150h179zM797 1642v-2150h-179v2150h179z" />
    <glyph glyph-name="underscoredbl" unicode="&#x2017;" 
d="M1096 -356v-152h-1116v152h1116zM1096 -18v-152h-1116v152h1116z" />
    <glyph glyph-name="quoteleft" unicode="&#x2018;" horiz-adv-x="684" 
d="M403 1051h-221v182l172 336h135l-86 -336v-182z" />
    <glyph glyph-name="quoteright" unicode="&#x2019;" horiz-adv-x="684" 
d="M272 1569h224v-162l-174 -334h-136l86 334v162z" />
    <glyph glyph-name="quotesinglbase" unicode="&#x201a;" horiz-adv-x="684" 
d="M268 266h221v-180l-172 -336h-135l86 336v180z" />
    <glyph glyph-name="quotereversed" unicode="&#x201b;" horiz-adv-x="684" 
d="M408 1569v-162l88 -334h-138l-172 334v162h222z" />
    <glyph glyph-name="quotedblleft" unicode="&#x201c;" horiz-adv-x="1114" 
d="M403 1051h-221v182l172 336h135l-86 -336v-182zM836 1051h-224v182l172 336h138l-86 -336v-182z" />
    <glyph glyph-name="quotedblright" unicode="&#x201d;" horiz-adv-x="1114" 
d="M268 1569h221v-183l-172 -335h-135l86 335v183zM698 1569h224v-183l-172 -335h-138l86 335v183z" />
    <glyph glyph-name="quotedblbase" unicode="&#x201e;" horiz-adv-x="1114" 
d="M698 266h224v-180l-172 -336h-138l86 336v180zM268 266h221v-180l-172 -336h-135l86 336v180z" />
    <glyph glyph-name="uni201F" unicode="&#x201f;" horiz-adv-x="1114" 
d="M403 1569v-183l86 -335h-135l-172 335v183h221zM836 1569v-183l86 -335h-138l-172 335v183h224z" />
    <glyph glyph-name="dagger" unicode="&#x2020;" 
d="M444 1569h187v-443h385v-159h-385v-1174h-187v1174h-385v159h385v443z" />
    <glyph glyph-name="daggerdbl" unicode="&#x2021;" 
d="M1016 233h-385v-440h-187v440h-385v162h385v572h-385v159h385v443h187v-443h385v-159h-385v-572h385v-162z" />
    <glyph glyph-name="bullet" unicode="&#x2022;" horiz-adv-x="1268" 
d="M322 801c0 86 30.332 159 90.999 219s135.334 90 224.001 90c86 0 159 -30 219 -90s90 -133 90 -219c0 -87.333 -30 -161.5 -90 -222.5s-133.667 -91.5 -221 -91.5s-161.333 30.5 -222 91.5s-91 135.167 -91 222.5z" />
    <glyph glyph-name="uni2023" unicode="&#x2023;" horiz-adv-x="1268" 
d="M322 403v791l708 -395z" />
    <glyph glyph-name="onedotenleader" unicode="&#x2024;" horiz-adv-x="719" 
d="M248 266h223v-266h-223v266z" />
    <glyph glyph-name="twodotenleader" unicode="&#x2025;" horiz-adv-x="1436" 
d="M965 266h223v-266h-223v266zM248 266h223v-266h-223v266z" />
    <glyph glyph-name="ellipsis" unicode="&#x2026;" horiz-adv-x="2150" 
d="M965 266h221v-266h-221v266zM1679 266h224v-266h-224v266zM248 266h223v-266h-223v266z" />
    <glyph glyph-name="uni2027" unicode="&#x2027;" horiz-adv-x="684" 
d="M231 918h222v-269h-222v269z" />
    <glyph glyph-name="uni202A" unicode="&#x202a;" horiz-adv-x="0" 
 />
    <glyph glyph-name="uni202B" unicode="&#x202b;" horiz-adv-x="0" 
 />
    <glyph glyph-name="uni202C" unicode="&#x202c;" horiz-adv-x="0" 
 />
    <glyph glyph-name="uni202D" unicode="&#x202d;" horiz-adv-x="0" 
 />
    <glyph glyph-name="uni202E" unicode="&#x202e;" horiz-adv-x="0" 
 />
    <glyph glyph-name="uni202F" unicode="&#x202f;" horiz-adv-x="428" 
 />
    <glyph glyph-name="minute" unicode="&#x2032;" horiz-adv-x="487" 
d="M43 1176l180 393h213l-303 -393h-90z" />
    <glyph glyph-name="uni2035" unicode="&#x2035;" horiz-adv-x="487" 
d="M436 1176h-92l-301 393h213z" />
    <glyph glyph-name="guilsinglleft" unicode="&#x2039;" horiz-adv-x="860" 
d="M657 1112v-201l-315 -280l315 -283v-201l-491 441v86z" />
    <glyph glyph-name="guilsinglright" unicode="&#x203a;" horiz-adv-x="860" 
d="M203 1112l491 -438v-86l-491 -441v201l315 283l-315 280v201z" />
    <glyph glyph-name="uni203E" unicode="&#x203e;" 
d="M1096 1624v-152h-1116v152h1116z" />
    <glyph glyph-name="uni2043" unicode="&#x2043;" 
d="M231 905h629v-231h-629v231z" />
    <glyph glyph-name="fraction" unicode="&#x2044;" horiz-adv-x="358" 
d="M586 1595h168l-979 -1626h-168z" />
    <glyph glyph-name="uni204B" unicode="&#x204b;" horiz-adv-x="1368" 
d="M719 1569c150 0 270.5 -41 361.5 -123s136.5 -189.333 136.5 -322c0 -128 -41 -231 -123 -309s-199 -122.333 -351 -133v-889h-147v1645h-201v-1645h-147v1776h471z" />
    <glyph glyph-name="uni204C" unicode="&#x204c;" 
d="M666 1094h182v-621l-182 -2v623zM541 471h-2.00098c-87.333 0 -161.166 30.333 -221.499 91s-90.5 134.667 -90.5 222s30.167 160.833 90.5 220.5s134.833 89.5 223.5 89.5v-623z" />
    <glyph glyph-name="uni204D" unicode="&#x204d;" 
d="M412 471l-185 2v621h185v-623zM535 1094c88.667 0 163 -29.833 223 -89.5s90 -133.167 90 -220.5s-30 -161.333 -90 -222s-133.667 -91 -221 -91h-2v623z" />
    <glyph glyph-name="uni204E" unicode="&#x204e;" 
d="M1012 633l-377 -203l377 -205l-62 -102l-352 213v-398h-121v398l-352 -213l-62 102l377 205l-377 203l62 104l352 -213v395h121v-395l352 213z" />
    <glyph glyph-name="uni2055" unicode="&#x2055;" horiz-adv-x="1802" 
d="M985 582v-371h-168v369l-262 -263l-119 121l262 260h-370v168h370l-262 264l119 119l262 -264v373h168v-373l262 262l119 -117l-262 -264h371v-168h-371l262 -260l-119 -121z" />
    <glyph glyph-name="lira" unicode="&#x20a4;" horiz-adv-x="1303" 
d="M565 492l0.000976562 -322.001h557v-170h-993v170h236v322h-191v143h191v143h-199v143h199v95c0 174 35.667 301.5 107 382.5s184.333 121.5 339 121.5c40.667 0 86.167 -5.16699 136.5 -15.5s101.833 -25.166 154.5 -44.499v-182
c-50.667 27.333 -98.667 47.833 -144 61.5s-88.333 20.5 -129 20.5c-98.667 0 -167.334 -25.833 -206.001 -77.5s-58 -148.167 -58 -289.5v-72h391v-143h-391v-143h399v-143h-399z" />
    <glyph glyph-name="Euro" unicode="&#x20ac;" horiz-adv-x="1368" 
d="M1225 1448l-0.000976562 -225.001c-63.333 73.333 -124.666 125.666 -183.999 156.999s-124.333 47 -195 47c-110.667 0 -201.167 -34.667 -271.5 -104s-117.166 -169.666 -140.499 -300.999h606l-57 -129h-565c-1.33301 -18 -2 -34.833 -2 -50.5v-60.5v-57
c0 -16.667 0.666992 -33 2 -49h469l-60 -129h-393c23.333 -131.333 70.166 -232.5 140.499 -303.5s160.833 -106.5 271.5 -106.5c70.667 0 135.667 15.667 195 47s120.666 84 183.999 158v-221c-61.333 -50.667 -124.5 -88.667 -189.5 -114s-130.833 -38 -197.5 -38
c-166.667 0 -304 50.833 -412 152.5s-176.333 243.5 -205 425.5h-221l57 129h148c0 14.667 -0.333008 30.667 -1 48s-1 36.666 -1 57.999c0 24.667 0.333008 45.167 1 61.5s1 32.833 1 49.5h-205l57 129h164c28.667 178.667 97.334 318.834 206.001 420.501
s245.667 152.5 411 152.5c68 0 134.5 -12.167 199.5 -36.5s127.5 -61.166 187.5 -110.499z" />
    <glyph glyph-name="uni2116" unicode="&#x2116;" horiz-adv-x="2130" 
d="M54 0v170c98 0 147 35.667 147 107v1216h272l662 -1249v972c0 85.333 26.167 152.833 78.5 202.5s140.5 74.5 264.5 74.5v-170c-98 0 -147 -35.667 -147 -107v-1216h-272l-662 1249v-972c0 -85.333 -26.167 -152.833 -78.5 -202.5s-140.5 -74.5 -264.5 -74.5zM1491 622
c0 92 24 169.833 72 233.5s106.333 95.5 175 95.5s127 -31.833 175 -95.5s72 -141.5 72 -233.5s-24 -169.833 -72 -233.5s-106.333 -95.5 -175 -95.5s-127 31.833 -175 95.5s-72 141.5 -72 233.5zM1631 622c0 -52 9.5 -95.167 28.5 -129.5s45.167 -51.5 78.5 -51.5
s59.5 17.167 78.5 51.5s28.5 77.5 28.5 129.5s-9.5 95.167 -28.5 129.5s-45.167 51.5 -78.5 51.5s-59.5 -17.167 -78.5 -51.5s-28.5 -77.5 -28.5 -129.5zM1491 0v123h494v-123h-494z" />
    <glyph glyph-name="trademark" unicode="&#x2122;" horiz-adv-x="2048" 
d="M1098 1493l174 -256l164 256h170v-578h-113v484l-195 -303h-55l-203 303v-484h-114v578h172zM813 1493v-94h-203v-484h-114v484h-201v94h518z" />
    <glyph glyph-name="arrowleft" unicode="&#x2190;" horiz-adv-x="1716" 
d="M100 597v90l393 393l120 -120l-233 -233h1219v-170h-1219l233 -233l-120 -120z" />
    <glyph glyph-name="uni21B2" unicode="&#x21b2;" horiz-adv-x="1716" 
d="M1289 324h-663l233 -233l-120 -120l-393 393v90l393 393l120 -120l-233 -233h493v999h170v-1169z" />
    <glyph glyph-name="carriagereturn" unicode="&#x21b5;" horiz-adv-x="1716" 
d="M1343 557h-963l233 -233l-120 -120l-393 393v90l393 393l120 -120l-233 -233h793v556h170v-726z" />
    <glyph glyph-name="uni21E7" unicode="&#x21e7;" horiz-adv-x="1716" 
d="M1124 1136l-266 266l-266 -266h131v-1036h270v1036h131zM350 1036l508 508l508 -508h-273v-1036h-470v1036h-273z" />
    <glyph glyph-name="NULL" horiz-adv-x="0" 
 />
    <glyph glyph-name="nonmarkingreturn" horiz-adv-x="717" 
 />
  </font>
</defs>
</svg>
