<?xml version="1.0" standalone="no"?>
<!DOCTYPE svg PUBLIC "-//W3C//DTD SVG 1.1//EN" "http://www.w3.org/Graphics/SVG/1.1/DTD/svg11.dtd" >
<svg>
<metadata>
Created by FontForge 20090914 at Fri Oct  7 15:47:36 2016
 By www-data
Copyright (c) 2013 by Merab Getsadze. All rights reserved.
</metadata>
<defs>
<font id="NGFDilemaMt" horiz-adv-x="487" >
  <font-face 
    font-family="NGF Dilema Mt"
    font-weight="400"
    font-stretch="normal"
    units-per-em="1000"
    panose-1="2 0 0 0 0 0 0 0 0 0"
    ascent="800"
    descent="-200"
    x-height="720"
    cap-height="724"
    bbox="31.999 -275 900 781"
    underline-thickness="50"
    underline-position="-50"
    unicode-range="U+0020-U+2212"
  />
<missing-glyph horiz-adv-x="300" 
 />
    <glyph glyph-name=".notdef" horiz-adv-x="300" 
 />
    <glyph glyph-name="space" unicode=" " horiz-adv-x="300" 
 />
    <glyph glyph-name="exclam" unicode="!" horiz-adv-x="210" 
d="M154 168h-90v552h90v-552zM64 91h90v-91h-90v91z" />
    <glyph glyph-name="quotedbl" unicode="&#x22;" horiz-adv-x="358" 
d="M56 717h99v-130h-99v130zM204 717h98v-130h-98v130z" />
    <glyph glyph-name="numbersign" unicode="#" horiz-adv-x="699" 
d="M56 498h157l20 96.5l21 96.5h79l-42 -193h181c5.33301 30 11.5 61.667 18.5 95l21.5 98h81l-43 -193h93v-81h-107c-2 -10.667 -4.5 -22.5 -7.5 -35.5l-9 -40.5l-9 -41.5l-8.5 -38.5h141v-79h-154c-7.33301 -30 -14.833 -62.333 -22.5 -97l-20.5 -93h-80l42 190h-179
c-7.33301 -30 -14.833 -62.333 -22.5 -97l-20.5 -93h-78l38 190h-90v79h108c5.33301 28.667 10.5 54.5 15.5 77.5l16.5 78.5h-140v81zM277 417c-5.33301 -22.667 -10.667 -47 -16 -73s-11.333 -53.667 -18 -83h180c5.33301 28.667 10.5 54.5 15.5 77.5l16.5 78.5h-178z" />
    <glyph glyph-name="dollar" unicode="$" horiz-adv-x="574" 
d="M341 681c60.667 -12 109.331 -32.999 145.998 -62.999v-115c-25.333 23.333 -49.666 41.166 -72.999 53.499s-47.666 22.5 -72.999 30.5v-188c58.667 -19.333 102.834 -45.833 132.501 -79.5s44.5 -72.5 44.5 -116.5c0 -20 -3 -39.833 -9 -59.5s-16 -38 -30 -55
s-32.333 -32.167 -55 -45.5s-50.334 -23.333 -83.001 -30v-107h-102v107c-54.667 8.66699 -115.667 33 -183 73v147c32 -32 63.5 -57.5 94.5 -76.5s60.5 -33.167 88.5 -42.5v199c-62.667 21.333 -108.667 47 -138 77s-44 66 -44 108c0 46 15.833 85.167 47.5 117.5
s76.5 53.833 134.5 64.5v38h102v-37zM238.997 587.001c-23.333 -5.33301 -42.5 -16.668 -57.5 -34.001s-22.5 -35.333 -22.5 -54c0 -9.33301 2 -18.666 6 -27.999s9.5 -18 16.5 -26s15.333 -15.167 25 -21.5s20.5 -10.833 32.5 -13.5v177zM415.997 199.999
c0 6.66699 -0.332031 14.002 -0.999023 22.002s-3.33398 16.5 -8.00098 25.5s-12.167 18 -22.5 27s-24.833 18.167 -43.5 27.5v-192c16 3.33301 28.833 8.16602 38.5 14.499s17.167 13.333 22.5 21s9 15.667 11 24s3 16.166 3 23.499v7z" />
    <glyph glyph-name="percent" unicode="%" horiz-adv-x="639" 
d="M550 580l-188.5 -293.5l-187.5 -292.5h-88l188 292.5l187 293.5h89zM450 260c18 0 35 -3.5 51 -10.5s30.167 -16.5 42.5 -28.5s22 -26 29 -42s10.5 -33.333 10.5 -52c0 -18 -3.5 -35 -10.5 -51s-16.667 -29.833 -29 -41.5s-26.5 -21 -42.5 -28s-33 -10.5 -51 -10.5
s-35.167 3.33301 -51.5 10s-30.666 16 -42.999 28s-22 26 -29 42s-10.5 33 -10.5 51c0 18.667 3.5 36.167 10.5 52.5s16.667 30.5 29 42.5s26.666 21.333 42.999 28s33.5 10 51.5 10zM449 180c-15.333 0 -28 -5 -38 -15s-15 -22.667 -15 -38s5 -28 15 -38s22.667 -15 38 -15
s28 5 38 15s15 22.667 15 38s-5 28 -15 38s-22.667 15 -38 15zM190 579c18 0 35 -3.66797 51 -11.001s30 -17.166 42 -29.499s21.5 -26.666 28.5 -42.999s10.5 -33.5 10.5 -51.5s-3.5 -35.167 -10.5 -51.5s-16.5 -30.666 -28.5 -42.999s-26 -22 -42 -29s-33 -10.5 -51 -10.5
c-18.667 0 -36.167 3.66699 -52.5 11s-30.5 17 -42.5 29s-21.5 26.167 -28.5 42.5s-10.5 33.5 -10.5 51.5s3.5 35.167 10.5 51.5s16.5 30.666 28.5 42.999s26.167 22.166 42.5 29.499s33.833 11 52.5 11zM189 495.999c-15.333 0 -28.168 -4.83301 -38.501 -14.5
s-15.5 -22.167 -15.5 -37.5c0 -14.667 5.33301 -27 16 -37s23.334 -15 38.001 -15c15.333 0 28 5 38 15s15 22.333 15 37c0 15.333 -5 27.833 -15 37.5s-22.667 14.5 -38 14.5z" />
    <glyph glyph-name="ampersand" unicode="&#x26;" horiz-adv-x="719" 
d="M555 282l92.9971 -0.00292969v-75c-1.33301 -25.333 -5.16602 -49 -11.499 -71s-16.166 -42.667 -29.499 -62l28.5 -30.5l27.5 -29.5l-34.5 -37.5l-33.5 -36.5l-72 75c-11.333 -3.33301 -22.5 -5.66602 -33.5 -6.99902s-21.5 -2 -31.5 -2h-216
c-28 0 -53.5 4.83301 -76.5 14.5s-42.5 23.334 -58.5 41.001s-28.5 39 -37.5 64s-13.5 52.5 -13.5 82.5c0 38 10.833 72.667 32.5 104s50.5 54.666 86.5 69.999c-7.33301 13.333 -12.666 25.833 -15.999 37.5s-5 23.167 -5 34.5c0 28.667 5.33301 55.334 16 80.001
s25 46 43 64s39 32 63 42s49.333 15 76 15h189v-93h-178c-30 0 -54.667 -9.33301 -74 -28s-29 -44 -29 -76c0 -5.33301 1.33301 -10.833 4 -16.5s6 -10.5 10 -14.5l265 -282c6 12.667 10.167 22.834 12.5 30.501s3.5 14.167 3.5 19.5v87zM247.997 299.997
c-32 0 -56.499 -9.99902 -73.499 -29.999s-25.5 -45 -25.5 -75c0 -12.667 2.5 -24.834 7.5 -36.501s11.667 -22 20 -31s18.166 -16.167 29.499 -21.5s23.333 -8 36 -8h203z" />
    <glyph glyph-name="quotesingle" unicode="'" horiz-adv-x="272" 
d="M114 553h101.998c-11.333 -24 -21.166 -46 -29.499 -66s-18.166 -41.667 -29.499 -65h-101z" />
    <glyph glyph-name="parenleft" unicode="(" horiz-adv-x="339" 
d="M283 781l0.000976562 -91.001h-31c-28 0 -51 -7.66699 -69 -23s-27 -33.333 -27 -54v-603c0 -19.333 9 -34.333 27 -45s41 -16 69 -16h31v-91h-31c-27.333 0 -52.833 3.83301 -76.5 11.5s-44.334 18 -62.001 31s-31.667 28.5 -42 46.5s-15.5 37 -15.5 57v619
c0 20.667 4.83301 40.5 14.5 59.5s23.167 35.833 40.5 50.5s38 26.334 62 35.001s50.333 13 79 13h31z" />
    <glyph glyph-name="parenright" unicode=")" horiz-adv-x="339" 
d="M87 781c28.667 0 55 -4.33203 79 -12.999s44.667 -20.334 62 -35.001s30.833 -31.5 40.5 -50.5s14.5 -38.833 14.5 -59.5v-619c0 -20 -5.16699 -39 -15.5 -57s-24.333 -33.5 -42 -46.5s-38.5 -23.333 -62.5 -31s-49.333 -11.5 -76 -11.5h-31v91h31c28 0 51 5.33301 69 16
s27 25.667 27 45v603c0 20.667 -9 38.667 -27 54s-41 23 -69 23h-31v91h31z" />
    <glyph glyph-name="asterisk" unicode="*" horiz-adv-x="414" 
d="M218 555l29 -115h-82l29 114v16l-12 -7l-84 -82l-42 73l112 30l15 8l-13 8l-114 32l42 71l83 -81l13 -8v14l-29 114h85l-30 -113l-1 -16l13 7l85 83l41 -72l-112 -32l-13 -7l12 -7l113 -32l-43 -73l-82 82l-15 9v-16z" />
    <glyph glyph-name="plus" unicode="+" horiz-adv-x="557" 
d="M231 589h93v-176h177v-93h-177v-176h-93v176h-175v93h175v176z" />
    <glyph glyph-name="comma" unicode="," horiz-adv-x="272" 
d="M114 93h101.998c-11.333 -24 -21.166 -46 -29.499 -66s-18.166 -41.667 -29.499 -65h-101z" />
    <glyph glyph-name="hyphen" unicode="-" horiz-adv-x="536" 
d="M480 224h-424v97h424v-97z" />
    <glyph glyph-name="period" unicode="." horiz-adv-x="212" 
d="M56 93h100v-91h-100v91z" />
    <glyph glyph-name="slash" unicode="/" horiz-adv-x="455" 
d="M151 -60h-95l123.5 410.5l124.5 410.5h95z" />
    <glyph glyph-name="zero" unicode="0" horiz-adv-x="529" 
d="M465 184c0 -26 -4.33301 -50.5 -13 -73.5s-21.667 -43.333 -39 -61s-38.833 -31.667 -64.5 -42s-55.167 -15.5 -88.5 -15.5c-26 0 -50.833 5.16699 -74.5 15.5s-44.5 24.333 -62.5 42s-32.333 38 -43 61s-16 47.5 -16 73.5v352c0 26 5.33301 50.5 16 73.5
s25 43.333 43 61s38.833 31.667 62.5 42s48.5 15.5 74.5 15.5c33.333 0 62.833 -5.16699 88.5 -15.5s47.167 -24.333 64.5 -42s30.333 -38 39 -61s13 -47.5 13 -73.5v-352zM376 544c0 26 -9 48 -27 66s-40 27 -66 27h-35c-26.667 0 -48.834 -9 -66.501 -27
s-26.5 -40 -26.5 -66v-368c0 -26 8.83301 -48 26.5 -66s39.834 -27 66.501 -27h35c26 0 48 9 66 27s27 40 27 66v368z" />
    <glyph glyph-name="one" unicode="1" horiz-adv-x="325" 
d="M78 581c28 0 50.3311 8 66.998 24s25 36.667 25 62v53h91v-720h-91v516c-17.333 -11.333 -33.166 -18.333 -47.499 -21s-29.166 -4 -44.499 -4h-30v90h30z" />
    <glyph glyph-name="two" unicode="2" horiz-adv-x="479" 
d="M72 133c0 26.667 6.50195 50.832 19.502 72.499s29 41.834 48 60.501s39.833 36.5 62.5 53.5s43.5 34 62.5 51s35 34.833 48 53.5s19.5 39.334 19.5 62.001v58c0 26.667 -8.83301 48.834 -26.5 66.501s-39.834 26.5 -66.501 26.5c-26 0 -48 -8.83301 -66 -26.5
s-27 -39.834 -27 -66.501v-86h-90v86c0 25.333 4.83301 49.166 14.5 71.499s22.667 41.833 39 58.5s35.666 29.834 57.999 39.501s46.166 14.5 71.499 14.5s49.166 -4.83301 71.499 -14.5s41.833 -22.834 58.5 -39.501s29.834 -36.167 39.501 -58.5
s14.5 -46.166 14.5 -71.499v-73c0 -26.667 -6.5 -51.834 -19.5 -75.501s-29.167 -46 -48.5 -67s-40.166 -40.667 -62.499 -59l-62.5 -51.5c-19.333 -16 -35.5 -31.167 -48.5 -45.5s-19.5 -27.5 -19.5 -39.5v-50h243v-83h-333v133z" />
    <glyph glyph-name="three" unicode="3" horiz-adv-x="479" 
d="M239 637c-26 0 -48 -8.66797 -66 -26.001s-27 -39.333 -27 -66v-41h-90v42c0 25.333 4.83301 49.166 14.5 71.499s22.667 41.666 39 57.999s35.666 29.166 57.999 38.499s46.166 14 71.499 14s49.166 -4.66699 71.499 -14s41.833 -22.166 58.5 -38.499
s29.834 -35.666 39.501 -57.999s14.5 -46.166 14.5 -71.499v-34c0 -12 -1.66699 -24.333 -5 -37s-8 -25.167 -14 -37.5s-13.5 -24 -22.5 -35s-19.167 -20.833 -30.5 -29.5c22 -18 39.5 -39.667 52.5 -65s19.5 -49.666 19.5 -72.999v-51c0 -26 -4.83301 -50.5 -14.5 -73.5
s-22.834 -43.333 -39.501 -61s-36.167 -31.667 -58.5 -42s-46.166 -15.5 -71.499 -15.5s-49.166 5.16699 -71.499 15.5s-41.666 24.333 -57.999 42s-29.333 38 -39 61s-14.5 47.5 -14.5 73.5v45h90v-53c0 -26 9 -48 27 -66s40 -27 66 -27c26.667 0 48.834 9 66.501 27
s26.5 40 26.5 66v59c0 26.667 -6.33301 49 -19 67s-31.667 27 -57 27h-62v90h62c25.333 0 44.333 9 57 27s19 40 19 66v33c0 26.667 -8.83301 48.667 -26.5 66s-39.834 26 -66.501 26z" />
    <glyph glyph-name="four" unicode="4" horiz-adv-x="469" 
d="M240 281c-25.333 0 -49.166 4.66797 -71.499 14.001s-41.833 22 -58.5 38s-29.834 35 -39.501 57s-14.5 45.667 -14.5 71v259h91v-259c0 -26.667 9 -48.834 27 -66.501s40 -26.5 66 -26.5h74v352h91v-720h-91v281h-74z" />
    <glyph glyph-name="five" unicode="5" horiz-adv-x="479" 
d="M423 184c0 -26 -4.83496 -50.5 -14.502 -73.5s-22.834 -43.333 -39.501 -61s-36.167 -31.667 -58.5 -42s-46.166 -15.5 -71.499 -15.5s-49.166 5.16699 -71.499 15.5s-41.666 24.333 -57.999 42s-29.333 38 -39 61s-14.5 47.5 -14.5 73.5v45h90v-53c0 -26 9 -48 27 -66
s40 -27 66 -27c26.667 0 48.834 9 66.501 27s26.5 40 26.5 66v130c0 26 -8.83301 48 -26.5 66s-39.834 27 -66.501 27h-149v321h299v-83h-208v-147h58c25.333 0 49.166 -4.83301 71.499 -14.5s41.833 -22.834 58.5 -39.501s29.834 -36.167 39.501 -58.5
s14.5 -46.166 14.5 -71.499v-122z" />
    <glyph glyph-name="six" unicode="6" 
d="M431 184c0 -26 -4.83301 -50.5 -14.5 -73.5s-22.834 -43.333 -39.501 -61s-36.167 -31.667 -58.5 -42s-46.166 -15.5 -71.499 -15.5s-49.166 5.16699 -71.499 15.5s-41.666 24.333 -57.999 42s-29.333 38 -39 61s-14.5 47.5 -14.5 73.5v361
c0 25.333 4.83301 48.666 14.5 69.999s22.667 39.833 39 55.5s35.666 27.834 57.999 36.501s46.166 13 71.499 13h121v-83h-121c-26 0 -48 -8.66699 -66 -26s-27 -39.333 -27 -66v-78h93c25.333 0 49.166 -4.66699 71.499 -14s41.833 -22 58.5 -38s29.834 -35 39.501 -57
s14.5 -45.667 14.5 -71v-103zM154 378v-202c0 -26 9 -48 27 -66s40 -27 66 -27c26.667 0 48.834 9 66.501 27s26.5 40 26.5 66v109c0 26 -8.83301 48 -26.5 66s-39.834 27 -66.501 27h-93z" />
    <glyph glyph-name="seven" unicode="7" horiz-adv-x="458" 
d="M174 0h-100l219 637h-261v83h394z" />
    <glyph glyph-name="eight" unicode="8" horiz-adv-x="547" 
d="M278 -8c-35.333 0 -66.666 5.33301 -93.999 16s-50.5 24.834 -69.5 42.501s-33.5 38 -43.5 61s-15 47.167 -15 72.5v80c0 28 5.33301 53.333 16 76s29.334 40 56.001 52c-17.333 19.333 -30.5 38.333 -39.5 57s-13.5 39.667 -13.5 63v35c0 25.333 4.66699 49 14 71
s22.333 41.167 39 57.5s36 29.166 58 38.499s45.667 14 71 14h33c25.333 0 49.166 -4.66699 71.499 -14s41.666 -22.166 57.999 -38.499s29.333 -35.5 39 -57.5s14.5 -45.667 14.5 -71v-35c0 -23.333 -4.83301 -44.333 -14.5 -63s-23.167 -37.667 -40.5 -57
c26 -11.333 45 -29 57 -53s18 -49.667 18 -77v-78c0 -25.333 -5 -49.5 -15 -72.5s-24.167 -43.333 -42.5 -61s-40.833 -31.834 -67.5 -42.501s-56.667 -16 -90 -16zM402 265c0 26 -9 46.168 -27 60.501s-40 21.5 -66 21.5h-70c-26.667 0 -48.667 -7.16699 -66 -21.5
s-26 -34.5 -26 -60.5v-89c0 -13.333 2.16699 -25.5 6.5 -36.5s11.5 -20.833 21.5 -29.5s23.167 -15.334 39.5 -20.001s36.5 -7 60.5 -7c43.333 0 75.333 9 96 27s31 40 31 66v89zM383 547.001c0 26.667 -8.99902 48.334 -26.999 65.001s-40 25 -66 25h-33
c-26 0 -48 -8.33301 -66 -25s-27 -38.334 -27 -65.001v-55c0 -25.333 8.5 -44.5 25.5 -57.5s38.167 -19.5 63.5 -19.5h40c25.333 0 46.666 6.5 63.999 19.5s26 32.167 26 57.5v55z" />
    <glyph glyph-name="nine" unicode="9" 
d="M56 547c0 25.333 4.83203 49 14.499 71s22.667 41.167 39 57.5s35.666 29.166 57.999 38.499s46.166 14 71.499 14s49.166 -4.66699 71.499 -14s41.833 -22.166 58.5 -38.499s29.834 -35.5 39.501 -57.5s14.5 -45.667 14.5 -71v-363
c0 -25.333 -4.83301 -49.166 -14.5 -71.499s-22.834 -41.833 -39.501 -58.5s-36.167 -29.834 -58.5 -39.501s-46.166 -14.5 -71.499 -14.5h-147v83h147c26.667 0 48.834 9 66.501 27s26.5 40 26.5 66v66h-93c-25.333 0 -49.166 4.83301 -71.499 14.5
s-41.666 22.834 -57.999 39.501s-29.333 36.167 -39 58.5s-14.5 46.166 -14.5 71.499v121zM145.999 426c0 -26.667 9.00098 -49 27.001 -67s40 -27 66 -27h93v212c0 26.667 -8.83301 48.834 -26.5 66.501s-39.834 26.5 -66.501 26.5c-26 0 -48 -8.83301 -66 -26.5
s-27 -39.834 -27 -66.501v-118z" />
    <glyph glyph-name="colon" unicode=":" horiz-adv-x="212" 
d="M56 93h100v-91h-100v91zM56 431h100v-90h-100v90z" />
    <glyph glyph-name="semicolon" unicode=";" horiz-adv-x="272" 
d="M114 93h101.998c-11.333 -24 -21.166 -46 -29.499 -66s-18.166 -41.667 -29.499 -65h-101zM109.998 431h101v-90h-101v90z" />
    <glyph glyph-name="less" unicode="&#x3c;" horiz-adv-x="448" 
d="M331 488h60v-64l-201 -180l101 -89.5l101 -90.5v-64h-62l-137 122l-137 122z" />
    <glyph glyph-name="equal" unicode="=" horiz-adv-x="572" 
d="M508 199h-444v98h444v-98zM508 398h-444v97h444v-97z" />
    <glyph glyph-name="greater" unicode="&#x3e;" horiz-adv-x="447" 
d="M391 244l-137 -122l-138 -122h-60v63l204 181l-57 50.5l-57 50.5h1l-46.5 39l-44.5 39v65h60z" />
    <glyph glyph-name="question" unicode="?" horiz-adv-x="495" 
d="M292 168l-89.9971 0.00195312v16c0 28.667 2.33301 52.5 7 71.5s10.667 34.667 18 47s15.5 22.166 24.5 29.499s18.167 14 27.5 20h-1c16.667 11.333 31.167 29.166 43.5 53.499s18.5 53.5 18.5 87.5v55c0 26.667 -8.83301 48.834 -26.5 66.501
s-39.834 26.5 -66.501 26.5c-26 0 -48 -8.83301 -66 -26.5s-27 -39.834 -27 -66.501v-99h-90v99c0 25.333 4.83301 49.166 14.5 71.499s22.667 41.833 39 58.5s35.666 29.834 57.999 39.501s46.166 14.5 71.499 14.5s49.166 -4.83301 71.499 -14.5
s41.833 -22.834 58.5 -39.501s29.834 -36.167 39.501 -58.5s14.5 -46.166 14.5 -71.499v-55c0 -33.333 -3.5 -60.5 -10.5 -81.5s-15.5 -38.5 -25.5 -52.5s-21.167 -26.167 -33.5 -36.5s-23.5 -21.333 -33.5 -33s-18.5 -25.667 -25.5 -42s-10.5 -37.5 -10.5 -63.5v-16z
M202.003 1.00195v90h90v-90h-90z" />
    <glyph glyph-name="at" unicode="@" horiz-adv-x="883" 
d="M484 160c-18 -20.667 -37.832 -37.1758 -59.499 -49.5088s-43.5 -18.5 -65.5 -18.5c-17.333 0 -34.833 4 -52.5 12s-33.5 19.667 -47.5 35s-25.5 34.5 -34.5 57.5s-13.5 49.167 -13.5 78.5c0 38.667 7 73.834 21 105.501s31.5 58.834 52.5 81.501
s43.833 40.334 68.5 53.001s48 19 70 19c23.333 0 45.833 -6.16699 67.5 -18.5s40.167 -31.166 55.5 -56.499l14 64h72l-58 -274l-9.5 -43.5c-2.33301 -10.333 -3.5 -16.5 -3.5 -18.5c0 -7.33301 2.83301 -13.666 8.5 -18.999s12.5 -8 20.5 -8c15.333 0 34.333 8 57 24
c15.333 10.667 29.166 23.5 41.499 38.5s22.833 31.333 31.5 49s15.334 36.167 20.001 55.5s7 38.666 7 57.999c0 36 -7.33301 69.667 -22 101s-35 58.5 -61 81.5s-56.667 41.167 -92 54.5s-74 20 -116 20c-51.333 0 -97.833 -9.33301 -139.5 -28s-77.334 -44 -107.001 -76
s-52.667 -69.333 -69 -112s-24.5 -87.667 -24.5 -135c0 -54 9 -100.667 27 -140s42.833 -71.833 74.5 -97.5s68.834 -44.667 111.501 -57s88.667 -18.5 138 -18.5c36 0 68.833 3.33301 98.5 10s56.5 15.5 80.5 26.5s45 24 63 39s33 30.833 45 47.5h73
c-12.667 -25.333 -29.834 -49.166 -51.501 -71.499s-47.834 -41.666 -78.501 -57.999s-65.167 -29.333 -103.5 -39s-80.166 -14.5 -125.499 -14.5c-67.333 0 -126.666 9.16699 -177.999 27.5s-94.333 43.833 -129 76.5s-60.834 71.334 -78.501 116.001
s-26.5 93.334 -26.5 146.001c0 67.333 13.667 130.333 41 189c34 74 81.167 130.5 141.5 169.5s134.166 58.5 221.499 58.5c48.667 0 94 -7.66699 136 -23s78.667 -37 110 -65s56 -61.5 74 -100.5s27 -82.167 27 -129.5c0 -35.333 -6.83301 -70.5 -20.5 -105.5
s-32 -66.333 -55 -94s-49.167 -50 -78.5 -67s-59.666 -25.5 -90.999 -25.5c-27.333 0 -46.5 5.33301 -57.5 16s-17.833 28.334 -20.5 53.001zM287.001 269.991c0 -38 8.83105 -67.167 26.498 -87.5s37.834 -30.5 60.501 -30.5c16.667 0 33.834 5.33301 51.501 16
s33.667 25.334 48 44.001s26 40.5 35 65.5s13.5 51.833 13.5 80.5c0 36.667 -9.16699 65.167 -27.5 85.5s-40.5 30.5 -66.5 30.5c-18.667 0 -36.5 -6 -53.5 -18s-32 -27.5 -45 -46.5s-23.333 -40.833 -31 -65.5s-11.5 -49.334 -11.5 -74.001z" />
    <glyph glyph-name="C" unicode="C" horiz-adv-x="498" 
d="M442 0l-93.001 0.00195312v217c0 13.333 -2.33301 26.166 -7 38.499s-11 23.166 -19 32.499s-17.667 16.833 -29 22.5s-23.666 8.5 -36.999 8.5h-99v-319h-94v553c0 26.667 4.83301 50.834 14.5 72.501s23 40.167 40 55.5s37.333 27 61 35s49.167 12 76.5 12
c20 0 39.167 -3 57.5 -9s34.333 -14.667 48 -26s24.5 -25.166 32.5 -41.499s12 -34.833 12 -55.5c0 -17.333 -2.83301 -34.666 -8.5 -51.999s-16.167 -37.666 -31.5 -60.999h-93c14 15.333 24.167 30.166 30.5 44.499s9.5 32.166 9.5 53.499
c0 17.333 -7.16699 31.166 -21.5 41.499s-30.5 15.5 -48.5 15.5c-10 0 -20.167 -1.66699 -30.5 -5s-19.5 -8.83301 -27.5 -16.5s-14.5 -17.334 -19.5 -29.001s-7.5 -25.5 -7.5 -41.5v-131h100c28 0 53.333 -4.66699 76 -14s42 -22.5 58 -39.5s28.333 -37 37 -60
s13 -48.167 13 -75.5v-226z" />
    <glyph glyph-name="I" unicode="I" horiz-adv-x="207" 
d="M151 0h-95v724h95v-724z" />
    <glyph glyph-name="J" unicode="J" horiz-adv-x="639" 
d="M56 638l94.001 -0.00195312v-242c0 -16.667 5.66699 -30.834 17 -42.501s25.666 -17.5 42.999 -17.5c16.667 0 30.667 5.83301 42 17.5s17 25.834 17 42.501v172c0 22 5 42.167 15 60.5s23.5 34.333 40.5 48s36.833 24.334 59.5 32.001s47 11.5 73 11.5h118v-536
c0 -26 -5 -50.333 -15 -73s-23.5 -42.167 -40.5 -58.5s-36.833 -29.166 -59.5 -38.499s-47 -14 -73 -14h-225v83h225c26.667 0 49.167 9.16699 67.5 27.5s27.5 40.833 27.5 67.5v460h-25c-26.667 0 -49.167 -5.66699 -67.5 -17s-27.5 -28.333 -27.5 -51v-174
c0 -21.333 -4 -41.166 -12 -59.499s-19 -34.5 -33 -48.5s-30.167 -25 -48.5 -33s-37.833 -12 -58.5 -12c-21.333 0 -41.333 4 -60 12s-35 19 -49 33s-25 30.167 -33 48.5s-12 38.166 -12 59.499v242z" />
    <glyph glyph-name="R" unicode="R" horiz-adv-x="749" 
d="M361 0c-50.667 0 -94.333 5.33301 -131 16s-67 27.5 -91 50.5s-41.833 53 -53.5 90s-17.5 81.5 -17.5 133.5v248c0 26.667 4.5 51.5 13.5 74.5s21.5 43 37.5 60s35 30.5 57 40.5s46 15 72 15c13.333 0 27.166 -2.33301 41.499 -7s27.833 -11.167 40.5 -19.5
s23.5 -18 32.5 -29s15.167 -22.833 18.5 -35.5h8c4 12.667 10.5 24.667 19.5 36s19.333 21 31 29s24 14.333 37 19s26.167 7 39.5 7c26 0 50 -5 72 -15s41.167 -23.5 57.5 -40.5s29 -37 38 -60s13.5 -47.833 13.5 -74.5v-142c0 -22 -3.83301 -43.333 -11.5 -64
s-18.5 -39.5 -32.5 -56.5s-30.5 -31.667 -49.5 -44s-39.5 -21.166 -61.5 -26.499v106c19.333 8 34.333 19.333 45 34s16 31.667 16 51v147c0 26.667 -7.66699 49 -23 67s-36.666 27 -63.999 27s-48.666 -9 -63.999 -27s-23 -40.333 -23 -67v-153h-93v153
c0 26.667 -7.83301 49 -23.5 67s-37.167 27 -64.5 27c-26.667 0 -47.834 -9 -63.501 -27s-23.5 -40.333 -23.5 -67v-256c0 -36.667 3.83301 -67.834 11.5 -93.501s19.667 -46.667 36 -63s37 -28.333 62 -36s55.167 -11.5 90.5 -11.5h181v-83h-181z" />
    <glyph glyph-name="S" unicode="S" horiz-adv-x="579" 
d="M422 570c0 10.667 -2.33398 20.1689 -7.00098 28.502s-10.834 15.5 -18.501 21.5s-16.167 10.5 -25.5 13.5s-18.666 4.5 -27.999 4.5c-19.333 0 -36.833 -5.5 -52.5 -16.5s-23.5 -28.167 -23.5 -51.5v-56h-93v64c0 16 -5.66699 30 -17 42s-25.333 18 -42 18h-83v85h83
c10.667 0 21.834 -1.66699 33.501 -5s22.5 -8.5 32.5 -15.5s18.833 -15.833 26.5 -26.5s12.5 -23.334 14.5 -38.001h8c13.333 30 30.5 52.5 51.5 67.5s47.167 22.5 78.5 22.5c20.667 0 40.334 -3.33301 59.001 -10s35.167 -16.5 49.5 -29.5s25.666 -28.833 33.999 -47.5
s12.5 -40.334 12.5 -65.001v-388c0 -26 -5 -50.333 -15 -73s-23.5 -42.5 -40.5 -59.5s-36.833 -30.5 -59.5 -40.5s-47 -15 -73 -15h-36c-26 0 -50.333 5 -73 15s-42.5 23.5 -59.5 40.5s-30.5 36.833 -40.5 59.5s-15 47 -15 73v71c0 26 5 50.5 15 73.5s23.5 43 40.5 60
s36.833 30.5 59.5 40.5s47 15 73 15h131v122zM326.999 91.002c26.667 0 49.167 9.16699 67.5 27.5s27.5 40.833 27.5 67.5v168h-131c-26.667 0 -49.167 -9.16699 -67.5 -27.5s-27.5 -40.833 -27.5 -67.5v-73c0 -26.667 9.16699 -49.167 27.5 -67.5s40.833 -27.5 67.5 -27.5
h36z" />
    <glyph glyph-name="T" unicode="T" horiz-adv-x="789" 
d="M630 542c0 27.333 -9.00098 50 -27.001 68s-40.667 27 -68 27s-50 -9 -68 -27s-27 -40.667 -27 -68l1 -354c0 -26 -5 -50.833 -15 -74.5s-23.5 -44.5 -40.5 -62.5s-37 -32.333 -60 -43s-47.5 -16 -73.5 -16s-50.5 5.33301 -73.5 16s-43 25 -60 43
s-30.333 38.833 -40 62.5s-14.5 48.5 -14.5 74.5v355c0 26 4.83301 50.333 14.5 73s23 42.334 40 59.001s37 29.667 60 39s47.5 14 73.5 14c18 0 34.833 -2.83301 50.5 -8.5s29.834 -13 42.501 -22s23 -19.5 31 -31.5s13.333 -24.333 16 -37h9c4.66699 12.667 11 25 19 37
s17.833 22.5 29.5 31.5s24.667 16.333 39 22s30.166 8.5 47.499 8.5c26 0 50.5 -4.66699 73.5 -14s43 -22.333 60 -39s30.5 -36.334 40.5 -59.001s15 -47 15 -73v-368c0 -22 -4.16699 -43.167 -12.5 -63.5s-19.666 -38.5 -33.999 -54.5s-31.5 -29.667 -51.5 -41
s-41.333 -19.333 -64 -24v95c19.333 7.33301 35.5 19 48.5 35s19.5 33.667 19.5 53zM346.999 542c0 27.333 -9.16699 50 -27.5 68s-41.166 27 -68.499 27c-26.667 0 -49.167 -9 -67.5 -27s-27.5 -40.667 -27.5 -68l1 -366c0 -26.667 9.16699 -48.834 27.5 -66.501
s40.833 -26.5 67.5 -26.5c27.333 0 50.166 8.83301 68.499 26.5s27.5 39.834 27.5 66.501z" />
    <glyph glyph-name="W" unicode="W" horiz-adv-x="555" 
d="M226 227c-53.333 0 -95 15 -125 45s-45 71.667 -45 125v30c0 26 4.83301 49.667 14.5 71s23 39.5 40 54.5s37 26.5 60 34.5s47.5 12 73.5 12h76v121h94v-121h105v-93h-105v-318c0 -26 -5 -50.5 -15 -73.5s-23.5 -43 -40.5 -60s-37 -30.333 -60 -40
s-47.5 -14.5 -73.5 -14.5h-153v91h153c27.333 0 50 9.16699 68 27.5s27 40.833 27 67.5v41h-94zM320 320l-0.000976562 186h-76c-27.333 0 -50.166 -6.16699 -68.499 -18.5s-27.5 -32.5 -27.5 -60.5v-30c0 -51.333 26 -77 78 -77h94z" />
    <glyph glyph-name="Z" unicode="Z" 
d="M56 322c0 25.333 4.83105 49.166 14.498 71.499s22.834 41.833 39.501 58.5s36.167 29.834 58.5 39.501s46.166 14.5 71.499 14.5h93v214h90v-536c0 -26 -4.83301 -50.5 -14.5 -73.5s-22.667 -43.333 -39 -61s-35.666 -31.667 -57.999 -42s-46.166 -15.5 -71.499 -15.5
s-49.166 5.16699 -71.499 15.5s-41.833 24.333 -58.5 42s-29.834 38 -39.501 61s-14.5 47.5 -14.5 73.5v138zM239.998 415c-26.667 0 -48.834 -9 -66.501 -27s-26.5 -40 -26.5 -66v-146c0 -26 8.83301 -48 26.5 -66s39.834 -27 66.501 -27c26 0 48 9 66 27s27 40 27 66v239
h-93z" />
    <glyph glyph-name="bracketleft" unicode="[" horiz-adv-x="339" 
d="M56 717h227v-92h-133v-727h133v-94h-227v913z" />
    <glyph glyph-name="backslash" unicode="\" horiz-adv-x="455" 
d="M56 761h95l124 -410.5l124 -410.5h-95z" />
    <glyph glyph-name="bracketright" unicode="]" horiz-adv-x="339" 
d="M283 -189h-227v93h135v721h-135v92h227v-906z" />
    <glyph glyph-name="asciicircum" unicode="^" horiz-adv-x="481" 
d="M151 234h-95l75 168.5l75 168.5h71l74 -168l74 -169h-95l-89 219z" />
    <glyph glyph-name="underscore" unicode="_" horiz-adv-x="674" 
d="M618 -180h-562v97h562v-97z" />
    <glyph glyph-name="grave" unicode="`" horiz-adv-x="285" 
d="M229 441h-68l-53 70l-52 70h107z" />
    <glyph glyph-name="a" unicode="a" horiz-adv-x="479" 
d="M146 176c0 -26 8.99316 -47.9971 26.9932 -65.9971s40 -27 66 -27c26.667 0 48.834 9 66.501 27s26.5 40 26.5 66v217c0 13.333 -0.166992 25.166 -0.5 35.499s-1.66602 20 -3.99902 29s-6.16602 17.833 -11.499 26.5s-13 18 -23 28l-102 84h1
c-20 17.333 -33.167 31.666 -39.5 42.999s-9.5 23.666 -9.5 36.999v44h91v-28c0.666992 -7.33301 5.16699 -15.5 13.5 -24.5s18.333 -18.333 30 -28l37 -29.5c13 -10 24.167 -19 33.5 -27l38.5 -35.5c9.66699 -9 17.334 -19 23.001 -30s9.33398 -25 11.001 -42
s2.5 -41.5 2.5 -73.5v-218c0 -26 -4.83301 -50.5 -14.5 -73.5s-22.834 -43.333 -39.501 -61s-36.167 -31.667 -58.5 -42s-46.166 -15.5 -71.499 -15.5s-49.166 5.16699 -71.499 15.5s-41.666 24.333 -57.999 42s-29.333 38 -39 61s-14.5 47.5 -14.5 73.5v173h90v-181z" />
    <glyph glyph-name="b" unicode="b" horiz-adv-x="514" 
d="M316 464c29.333 -4.66699 53.168 -13.5 71.501 -26.5s32.833 -28 43.5 -45s17.834 -34.833 21.501 -53.5s5.5 -36 5.5 -52v-103c0 -26 -4.83301 -50.5 -14.5 -73.5s-23.334 -43.333 -41.001 -61s-38.834 -31.667 -63.501 -42s-52 -15.5 -82 -15.5
c-29.333 0 -56.166 5.16699 -80.499 15.5s-45.333 24.333 -63 42s-31.5 38 -41.5 61s-15 47.5 -15 73.5v103c0 18.667 2.83301 37.834 8.5 57.501s15 38 28 55s30.167 31.667 51.5 44s48 20.166 80 23.499v140h-91c-28.667 0 -48.834 8 -60.501 24s-17.5 39.333 -17.5 70v19
h92v-22h168v-234zM369.002 287c0 16 -3.16895 30 -9.50195 42s-14.833 21.833 -25.5 29.5s-22.5 13.5 -35.5 17.5s-26.5 6 -40.5 6s-27.5 -2 -40.5 -6s-24.667 -9.83301 -35 -17.5s-18.666 -17.5 -24.999 -29.5s-9.5 -26 -9.5 -42v-111c0 -26 8.83301 -48 26.5 -66
s39.834 -27 66.501 -27h35c26 0 48 9 66 27s27 40 27 66v111z" />
    <glyph glyph-name="c" unicode="c" horiz-adv-x="585" 
d="M247 0c-25.333 0 -49.1689 4.83594 -71.502 14.5029s-41.666 22.834 -57.999 39.501s-29.333 36.167 -39 58.5s-14.5 46.166 -14.5 71.499v536h90v-536c0 -26.667 9 -48.834 27 -66.501s40 -26.5 66 -26.5h91c26 0 48 9 66 27s27 40.333 27 67v139
c0 21.333 -5.16699 36.333 -15.5 45s-24.5 13 -42.5 13h-98v89h98c17.333 0 31.333 5.66699 42 17s16 25.333 16 42c0 17.333 -1 30.666 -3 39.999s-7.33301 19.333 -16 30l-109 120h109l85 -99c9.33301 -10.667 15.666 -22.334 18.999 -35.001s5 -23.667 5 -33v-22
c0 -10 -2 -20.333 -6 -31s-9.66699 -20.667 -17 -30s-16.666 -17.333 -27.999 -24s-24.333 -11.334 -39 -14.001v-8c33.333 -7.33301 56.666 -20.5 69.999 -39.5s20 -39.167 20 -60.5v-139c0 -25.333 -4.83301 -49.166 -14.5 -71.499s-22.667 -42 -39 -59
s-35.666 -30.333 -57.999 -40s-46.166 -14.5 -71.499 -14.5h-91z" />
    <glyph glyph-name="d" unicode="d" 
d="M431 465c0 -25.333 -4.83301 -49.166 -14.5 -71.499s-22.834 -41.833 -39.501 -58.5s-36.167 -29.834 -58.5 -39.501s-46.166 -14.5 -71.499 -14.5h-93v-97c0 -26 9 -48 27 -66s40 -27 66 -27h114v-91h-114c-25.333 -0 -49.166 4.83301 -71.499 14.5
s-41.666 22.834 -57.999 39.501s-29.333 36.167 -39 58.5s-14.5 46.166 -14.5 71.499v361c0 25.333 4.83301 49.166 14.5 71.499s22.667 41.666 39 57.999s35.666 29.333 57.999 39s46.166 14.5 71.499 14.5s49.166 -4.83301 71.499 -14.5s41.833 -22.667 58.5 -39
s29.834 -35.666 39.501 -57.999s14.5 -46.166 14.5 -71.499v-80zM154 372h93c26.667 0 48.834 9 66.501 27s26.5 40 26.5 66v81c0 26.667 -8.83301 48.667 -26.5 66s-39.834 26 -66.501 26c-26 0 -48 -8.66699 -66 -26s-27 -39.333 -27 -66v-174z" />
    <glyph glyph-name="e" unicode="e" 
d="M56 357h90v-181c0 -26 9 -48 27 -66s40 -27 66 -27c26.667 0 48.834 9 66.501 27s26.5 40 26.5 66v369c0 26.667 -8.83301 48.667 -26.5 66s-39.834 26 -66.501 26c-26 0 -48 -8.66699 -66 -26s-27 -39.333 -27 -66v-39h-90v39c0 25.333 4.83301 49.166 14.5 71.499
s22.667 41.666 39 57.999s35.666 29.333 57.999 39s46.166 14.5 71.499 14.5s49.166 -4.83301 71.499 -14.5s41.833 -22.667 58.5 -39s29.834 -35.666 39.501 -57.999s14.5 -46.166 14.5 -71.499v-361c0 -26 -4.83301 -50.5 -14.5 -73.5s-22.834 -43.333 -39.501 -61
s-36.167 -31.667 -58.5 -42s-46.166 -15.5 -71.499 -15.5s-49.166 5.16699 -71.499 15.5s-41.666 24.333 -57.999 42s-29.333 38 -39 61s-14.5 47.5 -14.5 73.5v173z" />
    <glyph glyph-name="f" unicode="f" horiz-adv-x="755" 
d="M516 91c26.667 0 48.8291 8.99902 66.4961 26.999s26.5 40 26.5 66v52c0 25.333 -5.33301 44.166 -16 56.499s-24.667 18.5 -42 18.5h-48v91h48c17.333 0 31.333 6.33301 42 19s16 31.667 16 57v67c0 26.667 -8.83301 48.834 -26.5 66.501s-39.834 26.5 -66.501 26.5
s-49 -8.83301 -67 -26.5s-27 -39.834 -27 -66.501v-84c0 -25.333 -4.83301 -49.166 -14.5 -71.499s-22.667 -41.833 -39 -58.5s-35.666 -29.834 -57.999 -39.501s-46.166 -14.5 -71.499 -14.5s-49.166 4.83301 -71.499 14.5s-41.666 22.834 -57.999 39.501
s-29.333 36.167 -39 58.5s-14.5 46.166 -14.5 71.499v83c0 25.333 4.5 49.166 13.5 71.499s21.333 41.833 37 58.5s34.334 29.834 56.001 39.501s45.167 14.5 70.5 14.5c18.667 0 35 -2.66699 49 -8s26.167 -12.166 36.5 -20.499s18.833 -18 25.5 -29s12 -21.833 16 -32.5h8
c5.33301 11.333 12.666 22.333 21.999 33s20.333 20.334 33 29.001s26.834 15.5 42.501 20.5s32.5 7.5 50.5 7.5c25.333 0 49.166 -4.83301 71.499 -14.5s41.666 -22.834 57.999 -39.501s29.333 -36.167 39 -58.5s14.5 -46.166 14.5 -71.499v-66
c0 -22.667 -7.5 -44.834 -22.5 -66.501s-37.5 -36.834 -67.5 -45.501v-9c17.333 -3.33301 31.833 -9.16602 43.5 -17.499s21 -18.166 28 -29.499s11.833 -23.5 14.5 -36.5s4 -25.5 4 -37.5v-52c0 -25.333 -4.83301 -49.166 -14.5 -71.499s-22.667 -41.833 -39 -58.5
s-35.666 -29.834 -57.999 -39.501s-46.166 -14.5 -71.499 -14.5h-104c-25.333 -0 -49.166 4.83301 -71.499 14.5s-41.833 22.834 -58.5 39.501s-29.834 36.167 -39.501 58.5s-14.5 46.166 -14.5 71.499v3h91v-3c0 -26 9 -48 27 -66s40 -27 66 -27h104zM331.995 544.999
c0 26.667 -8.83301 48.834 -26.5 66.501s-39.834 26.5 -66.501 26.5c-26 0 -48 -8.83301 -66 -26.5s-27 -39.834 -27 -66.501v-84c0 -26.667 9 -48.834 27 -66.501s40 -26.5 66 -26.5c26.667 0 48.834 8.83301 66.501 26.5s26.5 39.834 26.5 66.501v84z" />
    <glyph glyph-name="g" unicode="g" horiz-adv-x="532" 
d="M305 451v147c0 11.333 -4 20.833 -12 28.5s-18 11.5 -30 11.5h-50c-11.333 0 -21 -3.83301 -29 -11.5s-12 -17.167 -12 -28.5v-60h-91v60c0 18 3.5 34.5 10.5 49.5s16.5 27.833 28.5 38.5s26 19 42 25s33 9 51 9h50c18 0 35 -3 51 -9s30 -14.333 42 -25
s21.333 -23.5 28 -38.5s10 -31.5 10 -49.5v-178c25.333 -17.333 45.333 -39.333 60 -66s22 -55.667 22 -87v-83c0 -26 -5 -50.5 -15 -73.5s-24 -43.333 -42 -61s-39.833 -31.667 -65.5 -42s-53.834 -15.5 -84.501 -15.5c-32.667 0 -62.167 5.16699 -88.5 15.5
s-48.666 24.333 -66.999 42s-32.5 38 -42.5 61s-15 47.5 -15 73.5v83c0 25.333 4.83301 49.166 14.5 71.499s22.834 41.833 39.501 58.5s36.167 29.834 58.5 39.501s46.166 14.5 71.499 14.5h65zM147 176c0 -26 8.66699 -48.002 26 -66.002s39 -27 65 -27h50
c14 0 26.833 2.33301 38.5 7s21.834 11.334 30.501 20.001s15.5 18.5 20.5 29.5s7.5 23.167 7.5 36.5v93c0 12.667 -2.5 24.667 -7.5 36s-11.833 21.333 -20.5 30s-18.834 15.334 -30.501 20.001s-24.5 7 -38.5 7h-50c-26 0 -47.667 -9 -65 -27s-26 -40 -26 -66v-93z" />
    <glyph glyph-name="h" unicode="h" 
d="M146 184c0 -26 6.33301 -48.001 19 -66.001s31.667 -27 57 -27h34c25.333 0 44.333 9 57 27s19 40 19 66v112h-138v72h148v100h-148v72h149c-0.666992 12.667 -2.83398 25 -6.50098 37s-8.66699 22.5 -15 31.5s-14.166 16.167 -23.499 21.5s-20 8 -32 8h-142v82h132
c52 0 92.833 -16 122.5 -48s44.5 -74 44.5 -126v-361c0 -25.333 -3.83301 -49.166 -11.5 -71.499s-18.667 -42 -33 -59s-31.833 -30.333 -52.5 -40s-44 -14.5 -70 -14.5h-34c-26 -0 -49.333 4.83301 -70 14.5s-38 22.834 -52 39.501s-24.833 36.167 -32.5 58.5
s-11.5 46.166 -11.5 71.499v23h90v-23z" />
    <glyph glyph-name="i" unicode="i" horiz-adv-x="495" 
d="M431 0h-90.9971v550c0 26.667 -8.83301 47.834 -26.5 63.501s-39.834 23.5 -66.501 23.5c-26 0 -48 -7.83301 -66 -23.5s-27 -36.834 -27 -63.501v-550h-90v548c0 25.333 4.83301 49 14.5 71s22.667 41 39 57s35.666 28.667 57.999 38s46.166 14 71.499 14
s49.166 -4.66699 71.499 -14s41.833 -22 58.5 -38s29.834 -35 39.501 -57s14.5 -45.667 14.5 -71v-548z" />
    <glyph glyph-name="j" unicode="j" horiz-adv-x="479" 
d="M56 631h137.996v89h90v-89h139v-91h-139v-103c44 0 78.167 -14 102.5 -42s36.5 -64 36.5 -108v-103c0 -26 -4.83301 -50.5 -14.5 -73.5s-22.667 -43.333 -39 -61s-35.666 -31.667 -57.999 -42s-46.166 -15.5 -71.499 -15.5s-49.166 5.16699 -71.499 15.5
s-41.833 24.333 -58.5 42s-29.834 38 -39.501 61s-14.5 47.5 -14.5 73.5v80h90v-88c0 -26 9 -48 27 -66s40 -27 66 -27c26.667 0 48.834 9 66.501 27s26.5 40 26.5 66v111c0 12 -0.666992 21.833 -2 29.5s-4.16602 13.667 -8.49902 18s-10.333 7.33301 -18 9
s-17.5 2.5 -29.5 2.5h-80v194h-138v91z" />
    <glyph glyph-name="k" unicode="k" horiz-adv-x="478" 
d="M267 506c17.333 0 31.166 5.50098 41.499 16.501s15.5 24.5 15.5 40.5v157h91v-140c0 -29.333 -8.66699 -54.5 -26 -75.5s-39 -35.167 -65 -42.5v-8c26 -6.66699 47.667 -19.834 65 -39.501s26 -44.5 26 -74.5v-148c0 -25.333 -4.83301 -50 -14.5 -74
s-22.834 -45.333 -39.501 -64s-36.167 -33.667 -58.5 -45s-46.166 -17 -71.499 -17s-49.166 5.66699 -71.499 17s-41.666 26.333 -57.999 45s-29.333 40 -39 64s-14.5 48.667 -14.5 74v89h90v-105c0 -16.667 2.66699 -30.834 8 -42.501s12.333 -21.334 21 -29.001
s18.5 -13.167 29.5 -16.5s22.5 -5 34.5 -5c11.333 0 22.666 1.66699 33.999 5s21.333 8.83301 30 16.5s15.667 17.334 21 29.001s8 25.834 8 42.501v180c0 18 -5.16699 32.333 -15.5 43s-24.5 16 -42.5 16h-107v91h108v0z" />
    <glyph glyph-name="l" unicode="l" 
d="M247 0c-25.333 0 -49.1641 4.83301 -71.4971 14.5s-41.666 22.834 -57.999 39.501s-29.333 36.167 -39 58.5s-14.5 46.166 -14.5 71.499v360c0 25.333 4.83301 49.166 14.5 71.499s22.667 41.833 39 58.5s35.666 29.834 57.999 39.501s46.166 14.5 71.499 14.5
s49.166 -4.83301 71.499 -14.5s41.833 -22.834 58.5 -39.501s29.834 -36.167 39.501 -58.5s14.5 -46.166 14.5 -71.499v-161c0 -24.667 -3.33301 -48 -10 -70s-16.334 -41 -29.001 -57h-92c11.333 17.333 20.833 37.833 28.5 61.5s11.5 45.5 11.5 65.5v162
c0 26.667 -8.83301 48.667 -26.5 66s-39.834 26 -66.501 26c-26 0 -48 -8.66699 -66 -26s-27 -39.333 -27 -66v-361c0 -26 9 -48 27 -66s40 -27 66 -27h114v-91h-114v0z" />
    <glyph glyph-name="m" unicode="m" 
d="M56 561c0 25.333 4.83594 48.335 14.5029 69.002s22.667 38.167 39 52.5s35.666 25.5 57.999 33.5s46.166 12 71.499 12s49.166 -4 71.499 -12s41.833 -19.167 58.5 -33.5s29.834 -31.833 39.501 -52.5s14.5 -43.667 14.5 -69v-377c0 -26 -4.83301 -50.5 -14.5 -73.5
s-22.834 -43.333 -39.501 -61s-36.167 -31.667 -58.5 -42s-46.166 -15.5 -71.499 -15.5s-49.166 5.16699 -71.499 15.5s-41.666 24.333 -57.999 42s-29.333 38 -39 61s-14.5 47.5 -14.5 73.5v100c0 25.333 4.83301 49.166 14.5 71.499s22.667 41.666 39 57.999
s35.666 29.333 57.999 39s46.166 14.5 71.499 14.5h93v95c0 26.667 -8.83301 46 -26.5 58s-39.834 18 -66.501 18c-26 0 -48 -6 -66 -18s-27 -31.333 -27 -58v-27h-90v26zM239.003 83.002c26.667 0 48.833 9 66.5 27s26.5 40 26.5 66v202h-93c-26 0 -48 -9.16699 -66 -27.5
s-27 -40.5 -27 -66.5v-108c0 -26 9 -48 27 -66s40 -27 66 -27z" />
    <glyph glyph-name="n" unicode="n" 
d="M431 184c0 -26 -4.83301 -50.498 -14.5 -73.498s-22.834 -43.333 -39.501 -61s-36.167 -31.667 -58.5 -42s-46.166 -15.5 -71.499 -15.5s-49.166 5.16699 -71.499 15.5s-41.666 24.333 -57.999 42s-29.333 38 -39 61s-14.5 47.5 -14.5 73.5v364
c0 25.333 4.83301 48.666 14.5 69.999s22.667 39.5 39 54.5s35.666 26.667 57.999 35s46.166 12.5 71.499 12.5h146v-82h-146c-26 0 -48 -8.33301 -66 -25s-27 -38.334 -27 -65.001v-42h93c25.333 0 49.166 -4.83301 71.499 -14.5s41.833 -22.834 58.5 -39.501
s29.834 -36.167 39.501 -58.5s14.5 -46.166 14.5 -71.499v-138zM154 415.002v-239c0 -26 9 -48 27 -66s40 -27 66 -27c26.667 0 48.834 9 66.501 27s26.5 40 26.5 66v146c0 26 -8.83301 48 -26.5 66s-39.834 27 -66.501 27h-93z" />
    <glyph glyph-name="o" unicode="o" horiz-adv-x="771" 
d="M617 544c0 26.667 -8.8291 48.834 -26.4961 66.501s-39.834 26.5 -66.501 26.5s-49 -8.83301 -67 -26.5s-27 -39.834 -27 -66.501v-263h-90v263c0 26.667 -8.83301 48.834 -26.5 66.501s-39.834 26.5 -66.501 26.5c-26 0 -48 -8.83301 -66 -26.5s-27 -39.834 -27 -66.501
v-360c0 -12 2.66699 -23.833 8 -35.5s12.833 -22.167 22.5 -31.5s20.834 -17 33.501 -23s26 -9.66699 40 -11v-91c-27.333 1.33301 -52.666 7.5 -75.999 18.5s-43.833 25.167 -61.5 42.5s-31.5 37.333 -41.5 60s-15 46.334 -15 71.001v361
c0 25.333 4.83301 49.166 14.5 71.499s22.667 41.666 39 57.999s35.666 29.333 57.999 39s46.166 14.5 71.499 14.5c16.667 0 32.5 -2.66699 47.5 -8s28.5 -12.5 40.5 -21.5s22 -19.5 30 -31.5s13.667 -24.667 17 -38h8c9.33301 26.667 25.333 49.834 48 69.501
s51.334 29.5 86.001 29.5c25.333 0 49.166 -4.83301 71.499 -14.5s41.666 -22.667 57.999 -39s29.333 -35.666 39 -57.999s14.5 -46.166 14.5 -71.499v-361c0 -24.667 -5 -48.334 -15 -71.001s-23.833 -42.834 -41.5 -60.501s-38.334 -32 -62.001 -43
s-48.834 -16.833 -75.501 -17.5v91c14 1.33301 27.333 5 40 11s23.834 13.667 33.501 23s17.167 19.833 22.5 31.5s8 23.5 8 35.5v360z" />
    <glyph glyph-name="p" unicode="p" 
d="M189 607c-14 0 -27.835 1.82617 -41.502 5.49316s-26 9.5 -37 17.5s-19.833 18.333 -26.5 31s-10 28.334 -10 47.001v12h91v-2c0 -13.333 9.33301 -20 28 -20h80c22.667 0 43.167 -3.83301 61.5 -11.5s34 -18.167 47 -31.5s23.167 -29.166 30.5 -47.499
s11 -38.166 11 -59.499v-53c0 -19.333 -5.5 -38.166 -16.5 -56.499s-24.167 -34.166 -39.5 -47.499c16.667 -13.333 30.167 -29.666 40.5 -48.999s15.5 -37.666 15.5 -54.999v-103c0 -26 -4.83301 -50.5 -14.5 -73.5s-22.667 -43.333 -39 -61s-35.666 -31.667 -57.999 -42
s-46.166 -15.5 -71.499 -15.5s-49.166 5.16699 -71.499 15.5s-41.833 24.333 -58.5 42s-29.834 38 -39.501 61s-14.5 47.5 -14.5 73.5v96h90v-104c0 -26 9 -48 27 -66s40 -27 66 -27c26.667 0 48.834 9 66.501 27s26.5 40 26.5 66v111c0 18 -5.16699 32.333 -15.5 43
s-24.5 16 -42.5 16h-51v91h52c17.333 0 31.166 5.5 41.499 16.5s15.5 24.5 15.5 40.5v54c0 17.333 -4.5 31.5 -13.5 42.5s-24.167 16.5 -45.5 16.5h-84v0z" />
    <glyph glyph-name="q" unicode="q" 
d="M332 510h-89.0039c-23.333 0 -42.666 -5.5 -57.999 -16.5s-23 -31.167 -23 -60.5v-56h-90v40c0 25.333 3.83301 48.666 11.5 69.999s18.5 39.833 32.5 55.5s31.333 27.834 52 36.501s44 13 70 13h94v128h91v-536c0 -26 -4.83301 -50.5 -14.5 -73.5
s-22.834 -43.333 -39.501 -61s-36.167 -31.667 -58.5 -42s-46.166 -15.5 -71.499 -15.5s-49.166 5.16699 -71.499 15.5s-41.666 24.333 -57.999 42s-29.333 38 -39 61s-14.5 47.5 -14.5 73.5v58h90v-66c0 -26 9 -48 27 -66s40 -27 66 -27c26.667 0 48.834 9 66.501 27
s26.5 40 26.5 66v334z" />
    <glyph glyph-name="r" unicode="r" horiz-adv-x="763" 
d="M64 545c0 25.333 4.83789 48.666 14.5049 69.999s22.667 39.833 39 55.5s35.666 27.834 57.999 36.501s46.166 13 71.499 13h289v-83h-289c-26 0 -48 -8.66699 -66 -26s-27 -39.333 -27 -66v-74c15.333 10 30.333 18.333 45 25s30.667 10 48 10
c34 0 63.167 -8.66699 87.5 -26s41.166 -39 50.499 -65h8c12.667 26 31.334 47.667 56.001 65s49.667 26 75 26s49.166 -4.83301 71.499 -14.5s41.666 -22.834 57.999 -39.501s29.333 -36.167 39 -58.5s14.5 -46.166 14.5 -71.499v-146c0 -24.667 -5 -47.834 -15 -69.501
s-23.833 -40.834 -41.5 -57.501s-38.334 -30.167 -62.001 -40.5s-48.834 -15.833 -75.501 -16.5v91c14 1.33301 27.333 4.66602 40 9.99902s23.834 12.166 33.501 20.499s17.167 17.833 22.5 28.5s8 22 8 34v146c0 26 -8.83301 48 -26.5 66s-39.834 27 -66.501 27
s-49 -9 -67 -27s-27 -40 -27 -66v-149h-90v149c0 26 -8.83301 48 -26.5 66s-39.834 27 -66.501 27c-26 0 -48 -9 -66 -27s-27 -40 -27 -66v-146c0 -12 2.66699 -23.333 8 -34s12.833 -20.167 22.5 -28.5s20.834 -15.166 33.501 -20.499s26 -8.66602 40 -9.99902v-91
c-27.333 1.33301 -52.666 7 -75.999 17s-43.833 23.333 -61.5 40s-31.5 35.834 -41.5 57.501s-15 44.834 -15 69.501v369z" />
    <glyph glyph-name="s" unicode="s" 
d="M431 184c0 -26 -4.83594 -50.501 -14.5029 -73.501s-22.834 -43.333 -39.501 -61s-36.167 -31.667 -58.5 -42s-46.166 -15.5 -71.499 -15.5s-49.166 5.16699 -71.499 15.5s-41.666 24.333 -57.999 42s-29.333 38 -39 61s-14.5 47.5 -14.5 73.5v536h90v-544
c0 -26 9 -48 27 -66s40 -27 66 -27c26.667 0 48.834 9 66.501 27s26.5 40 26.5 66v164c0 20 -3.83301 41.833 -11.5 65.5s-17.167 44.167 -28.5 61.5h92l12 -25c4.66699 -10 9 -20.667 13 -32s7.33301 -23.166 10 -35.499s4 -23.833 4 -34.5v-156z" />
    <glyph glyph-name="t" unicode="t" horiz-adv-x="690" 
d="M249 217l-0.00195312 370.998c0 18 3.33301 35 10 51s16 30 28 42s26 21.5 42 28.5s33 10.5 51 10.5h36c18 0 35 -3.5 51 -10.5s29.833 -16.5 41.5 -28.5s21 -26 28 -42s10.5 -33 10.5 -51v-58c0 -5.33301 -1.16699 -11.5 -3.5 -18.5s-6.16602 -14.5 -11.499 -22.5
s-12 -15.667 -20 -23s-17.333 -13.666 -28 -18.999c49.333 -1.33301 86.666 -12.666 111.999 -33.999s38 -51.333 38 -90v-139c0 -25.333 -4.83301 -49.166 -14.5 -71.499s-22.667 -41.833 -39 -58.5s-35.666 -29.834 -57.999 -39.501s-46.166 -14.5 -71.499 -14.5h-211
c-25.333 -0 -49.166 4.83301 -71.499 14.5s-41.833 22.834 -58.5 39.501s-29.834 36.167 -39.501 58.5s-14.5 46.166 -14.5 71.499v283h91v-290c0 -26 9 -48 27 -66s40 -27 66 -27h211c26 0 48 9 66 27s27 40 27 66v146c0 12 -2 21.667 -6 29s-9.16699 13 -15.5 17
s-13.833 6.5 -22.5 7.5s-18 1.5 -28 1.5h-134v-161h-89zM337.998 466.998h75.999c16.667 0 27.834 5.5 33.501 16.5s8.5 25.167 8.5 42.5v72c0 11.333 -3.66699 20.833 -11 28.5s-17 11.5 -29 11.5h-36c-12 0 -22 -3.83301 -30 -11.5s-12 -17.167 -12 -28.5v-131z" />
    <glyph glyph-name="u" unicode="u" horiz-adv-x="568" 
d="M304 83c34 0 60.6699 9 80.0029 27s29 40 29 66v404c0 16.667 -5.5 30.5 -16.5 41.5s-25.167 16.5 -42.5 16.5h-34c-15.333 0 -29 -5.33301 -41 -16s-18 -24.667 -18 -42v-137h-91v137c0 16.667 -5.5 30.5 -16.5 41.5s-24.833 16.5 -41.5 16.5h-80v82h80
c29.333 0 52.333 -7.5 69 -22.5s27 -34.833 31 -59.5h8c11.333 24.667 27 44.5 47 59.5s47 22.5 81 22.5c20.667 0 40.5 -4 59.5 -12s35.667 -18.667 50 -32s25.666 -29 33.999 -47s12.5 -37.333 12.5 -58v-387c0 -25.333 -5 -49.5 -15 -72.5s-23.833 -43.333 -41.5 -61
s-38.834 -31.834 -63.501 -42.501s-51.667 -16 -81 -16c-30 0 -57.333 5.33301 -82 16s-45.834 24.834 -63.501 42.501s-31.5 38 -41.5 61s-15 47.167 -15 72.5v97h91v-105c0 -26 9.66699 -48 29 -66s47 -27 83 -27z" />
    <glyph glyph-name="v" unicode="v" horiz-adv-x="480" 
d="M223 637c-24 0 -42.667 -7.99902 -56 -23.999s-20 -33 -20 -51v-56h-91v56c0 21.333 3.5 42 10.5 62s17.333 37.667 31 53s31 27.666 52 36.999s45.5 14 73.5 14h34c28 0 52.5 -4.66699 73.5 -14s38.333 -21.666 52 -36.999s24 -33 31 -53s10.5 -40.667 10.5 -62v-51
c0 -29.333 -8.66699 -54.5 -26 -75.5s-39 -35.167 -65 -42.5v-8c26 -6.66699 47.667 -19.834 65 -39.501s26 -44.5 26 -74.5v-79c0 -25.333 -4.83301 -50 -14.5 -74s-22.834 -45.333 -39.501 -64s-36.167 -33.667 -58.5 -45s-46.166 -17 -71.499 -17
s-49.166 5.66699 -71.499 17s-41.666 26.333 -57.999 45s-29.333 40 -39 64s-14.5 48.667 -14.5 74v89h90v-105c0 -16.667 2.66699 -30.834 8 -42.501s12.333 -21.334 21 -29.001s18.5 -13.167 29.5 -16.5s22.5 -5 34.5 -5c11.333 0 22.666 1.66699 33.999 5
s21.333 8.83301 30 16.5s15.667 17.334 21 29.001s8 25.834 8 42.501v111c0 18 -5.16699 32.333 -15.5 43s-24.5 16 -42.5 16h-61v91h62c17.333 0 31.166 5.5 41.499 16.5s15.5 24.5 15.5 40.5v68c0 18 -6.66699 35 -20 51s-32 24 -56 24h-34z" />
    <glyph glyph-name="w" unicode="w" horiz-adv-x="563" 
d="M157 448h131c26 0 50.333 -5 73 -15s42.5 -23.5 59.5 -40.5s30.5 -37 40.5 -60s15 -47.5 15 -73.5v-71c0 -26 -5 -50.333 -15 -73s-23.5 -42.5 -40.5 -59.5s-36.833 -30.5 -59.5 -40.5s-47 -15 -73 -15h-36c-26 0 -50.5 5 -73.5 15s-43 23.5 -60 40.5
s-30.333 36.833 -40 59.5s-14.5 47 -14.5 73v388c0 24.667 4.5 46.334 13.5 65.001s21 34.5 36 47.5s32.167 22.833 51.5 29.5s39.333 10 60 10c18 0 33.5 -2.5 46.5 -7.5s24.167 -11.833 33.5 -20.5s17 -18.334 23 -29.001s11 -22 15 -34h8c8 23.333 20 43.5 36 60.5
s39 25.5 69 25.5h75v-86h-75c-16.667 0 -30.667 -4.5 -42 -13.5s-17 -22.167 -17 -39.5v-57h-93v43c0 23.333 -7 40.333 -21 51s-30.667 16 -50 16s-36.833 -5.83301 -52.5 -17.5s-23.5 -28.167 -23.5 -49.5v-122zM157 354v-168c0 -26.667 9.16699 -49.167 27.5 -67.5
s40.833 -27.5 67.5 -27.5h36c26.667 0 49.167 9.16699 67.5 27.5s27.5 40.833 27.5 67.5v73c0 26.667 -9.16699 49.167 -27.5 67.5s-40.833 27.5 -67.5 27.5h-131z" />
    <glyph glyph-name="x" unicode="x" 
d="M431 184c0 -26 -4.83496 -50.5 -14.502 -73.5s-22.834 -43.333 -39.501 -61s-36.167 -31.667 -58.5 -42s-46.166 -15.5 -71.499 -15.5s-49.166 5.16699 -71.499 15.5s-41.666 24.333 -57.999 42s-29.333 38 -39 61s-14.5 47.5 -14.5 73.5v536h90v-214h93
c25.333 0 49.166 -4.83301 71.499 -14.5s41.833 -22.834 58.5 -39.501s29.834 -36.167 39.501 -58.5s14.5 -46.166 14.5 -71.499v-138zM153.998 415v-239c0 -26 9 -48 27 -66s40 -27 66 -27c26.667 0 48.834 9 66.501 27s26.5 40 26.5 66v146c0 26 -8.83301 48 -26.5 66
s-39.834 27 -66.501 27h-93z" />
    <glyph glyph-name="y" unicode="y" 
d="M332 341c-14.667 -8.66699 -29.502 -15.667 -44.502 -21s-30.167 -8 -45.5 -8c-25.333 0 -49.333 4.83301 -72 14.5s-42.5 22.667 -59.5 39s-30.333 35.666 -40 57.999s-14.5 46.5 -14.5 72.5v84c0 24 3.16699 49 9.5 75s15.166 47.667 26.499 65h93
c-5.33301 -10 -10.333 -21.167 -15 -33.5s-8.83398 -24.666 -12.501 -36.999s-6.5 -24.5 -8.5 -36.5s-3 -23 -3 -33v-84c0 -26 9 -48 27 -66s40 -27 66 -27c26.667 0 48.834 9 66.501 27s26.5 40 26.5 66v224h91v-536c0 -26 -4.83301 -50.5 -14.5 -73.5
s-22.834 -43.333 -39.501 -61s-36.167 -31.667 -58.5 -42s-46.166 -15.5 -71.499 -15.5s-49.166 5.16699 -71.499 15.5s-41.666 24.333 -57.999 42s-29.333 38 -39 61s-14.5 47.5 -14.5 73.5v45h90v-53c0 -26 9 -48 27 -66s40 -27 66 -27c26.667 0 48.834 9 66.501 27
s26.5 40 26.5 66v165z" />
    <glyph glyph-name="z" unicode="z" horiz-adv-x="721" 
d="M204 330c-20 0 -38.999 4.00293 -56.999 12.0029s-33.833 18.667 -47.5 32s-24.334 29.166 -32.001 47.499s-11.5 37.833 -11.5 58.5v100c0 24 4.83301 45.333 14.5 64s22.5 34.167 38.5 46.5s34 21.666 54 27.999s40.333 9.5 61 9.5s40.834 -3 60.501 -9
s37.167 -15.167 52.5 -27.5s27.666 -27.833 36.999 -46.5s14 -40.334 14 -65.001v-74h93c25.333 0 49.166 -4.83301 71.499 -14.5s41.833 -22.834 58.5 -39.501s29.834 -36.167 39.501 -58.5s14.5 -46.166 14.5 -71.499v-138c0 -26 -4.83301 -50.5 -14.5 -73.5
s-22.834 -43.333 -39.501 -61s-36.167 -31.667 -58.5 -42s-46.166 -15.5 -71.499 -15.5s-49.166 5.16699 -71.499 15.5s-41.833 24.333 -58.5 42s-29.834 38 -39.501 61s-14.5 47.5 -14.5 73.5v146h-93zM388.001 415.003l0.000976562 -239c0 -26 9 -48 27 -66s40 -27 66 -27
s48 9 66 27s27 40 27 66v146c0 12.667 -2.33301 24.5 -7 35.5s-11.334 20.833 -20.001 29.5s-18.667 15.5 -30 20.5s-23.333 7.5 -36 7.5h-93zM146.002 480.003c0 -17.333 5.83203 -31.5 17.499 -42.5s25.167 -16.5 40.5 -16.5h93v146c0 23.333 -7.83301 41 -23.5 53
s-33.167 18 -52.5 18s-36.666 -6 -51.999 -18s-23 -29.667 -23 -53v-87z" />
    <glyph glyph-name="braceleft" unicode="{" horiz-adv-x="360" 
d="M304 728v-81.999h-23c-23.333 0 -38.5 -4.5 -45.5 -13.5s-10.5 -28.167 -10.5 -57.5v-164c0 -45.333 -5.66699 -82 -17 -110s-27.666 -50.667 -48.999 -68c23.333 -17.333 40.166 -39.833 50.499 -67.5s15.5 -64.834 15.5 -111.501v-176c0 -29.333 3.5 -48.5 10.5 -57.5
s22.167 -13.5 45.5 -13.5h23v-82h-32c-22.667 0 -43.667 3.5 -63 10.5s-33.666 19.833 -42.999 38.5v-1c-6 13.333 -10.833 29 -14.5 47s-6.5 37.167 -8.5 57.5s-3.33301 41.166 -4 62.499s-1 42.333 -1 63c0 36 -0.833008 65.833 -2.5 89.5s-5.16699 42.5 -10.5 56.5
s-13.5 24 -24.5 30s-25.833 9.33301 -44.5 10v87c15.333 0.666992 28.166 3.33398 38.499 8.00098s18.5 12.5 24.5 23.5s10.333 25.333 13 43s4 39.834 4 66.501c0 52.667 0.5 98.667 1.5 138s5.5 71.666 13.5 96.999s21.333 44.333 40 57s45.667 19 81 19h32z" />
    <glyph glyph-name="bar" unicode="|" horiz-adv-x="188" 
d="M56 728h76v-938h-76v938z" />
    <glyph glyph-name="braceright" unicode="}" horiz-adv-x="360" 
d="M88 728c32.667 0 58 -5.49902 76 -16.499s31.167 -27.5 39.5 -49.5s13.5 -49.5 15.5 -82.5s3.33301 -71.833 4 -116.5c0 -36 0.833008 -65.833 2.5 -89.5s5.16699 -42.667 10.5 -57s13.5 -24.5 24.5 -30.5s25.5 -9.33301 43.5 -10v-87
c-15.333 -0.666992 -28.166 -3.33398 -38.499 -8.00098s-18.666 -12.5 -24.999 -23.5s-10.833 -25.333 -13.5 -43s-4 -39.834 -4 -66.501v-55c0 -20 -0.333008 -40.167 -1 -60.5s-2 -40.166 -4 -59.499s-4.83301 -37.5 -8.5 -54.5s-8.83398 -31.833 -15.501 -44.5
c-10.667 -20 -25.334 -33.167 -44.001 -39.5s-39.334 -9.5 -62.001 -9.5h-32v82h23c23.333 0 38.5 4.5 45.5 13.5s10.5 28.167 10.5 57.5v176c0 46.667 5.16699 84 15.5 112s27.5 50.667 51.5 68c-12 9.33301 -22.333 19.333 -31 30s-15.667 23 -21 37
s-9.16602 30 -11.499 48s-3.5 38.667 -3.5 62v164c0 29.333 -3.5 48.5 -10.5 57.5s-22.167 13.5 -45.5 13.5h-23v82h32z" />
    <glyph glyph-name="asciitilde" unicode="~" horiz-adv-x="537" 
d="M171 264c-8 0 -15.832 -1 -23.499 -3s-16 -5.5 -25 -10.5s-18.833 -11.833 -29.5 -20.5s-23 -20 -37 -34v110c16.667 17.333 35.5 30.666 56.5 39.999s42.5 14 64.5 14c16.667 0 33.834 -2.5 51.501 -7.5s38.167 -11.833 61.5 -20.5
c15.333 -5.33301 27.833 -10.666 37.5 -15.999s22.167 -8 37.5 -8c16 0 33.167 5.33301 51.5 16s39.833 28.667 64.5 54v-115c-36.667 -34.667 -76.334 -52 -119.001 -52c-14 0 -29.833 2.83301 -47.5 8.5s-35.334 11.667 -53.001 18l-50.5 18
c-16 5.66699 -29.333 8.5 -40 8.5z" />
    <glyph glyph-name="sterling" unicode="&#xa3;" horiz-adv-x="627" 
d="M390 395l0.00390625 -72.0029h-139c6.66699 -13.333 10 -27.666 10 -42.999c0 -28.667 -6.66699 -58.667 -20 -90s-35.666 -63.666 -66.999 -96.999c13.333 4 25.666 6.83301 36.999 8.5s22.333 2.5 33 2.5c27.333 0 57.666 -4 90.999 -12
c28.667 -6.66699 52.334 -11.667 71.001 -15s33 -5 43 -5c23.333 0 54.666 9 93.999 27l28 -80c-14.667 -6.66699 -27.834 -12 -39.501 -16s-21.834 -7 -30.501 -9c-16 -4 -32 -6 -48 -6c-15.333 0 -29.333 1.33301 -42 4c-7.33301 0.666992 -28.333 6.33398 -63 17.001
c-32.667 10.667 -54.334 17 -65.001 19c-7.33301 1.33301 -15 2.33301 -23 3s-15.667 1 -23 1c-23.333 0 -48.333 -4.16699 -75 -12.5s-50.667 -19.5 -72 -33.5l-34 85c31.333 17.333 58 42 80 74c21.333 31.333 32 70.333 32 117c0 10 -0.5 20 -1.5 30
s-3.16699 20.333 -6.5 31h-96v72h76c-11.333 38 -18.333 64.667 -21 80s-4 31.666 -4 48.999c0 68 25 121 75 159c40 30 88.667 45 146 45c60 0 108.667 -16.333 146 -49c38 -31.333 61.667 -76.666 71 -135.999l-88 -13c-5.33301 40 -20 70.667 -44 92
c-23.333 22.667 -52 34 -86 34c-36 0 -66.333 -11.667 -91 -35c-23.333 -22.667 -35 -50.667 -35 -84c0 -36.667 9 -84 27 -142h154z" />
    <glyph glyph-name="currency" unicode="&#xa4;" horiz-adv-x="504" 
d="M56 448l17.999 18c4.66699 4.66699 10.334 10.667 17.001 18l58 -59c17.333 11.333 34.5 20 51.5 26s34.5 9 52.5 9c34.667 0 68.667 -11.667 102 -35l28.5 29l30.5 31l17 -19l16 -19l-57 -56c22.667 -34.667 34 -69 34 -103s-11.333 -67.667 -34 -101l29 -29l29 -29
c-6 -7.33301 -11.833 -13.5 -17.5 -18.5s-11.167 -10.5 -16.5 -16.5l-59 59c-33.333 -23.333 -67.333 -35 -102 -35c-18 0 -35.5 3 -52.5 9s-34.167 14.667 -51.5 26l-58 -59l-35 35l58 57c-10.667 16.667 -18.834 33.5 -24.501 50.5s-8.5 34.167 -8.5 51.5
c0 18 2.83301 35.5 8.5 52.5s13.834 34.167 24.501 51.5zM130.999 288c0 -16 3.16699 -31.335 9.5 -46.002s15 -27.5 26 -38.5s23.833 -19.833 38.5 -26.5s30.334 -10 47.001 -10s32.334 3.16699 47.001 9.5s27.5 14.833 38.5 25.5s19.833 23.334 26.5 38.001
s10 30.667 10 48s-3.33301 33.5 -10 48.5s-15.5 28 -26.5 39s-23.833 19.667 -38.5 26s-30.334 9.5 -47.001 9.5s-32.334 -3.16699 -47.001 -9.5s-27.5 -15.166 -38.5 -26.499s-19.667 -24.5 -26 -39.5s-9.5 -30.833 -9.5 -47.5z" />
    <glyph glyph-name="yen" unicode="&#xa5;" horiz-adv-x="666" 
d="M290 159h-203v68h203v69h-203v73h167l-198 347h97l142 -252c8 -14.667 15 -28.167 21 -40.5s11.333 -23.833 16 -34.5c3.33301 8.66699 8.5 19.667 15.5 33l24.5 46l134 248h104l-198 -347h167v-73h-201v-69h201v-68h-201v-159h-88v159z" />
    <glyph glyph-name="brokenbar" unicode="&#xa6;" horiz-adv-x="158" 
d="M56 578h46v-278h-46v278zM56 134h46l-46 -336v336z" />
    <glyph glyph-name="section" unicode="&#xa7;" horiz-adv-x="582" 
d="M174 -21c9.33301 -43.333 24 -73.3359 44 -90.0029s47 -25 81 -25s60.167 8.5 78.5 25.5s27.5 36.833 27.5 59.5c0 10.667 -2.66699 21 -8 31s-14.833 21.167 -28.5 33.5s-32.334 26.5 -56.001 42.5s-54.167 35.333 -91.5 58l-61.5 40
c-17 11.333 -30.167 21.333 -39.5 30c-19.333 16.667 -34.833 36.334 -46.5 59.001s-17.5 46.334 -17.5 71.001c0 31.333 9.66699 59.666 29 84.999s46 43.333 80 54c-23.333 22 -39.666 42.333 -48.999 61s-14 38.667 -14 60c0 20.667 4.33301 40.334 13 59.001
s20.667 35 36 49s34 25.167 56 33.5s46.667 12.5 74 12.5c60.667 0 108 -14.5 142 -43.5s54.667 -70.833 62 -125.5l-92 -10c-6.66699 40 -18.334 67.833 -35.001 83.5s-40 23.5 -70 23.5c-14.667 0 -28.167 -2.16699 -40.5 -6.5s-22.833 -10.166 -31.5 -17.499
s-15.5 -15.666 -20.5 -24.999s-7.5 -19 -7.5 -29c0 -10.667 2.16699 -20.667 6.5 -30s12.5 -19.666 24.5 -30.999s28.833 -24.333 50.5 -39s50.167 -32.667 85.5 -54c26 -15.333 47.5 -28.833 64.5 -40.5s30.167 -21.167 39.5 -28.5c44.667 -38 67 -80.667 67 -128
c0 -15.333 -1.5 -29.333 -4.5 -42s-8.66699 -24.834 -17 -36.501s-19.666 -22.5 -33.999 -32.5s-32.833 -19.667 -55.5 -29c52 -39.333 78 -85 78 -137c0 -24.667 -5.16699 -46.834 -15.5 -66.501s-24.5 -36.5 -42.5 -50.5s-38.667 -24.667 -62 -32s-48 -11 -74 -11
c-62.667 0 -112 15.333 -148 46s-57.667 74 -65 130zM371 118.997c24.667 12.667 42.835 27.1689 54.502 43.502s17.5 32.166 17.5 47.499c0 10 -1.66699 19.667 -5 29s-9.83301 19.333 -19.5 30s-23.334 22.667 -41.001 36s-40.834 29 -69.501 47l-58 36.5
c-16.667 11 -30.667 21.167 -42 30.5c-26 -15.333 -44.667 -30.333 -56 -45s-17 -31.334 -17 -50.001c0 -10.667 1.5 -20.667 4.5 -30s8.83301 -19 17.5 -29s21.167 -20.833 37.5 -32.5s37.833 -25.5 64.5 -41.5l60.5 -37c19 -12 36.167 -23.667 51.5 -35z" />
    <glyph glyph-name="dieresis" unicode="&#xa8;" horiz-adv-x="337" 
d="M84 564c8.66699 0 16.168 -2.83105 22.501 -8.49805s9.5 -12.834 9.5 -21.501s-3 -15.834 -9 -21.501s-13 -8.5 -21 -8.5c-8.66699 0 -15.834 3 -21.501 9s-8.5 13.333 -8.5 22c0 8 2.83301 14.833 8.5 20.5s12.167 8.5 19.5 8.5zM249.001 564.002
c8.66699 0 16.168 -2.83105 22.501 -8.49805s9.5 -12.834 9.5 -21.501s-3 -15.834 -9 -21.501s-13 -8.5 -21 -8.5c-8.66699 0 -15.834 3 -21.501 9s-8.5 13.333 -8.5 22c0 8 2.83301 14.833 8.5 20.5s12.167 8.5 19.5 8.5z" />
    <glyph glyph-name="copyright" unicode="&#xa9;" horiz-adv-x="849" 
d="M425 728c61.333 0 121.667 -15.999 181 -47.999s105.333 -77.333 138 -136s49 -120.334 49 -185.001c0 -63.333 -16.333 -124.333 -49 -183c-32.667 -59.333 -78 -104.666 -136 -135.999c-57.333 -32.667 -118.333 -49 -183 -49s-125.667 16.333 -183 49
c-57.333 31.333 -103 76.666 -137 135.999c-32.667 60 -49 121 -49 183c0 64 16.667 125.667 50 185c32.667 58.667 78.667 104 138 136c58.667 32 119 48 181 48zM425.001 667.001c-52 0 -102.333 -13.333 -151 -40c-48 -25.333 -86.333 -63.333 -115 -114
c-28 -49.333 -42 -100.666 -42 -153.999c0 -52.667 13.667 -103.334 41 -152.001c26.667 -49.333 64.667 -87.333 114 -114c49.333 -27.333 100.333 -41 153 -41s103.667 13.667 153 41c48.667 26.667 86.667 64.667 114 114c26.667 47.333 40 98 40 152
c0 54.667 -13.667 106 -41 154c-28.667 50.667 -67 88.667 -115 114c-48.667 26.667 -99 40 -151 40zM603.001 282.001c-9.33301 -40.667 -30.001 -73.002 -62.001 -97.002c-32.667 -24.667 -71 -37 -115 -37c-57.333 0 -104 18.667 -140 56c-36 36.667 -54 88 -54 154
c-0.666992 32.667 3.83301 61.834 13.5 87.501s23.334 47.5 41.001 65.5s38.667 31.833 63 41.5s51.166 14.167 80.499 13.5c43.333 0 79.166 -10.167 107.499 -30.5s47.833 -48.5 58.5 -84.5l-58 -14c-10 24 -24.5 42.5 -43.5 55.5s-41.167 19.5 -66.5 19.5
c-38 0 -69 -13.333 -93 -40c-24 -27.333 -36 -65.666 -36 -114.999c0 -50 11.333 -87.667 34 -113s52.334 -38 89.001 -38c30 0 55.667 8.33301 77 25c22.667 17.333 37.334 40.333 44.001 69z" />
    <glyph glyph-name="ordfeminine" unicode="&#xaa;" horiz-adv-x="440" 
d="M301 417c-40.667 -35.333 -82.334 -52.998 -125.001 -52.998c-36.667 0 -66 10 -88 30c-21.333 20 -32 45.667 -32 77c0 47.333 23.667 78.666 71 93.999c5.33301 2 12 3.83301 20 5.5s17.333 3.5 28 5.5l72 10c11.333 2.66699 21 4.66699 29 6s14 2.66602 18 3.99902
c-1.33301 23.333 -3.66602 38.666 -6.99902 45.999c-4 8.66699 -12 15.334 -24 20.001c-11.333 6 -26.666 9 -45.999 9c-25.333 0 -44.333 -5.33301 -57 -16s-20.667 -25.667 -24 -45l-67 16c4 30 18.333 54.333 43 73c25.333 19.333 60.666 29 105.999 29
c53.333 0 91 -10 113 -30s33 -49.333 33 -88v-117v-30c0 -44.667 6.66699 -74.667 20 -90h-73c-3.33301 6.66699 -5.83301 13.5 -7.5 20.5s-2.5 14.833 -2.5 23.5zM293 539.002c-17.333 -4 -48.334 -10.002 -93.001 -18.002c-30 -4 -49.333 -10.333 -58 -19
c-8.66699 -8 -13 -18.333 -13 -31c0 -13.333 5.5 -24.666 16.5 -33.999s26.5 -14 46.5 -14c24.667 0 45.334 6.33301 62.001 19c17.333 12.667 29 28.334 35 47.001c2.66699 5.33301 4 22 4 50z" />
    <glyph glyph-name="guillemotleft" unicode="&#xab;" horiz-adv-x="531" 
d="M283 35h-71l-156 223l156 222h72l-127 -222zM475 35h-74l-153 223l153 222h74l-129 -222z" />
    <glyph glyph-name="logicalnot" unicode="&#xac;" horiz-adv-x="584" 
d="M445 207v214h-389v82h472v-296h-83z" />
    <glyph glyph-name="registered" unicode="&#xae;" horiz-adv-x="849" 
d="M425 728c61.333 0 121.667 -15.999 181 -47.999s105.333 -77.333 138 -136s49 -120.334 49 -185.001c0 -63.333 -16.333 -124.333 -49 -183c-32.667 -59.333 -78 -104.666 -136 -135.999c-57.333 -32.667 -118.333 -49 -183 -49s-125.667 16.333 -183 49
c-57.333 31.333 -103 76.666 -137 135.999c-32.667 60 -49 121 -49 183c0 64 16.667 125.667 50 185c32.667 58.667 78.667 104 138 136c58.667 32 119 48 181 48zM425.001 667.001c-52 0 -102.333 -13.333 -151 -40c-48 -25.333 -86.333 -63.333 -115 -114
c-28 -49.333 -42 -100.666 -42 -153.999c0 -52.667 13.667 -103.334 41 -152.001c26.667 -49.333 64.667 -87.333 114 -114c49.333 -27.333 100.333 -41 153 -41s103.667 13.667 153 41c48.667 26.667 86.667 64.667 114 114c26.667 47.333 40 98 40 152
c0 54.667 -13.667 106 -41 154c-28.667 50.667 -67 88.667 -115 114c-48.667 26.667 -99 40 -151 40zM263.001 552.001h137.001c45.333 0 79 -3.66699 101 -11c20 -6.66699 36.667 -19.334 50 -38.001c12 -18 18 -37.333 18 -58c0 -29.333 -10.333 -54.666 -31 -75.999
c-22 -22 -49.333 -34 -82 -36c13.333 -6 24.666 -13 33.999 -21c15.333 -16 34.666 -42.333 57.999 -79l49 -77h-79l-35 62c-27.333 48.667 -49.666 79.667 -66.999 93c-10.667 8.66699 -27.667 13 -51 13h-38v-168h-64v396zM405.002 379.001c38.667 0 64 5.66797 76 17.001
c13.333 11.333 20 25.666 20 42.999c0 25.333 -12.333 43 -37 53c-12.667 4.66699 -34 7 -64 7h-73v-120h78z" />
    <glyph glyph-name="plusminus" unicode="&#xb1;" horiz-adv-x="624" 
d="M275 366h-219v71h219v219h72v-219h221v-71h-221v-223h-72v223zM56 0v72h512v-72h-512z" />
    <glyph glyph-name="paragraph" unicode="&#xb6;" horiz-adv-x="564" 
d="M228 -173l-0.000976562 445.002c-52.667 3.33301 -94.5 20 -125.5 50s-46.5 69 -46.5 117c0 22 3.16699 43.167 9.5 63.5s16.833 38.166 31.5 53.499s34.334 27.666 59.001 36.999s55 14 91 14h261v-53h-62v-727h-52v727h-116v-727h-50z" />
    <glyph glyph-name="periodcentered" unicode="&#xb7;" horiz-adv-x="218" 
d="M162 295c0 -15.333 -5.16699 -28.167 -15.5 -38.5s-22.833 -15.5 -37.5 -15.5c-15.333 0 -28 5.33301 -38 16s-15 23.667 -15 39c0 14.667 5 27 15 37s22.667 15 38 15c14.667 0 27.167 -5.16699 37.5 -15.5s15.5 -22.833 15.5 -37.5z" />
    <glyph glyph-name="tilde" unicode="&#x2dc;" horiz-adv-x="370" 
d="M314 557c-1.33301 -30 -8.49805 -54.335 -21.498 -73.002s-30.167 -28 -51.5 -28c-8.66699 0 -18.834 1.66699 -30.501 5s-23 6.83301 -34 10.5s-21 7.16699 -30 10.5s-15.5 5 -19.5 5c-2.66699 0 -5.83398 -3 -9.50098 -9s-6.5 -13.333 -8.5 -22h-53
c2.66699 22 6.5 40.333 11.5 55s10.667 26.334 17 35.001s13.5 14.667 21.5 18s16.667 5 26 5c4.66699 0 12.334 -1.66699 23.001 -5l33 -10.5l32.5 -10.5c10.333 -3.33301 18.166 -5 23.499 -5c4.66699 0 8.5 2.33301 11.5 7s5.5 13.334 7.5 26.001h36z" />
    <glyph glyph-name="uni10D0" unicode="&#x10d0;" horiz-adv-x="479" 
d="M146 176c0 -26 8.99316 -47.9971 26.9932 -65.9971s40 -27 66 -27c26.667 0 48.834 9 66.501 27s26.5 40 26.5 66v217c0 13.333 -0.166992 25.166 -0.5 35.499s-1.66602 20 -3.99902 29s-6.16602 17.833 -11.499 26.5s-13 18 -23 28l-102 84h1
c-20 17.333 -33.167 31.666 -39.5 42.999s-9.5 23.666 -9.5 36.999v44h91v-28c0.666992 -7.33301 5.16699 -15.5 13.5 -24.5s18.333 -18.333 30 -28l37 -29.5c13 -10 24.167 -19 33.5 -27l38.5 -35.5c9.66699 -9 17.334 -19 23.001 -30s9.33398 -25 11.001 -42
s2.5 -41.5 2.5 -73.5v-218c0 -26 -4.83301 -50.5 -14.5 -73.5s-22.834 -43.333 -39.501 -61s-36.167 -31.667 -58.5 -42s-46.166 -15.5 -71.499 -15.5s-49.166 5.16699 -71.499 15.5s-41.666 24.333 -57.999 42s-29.333 38 -39 61s-14.5 47.5 -14.5 73.5v173h90v-181z" />
    <glyph glyph-name="uni10D1" unicode="&#x10d1;" horiz-adv-x="514" 
d="M316 464c29.333 -4.66699 53.168 -13.5 71.501 -26.5s32.833 -28 43.5 -45s17.834 -34.833 21.501 -53.5s5.5 -36 5.5 -52v-103c0 -26 -4.83301 -50.5 -14.5 -73.5s-23.334 -43.333 -41.001 -61s-38.834 -31.667 -63.501 -42s-52 -15.5 -82 -15.5
c-29.333 0 -56.166 5.16699 -80.499 15.5s-45.333 24.333 -63 42s-31.5 38 -41.5 61s-15 47.5 -15 73.5v103c0 18.667 2.83301 37.834 8.5 57.501s15 38 28 55s30.167 31.667 51.5 44s48 20.166 80 23.499v140h-91c-28.667 0 -48.834 8 -60.501 24s-17.5 39.333 -17.5 70v19
h92v-22h168v-234zM369.002 287c0 16 -3.16895 30 -9.50195 42s-14.833 21.833 -25.5 29.5s-22.5 13.5 -35.5 17.5s-26.5 6 -40.5 6s-27.5 -2 -40.5 -6s-24.667 -9.83301 -35 -17.5s-18.666 -17.5 -24.999 -29.5s-9.5 -26 -9.5 -42v-111c0 -26 8.83301 -48 26.5 -66
s39.834 -27 66.501 -27h35c26 0 48 9 66 27s27 40 27 66v111z" />
    <glyph glyph-name="uni10D2" unicode="&#x10d2;" horiz-adv-x="532" 
d="M305 451v147c0 11.333 -4 20.833 -12 28.5s-18 11.5 -30 11.5h-50c-11.333 0 -21 -3.83301 -29 -11.5s-12 -17.167 -12 -28.5v-60h-91v60c0 18 3.5 34.5 10.5 49.5s16.5 27.833 28.5 38.5s26 19 42 25s33 9 51 9h50c18 0 35 -3 51 -9s30 -14.333 42 -25
s21.333 -23.5 28 -38.5s10 -31.5 10 -49.5v-178c25.333 -17.333 45.333 -39.333 60 -66s22 -55.667 22 -87v-83c0 -26 -5 -50.5 -15 -73.5s-24 -43.333 -42 -61s-39.833 -31.667 -65.5 -42s-53.834 -15.5 -84.501 -15.5c-32.667 0 -62.167 5.16699 -88.5 15.5
s-48.666 24.333 -66.999 42s-32.5 38 -42.5 61s-15 47.5 -15 73.5v83c0 25.333 4.83301 49.166 14.5 71.499s22.834 41.833 39.501 58.5s36.167 29.834 58.5 39.501s46.166 14.5 71.499 14.5h65zM147 176c0 -26 8.66699 -48.002 26 -66.002s39 -27 65 -27h50
c14 0 26.833 2.33301 38.5 7s21.834 11.334 30.501 20.001s15.5 18.5 20.5 29.5s7.5 23.167 7.5 36.5v93c0 12.667 -2.5 24.667 -7.5 36s-11.833 21.333 -20.5 30s-18.834 15.334 -30.501 20.001s-24.5 7 -38.5 7h-50c-26 0 -47.667 -9 -65 -27s-26 -40 -26 -66v-93z" />
    <glyph glyph-name="uni10D3" unicode="&#x10d3;" 
d="M431 465c0 -25.333 -4.83301 -49.166 -14.5 -71.499s-22.834 -41.833 -39.501 -58.5s-36.167 -29.834 -58.5 -39.501s-46.166 -14.5 -71.499 -14.5h-93v-97c0 -26 9 -48 27 -66s40 -27 66 -27h114v-91h-114c-25.333 -0 -49.166 4.83301 -71.499 14.5
s-41.666 22.834 -57.999 39.501s-29.333 36.167 -39 58.5s-14.5 46.166 -14.5 71.499v361c0 25.333 4.83301 49.166 14.5 71.499s22.667 41.666 39 57.999s35.666 29.333 57.999 39s46.166 14.5 71.499 14.5s49.166 -4.83301 71.499 -14.5s41.833 -22.667 58.5 -39
s29.834 -35.666 39.501 -57.999s14.5 -46.166 14.5 -71.499v-80zM154 372h93c26.667 0 48.834 9 66.501 27s26.5 40 26.5 66v81c0 26.667 -8.83301 48.667 -26.5 66s-39.834 26 -66.501 26c-26 0 -48 -8.66699 -66 -26s-27 -39.333 -27 -66v-174z" />
    <glyph glyph-name="uni10D4" unicode="&#x10d4;" 
d="M56 357h90v-181c0 -26 9 -48 27 -66s40 -27 66 -27c26.667 0 48.834 9 66.501 27s26.5 40 26.5 66v369c0 26.667 -8.83301 48.667 -26.5 66s-39.834 26 -66.501 26c-26 0 -48 -8.66699 -66 -26s-27 -39.333 -27 -66v-39h-90v39c0 25.333 4.83301 49.166 14.5 71.499
s22.667 41.666 39 57.999s35.666 29.333 57.999 39s46.166 14.5 71.499 14.5s49.166 -4.83301 71.499 -14.5s41.833 -22.667 58.5 -39s29.834 -35.666 39.501 -57.999s14.5 -46.166 14.5 -71.499v-361c0 -26 -4.83301 -50.5 -14.5 -73.5s-22.834 -43.333 -39.501 -61
s-36.167 -31.667 -58.5 -42s-46.166 -15.5 -71.499 -15.5s-49.166 5.16699 -71.499 15.5s-41.666 24.333 -57.999 42s-29.333 38 -39 61s-14.5 47.5 -14.5 73.5v173z" />
    <glyph glyph-name="uni10D5" unicode="&#x10d5;" horiz-adv-x="480" 
d="M223 637c-24 0 -42.667 -7.99902 -56 -23.999s-20 -33 -20 -51v-56h-91v56c0 21.333 3.5 42 10.5 62s17.333 37.667 31 53s31 27.666 52 36.999s45.5 14 73.5 14h34c28 0 52.5 -4.66699 73.5 -14s38.333 -21.666 52 -36.999s24 -33 31 -53s10.5 -40.667 10.5 -62v-51
c0 -29.333 -8.66699 -54.5 -26 -75.5s-39 -35.167 -65 -42.5v-8c26 -6.66699 47.667 -19.834 65 -39.501s26 -44.5 26 -74.5v-79c0 -25.333 -4.83301 -50 -14.5 -74s-22.834 -45.333 -39.501 -64s-36.167 -33.667 -58.5 -45s-46.166 -17 -71.499 -17
s-49.166 5.66699 -71.499 17s-41.666 26.333 -57.999 45s-29.333 40 -39 64s-14.5 48.667 -14.5 74v89h90v-105c0 -16.667 2.66699 -30.834 8 -42.501s12.333 -21.334 21 -29.001s18.5 -13.167 29.5 -16.5s22.5 -5 34.5 -5c11.333 0 22.666 1.66699 33.999 5
s21.333 8.83301 30 16.5s15.667 17.334 21 29.001s8 25.834 8 42.501v111c0 18 -5.16699 32.333 -15.5 43s-24.5 16 -42.5 16h-61v91h62c17.333 0 31.166 5.5 41.499 16.5s15.5 24.5 15.5 40.5v68c0 18 -6.66699 35 -20 51s-32 24 -56 24h-34z" />
    <glyph glyph-name="uni10D6" unicode="&#x10d6;" horiz-adv-x="721" 
d="M204 330c-20 0 -38.999 4.00293 -56.999 12.0029s-33.833 18.667 -47.5 32s-24.334 29.166 -32.001 47.499s-11.5 37.833 -11.5 58.5v100c0 24 4.83301 45.333 14.5 64s22.5 34.167 38.5 46.5s34 21.666 54 27.999s40.333 9.5 61 9.5s40.834 -3 60.501 -9
s37.167 -15.167 52.5 -27.5s27.666 -27.833 36.999 -46.5s14 -40.334 14 -65.001v-74h93c25.333 0 49.166 -4.83301 71.499 -14.5s41.833 -22.834 58.5 -39.501s29.834 -36.167 39.501 -58.5s14.5 -46.166 14.5 -71.499v-138c0 -26 -4.83301 -50.5 -14.5 -73.5
s-22.834 -43.333 -39.501 -61s-36.167 -31.667 -58.5 -42s-46.166 -15.5 -71.499 -15.5s-49.166 5.16699 -71.499 15.5s-41.833 24.333 -58.5 42s-29.834 38 -39.501 61s-14.5 47.5 -14.5 73.5v146h-93zM388.001 415.003l0.000976562 -239c0 -26 9 -48 27 -66s40 -27 66 -27
s48 9 66 27s27 40 27 66v146c0 12.667 -2.33301 24.5 -7 35.5s-11.334 20.833 -20.001 29.5s-18.667 15.5 -30 20.5s-23.333 7.5 -36 7.5h-93zM146.002 480.003c0 -17.333 5.83203 -31.5 17.499 -42.5s25.167 -16.5 40.5 -16.5h93v146c0 23.333 -7.83301 41 -23.5 53
s-33.167 18 -52.5 18s-36.666 -6 -51.999 -18s-23 -29.667 -23 -53v-87z" />
    <glyph glyph-name="uni10D7" unicode="&#x10d7;" horiz-adv-x="789" 
d="M630 542c0 27.333 -9.00098 50 -27.001 68s-40.667 27 -68 27s-50 -9 -68 -27s-27 -40.667 -27 -68l1 -354c0 -26 -5 -50.833 -15 -74.5s-23.5 -44.5 -40.5 -62.5s-37 -32.333 -60 -43s-47.5 -16 -73.5 -16s-50.5 5.33301 -73.5 16s-43 25 -60 43
s-30.333 38.833 -40 62.5s-14.5 48.5 -14.5 74.5v355c0 26 4.83301 50.333 14.5 73s23 42.334 40 59.001s37 29.667 60 39s47.5 14 73.5 14c18 0 34.833 -2.83301 50.5 -8.5s29.834 -13 42.501 -22s23 -19.5 31 -31.5s13.333 -24.333 16 -37h9c4.66699 12.667 11 25 19 37
s17.833 22.5 29.5 31.5s24.667 16.333 39 22s30.166 8.5 47.499 8.5c26 0 50.5 -4.66699 73.5 -14s43 -22.333 60 -39s30.5 -36.334 40.5 -59.001s15 -47 15 -73v-368c0 -22 -4.16699 -43.167 -12.5 -63.5s-19.666 -38.5 -33.999 -54.5s-31.5 -29.667 -51.5 -41
s-41.333 -19.333 -64 -24v95c19.333 7.33301 35.5 19 48.5 35s19.5 33.667 19.5 53zM346.999 542c0 27.333 -9.16699 50 -27.5 68s-41.166 27 -68.499 27c-26.667 0 -49.167 -9 -67.5 -27s-27.5 -40.667 -27.5 -68l1 -366c0 -26.667 9.16699 -48.834 27.5 -66.501
s40.833 -26.5 67.5 -26.5c27.333 0 50.166 8.83301 68.499 26.5s27.5 39.834 27.5 66.501z" />
    <glyph glyph-name="uni10D8" unicode="&#x10d8;" horiz-adv-x="495" 
d="M431 0h-90.9971v550c0 26.667 -8.83301 47.834 -26.5 63.501s-39.834 23.5 -66.501 23.5c-26 0 -48 -7.83301 -66 -23.5s-27 -36.834 -27 -63.501v-550h-90v548c0 25.333 4.83301 49 14.5 71s22.667 41 39 57s35.666 28.667 57.999 38s46.166 14 71.499 14
s49.166 -4.66699 71.499 -14s41.833 -22 58.5 -38s29.834 -35 39.501 -57s14.5 -45.667 14.5 -71v-548z" />
    <glyph glyph-name="uni10D9" unicode="&#x10d9;" horiz-adv-x="478" 
d="M267 506c17.333 0 31.166 5.50098 41.499 16.501s15.5 24.5 15.5 40.5v157h91v-140c0 -29.333 -8.66699 -54.5 -26 -75.5s-39 -35.167 -65 -42.5v-8c26 -6.66699 47.667 -19.834 65 -39.501s26 -44.5 26 -74.5v-148c0 -25.333 -4.83301 -50 -14.5 -74
s-22.834 -45.333 -39.501 -64s-36.167 -33.667 -58.5 -45s-46.166 -17 -71.499 -17s-49.166 5.66699 -71.499 17s-41.666 26.333 -57.999 45s-29.333 40 -39 64s-14.5 48.667 -14.5 74v89h90v-105c0 -16.667 2.66699 -30.834 8 -42.501s12.333 -21.334 21 -29.001
s18.5 -13.167 29.5 -16.5s22.5 -5 34.5 -5c11.333 0 22.666 1.66699 33.999 5s21.333 8.83301 30 16.5s15.667 17.334 21 29.001s8 25.834 8 42.501v180c0 18 -5.16699 32.333 -15.5 43s-24.5 16 -42.5 16h-107v91h108v0z" />
    <glyph glyph-name="uni10DA" unicode="&#x10da;" 
d="M247 0c-25.333 0 -49.1641 4.83301 -71.4971 14.5s-41.666 22.834 -57.999 39.501s-29.333 36.167 -39 58.5s-14.5 46.166 -14.5 71.499v360c0 25.333 4.83301 49.166 14.5 71.499s22.667 41.833 39 58.5s35.666 29.834 57.999 39.501s46.166 14.5 71.499 14.5
s49.166 -4.83301 71.499 -14.5s41.833 -22.834 58.5 -39.501s29.834 -36.167 39.501 -58.5s14.5 -46.166 14.5 -71.499v-161c0 -24.667 -3.33301 -48 -10 -70s-16.334 -41 -29.001 -57h-92c11.333 17.333 20.833 37.833 28.5 61.5s11.5 45.5 11.5 65.5v162
c0 26.667 -8.83301 48.667 -26.5 66s-39.834 26 -66.501 26c-26 0 -48 -8.66699 -66 -26s-27 -39.333 -27 -66v-361c0 -26 9 -48 27 -66s40 -27 66 -27h114v-91h-114v0z" />
    <glyph glyph-name="uni10DB" unicode="&#x10db;" 
d="M56 561c0 25.333 4.83594 48.335 14.5029 69.002s22.667 38.167 39 52.5s35.666 25.5 57.999 33.5s46.166 12 71.499 12s49.166 -4 71.499 -12s41.833 -19.167 58.5 -33.5s29.834 -31.833 39.501 -52.5s14.5 -43.667 14.5 -69v-377c0 -26 -4.83301 -50.5 -14.5 -73.5
s-22.834 -43.333 -39.501 -61s-36.167 -31.667 -58.5 -42s-46.166 -15.5 -71.499 -15.5s-49.166 5.16699 -71.499 15.5s-41.666 24.333 -57.999 42s-29.333 38 -39 61s-14.5 47.5 -14.5 73.5v100c0 25.333 4.83301 49.166 14.5 71.499s22.667 41.666 39 57.999
s35.666 29.333 57.999 39s46.166 14.5 71.499 14.5h93v95c0 26.667 -8.83301 46 -26.5 58s-39.834 18 -66.501 18c-26 0 -48 -6 -66 -18s-27 -31.333 -27 -58v-27h-90v26zM239.003 83.002c26.667 0 48.833 9 66.5 27s26.5 40 26.5 66v202h-93c-26 0 -48 -9.16699 -66 -27.5
s-27 -40.5 -27 -66.5v-108c0 -26 9 -48 27 -66s40 -27 66 -27z" />
    <glyph glyph-name="uni10DC" unicode="&#x10dc;" 
d="M431 184c0 -26 -4.83301 -50.498 -14.5 -73.498s-22.834 -43.333 -39.501 -61s-36.167 -31.667 -58.5 -42s-46.166 -15.5 -71.499 -15.5s-49.166 5.16699 -71.499 15.5s-41.666 24.333 -57.999 42s-29.333 38 -39 61s-14.5 47.5 -14.5 73.5v364
c0 25.333 4.83301 48.666 14.5 69.999s22.667 39.5 39 54.5s35.666 26.667 57.999 35s46.166 12.5 71.499 12.5h146v-82h-146c-26 0 -48 -8.33301 -66 -25s-27 -38.334 -27 -65.001v-42h93c25.333 0 49.166 -4.83301 71.499 -14.5s41.833 -22.834 58.5 -39.501
s29.834 -36.167 39.501 -58.5s14.5 -46.166 14.5 -71.499v-138zM154 415.002v-239c0 -26 9 -48 27 -66s40 -27 66 -27c26.667 0 48.834 9 66.501 27s26.5 40 26.5 66v146c0 26 -8.83301 48 -26.5 66s-39.834 27 -66.501 27h-93z" />
    <glyph glyph-name="uni10DD" unicode="&#x10dd;" horiz-adv-x="771" 
d="M617 544c0 26.667 -8.8291 48.834 -26.4961 66.501s-39.834 26.5 -66.501 26.5s-49 -8.83301 -67 -26.5s-27 -39.834 -27 -66.501v-263h-90v263c0 26.667 -8.83301 48.834 -26.5 66.501s-39.834 26.5 -66.501 26.5c-26 0 -48 -8.83301 -66 -26.5s-27 -39.834 -27 -66.501
v-360c0 -12 2.66699 -23.833 8 -35.5s12.833 -22.167 22.5 -31.5s20.834 -17 33.501 -23s26 -9.66699 40 -11v-91c-27.333 1.33301 -52.666 7.5 -75.999 18.5s-43.833 25.167 -61.5 42.5s-31.5 37.333 -41.5 60s-15 46.334 -15 71.001v361
c0 25.333 4.83301 49.166 14.5 71.499s22.667 41.666 39 57.999s35.666 29.333 57.999 39s46.166 14.5 71.499 14.5c16.667 0 32.5 -2.66699 47.5 -8s28.5 -12.5 40.5 -21.5s22 -19.5 30 -31.5s13.667 -24.667 17 -38h8c9.33301 26.667 25.333 49.834 48 69.501
s51.334 29.5 86.001 29.5c25.333 0 49.166 -4.83301 71.499 -14.5s41.666 -22.667 57.999 -39s29.333 -35.666 39 -57.999s14.5 -46.166 14.5 -71.499v-361c0 -24.667 -5 -48.334 -15 -71.001s-23.833 -42.834 -41.5 -60.501s-38.334 -32 -62.001 -43
s-48.834 -16.833 -75.501 -17.5v91c14 1.33301 27.333 5 40 11s23.834 13.667 33.501 23s17.167 19.833 22.5 31.5s8 23.5 8 35.5v360z" />
    <glyph glyph-name="uni10DE" unicode="&#x10de;" 
d="M189 607c-14 0 -27.835 1.82617 -41.502 5.49316s-26 9.5 -37 17.5s-19.833 18.333 -26.5 31s-10 28.334 -10 47.001v12h91v-2c0 -13.333 9.33301 -20 28 -20h80c22.667 0 43.167 -3.83301 61.5 -11.5s34 -18.167 47 -31.5s23.167 -29.166 30.5 -47.499
s11 -38.166 11 -59.499v-53c0 -19.333 -5.5 -38.166 -16.5 -56.499s-24.167 -34.166 -39.5 -47.499c16.667 -13.333 30.167 -29.666 40.5 -48.999s15.5 -37.666 15.5 -54.999v-103c0 -26 -4.83301 -50.5 -14.5 -73.5s-22.667 -43.333 -39 -61s-35.666 -31.667 -57.999 -42
s-46.166 -15.5 -71.499 -15.5s-49.166 5.16699 -71.499 15.5s-41.833 24.333 -58.5 42s-29.834 38 -39.501 61s-14.5 47.5 -14.5 73.5v96h90v-104c0 -26 9 -48 27 -66s40 -27 66 -27c26.667 0 48.834 9 66.501 27s26.5 40 26.5 66v111c0 18 -5.16699 32.333 -15.5 43
s-24.5 16 -42.5 16h-51v91h52c17.333 0 31.166 5.5 41.499 16.5s15.5 24.5 15.5 40.5v54c0 17.333 -4.5 31.5 -13.5 42.5s-24.167 16.5 -45.5 16.5h-84v0z" />
    <glyph glyph-name="uni10DF" unicode="&#x10df;" horiz-adv-x="639" 
d="M56 638l94.001 -0.00195312v-242c0 -16.667 5.66699 -30.834 17 -42.501s25.666 -17.5 42.999 -17.5c16.667 0 30.667 5.83301 42 17.5s17 25.834 17 42.501v172c0 22 5 42.167 15 60.5s23.5 34.333 40.5 48s36.833 24.334 59.5 32.001s47 11.5 73 11.5h118v-536
c0 -26 -5 -50.333 -15 -73s-23.5 -42.167 -40.5 -58.5s-36.833 -29.166 -59.5 -38.499s-47 -14 -73 -14h-225v83h225c26.667 0 49.167 9.16699 67.5 27.5s27.5 40.833 27.5 67.5v460h-25c-26.667 0 -49.167 -5.66699 -67.5 -17s-27.5 -28.333 -27.5 -51v-174
c0 -21.333 -4 -41.166 -12 -59.499s-19 -34.5 -33 -48.5s-30.167 -25 -48.5 -33s-37.833 -12 -58.5 -12c-21.333 0 -41.333 4 -60 12s-35 19 -49 33s-25 30.167 -33 48.5s-12 38.166 -12 59.499v242z" />
    <glyph glyph-name="uni10E0" unicode="&#x10e0;" horiz-adv-x="763" 
d="M64 545c0 25.333 4.83887 48.667 14.5059 70s22.667 39.833 39 55.5s35.666 27.834 57.999 36.501s46.166 13 71.499 13h289v-83h-289c-26 0 -48 -8.66699 -66 -26s-27 -39.333 -27 -66v-74c15.333 10 30.333 18.333 45 25s30.667 10 48 10c34 0 61 -5.83301 81 -17.5
s39 -26.834 57 -45.501c19.333 20 40.666 35.5 63.999 46.5s48.333 16.5 75 16.5c25.333 0 49.166 -4.83301 71.499 -14.5s41.666 -22.834 57.999 -39.501s29.333 -36.167 39 -58.5s14.5 -46.166 14.5 -71.499v-146c0 -24.667 -5 -47.834 -15 -69.501
s-23.833 -40.834 -41.5 -57.501s-38.334 -30.167 -62.001 -40.5s-48.834 -15.833 -75.501 -16.5v91c14 1.33301 27.333 4.66602 40 9.99902s23.834 12.166 33.501 20.499s17.167 17.833 22.5 28.5s8 22 8 34v146c0 26 -8.83301 48 -26.5 66s-39.834 27 -66.501 27
s-49 -9 -67 -27s-27 -40 -27 -66v-149h-90v149c0 26 -8.83301 48 -26.5 66s-39.834 27 -66.501 27c-26 0 -48 -9 -66 -27s-27 -40 -27 -66v-146c0 -12 2.66699 -23.333 8 -34s12.833 -20.167 22.5 -28.5s20.834 -15.166 33.501 -20.499s26 -8.66602 40 -9.99902v-91
c-27.333 1.33301 -52.666 7 -75.999 17s-43.833 23.333 -61.5 40s-31.5 35.834 -41.5 57.501s-15 44.834 -15 69.501v369z" />
    <glyph glyph-name="uni10E1" unicode="&#x10e1;" 
d="M431 184c0 -26 -4.83594 -50.501 -14.5029 -73.501s-22.834 -43.333 -39.501 -61s-36.167 -31.667 -58.5 -42s-46.166 -15.5 -71.499 -15.5s-49.166 5.16699 -71.499 15.5s-41.666 24.333 -57.999 42s-29.333 38 -39 61s-14.5 47.5 -14.5 73.5v536h90v-544
c0 -26 9 -48 27 -66s40 -27 66 -27c26.667 0 48.834 9 66.501 27s26.5 40 26.5 66v164c0 20 -3.83301 41.833 -11.5 65.5s-17.167 44.167 -28.5 61.5h92l12 -25c4.66699 -10 9 -20.667 13 -32s7.33301 -23.166 10 -35.499s4 -23.833 4 -34.5v-156z" />
    <glyph glyph-name="uni10E2" unicode="&#x10e2;" horiz-adv-x="690" 
d="M249 217l-0.00195312 370.998c0 18 3.33301 35 10 51s16 30 28 42s26 21.5 42 28.5s33 10.5 51 10.5h36c18 0 35 -3.5 51 -10.5s29.833 -16.5 41.5 -28.5s21 -26 28 -42s10.5 -33 10.5 -51v-58c0 -5.33301 -1.16699 -11.5 -3.5 -18.5s-6.16602 -14.5 -11.499 -22.5
s-12 -15.667 -20 -23s-17.333 -13.666 -28 -18.999c49.333 -1.33301 86.666 -12.666 111.999 -33.999s38 -51.333 38 -90v-139c0 -25.333 -4.83301 -49.166 -14.5 -71.499s-22.667 -41.833 -39 -58.5s-35.666 -29.834 -57.999 -39.501s-46.166 -14.5 -71.499 -14.5h-211
c-25.333 -0 -49.166 4.83301 -71.499 14.5s-41.833 22.834 -58.5 39.501s-29.834 36.167 -39.501 58.5s-14.5 46.166 -14.5 71.499v283h91v-290c0 -26 9 -48 27 -66s40 -27 66 -27h211c26 0 48 9 66 27s27 40 27 66v146c0 12 -2 21.667 -6 29s-9.16699 13 -15.5 17
s-13.833 6.5 -22.5 7.5s-18 1.5 -28 1.5h-134v-161h-89zM337.998 466.998h75.999c16.667 0 27.834 5.5 33.501 16.5s8.5 25.167 8.5 42.5v72c0 11.333 -3.66699 20.833 -11 28.5s-17 11.5 -29 11.5h-36c-12 0 -22 -3.83301 -30 -11.5s-12 -17.167 -12 -28.5v-131z" />
    <glyph glyph-name="uni10E3" unicode="&#x10e3;" horiz-adv-x="568" 
d="M304 83c34 0 60.6699 9 80.0029 27s29 40 29 66v404c0 16.667 -5.5 30.5 -16.5 41.5s-25.167 16.5 -42.5 16.5h-34c-15.333 0 -29 -5.33301 -41 -16s-18 -24.667 -18 -42v-137h-91v137c0 16.667 -5.5 30.5 -16.5 41.5s-24.833 16.5 -41.5 16.5h-80v82h80
c29.333 0 52.333 -7.5 69 -22.5s27 -34.833 31 -59.5h8c11.333 24.667 27 44.5 47 59.5s47 22.5 81 22.5c20.667 0 40.5 -4 59.5 -12s35.667 -18.667 50 -32s25.666 -29 33.999 -47s12.5 -37.333 12.5 -58v-387c0 -25.333 -5 -49.5 -15 -72.5s-23.833 -43.333 -41.5 -61
s-38.834 -31.834 -63.501 -42.501s-51.667 -16 -81 -16c-30 0 -57.333 5.33301 -82 16s-45.834 24.834 -63.501 42.501s-31.5 38 -41.5 61s-15 47.167 -15 72.5v97h91v-105c0 -26 9.66699 -48 29 -66s47 -27 83 -27z" />
    <glyph glyph-name="uni10E4" unicode="&#x10e4;" horiz-adv-x="755" 
d="M516 91c26.667 0 48.8291 8.99902 66.4961 26.999s26.5 40 26.5 66v52c0 25.333 -5.33301 44.166 -16 56.499s-24.667 18.5 -42 18.5h-48v91h48c17.333 0 31.333 6.33301 42 19s16 31.667 16 57v67c0 26.667 -8.83301 48.834 -26.5 66.501s-39.834 26.5 -66.501 26.5
s-49 -8.83301 -67 -26.5s-27 -39.834 -27 -66.501v-84c0 -25.333 -4.83301 -49.166 -14.5 -71.499s-22.667 -41.833 -39 -58.5s-35.666 -29.834 -57.999 -39.501s-46.166 -14.5 -71.499 -14.5s-49.166 4.83301 -71.499 14.5s-41.666 22.834 -57.999 39.501
s-29.333 36.167 -39 58.5s-14.5 46.166 -14.5 71.499v83c0 25.333 4.5 49.166 13.5 71.499s21.333 41.833 37 58.5s34.334 29.834 56.001 39.501s45.167 14.5 70.5 14.5c18.667 0 35 -2.66699 49 -8s26.167 -12.166 36.5 -20.499s18.833 -18 25.5 -29s12 -21.833 16 -32.5h8
c5.33301 11.333 12.666 22.333 21.999 33s20.333 20.334 33 29.001s26.834 15.5 42.501 20.5s32.5 7.5 50.5 7.5c25.333 0 49.166 -4.83301 71.499 -14.5s41.666 -22.834 57.999 -39.501s29.333 -36.167 39 -58.5s14.5 -46.166 14.5 -71.499v-66
c0 -22.667 -7.5 -44.834 -22.5 -66.501s-37.5 -36.834 -67.5 -45.501v-9c17.333 -3.33301 31.833 -9.16602 43.5 -17.499s21 -18.166 28 -29.499s11.833 -23.5 14.5 -36.5s4 -25.5 4 -37.5v-52c0 -25.333 -4.83301 -49.166 -14.5 -71.499s-22.667 -41.833 -39 -58.5
s-35.666 -29.834 -57.999 -39.501s-46.166 -14.5 -71.499 -14.5h-104c-25.333 -0 -49.166 4.83301 -71.499 14.5s-41.833 22.834 -58.5 39.501s-29.834 36.167 -39.501 58.5s-14.5 46.166 -14.5 71.499v3h91v-3c0 -26 9 -48 27 -66s40 -27 66 -27h104zM331.995 544.999
c0 26.667 -8.83301 48.834 -26.5 66.501s-39.834 26.5 -66.501 26.5c-26 0 -48 -8.83301 -66 -26.5s-27 -39.834 -27 -66.501v-84c0 -26.667 9 -48.834 27 -66.501s40 -26.5 66 -26.5c26.667 0 48.834 8.83301 66.501 26.5s26.5 39.834 26.5 66.501v84z" />
    <glyph glyph-name="uni10E5" unicode="&#x10e5;" 
d="M332 510h-89.0039c-23.333 0 -42.666 -5.5 -57.999 -16.5s-23 -31.167 -23 -60.5v-56h-90v40c0 25.333 3.83301 48.666 11.5 69.999s18.5 39.833 32.5 55.5s31.333 27.834 52 36.501s44 13 70 13h94v128h91v-536c0 -26 -4.83301 -50.5 -14.5 -73.5
s-22.834 -43.333 -39.501 -61s-36.167 -31.667 -58.5 -42s-46.166 -15.5 -71.499 -15.5s-49.166 5.16699 -71.499 15.5s-41.666 24.333 -57.999 42s-29.333 38 -39 61s-14.5 47.5 -14.5 73.5v58h90v-66c0 -26 9 -48 27 -66s40 -27 66 -27c26.667 0 48.834 9 66.501 27
s26.5 40 26.5 66v334z" />
    <glyph glyph-name="uni10E6" unicode="&#x10e6;" horiz-adv-x="749" 
d="M361 0c-50.667 0 -94.333 5.33301 -131 16s-67 27.5 -91 50.5s-41.833 53 -53.5 90s-17.5 81.5 -17.5 133.5v248c0 26.667 4.5 51.5 13.5 74.5s21.5 43 37.5 60s35 30.5 57 40.5s46 15 72 15c13.333 0 27.166 -2.33301 41.499 -7s27.833 -11.167 40.5 -19.5
s23.5 -18 32.5 -29s15.167 -22.833 18.5 -35.5h8c4 12.667 10.5 24.667 19.5 36s19.333 21 31 29s24 14.333 37 19s26.167 7 39.5 7c26 0 50 -5 72 -15s41.167 -23.5 57.5 -40.5s29 -37 38 -60s13.5 -47.833 13.5 -74.5v-142c0 -22 -3.83301 -43.333 -11.5 -64
s-18.5 -39.5 -32.5 -56.5s-30.5 -31.667 -49.5 -44s-39.5 -21.166 -61.5 -26.499v106c19.333 8 34.333 19.333 45 34s16 31.667 16 51v147c0 26.667 -7.66699 49 -23 67s-36.666 27 -63.999 27s-48.666 -9 -63.999 -27s-23 -40.333 -23 -67v-153h-93v153
c0 26.667 -7.83301 49 -23.5 67s-37.167 27 -64.5 27c-26.667 0 -47.834 -9 -63.501 -27s-23.5 -40.333 -23.5 -67v-256c0 -36.667 3.83301 -67.834 11.5 -93.501s19.667 -46.667 36 -63s37 -28.333 62 -36s55.167 -11.5 90.5 -11.5h181v-83h-181z" />
    <glyph glyph-name="uni10E7" unicode="&#x10e7;" 
d="M332 341c-14.667 -8.66699 -29.502 -15.667 -44.502 -21s-30.167 -8 -45.5 -8c-25.333 0 -49.333 4.83301 -72 14.5s-42.5 22.667 -59.5 39s-30.333 35.666 -40 57.999s-14.5 46.5 -14.5 72.5v84c0 24 3.16699 49 9.5 75s15.166 47.667 26.499 65h93
c-5.33301 -10 -10.333 -21.167 -15 -33.5s-8.83398 -24.666 -12.501 -36.999s-6.5 -24.5 -8.5 -36.5s-3 -23 -3 -33v-84c0 -26 9 -48 27 -66s40 -27 66 -27c26.667 0 48.834 9 66.501 27s26.5 40 26.5 66v224h91v-536c0 -26 -4.83301 -50.5 -14.5 -73.5
s-22.834 -43.333 -39.501 -61s-36.167 -31.667 -58.5 -42s-46.166 -15.5 -71.499 -15.5s-49.166 5.16699 -71.499 15.5s-41.666 24.333 -57.999 42s-29.333 38 -39 61s-14.5 47.5 -14.5 73.5v45h90v-53c0 -26 9 -48 27 -66s40 -27 66 -27c26.667 0 48.834 9 66.501 27
s26.5 40 26.5 66v165z" />
    <glyph glyph-name="uni10E8" unicode="&#x10e8;" horiz-adv-x="579" 
d="M422 570c0 10.667 -2.33398 20.1689 -7.00098 28.502s-10.834 15.5 -18.501 21.5s-16.167 10.5 -25.5 13.5s-18.666 4.5 -27.999 4.5c-19.333 0 -36.833 -5.5 -52.5 -16.5s-23.5 -28.167 -23.5 -51.5v-56h-93v64c0 16 -5.66699 30 -17 42s-25.333 18 -42 18h-83v85h83
c10.667 0 21.834 -1.66699 33.501 -5s22.5 -8.5 32.5 -15.5s18.833 -15.833 26.5 -26.5s12.5 -23.334 14.5 -38.001h8c13.333 30 30.5 52.5 51.5 67.5s47.167 22.5 78.5 22.5c20.667 0 40.334 -3.33301 59.001 -10s35.167 -16.5 49.5 -29.5s25.666 -28.833 33.999 -47.5
s12.5 -40.334 12.5 -65.001v-388c0 -26 -5 -50.333 -15 -73s-23.5 -42.5 -40.5 -59.5s-36.833 -30.5 -59.5 -40.5s-47 -15 -73 -15h-36c-26 0 -50.333 5 -73 15s-42.5 23.5 -59.5 40.5s-30.5 36.833 -40.5 59.5s-15 47 -15 73v71c0 26 5 50.5 15 73.5s23.5 43 40.5 60
s36.833 30.5 59.5 40.5s47 15 73 15h131v122zM326.999 91.002c26.667 0 49.167 9.16699 67.5 27.5s27.5 40.833 27.5 67.5v168h-131c-26.667 0 -49.167 -9.16699 -67.5 -27.5s-27.5 -40.833 -27.5 -67.5v-73c0 -26.667 9.16699 -49.167 27.5 -67.5s40.833 -27.5 67.5 -27.5
h36z" />
    <glyph glyph-name="uni10E9" unicode="&#x10e9;" horiz-adv-x="498" 
d="M442 0l-93.001 0.00195312v217c0 13.333 -2.33301 26.166 -7 38.499s-11 23.166 -19 32.499s-17.667 16.833 -29 22.5s-23.666 8.5 -36.999 8.5h-99v-319h-94v553c0 26.667 4.83301 50.834 14.5 72.501s23 40.167 40 55.5s37.333 27 61 35s49.167 12 76.5 12
c20 0 39.167 -3 57.5 -9s34.333 -14.667 48 -26s24.5 -25.166 32.5 -41.499s12 -34.833 12 -55.5c0 -17.333 -2.83301 -34.666 -8.5 -51.999s-16.167 -37.666 -31.5 -60.999h-93c14 15.333 24.167 30.166 30.5 44.499s9.5 32.166 9.5 53.499
c0 17.333 -7.16699 31.166 -21.5 41.499s-30.5 15.5 -48.5 15.5c-10 0 -20.167 -1.66699 -30.5 -5s-19.5 -8.83301 -27.5 -16.5s-14.5 -17.334 -19.5 -29.001s-7.5 -25.5 -7.5 -41.5v-131h100c28 0 53.333 -4.66699 76 -14s42 -22.5 58 -39.5s28.333 -37 37 -60
s13 -48.167 13 -75.5v-226z" />
    <glyph glyph-name="uni10EA" unicode="&#x10ea;" horiz-adv-x="585" 
d="M247 0c-25.333 0 -49.1689 4.83594 -71.502 14.5029s-41.666 22.834 -57.999 39.501s-29.333 36.167 -39 58.5s-14.5 46.166 -14.5 71.499v536h90v-536c0 -26.667 9 -48.834 27 -66.501s40 -26.5 66 -26.5h91c26 0 48 9 66 27s27 40.333 27 67v139
c0 21.333 -5.16699 36.333 -15.5 45s-24.5 13 -42.5 13h-98v89h98c17.333 0 31.333 5.66699 42 17s16 25.333 16 42c0 17.333 -1 30.666 -3 39.999s-7.33301 19.333 -16 30l-109 120h109l85 -99c9.33301 -10.667 15.666 -22.334 18.999 -35.001s5 -23.667 5 -33v-22
c0 -10 -2 -20.333 -6 -31s-9.66699 -20.667 -17 -30s-16.666 -17.333 -27.999 -24s-24.333 -11.334 -39 -14.001v-8c33.333 -7.33301 56.666 -20.5 69.999 -39.5s20 -39.167 20 -60.5v-139c0 -25.333 -4.83301 -49.166 -14.5 -71.499s-22.667 -42 -39 -59
s-35.666 -30.333 -57.999 -40s-46.166 -14.5 -71.499 -14.5h-91z" />
    <glyph glyph-name="uni10EB" unicode="&#x10eb;" 
d="M56 322c0 25.333 4.83105 49.166 14.498 71.499s22.834 41.833 39.501 58.5s36.167 29.834 58.5 39.501s46.166 14.5 71.499 14.5h93v214h90v-536c0 -26 -4.83301 -50.5 -14.5 -73.5s-22.667 -43.333 -39 -61s-35.666 -31.667 -57.999 -42s-46.166 -15.5 -71.499 -15.5
s-49.166 5.16699 -71.499 15.5s-41.833 24.333 -58.5 42s-29.834 38 -39.501 61s-14.5 47.5 -14.5 73.5v138zM239.998 415c-26.667 0 -48.834 -9 -66.501 -27s-26.5 -40 -26.5 -66v-146c0 -26 8.83301 -48 26.5 -66s39.834 -27 66.501 -27c26 0 48 9 66 27s27 40 27 66v239
h-93z" />
    <glyph glyph-name="uni10EC" unicode="&#x10ec;" horiz-adv-x="563" 
d="M157 448h131c26 0 50.333 -5 73 -15s42.5 -23.5 59.5 -40.5s30.5 -37 40.5 -60s15 -47.5 15 -73.5v-71c0 -26 -5 -50.333 -15 -73s-23.5 -42.5 -40.5 -59.5s-36.833 -30.5 -59.5 -40.5s-47 -15 -73 -15h-36c-26 0 -50.5 5 -73.5 15s-43 23.5 -60 40.5
s-30.333 36.833 -40 59.5s-14.5 47 -14.5 73v388c0 24.667 4.5 46.334 13.5 65.001s21 34.5 36 47.5s32.167 22.833 51.5 29.5s39.333 10 60 10c18 0 33.5 -2.5 46.5 -7.5s24.167 -11.833 33.5 -20.5s17 -18.334 23 -29.001s11 -22 15 -34h8c8 23.333 20 43.5 36 60.5
s39 25.5 69 25.5h75v-86h-75c-16.667 0 -30.667 -4.5 -42 -13.5s-17 -22.167 -17 -39.5v-57h-93v43c0 23.333 -7 40.333 -21 51s-30.667 16 -50 16s-36.833 -5.83301 -52.5 -17.5s-23.5 -28.167 -23.5 -49.5v-122zM157 354v-168c0 -26.667 9.16699 -49.167 27.5 -67.5
s40.833 -27.5 67.5 -27.5h36c26.667 0 49.167 9.16699 67.5 27.5s27.5 40.833 27.5 67.5v73c0 26.667 -9.16699 49.167 -27.5 67.5s-40.833 27.5 -67.5 27.5h-131z" />
    <glyph glyph-name="uni10ED" unicode="&#x10ed;" horiz-adv-x="555" 
d="M226 227c-53.333 0 -95 15 -125 45s-45 71.667 -45 125v30c0 26 4.83301 49.667 14.5 71s23 39.5 40 54.5s37 26.5 60 34.5s47.5 12 73.5 12h76v121h94v-121h105v-93h-105v-318c0 -26 -5 -50.5 -15 -73.5s-23.5 -43 -40.5 -60s-37 -30.333 -60 -40
s-47.5 -14.5 -73.5 -14.5h-153v91h153c27.333 0 50 9.16699 68 27.5s27 40.833 27 67.5v41h-94zM320 320l-0.000976562 186h-76c-27.333 0 -50.166 -6.16699 -68.499 -18.5s-27.5 -32.5 -27.5 -60.5v-30c0 -51.333 26 -77 78 -77h94z" />
    <glyph glyph-name="uni10EE" unicode="&#x10ee;" 
d="M431 184c0 -26 -4.83496 -50.5 -14.502 -73.5s-22.834 -43.333 -39.501 -61s-36.167 -31.667 -58.5 -42s-46.166 -15.5 -71.499 -15.5s-49.166 5.16699 -71.499 15.5s-41.666 24.333 -57.999 42s-29.333 38 -39 61s-14.5 47.5 -14.5 73.5v536h90v-214h93
c25.333 0 49.166 -4.83301 71.499 -14.5s41.833 -22.834 58.5 -39.501s29.834 -36.167 39.501 -58.5s14.5 -46.166 14.5 -71.499v-138zM153.998 415v-239c0 -26 9 -48 27 -66s40 -27 66 -27c26.667 0 48.834 9 66.501 27s26.5 40 26.5 66v146c0 26 -8.83301 48 -26.5 66
s-39.834 27 -66.501 27h-93z" />
    <glyph glyph-name="uni10EF" unicode="&#x10ef;" horiz-adv-x="479" 
d="M56 631h137.996v89h90v-89h139v-91h-139v-103c44 0 78.167 -14 102.5 -42s36.5 -64 36.5 -108v-103c0 -26 -4.83301 -50.5 -14.5 -73.5s-22.667 -43.333 -39 -61s-35.666 -31.667 -57.999 -42s-46.166 -15.5 -71.499 -15.5s-49.166 5.16699 -71.499 15.5
s-41.833 24.333 -58.5 42s-29.834 38 -39.501 61s-14.5 47.5 -14.5 73.5v80h90v-88c0 -26 9 -48 27 -66s40 -27 66 -27c26.667 0 48.834 9 66.501 27s26.5 40 26.5 66v111c0 12 -0.666992 21.833 -2 29.5s-4.16602 13.667 -8.49902 18s-10.333 7.33301 -18 9
s-17.5 2.5 -29.5 2.5h-80v194h-138v91z" />
    <glyph glyph-name="uni10F0" unicode="&#x10f0;" 
d="M146 184c0 -26 6.33301 -48.001 19 -66.001s31.667 -27 57 -27h34c25.333 0 44.333 9 57 27s19 40 19 66v112h-138v72h148v100h-148v72h149c-0.666992 12.667 -2.83398 25 -6.50098 37s-8.66699 22.5 -15 31.5s-14.166 16.167 -23.499 21.5s-20 8 -32 8h-142v82h132
c52 0 92.833 -16 122.5 -48s44.5 -74 44.5 -126v-361c0 -25.333 -3.83301 -49.166 -11.5 -71.499s-18.667 -42 -33 -59s-31.833 -30.333 -52.5 -40s-44 -14.5 -70 -14.5h-34c-26 -0 -49.333 4.83301 -70 14.5s-38 22.834 -52 39.501s-24.833 36.167 -32.5 58.5
s-11.5 46.166 -11.5 71.499v23h90v-23z" />
    <glyph glyph-name="endash" unicode="&#x2013;" horiz-adv-x="551" 
d="M495 251v-72h-439v72h439z" />
    <glyph glyph-name="emdash" unicode="&#x2014;" horiz-adv-x="956" 
d="M900 251v-72h-844v72h844z" />
    <glyph glyph-name="quoteleft" unicode="&#x2018;" horiz-adv-x="238" 
d="M173 552c-21.333 -23.333 -33.3311 -48.3311 -35.998 -74.998c15.333 -6 26.666 -14 33.999 -24s11 -21 11 -33c0 -16.667 -6 -30.334 -18 -41.001s-26 -16 -42 -16c-20.667 0 -36.834 7.66699 -48.501 23s-17.5 35.666 -17.5 60.999c0 62 39 107 117 135v-30z" />
    <glyph glyph-name="quoteright" unicode="&#x2019;" horiz-adv-x="236" 
d="M65 388c10 9.33301 17.5 19.501 22.5 30.501s8.83301 23.833 11.5 38.5c-13.333 6.66699 -23.833 15.167 -31.5 25.5s-11.5 21.5 -11.5 33.5c0 17.333 5.66699 32.166 17 44.499s25.333 18.5 42 18.5c19.333 0 35 -8.16699 47 -24.5s18 -37.166 18 -62.499
c0 -30.667 -10.167 -57.834 -30.5 -81.501s-48.5 -42.167 -84.5 -55.5v33z" />
    <glyph glyph-name="quotedblleft" unicode="&#x201c;" horiz-adv-x="420" 
d="M115 717h101c-11.333 -24 -21 -45.833 -29 -65.5s-17.667 -41.167 -29 -64.5h-102zM263 717h100.999l-28.5 -65.5c-8.33301 -19.667 -18.166 -41.167 -29.499 -64.5h-101z" />
    <glyph glyph-name="quotedblright" unicode="&#x201d;" horiz-adv-x="420" 
d="M115 717h101c-11.333 -24 -21 -45.833 -29 -65.5s-17.667 -41.167 -29 -64.5h-102zM263 717h100.999l-28.5 -65.5c-8.33301 -19.667 -18.166 -41.167 -29.499 -64.5h-101z" />
    <glyph glyph-name="bullet" unicode="&#x2022;" horiz-adv-x="334" 
d="M56 285c0 15.333 3.00195 29.833 9.00195 43.5s14 25.5 24 35.5s21.667 18 35 24s27.666 9 42.999 9c14.667 0 28.667 -2.83301 42 -8.5s25.166 -13.5 35.499 -23.5s18.5 -21.833 24.5 -35.5s9 -28.5 9 -44.5c0 -14.667 -3 -28.667 -9 -42s-14 -25.166 -24 -35.499
s-21.833 -18.5 -35.5 -24.5s-27.834 -9 -42.501 -9c-15.333 0 -29.666 3 -42.999 9s-25 14 -35 24s-18 21.667 -24 35s-9 27.666 -9 42.999z" />
    <glyph glyph-name="guilsinglleft" unicode="&#x2039;" horiz-adv-x="335" 
d="M279 0h-95l-64 96l-64 96l64 96l64 95h95l-128 -191z" />
    <glyph glyph-name="Euro" unicode="&#x20ac;" horiz-adv-x="654" 
d="M526 449c-1.33301 -11.333 -3.16699 -21.501 -5.5 -30.501s-4.5 -18.5 -6.5 -28.5h-304c-1.33301 -7.33301 -2 -13.666 -2 -18.999v-17v-15c0 -6 0.666992 -15.333 2 -28h291c-1.33301 -11.333 -3.33301 -21.333 -6 -30s-4.66699 -18 -6 -28h-271
c34 -124.667 103.667 -187 209 -187c28.667 0 57.167 5.16699 85.5 15.5s55.833 25.166 82.5 44.499v-86c-23.333 -16.667 -49.333 -28.834 -78 -36.501s-60 -11.5 -94 -11.5c-76 0 -138.833 23 -188.5 69s-83.167 110 -100.5 192h-78
c1.33301 11.333 3.16602 21.333 5.49902 30s4.16602 18 5.49902 28h60v42c0 12 0.666992 24.333 2 37h-73c1.33301 11.333 3 21.5 5 30.5s3.66699 18.5 5 28.5h72c10.667 40.667 25.334 77 44.001 109s40.5 59.333 65.5 82s52.833 40 83.5 52s63.334 18 98.001 18
c52.667 0 109 -10.333 169 -31c-2.66699 -13.333 -5.5 -26.166 -8.5 -38.499s-5.83301 -25.166 -8.5 -38.499c-57.333 22.667 -108.666 34 -153.999 34c-102.667 0 -172.334 -62.333 -209.001 -187h308z" />
    <glyph glyph-name="trademark" unicode="&#x2122;" horiz-adv-x="873" 
d="M185 657h-129v59h325v-59h-130v-339h-66v339zM425 716h98l101 -318l97 318h96v-398h-61v334l-102 -334h-61l-106 339v-339h-62v398z" />
    <glyph glyph-name="minus" unicode="&#x2212;" horiz-adv-x="382" 
d="M56 303h270v-88h-270v88z" />
    </font>
</defs>
</svg>
